<svg class="main-svg" xmlns="http://www.w3.org/2000/svg" xmlns:xlink="http://www.w3.org/1999/xlink" width="600" height="500" style="" viewBox="0 0 600 500"><rect x="0" y="0" width="600" height="500" style="fill: rgb(255, 255, 255); fill-opacity: 1;"/><defs id="defs-73b614"><g class="clips"><clipPath id="clip73b614xyplot" class="plotclip"><rect width="426" height="320"/></clipPath><clipPath class="axesclip" id="clip73b614x"><rect x="80" y="0" width="426" height="500"/></clipPath><clipPath class="axesclip" id="clip73b614y"><rect x="0" y="100" width="600" height="320"/></clipPath><clipPath class="axesclip" id="clip73b614xy"><rect x="80" y="100" width="426" height="320"/></clipPath><clipPath class="contourclip" id="clipe00f61"><path d="M0,0L426,0L426,320L0,320Z"/></clipPath></g><g class="gradients"/></defs><g class="bglayer"><rect class="bg" x="80" y="100" width="426" height="320" style="fill: rgb(229, 236, 246); fill-opacity: 1; stroke-width: 0;"/></g><g class="layer-below"><g class="imagelayer"/><g class="shapelayer"/></g><g class="cartesianlayer"><g class="subplot xy"><g class="layer-subplot"><g class="shapelayer"/><g class="imagelayer"/></g><g class="gridlayer"><g class="x"><path class="xgrid crisp" transform="translate(186.5,0)" d="M0,100v320" style="stroke: rgb(255, 255, 255); stroke-opacity: 1; stroke-width: 1px;"/><path class="xgrid crisp" transform="translate(399.5,0)" d="M0,100v320" style="stroke: rgb(255, 255, 255); stroke-opacity: 1; stroke-width: 1px;"/></g><g class="y"><path class="ygrid crisp" transform="translate(0,366.67)" d="M80,0h426" style="stroke: rgb(255, 255, 255); stroke-opacity: 1; stroke-width: 1px;"/><path class="ygrid crisp" transform="translate(0,313.33000000000004)" d="M80,0h426" style="stroke: rgb(255, 255, 255); stroke-opacity: 1; stroke-width: 1px;"/><path class="ygrid crisp" transform="translate(0,206.67000000000002)" d="M80,0h426" style="stroke: rgb(255, 255, 255); stroke-opacity: 1; stroke-width: 1px;"/><path class="ygrid crisp" transform="translate(0,153.32999999999998)" d="M80,0h426" style="stroke: rgb(255, 255, 255); stroke-opacity: 1; stroke-width: 1px;"/></g></g><g class="zerolinelayer"><path class="xzl zl crisp" transform="translate(293,0)" d="M0,100v320" style="stroke: rgb(255, 255, 255); stroke-opacity: 1; stroke-width: 2px;"/><path class="yzl zl crisp" transform="translate(0,260)" d="M80,0h426" style="stroke: rgb(255, 255, 255); stroke-opacity: 1; stroke-width: 2px;"/></g><path class="xlines-below"/><path class="ylines-below"/><g class="overlines-below"/><g class="xaxislayer-below"/><g class="yaxislayer-below"/><g class="overaxes-below"/><g class="plot" transform="translate(80, 100)" clip-path="url('#clip73b614xyplot')"><g class="contourlayer mlayer"><g class="contour" clip-path="url('#clipe00f61')" style="opacity: 1;"><g class="heatmapcoloring"/><g class="contourbg"><path d="M0,0L426,0L426,320L0,320Z" style="stroke: none; fill: rgb(103, 0, 31);"/></g><g class="contourfill"><path d="M0,0L426,0L426,320L0,320ZM287.71,252.63C287.84,253.45 289.62,254.1 291.47,254.45C295.79,255.26 314.18,253.52 314.21,252.63C314.24,251.74 295.7,247.79 291.47,249.1C289.47,249.72 287.57,251.72 287.71,252.63ZM134.16,236.26C137.86,241.19 149.27,243.21 156.95,244.39C164.35,245.53 173.54,245.62 179.37,243.57C183.81,242.01 190.19,237.48 189.83,235.79C189.51,234.25 183.51,234.4 179.37,233.4C173.3,231.93 163.84,230.2 156.95,227.64C150.63,225.29 143.44,221.4 139.47,218.95C137.24,217.57 135.59,214.93 134.53,215.24C133.68,215.49 133.38,217.22 133.12,218.95C132.57,222.57 131.02,232.08 134.16,236.26ZM220.3,202.11C220.17,205.06 222.62,211.48 224.21,211.61C225.87,211.75 230.29,205.04 230.13,202.11C229.98,199.4 225.88,194.42 224.21,194.58C222.64,194.73 220.42,199.42 220.3,202.11ZM244.55,168.42C244.55,171.68 245.84,178.19 246.63,178.21C247.42,178.23 249.3,171.68 249.3,168.42C249.3,165.16 247.42,158.62 246.63,158.64C245.84,158.66 244.55,165.16 244.55,168.42Z" style="stroke: none; fill: rgb(157, 17, 40);"/><path d="M0,0L426,0L426,320L0,320ZM142.63,252.63C146.69,254.21 151.6,255.96 156.95,257.39C163.54,259.15 171.87,261.67 179.37,261.95C186.82,262.23 194.3,259.61 201.79,259.11C209.25,258.61 216.74,259.33 224.21,258.96C231.69,258.59 239.16,257.67 246.63,256.87C254.11,256.07 261.74,253 269.05,254.18C276.7,255.41 283.8,262.97 291.47,264.7C298.77,266.35 308.62,267.57 313.89,264.83C318.18,262.6 322.48,256.53 322.36,252.63C322.25,248.89 317.52,244.64 313.89,241.87C310.02,238.92 303.7,237.16 299.55,235.79C296.52,234.79 294.87,234.23 291.47,233.84C285.89,233.2 276.5,234.61 269.05,234.01C261.55,233.4 250.66,233.75 246.63,230.18C243.74,227.62 242.99,222.17 243.27,218.95C243.49,216.37 245.44,214.68 246.63,212.2C248.08,209.18 249.45,205.88 251.31,202.11C253.74,197.18 258.76,191.06 260.14,185.26C261.44,179.81 261.11,173.91 259.89,168.42C258.61,162.67 255.05,155.46 252.29,151.58C250.5,149.06 248.23,146.06 246.63,146.23C245.16,146.38 244.21,149.2 242.94,151.58C240.83,155.54 239.51,163.61 236.29,168.42C233.19,173.06 226.97,176.88 224.21,180.1C222.52,182.07 222.23,183.09 220.57,185.26C217.47,189.31 210.11,198.31 206.59,202.11C204.64,204.21 204.01,204.95 201.79,206.75C197.78,210 187.65,216.42 183.67,218.95C181.76,220.16 181.03,221.37 179.37,221.53C177.34,221.73 175.13,219.67 172.27,218.95C168.18,217.92 162.09,218.87 156.95,216.74C150.5,214.06 141.04,208.05 137.46,202.11C134.41,197.05 136.71,186.03 134.66,184.605C133.76,183.98 132.24,184.34 131.33,185.26C129.28,187.33 129.49,196.52 128.22,202.11C126.94,207.75 124.34,213.29 123.69,218.95C123.05,224.52 122.42,230.78 124.24,235.79C126.05,240.79 130.94,246.17 134.53,248.99C137.15,251.04 139.51,251.42 142.63,252.63Z" style="stroke: none; fill: rgb(193, 55, 58);"/><path d="M0,0L426,0L426,320L0,320ZM167.39,269.47C171.24,270.52 174.71,271.95 179.37,272.57C185.64,273.4 194.32,272.65 201.79,272.82C209.26,272.99 216.74,273.71 224.21,273.57C231.69,273.43 240.07,272.81 246.63,271.99C251.83,271.34 256.48,270.39 260.53,269.47C263.73,268.74 266.52,266.97 269.05,267.12C271.16,267.25 272.31,268.7 274.75,269.47C278.82,270.75 285.45,272.49 291.47,273.22C298.36,274.05 308.82,275.13 313.89,273.68C316.86,272.83 318.2,271.69 320.34,269.47C323.76,265.93 330.74,258.17 330.5,252.63C330.26,246.93 321.66,238.38 318.26,235.79C316.65,234.56 315.93,234.81 313.89,234.15C309.33,232.67 298.42,230.63 291.47,227.96C285,225.48 276.91,223.56 273.43,218.95C270.22,214.7 270.67,207.75 270.24,202.11C269.82,196.52 271,190.93 270.85,185.26C270.69,179.46 271.12,173.21 269.27,167.69C267.35,161.96 263.1,156.33 259.21,151.58C255.5,147.05 250.19,139.32 246.63,139.7C243.38,140.04 241.28,147.24 238.44,151.58C235.12,156.67 230.83,164.94 228.03,168.42C226.58,170.23 225.67,170.42 224.21,172.12C221.68,175.08 218.5,181.02 214.94,185.26C211.11,189.82 204.73,195.39 201.79,198.44C200.27,200.02 200.09,200.6 198.39,202.11C194.71,205.38 186.34,214.35 179.37,215.97C172.51,217.56 163.18,214.74 156.95,212.04C151.63,209.74 146.86,206.45 143.71,202.11C140.44,197.61 139.5,190.94 137.97,185.26C136.46,179.67 138.07,172.6 134.575,168.315C130.42,163.23 116.64,157.25 112.11,158.85C109.08,159.92 107.73,164.65 106.98,168.42C106.05,173.13 107.73,180.14 108.7,185.26C109.54,189.67 110.84,194.34 112.11,197.39C112.94,199.39 114.24,199.95 114.77,202.11C115.71,205.91 114.28,213.34 114.27,218.95C114.26,224.56 112.94,230.43 114.69,235.79C116.62,241.71 122.48,248.71 126.38,252.63C129.1,255.37 130.98,256.52 134.53,258.37C140.02,261.22 150.86,264.47 156.95,266.45C161.06,267.78 163.78,268.48 167.39,269.47Z" style="stroke: none; fill: rgb(218, 106, 85);"/><path d="M0,0L426,0L426,320L0,320ZM142.39,269.47C146.5,271.02 151.52,273.31 156.95,275.02C163.57,277.1 171.84,279.59 179.37,280.65C186.79,281.7 194.32,281.19 201.79,281.42C209.26,281.65 216.74,282.21 224.21,282.05C231.69,281.89 239.18,281.38 246.63,280.47C254.13,279.55 261.57,276.57 269.05,276.53C276.52,276.49 283.97,279.55 291.47,280.23C298.92,280.91 307.18,282.57 313.89,280.64C320.29,278.8 327.2,273.73 330.99,269.47C333.89,266.21 334.95,261.87 336.32,258.77C337.34,256.47 338.79,254.54 338.71,252.63C338.64,250.9 337.4,249.71 336.32,247.76C334.58,244.62 332.41,238.7 328.86,235.79C325.08,232.69 319.39,232.19 313.89,230.17C307.18,227.7 296.6,224.28 291.47,222.08C288.69,220.89 287.23,220.87 285.2,218.95C281.83,215.76 277.34,207.93 275.64,202.11C274.05,196.68 275.23,190.87 274.75,185.26C274.26,179.64 273.8,173.55 272.73,168.42C271.8,163.96 270.44,159.17 269.05,156.14C268.15,154.17 267.72,153.45 266.13,151.58C262.68,147.52 252.62,134 247.0925,134.5025C242.02,134.97 237.95,146.19 233.93,151.58C230.4,156.31 226.29,162.05 224.21,165.06C223.19,166.54 223.07,166.89 221.99,168.42C219.53,171.91 213.13,180.86 209.31,185.26C206.6,188.39 204.36,190.13 201.79,192.8C198.99,195.72 196.55,199.11 193.17,202.11C189.25,205.59 184.83,211 179.37,212.16C173.05,213.5 162.14,209.71 156.95,207.35C153.75,205.89 152.15,204.69 149.96,202.11C146.73,198.31 143.28,191.02 141.16,185.26C139.14,179.77 138.75,172.54 137.33,168.42C136.45,165.88 136.34,164.49 134.53,162.5C131.26,158.91 120.03,154.09 116.15,151.58C114.29,150.38 113.5,148.78 112.11,148.75C110.67,148.72 109.07,149.92 107.64,151.58C104.97,154.68 101.13,162.69 100.24,168.42C99.38,173.92 101.07,179.67 102.01,185.26C102.96,190.91 105.27,196.46 105.93,202.11C106.58,207.69 105.96,213.34 105.99,218.95C106.02,224.56 104.94,230.68 106.1,235.79C107.16,240.47 110.41,245.54 112.11,248.57C113.11,250.35 113.26,251.05 114.79,252.63C118.2,256.15 129.29,263.77 134.53,266.53C137.62,268.16 139.37,268.33 142.39,269.47Z" style="stroke: none; fill: rgb(240, 155, 122);"/><path d="M0,0L426,0L426,320L0,320ZM169.15,286.32C172.72,287.27 175.26,288.57 179.37,289.26C185.35,290.26 194.31,290.13 201.79,290.41C209.26,290.69 216.74,291.09 224.21,290.92C231.69,290.75 239.85,290.25 246.63,289.36C252.33,288.61 258.11,287.08 262.25,286.32C264.98,285.82 266.49,285.24 269.05,285.15C272.34,285.04 276.63,285.9 280.39,286.32C284.11,286.74 287.12,287.35 291.47,287.66C297.63,288.1 309.59,289.07 313.89,288.14C315.76,287.74 315.98,287.23 317.7,286.32C321.59,284.26 332.18,278.91 336.32,275.5C338.85,273.42 340.05,272.19 341.6,269.47C343.9,265.43 347.34,258.19 347.07,252.63C346.8,246.96 342.21,238.56 339.76,235.79C338.62,234.5 338.03,234.54 336.32,233.76C332.16,231.86 320.9,228.79 313.89,226.19C307.57,223.84 299.97,221.11 296.05,218.95C293.93,217.78 293.17,217.31 291.47,215.67C288.51,212.81 283.18,207.19 281.04,202.11C278.91,197.05 279.48,190.87 278.64,185.26C277.79,179.64 277.25,173.99 275.97,168.42C274.67,162.76 272.31,154.94 270.87,151.58C270.21,150.04 270.11,149.71 269.05,148.38C266.57,145.27 258.39,138.02 254.14,134.74C251.32,132.56 248.88,129.72 246.63,129.89C244.59,130.04 243.14,132.47 241.12,134.74C237.74,138.53 232.56,147.15 229.42,151.58C227.35,154.5 226.01,156.21 224.21,158.81C222.17,161.77 220.56,164.82 217.85,168.42C214,173.54 207.81,180.5 202.735,186.20999999999998C197.84,191.72 192.39,198.18 187.95,202.11C184.85,204.86 183.13,207.65 179.37,208.36C173.77,209.42 162.5,206.45 156.58499999999998,202.38C151,198.53 147.11,191.21 144.34,185.26C141.82,179.85 141.85,173.44 140.04,168.42C138.48,164.1 137.13,159.64 134.53,156.78C132.22,154.24 128.98,153.64 125.78,151.58C121.69,148.94 116.82,142.13 112.11,142.02C107.24,141.91 100.11,147.11 97.02,151.58C93.98,155.96 93.79,162.78 93.51,168.42C93.23,174.01 94.54,179.66 95.32,185.26C96.11,190.89 97.78,196.47 98.23,202.11C98.68,207.7 98.1,213.34 98.04,218.95C97.98,224.56 96.93,230.26 97.86,235.79C98.82,241.49 101.15,248.15 103.89,252.63C106.14,256.3 108.96,258.66 112.11,261.36C115.55,264.31 120.04,267.02 123.92,269.47C127.51,271.73 130.23,273.64 134.53,275.6C140.52,278.33 150.57,281.45 156.95,283.33C161.59,284.7 165.27,285.29 169.15,286.32Z" style="stroke: none; fill: rgb(249, 196, 169);"/><path d="M0,0L426,0L426,320L0,320ZM138.03,286.32C141.84,287.73 150.28,292.1 156.95,294.19C164.01,296.4 171.85,298.1 179.37,299.05C186.8,299.99 194.32,299.71 201.79,299.9C209.26,300.09 216.74,300.3 224.21,300.18C231.69,300.06 239.17,299.82 246.63,299.16C254.12,298.5 261.57,296.44 269.05,296.21C276.51,295.98 283.99,297.45 291.47,297.76C298.94,298.07 306.51,299.63 313.89,298.05C321.82,296.36 330.86,292.15 337.345,287.18C343.47,282.48 349.2,275.7 352.16,269.47C354.71,264.1 355.54,258.23 355.42,252.63C355.3,247 354.57,240.07 351.4,235.79C348.22,231.49 342.05,229.14 336.32,226.92C329.76,224.38 319.44,223.91 313.89,222.22C310.47,221.18 308.8,220.58 305.84,218.95C301.62,216.62 294.87,211.94 291.47,208.65C289.15,206.4 287.8,204.98 286.44,202.11C284.47,197.95 283.75,190.89 282.54,185.26C281.34,179.66 280.61,174 279.2,168.42C277.77,162.77 276,156.19 274.01,151.58C272.51,148.1 271.2,145.55 269.05,142.85C266.69,139.9 263.57,137.36 260.18,134.74C256.25,131.71 250.7,125.68 246.63,125.98C242.94,126.25 239.94,131.09 236.68,134.74C232.56,139.35 228.45,146.35 224.56,152.065C220.81,157.57 217.59,163.33 213.71,168.42C209.98,173.32 204.2,179.12 201.79,182.11C200.67,183.5 200.66,183.85 199.45,185.26C196.48,188.72 186.26,199.08 182.73,202.11C181.25,203.38 180.86,204.27 179.37,204.55C177.09,204.98 173.31,203.05 169.92,202.11C165.93,201 160.59,200.81 156.95,198.23C152.99,195.43 149.87,190.1 147.52,185.26C145.06,180.21 144.82,173.97 142.74,168.42C140.58,162.66 138.96,156.46 134.68,151.34500000000003C129.5,145.15 119.87,136.17 112.11,135.29C104.84,134.47 94.19,140.96 89.68,144.58C87,146.73 85.86,148.56 84.78,151.58C83.26,155.83 83.1,162.83 83.47,168.42C83.85,174.06 85.92,180.4 87.08,185.26C87.97,189.01 89.1,192.14 89.68,195.17C90.16,197.67 90.39,199.29 90.53,202.11C90.74,206.49 90.26,213.34 90.1,218.95C89.93,224.56 89.03,230.21 89.54,235.79C90.05,241.44 90.67,247.29 93.2,252.63C96.02,258.59 102.9,265.79 106.57,269.47C108.68,271.58 109.53,272.23 112.11,273.89C116.97,277.01 130.26,283.42 134.53,285.18C136.17,285.85 136.41,285.72 138.03,286.32Z" style="stroke: none; fill: rgb(251, 227, 213);"/><path d="M0,0L426,0L426,320L0,320ZM138.17,303.16C142.03,304.49 150.29,309.31 156.95,311.38C163.98,313.57 171.86,314.87 179.37,315.71C186.81,316.54 194.32,316.29 201.79,316.43C209.26,316.57 216.74,316.68 224.21,316.58C231.68,316.48 239.17,316.33 246.63,315.83C254.11,315.33 261.57,313.79 269.05,313.56C276.52,313.33 284,314.28 291.47,314.47C298.94,314.66 306.51,315.82 313.89,314.7C321.46,313.55 331.31,309.99 336.32,307.49C339.15,306.08 340.04,305.24 342.44,303.16C346.7,299.48 353.82,291.93 358.64,286.11C363.14,280.68 368.13,275.33 370.61,269.47C372.87,264.12 373.61,258.24 373.61,252.63C373.61,247.02 373.2,240.36 370.6,235.79C368.11,231.41 363.69,228.08 358.74,225.53C352.73,222.44 342.48,221.14 336.32,220.08C332.09,219.35 329.16,219.27 325.49,218.95C321.69,218.62 318.12,219.71 313.89,218.15C307.36,215.74 296.18,207.98 291.68,201.685C288.12,196.71 287.98,190.8 286.44,185.26C284.9,179.71 283.98,174.01 282.44,168.42C280.89,162.78 279.44,156.85 277.15,151.58C274.94,146.5 271.24,140.07 269.05,137.32C267.99,135.99 267.66,135.84 266.23,134.74C262.69,132.01 252.51,121.64 246.63,122.08C241.3,122.48 236.14,130.38 232.24,134.74C228.91,138.47 226.27,143.09 224.21,146.22C222.83,148.32 222.35,149.31 220.89,151.58C218.27,155.65 213.14,163.78 209.58,168.42C206.86,171.97 204.15,174.43 201.79,177.36C199.64,180.03 198.55,182.31 195.94,185.26C191.96,189.75 185.8,199.44 179.37,200.92C172.84,202.42 161.8,197.35 156.95,193.85C153.69,191.5 152.48,188.77 150.71,185.26C148.43,180.73 147.52,173.98 145.45,168.42C143.34,162.75 140.29,155.64 138.13,151.58C136.83,149.12 136.43,147.91 134.53,145.91C131.31,142.51 122.93,137.75 118.81,134.74C116.09,132.76 115.23,130.88 112.11,129.72C107,127.83 96.45,127.14 89.68,128.21C83.7,129.16 76.85,130.83 73.39,134.74C69.95,138.63 69.64,145.92 68.93,151.58C68.23,157.15 68.83,162.81 69.08,168.42C69.33,174.04 69.95,179.65 70.42,185.26C70.89,190.88 71.73,196.49 71.89,202.11C72.05,207.72 71.56,213.34 71.4,218.95C71.25,224.56 70.63,230.19 70.96,235.79C71.3,241.42 71.46,247.21 73.42,252.63C75.54,258.47 80.54,265.52 83.76,269.47C85.83,272.01 87.32,272.87 89.68,275.03C93.1,278.15 98.34,283.12 102.38,286.32C105.76,289 108.04,290.96 112.11,293.18C117.91,296.34 130.21,300.8 134.53,302.22C136.23,302.78 136.52,302.59 138.17,303.16Z" style="stroke: none; fill: rgb(247, 247, 247);"/><path d="M313.89,213.67C307.78,211.86 301.84,206.62 298.03,202.11C294.73,198.19 292.7,191.92 291.47,188.86C290.85,187.31 290.83,186.91 290.34,185.26C289.29,181.72 287.35,174.02 285.68,168.42C284,162.79 282.62,157.09 280.28,151.58C277.85,145.85 273.34,137.96 271.25,134.74C270.34,133.34 270.33,133.05 269.05,131.9C265.58,128.8 253.57,117.58 246.63,118.18C239.85,118.77 231.49,130.62 227.8,134.74C225.96,136.8 225.58,137.79 224.21,139.87C222.18,142.96 219.72,147.36 216.97,151.58C213.62,156.72 208.29,164.74 205.44,168.42C203.95,170.34 203.24,170.8 201.79,172.61C199.34,175.66 196,181.22 192.42,185.26C188.59,189.58 184.71,196.49 179.37,197.6C173.21,198.88 160.82,192.38 156.95,189.47C155.14,188.11 154.91,187.24 153.89,185.26C152,181.61 150.23,174.01 148.16,168.42C146.07,162.78 143.94,156.48 141.43,151.58C139.32,147.45 137.27,143.59 134.53,140.71C132.08,138.13 129.26,137.03 126.12,134.74C122.03,131.75 117.54,127.07 112.11,124.24C105.94,121.02 97.35,120.84 90.64,117.185C83.49,113.29 73.86,107.28 70.7,101.05C68.13,96 69.61,89.81 69.87,84.21C70.13,78.58 71.29,72.97 72.26,67.37C73.24,61.74 73.92,56.04 75.74,50.53C77.63,44.8 80.73,37.89 83.52,33.68C85.48,30.72 87.37,29.36 89.68,26.9C92.54,23.86 95.8,19.87 99.44,16.84C103.24,13.68 107.03,10.31 112.11,8.4C118.31,6.07 127.09,5.08 134.53,5.43C142.03,5.78 149.45,9.14 156.95,10.55C164.4,11.95 171.93,14.17 179.37,13.85C186.87,13.52 194.28,9.82 201.79,8.52C209.22,7.23 216.73,6.69 224.21,6.06C231.68,5.43 239.15,4.92 246.63,4.74C254.1,4.56 261.7,3.59 269.05,4.99C276.66,6.44 286.67,11.19 291.47,13.58C293.9,14.79 294.41,15.59 296.71,16.84C300.74,19.03 308.25,22.11 313.89,24.93C319.49,27.73 326.26,31.76 330.42,33.68C332.84,34.8 333.95,34.64 336.32,36.03C340.82,38.67 350.45,45.71 354.18,50.53C356.76,53.86 357.04,57.55 358.74,60.49C360.23,63.07 362.4,64.39 363.61,67.37C365.33,71.6 366.95,78.66 366.28,84.21C365.57,90.02 361.14,95.71 359.015,101.435C356.97,106.94 354.81,112.31 353.72,117.89C352.64,123.41 352.18,129.14 352.45,134.74C352.72,140.37 354.48,145.96 355.37,151.58C356.26,157.19 357.26,162.79 357.77,168.42C358.28,174.02 358.84,179.67 358.46,185.26C358.08,190.9 358.67,197.69 355.48,202.11C351.89,207.1 343.19,210.55 336.32,212.49C329.34,214.45 320.43,215.61 313.89,213.67Z" style="stroke: none; fill: rgb(220, 234, 242);"/><path d="M313.89,209.2C309.73,208.28 307,205.41 304.17,202.11C300.61,197.97 297.76,189.85 295.43,185.26C293.84,182.12 292.55,180.07 291.47,177.29C290.37,174.46 289.97,171.84 288.92,168.42C287.47,163.69 285.64,157.12 283.42,151.58C281.14,145.89 278.14,139.24 275.37,134.74C273.31,131.39 271.88,129.09 269.05,126.56C265.46,123.35 258.87,120.4 254.78,117.89C251.68,115.99 249.12,112.68 246.63,112.83C244.34,112.97 242.85,115.64 240.32,117.89C236.03,121.69 228.37,128.29 223.735,134.10500000000002C219.38,139.57 216.76,145.89 213.04,151.58C209.36,157.22 205.51,162.56 201.55,168.08999999999997C197.47,173.78 193.02,180.6 188.9,185.26C185.67,188.92 183.52,193.5 179.37,194.27C173.74,195.31 161.85,190 157.115,185.11C153.04,180.9 152.92,174 150.86,168.42C148.79,162.82 147.46,157.01 144.74,151.58C141.9,145.89 138.85,140.22 133.985,135.125C128.1,128.96 118.27,123.75 110.7,118.33C103.52,113.2 93.46,106.3 89.68,103.43C88.23,102.33 87.55,102.43 86.76,101.05C85.07,98.11 83.72,89.8 84.15,84.21C84.59,78.48 88,72.78 89.575,67.095C91.11,61.56 91.43,55.94 93.52,50.53C95.74,44.78 99.29,38 102.83,33.68C105.65,30.24 108.03,27.81 112.11,25.82C117.72,23.08 127.07,21.04 134.53,21.14C142.01,21.24 149.44,25.14 156.95,26.46C164.38,27.76 171.93,29.38 179.37,29.02C186.87,28.66 194.29,25.43 201.79,24.23C209.23,23.04 216.73,22.46 224.21,21.81C231.68,21.17 239.15,20.54 246.63,20.36C254.1,20.18 261.74,19.13 269.05,20.75C276.7,22.44 286.68,28.26 291.47,30.71C293.82,31.91 294.34,32.52 296.59,33.68C300.62,35.75 308.19,38.69 313.89,41.49C319.64,44.31 326.89,48.13 330.94,50.53C333.28,51.92 334.33,52.32 336.32,54.07C339.6,56.96 345.39,62.3 347.74,67.37C350.05,72.37 350.84,78.65 350.42,84.21C349.99,89.87 347.44,95.65 345.05,101.05C342.62,106.53 337.51,111.19 335.91499999999996,116.83C334.34,122.42 335.09,131.01 335.46,134.74C335.63,136.47 335.81,136.89 336.32,138.49C337.31,141.56 340.09,146.9 341.8,151.58C343.71,156.8 346.03,162.74 347.12,168.42C348.19,173.97 349.29,179.75 348.38,185.26C347.43,190.99 343.97,199.08 341.21,202.11C339.69,203.78 338.63,203.93 336.32,204.76C331.64,206.45 319.62,210.47 313.89,209.2Z" style="stroke: none; fill: rgb(182, 215, 232);"/><path d="M313.89,204.72C312.29,204.41 311.6,203.57 310.31,202.11C307.62,199.06 303.99,190.99 301,185.26C297.97,179.44 294.74,173.26 292.27,167.42C289.99,162.05 288.64,156.91 286.56,151.58C284.39,146.02 282.48,139.87 279.49,134.74C276.6,129.78 272.22,124.07 269.05,121.23C267.11,119.49 265.9,119.32 263.57,117.89C259.47,115.37 251.82,107.07 246.63,107.38C241.87,107.67 237.44,114.43 233.51,117.89C230.07,120.92 226.85,123.89 224.21,126.89C221.91,129.5 220.4,131.54 218.34,134.74C215.46,139.22 212.14,146.69 209.11,151.58C206.64,155.57 203.97,159.06 201.79,162.11C200.09,164.49 199.05,165.8 197.18,168.42C194.14,172.67 188.85,181.25 185.39,185.26C183.19,187.8 181.99,190.46 179.37,190.95C175.84,191.61 169.33,187.71 165.43,185.26C162.03,183.13 158.94,180.54 156.95,177.6C155.11,174.88 154.8,171.95 153.57,168.42C151.91,163.66 150.36,157.1 148.04,151.58C145.64,145.87 141.94,138.95 139.31,134.74C137.6,132 136.75,130.52 134.53,128.29C131.26,125 124.71,120.87 120.62,117.89C117.45,115.58 115.31,114.17 112.11,111.84C107.9,108.78 100.42,105.76 97.6,101.05C94.86,96.48 94.89,89.81 95.06,84.21C95.23,78.58 97.2,72.95 98.66,67.37C100.13,61.72 101.4,55.38 103.86,50.53C106.04,46.24 108.5,42.25 112.11,39.47C115.94,36.52 122.4,35.11 126.53,33.68C129.56,32.63 131.87,31.33 134.53,31.33C137.19,31.33 139.45,32.78 142.5,33.68C146.6,34.89 151.55,36.85 156.95,37.91C163.55,39.21 171.93,40.64 179.37,40.22C186.88,39.79 195.42,36.41 201.79,35.29C206.45,34.47 210.11,34.2 214,33.68C217.56,33.2 220.14,32.74 224.21,32.29C230.23,31.63 239.15,30.62 246.63,30.4C254.1,30.18 264.17,29.79 269.05,30.98C271.61,31.61 272.26,32.46 274.58,33.68C278.7,35.84 285.84,40.3 291.47,43.16C296.86,45.9 303.5,48.78 307.65,50.53C310.2,51.6 311.3,51.58 313.89,52.95C318.94,55.62 331.96,63.55 334.85,67.37C336.08,68.99 335.78,69.87 336.32,71.7C337.23,74.78 339.78,80.62 339.5,84.21C339.28,87.05 337.44,89.01 336.32,91.63C335.06,94.58 333.69,97.43 332.31,101.05C330.49,105.82 327.3,112.2 326.61,117.89C325.93,123.44 327.14,129.16 328.03,134.74C328.93,140.39 330.63,145.99 332.03,151.58C333.42,157.15 335.35,162.61 336.395,168.225C337.44,173.83 338.94,181.65 338.29,185.26C337.96,187.08 337.41,187.56 336.32,189.14C334.12,192.31 328.7,199.59 324.45,202.11C321.11,204.09 316.4,205.21 313.89,204.72Z" style="stroke: none; fill: rgb(135, 190, 218);"/><path d="M179.37,187.63C177.9,187.91 175.84,186.72 173.57,185.26C169.19,182.44 160.32,175.34 156.615,169.33499999999998C153.31,163.97 153.31,157.38 151.35,151.58C149.41,145.86 147.78,139.92 144.94,134.74C142.15,129.64 137.31,123.51 134.53,120.72C133.08,119.27 132.5,119.17 130.75,117.89C126.9,115.08 116.29,107.69 112.11,104.65C109.96,103.09 108.54,103.04 107.27,101.05C105.13,97.69 103.76,89.82 103.84,84.21C103.92,78.59 106.23,72.45 107.75,67.37C109.05,63.03 110.38,58.54 112.11,55.54C113.36,53.38 114.16,52.21 116.29,50.53C120.06,47.56 128.02,42.09 134.53,41.51C141.51,40.89 149.41,46.55 156.95,48.01C164.36,49.44 171.93,50.67 179.37,50.24C186.88,49.81 194.28,46.56 201.79,45.35C209.23,44.15 216.73,43.66 224.21,43C231.68,42.34 239.15,41.55 246.63,41.4C254.1,41.25 262.53,40.25 269.05,42.07C274.75,43.67 279.92,47.85 283.97,50.53C286.98,52.52 288.1,54.53 291.47,56.25C296.78,58.95 308.8,60.52 313.89,62.95C316.83,64.36 318.39,65.04 320.32,67.37C323.29,70.95 327.57,78.56 327.74,84.21C327.91,89.79 323.17,95.38 321.49,101.05C319.84,106.61 317.85,112.26 317.71,117.89C317.57,123.49 319.43,129.15 320.61,134.74C321.8,140.38 323.57,145.95 324.84,151.58C326.1,157.18 327.73,162.78 328.22,168.42C328.71,174.01 330.01,180.42 327.81,185.26C325.48,190.39 317.53,198.63 313.89,198.06C310.67,197.56 308.7,189.92 306.57,185.26C304.23,180.13 303.37,173.3 300.66,168.42C298.2,163.99 293.23,160.18 291.47,156.94C290.38,154.93 290.49,153.86 289.7,151.58C288.3,147.52 286.38,140.19 283.62,134.74C280.68,128.94 274.94,121.76 272.3,117.89C270.9,115.84 270.93,114.84 269.05,113.21C265.1,109.78 253.66,101.19 246.63,101.93C239.54,102.67 230.15,114.86 226.71,117.89C225.44,119.01 225.27,119.1 224.21,120.31C221.79,123.05 216.56,129.59 213.41,134.74C210.2,140 207.46,147.71 205.19,151.58C203.91,153.76 203.2,154.49 201.79,156.47C199.57,159.59 196.09,164.06 193.05,168.42C189.5,173.52 184.39,182.27 181.87,185.26C180.83,186.5 180.46,187.43 179.37,187.63Z" style="stroke: none; fill: rgb(78, 154, 199);"/><path d="M313.89,188.32C313.12,188.2 312.73,186.75 312.15,185.26C310.86,181.96 309.97,173.97 308.25,168.42C306.49,162.74 305,155.34 301.66,151.58C298.99,148.57 293.79,148.89 291.47,146.12C289.11,143.31 289.25,138.88 287.74,134.74C285.88,129.64 283.83,123.36 280.95,117.89C277.91,112.12 271.63,107.03 269.77,101.05C268.03,95.44 272.62,87.04 269.46000000000004,83.275C265.85,78.97 249.9,76.89 246.63,78.84C245.02,79.8 245.95,82 244.96,84.21C243.11,88.35 238.65,96.52 234.83,101.05C231.6,104.88 227.31,107.21 224.21,110.22C221.54,112.81 219.43,114.65 217.17,117.89C214.12,122.26 211.18,129.15 208.49,134.74C205.89,140.13 204.29,145.48 201.25,150.82C197.9,156.71 192.71,162.75 188.92,168.42C185.47,173.58 183.41,182.83 179.37,183.4C174.82,184.04 166.34,173.01 162.45,168.42C159.82,165.32 158.27,162.62 156.95,159.67C155.76,157 155.49,154.78 154.65,151.58C153.44,146.99 151.85,140.36 150.56,134.74C149.28,129.13 149.79,122.2 146.93,117.89C144.25,113.85 138.65,112.03 134.53,109.2C130.48,106.42 125.77,104.8 122.42,101.05C118.6,96.78 113.65,89.83 113.62,84.21C113.59,78.6 118.7,72.56 122.19,67.37C125.67,62.18 129.31,54.13 134.53,53.07C140.54,51.85 149.43,61.75 156.95,64.13C163.86,66.32 176.24,63.91 177.81,67.37C179.33,70.73 170.37,78.52 167.12,84.21C163.96,89.75 156.97,96.93 158.54,101.05C160.25,105.53 174.46,110.35 179.37,109.18C182.8,108.36 185.32,104.57 186.68,101.05C188.37,96.68 187.76,89.73 186.77,84.21C185.74,78.5 178.49,71.19 180.41,67.37C182.55,63.13 194.52,62.73 201.79,61.28C209.12,59.81 216.74,58.6 224.21,58.64C231.69,58.68 239.15,60.75 246.63,61.51C254.09,62.27 264.33,61.37 269.05,63.21C271.63,64.22 271.95,65.88 274.32,67.37C278.31,69.87 285.23,73.54 291.47,75.72C298.32,78.12 310.71,78.26 313.89,80.74C315.2,81.76 315.54,82.9 315.64,84.21C315.77,85.81 314.8,87.6 313.89,89.71C312.53,92.87 308.84,96.74 307.6,101.05C306.19,105.97 306.06,112.33 306.73,117.89C307.41,123.57 310.12,131.66 311.76,134.74C312.48,136.09 313.22,136.01 313.89,137.33C315.3,140.09 316.65,146.6 317.65,151.58C318.72,156.93 320.07,162.81 320,168.42C319.93,174.04 318.96,182.04 317.22,185.26C316.33,186.92 314.76,188.46 313.89,188.32Z" style="stroke: none; fill: rgb(48, 121, 182);"/><path d="M179.37,176.92C176.79,177.28 172.67,172.04 169.77,168.42C166.21,163.99 162.61,156.79 160.42,151.58C158.68,147.44 157.64,143.05 156.95,139.92C156.5,137.87 156.14,136.31 156.19,134.74C156.23,133.42 155.92,132.2 156.95,131.11C159.54,128.38 172.94,127.64 179.37,125.12C184.62,123.06 189.23,121 193.03,117.89C196.62,114.95 199.59,106.88 201.79,107.22C203.8,107.53 205.56,113.86 206.03,117.89C206.6,122.8 204.61,131.09 203.56,134.74C203.03,136.6 202.73,137.12 201.79,138.79C200.01,141.93 195.43,146.89 192.69,151.58C189.71,156.69 187.32,163.82 184.79,168.42C182.93,171.8 181.66,176.6 179.37,176.92ZM291.47,129.65C290.71,129.62 289.46,121.43 289.59,117.89C289.69,114.94 290.71,109.88 291.47,109.84C292.24,109.8 294.05,114.93 294.2,117.89C294.37,121.42 292.24,129.68 291.47,129.65Z" style="stroke: none; fill: rgb(25, 87, 151);"/><path d="M179.37,170.44C178.75,170.53 177.83,169.58 177.08,168.42C175.27,165.63 171.24,156.69 171.83,151.58C172.37,146.89 177.2,138.63 179.37,138.78C181.46,138.93 184.3,146.96 184.67,151.58C185.08,156.75 181.86,165.58 180.66,168.42C180.21,169.48 179.92,170.36 179.37,170.44Z" style="stroke: none; fill: rgb(5, 48, 97);"/></g><g class="contourlines"><g class="contourlevel"><path class="closedline" d="M287.71,252.63C287.84,253.45 289.62,254.1 291.47,254.45C295.79,255.26 314.18,253.52 314.21,252.63C314.24,251.74 295.7,247.79 291.47,249.1C289.47,249.72 287.57,251.72 287.71,252.63Z" style="stroke-miterlimit: 1; vector-effect: non-scaling-stroke; fill: none; stroke: rgb(0, 0, 0); stroke-opacity: 1; stroke-width: 0.5px;"/><path class="closedline" d="M134.16,236.26C137.86,241.19 149.27,243.21 156.95,244.39C164.35,245.53 173.54,245.62 179.37,243.57C183.81,242.01 190.19,237.48 189.83,235.79C189.51,234.25 183.51,234.4 179.37,233.4C173.3,231.93 163.84,230.2 156.95,227.64C150.63,225.29 143.44,221.4 139.47,218.95C137.24,217.57 135.59,214.93 134.53,215.24C133.68,215.49 133.38,217.22 133.12,218.95C132.57,222.57 131.02,232.08 134.16,236.26Z" style="stroke-miterlimit: 1; vector-effect: non-scaling-stroke; fill: none; stroke: rgb(0, 0, 0); stroke-opacity: 1; stroke-width: 0.5px;"/><path class="closedline" d="M220.3,202.11C220.17,205.06 222.62,211.48 224.21,211.61C225.87,211.75 230.29,205.04 230.13,202.11C229.98,199.4 225.88,194.42 224.21,194.58C222.64,194.73 220.42,199.42 220.3,202.11Z" style="stroke-miterlimit: 1; vector-effect: non-scaling-stroke; fill: none; stroke: rgb(0, 0, 0); stroke-opacity: 1; stroke-width: 0.5px;"/><path class="closedline" d="M244.55,168.42C244.55,171.68 245.84,178.19 246.63,178.21C247.42,178.23 249.3,171.68 249.3,168.42C249.3,165.16 247.42,158.62 246.63,158.64C245.84,158.66 244.55,165.16 244.55,168.42Z" style="stroke-miterlimit: 1; vector-effect: non-scaling-stroke; fill: none; stroke: rgb(0, 0, 0); stroke-opacity: 1; stroke-width: 0.5px;"/></g><g class="contourlevel"><path class="closedline" d="M142.63,252.63C146.69,254.21 151.6,255.96 156.95,257.39C163.54,259.15 171.87,261.67 179.37,261.95C186.82,262.23 194.3,259.61 201.79,259.11C209.25,258.61 216.74,259.33 224.21,258.96C231.69,258.59 239.16,257.67 246.63,256.87C254.11,256.07 261.74,253 269.05,254.18C276.7,255.41 283.8,262.97 291.47,264.7C298.77,266.35 308.62,267.57 313.89,264.83C318.18,262.6 322.48,256.53 322.36,252.63C322.25,248.89 317.52,244.64 313.89,241.87C310.02,238.92 303.7,237.16 299.55,235.79C296.52,234.79 294.87,234.23 291.47,233.84C285.89,233.2 276.5,234.61 269.05,234.01C261.55,233.4 250.66,233.75 246.63,230.18C243.74,227.62 242.99,222.17 243.27,218.95C243.49,216.37 245.44,214.68 246.63,212.2C248.08,209.18 249.45,205.88 251.31,202.11C253.74,197.18 258.76,191.06 260.14,185.26C261.44,179.81 261.11,173.91 259.89,168.42C258.61,162.67 255.05,155.46 252.29,151.58C250.5,149.06 248.23,146.06 246.63,146.23C245.16,146.38 244.21,149.2 242.94,151.58C240.83,155.54 239.51,163.61 236.29,168.42C233.19,173.06 226.97,176.88 224.21,180.1C222.52,182.07 222.23,183.09 220.57,185.26C217.47,189.31 210.11,198.31 206.59,202.11C204.64,204.21 204.01,204.95 201.79,206.75C197.78,210 187.65,216.42 183.67,218.95C181.76,220.16 181.03,221.37 179.37,221.53C177.34,221.73 175.13,219.67 172.27,218.95C168.18,217.92 162.09,218.87 156.95,216.74C150.5,214.06 141.04,208.05 137.46,202.11C134.41,197.05 136.71,186.03 134.66,184.605C133.76,183.98 132.24,184.34 131.33,185.26C129.28,187.33 129.49,196.52 128.22,202.11C126.94,207.75 124.34,213.29 123.69,218.95C123.05,224.52 122.42,230.78 124.24,235.79C126.05,240.79 130.94,246.17 134.53,248.99C137.15,251.04 139.51,251.42 142.63,252.63Z" style="stroke-miterlimit: 1; vector-effect: non-scaling-stroke; fill: none; stroke: rgb(0, 0, 0); stroke-opacity: 1; stroke-width: 0.5px;"/></g><g class="contourlevel"><path class="closedline" d="M167.39,269.47C171.24,270.52 174.71,271.95 179.37,272.57C185.64,273.4 194.32,272.65 201.79,272.82C209.26,272.99 216.74,273.71 224.21,273.57C231.69,273.43 240.07,272.81 246.63,271.99C251.83,271.34 256.48,270.39 260.53,269.47C263.73,268.74 266.52,266.97 269.05,267.12C271.16,267.25 272.31,268.7 274.75,269.47C278.82,270.75 285.45,272.49 291.47,273.22C298.36,274.05 308.82,275.13 313.89,273.68C316.86,272.83 318.2,271.69 320.34,269.47C323.76,265.93 330.74,258.17 330.5,252.63C330.26,246.93 321.66,238.38 318.26,235.79C316.65,234.56 315.93,234.81 313.89,234.15C309.33,232.67 298.42,230.63 291.47,227.96C285,225.48 276.91,223.56 273.43,218.95C270.22,214.7 270.67,207.75 270.24,202.11C269.82,196.52 271,190.93 270.85,185.26C270.69,179.46 271.12,173.21 269.27,167.69C267.35,161.96 263.1,156.33 259.21,151.58C255.5,147.05 250.19,139.32 246.63,139.7C243.38,140.04 241.28,147.24 238.44,151.58C235.12,156.67 230.83,164.94 228.03,168.42C226.58,170.23 225.67,170.42 224.21,172.12C221.68,175.08 218.5,181.02 214.94,185.26C211.11,189.82 204.73,195.39 201.79,198.44C200.27,200.02 200.09,200.6 198.39,202.11C194.71,205.38 186.34,214.35 179.37,215.97C172.51,217.56 163.18,214.74 156.95,212.04C151.63,209.74 146.86,206.45 143.71,202.11C140.44,197.61 139.5,190.94 137.97,185.26C136.46,179.67 138.07,172.6 134.575,168.315C130.42,163.23 116.64,157.25 112.11,158.85C109.08,159.92 107.73,164.65 106.98,168.42C106.05,173.13 107.73,180.14 108.7,185.26C109.54,189.67 110.84,194.34 112.11,197.39C112.94,199.39 114.24,199.95 114.77,202.11C115.71,205.91 114.28,213.34 114.27,218.95C114.26,224.56 112.94,230.43 114.69,235.79C116.62,241.71 122.48,248.71 126.38,252.63C129.1,255.37 130.98,256.52 134.53,258.37C140.02,261.22 150.86,264.47 156.95,266.45C161.06,267.78 163.78,268.48 167.39,269.47Z" style="stroke-miterlimit: 1; vector-effect: non-scaling-stroke; fill: none; stroke: rgb(0, 0, 0); stroke-opacity: 1; stroke-width: 0.5px;"/></g><g class="contourlevel"><path class="closedline" d="M142.39,269.47C146.5,271.02 151.52,273.31 156.95,275.02C163.57,277.1 171.84,279.59 179.37,280.65C186.79,281.7 194.32,281.19 201.79,281.42C209.26,281.65 216.74,282.21 224.21,282.05C231.69,281.89 239.18,281.38 246.63,280.47C254.13,279.55 261.57,276.57 269.05,276.53C276.52,276.49 283.97,279.55 291.47,280.23C298.92,280.91 307.18,282.57 313.89,280.64C320.29,278.8 327.2,273.73 330.99,269.47C333.89,266.21 334.95,261.87 336.32,258.77C337.34,256.47 338.79,254.54 338.71,252.63C338.64,250.9 337.4,249.71 336.32,247.76C334.58,244.62 332.41,238.7 328.86,235.79C325.08,232.69 319.39,232.19 313.89,230.17C307.18,227.7 296.6,224.28 291.47,222.08C288.69,220.89 287.23,220.87 285.2,218.95C281.83,215.76 277.34,207.93 275.64,202.11C274.05,196.68 275.23,190.87 274.75,185.26C274.26,179.64 273.8,173.55 272.73,168.42C271.8,163.96 270.44,159.17 269.05,156.14C268.15,154.17 267.72,153.45 266.13,151.58C262.68,147.52 252.62,134 247.0925,134.5025C242.02,134.97 237.95,146.19 233.93,151.58C230.4,156.31 226.29,162.05 224.21,165.06C223.19,166.54 223.07,166.89 221.99,168.42C219.53,171.91 213.13,180.86 209.31,185.26C206.6,188.39 204.36,190.13 201.79,192.8C198.99,195.72 196.55,199.11 193.17,202.11C189.25,205.59 184.83,211 179.37,212.16C173.05,213.5 162.14,209.71 156.95,207.35C153.75,205.89 152.15,204.69 149.96,202.11C146.73,198.31 143.28,191.02 141.16,185.26C139.14,179.77 138.75,172.54 137.33,168.42C136.45,165.88 136.34,164.49 134.53,162.5C131.26,158.91 120.03,154.09 116.15,151.58C114.29,150.38 113.5,148.78 112.11,148.75C110.67,148.72 109.07,149.92 107.64,151.58C104.97,154.68 101.13,162.69 100.24,168.42C99.38,173.92 101.07,179.67 102.01,185.26C102.96,190.91 105.27,196.46 105.93,202.11C106.58,207.69 105.96,213.34 105.99,218.95C106.02,224.56 104.94,230.68 106.1,235.79C107.16,240.47 110.41,245.54 112.11,248.57C113.11,250.35 113.26,251.05 114.79,252.63C118.2,256.15 129.29,263.77 134.53,266.53C137.62,268.16 139.37,268.33 142.39,269.47Z" style="stroke-miterlimit: 1; vector-effect: non-scaling-stroke; fill: none; stroke: rgb(0, 0, 0); stroke-opacity: 1; stroke-width: 0.5px;"/></g><g class="contourlevel"><path class="closedline" d="M169.15,286.32C172.72,287.27 175.26,288.57 179.37,289.26C185.35,290.26 194.31,290.13 201.79,290.41C209.26,290.69 216.74,291.09 224.21,290.92C231.69,290.75 239.85,290.25 246.63,289.36C252.33,288.61 258.11,287.08 262.25,286.32C264.98,285.82 266.49,285.24 269.05,285.15C272.34,285.04 276.63,285.9 280.39,286.32C284.11,286.74 287.12,287.35 291.47,287.66C297.63,288.1 309.59,289.07 313.89,288.14C315.76,287.74 315.98,287.23 317.7,286.32C321.59,284.26 332.18,278.91 336.32,275.5C338.85,273.42 340.05,272.19 341.6,269.47C343.9,265.43 347.34,258.19 347.07,252.63C346.8,246.96 342.21,238.56 339.76,235.79C338.62,234.5 338.03,234.54 336.32,233.76C332.16,231.86 320.9,228.79 313.89,226.19C307.57,223.84 299.97,221.11 296.05,218.95C293.93,217.78 293.17,217.31 291.47,215.67C288.51,212.81 283.18,207.19 281.04,202.11C278.91,197.05 279.48,190.87 278.64,185.26C277.79,179.64 277.25,173.99 275.97,168.42C274.67,162.76 272.31,154.94 270.87,151.58C270.21,150.04 270.11,149.71 269.05,148.38C266.57,145.27 258.39,138.02 254.14,134.74C251.32,132.56 248.88,129.72 246.63,129.89C244.59,130.04 243.14,132.47 241.12,134.74C237.74,138.53 232.56,147.15 229.42,151.58C227.35,154.5 226.01,156.21 224.21,158.81C222.17,161.77 220.56,164.82 217.85,168.42C214,173.54 207.81,180.5 202.735,186.20999999999998C197.84,191.72 192.39,198.18 187.95,202.11C184.85,204.86 183.13,207.65 179.37,208.36C173.77,209.42 162.5,206.45 156.58499999999998,202.38C151,198.53 147.11,191.21 144.34,185.26C141.82,179.85 141.85,173.44 140.04,168.42C138.48,164.1 137.13,159.64 134.53,156.78C132.22,154.24 128.98,153.64 125.78,151.58C121.69,148.94 116.82,142.13 112.11,142.02C107.24,141.91 100.11,147.11 97.02,151.58C93.98,155.96 93.79,162.78 93.51,168.42C93.23,174.01 94.54,179.66 95.32,185.26C96.11,190.89 97.78,196.47 98.23,202.11C98.68,207.7 98.1,213.34 98.04,218.95C97.98,224.56 96.93,230.26 97.86,235.79C98.82,241.49 101.15,248.15 103.89,252.63C106.14,256.3 108.96,258.66 112.11,261.36C115.55,264.31 120.04,267.02 123.92,269.47C127.51,271.73 130.23,273.64 134.53,275.6C140.52,278.33 150.57,281.45 156.95,283.33C161.59,284.7 165.27,285.29 169.15,286.32Z" style="stroke-miterlimit: 1; vector-effect: non-scaling-stroke; fill: none; stroke: rgb(0, 0, 0); stroke-opacity: 1; stroke-width: 0.5px;"/></g><g class="contourlevel"><path class="closedline" d="M138.03,286.32C141.84,287.73 150.28,292.1 156.95,294.19C164.01,296.4 171.85,298.1 179.37,299.05C186.8,299.99 194.32,299.71 201.79,299.9C209.26,300.09 216.74,300.3 224.21,300.18C231.69,300.06 239.17,299.82 246.63,299.16C254.12,298.5 261.57,296.44 269.05,296.21C276.51,295.98 283.99,297.45 291.47,297.76C298.94,298.07 306.51,299.63 313.89,298.05C321.82,296.36 330.86,292.15 337.345,287.18C343.47,282.48 349.2,275.7 352.16,269.47C354.71,264.1 355.54,258.23 355.42,252.63C355.3,247 354.57,240.07 351.4,235.79C348.22,231.49 342.05,229.14 336.32,226.92C329.76,224.38 319.44,223.91 313.89,222.22C310.47,221.18 308.8,220.58 305.84,218.95C301.62,216.62 294.87,211.94 291.47,208.65C289.15,206.4 287.8,204.98 286.44,202.11C284.47,197.95 283.75,190.89 282.54,185.26C281.34,179.66 280.61,174 279.2,168.42C277.77,162.77 276,156.19 274.01,151.58C272.51,148.1 271.2,145.55 269.05,142.85C266.69,139.9 263.57,137.36 260.18,134.74C256.25,131.71 250.7,125.68 246.63,125.98C242.94,126.25 239.94,131.09 236.68,134.74C232.56,139.35 228.45,146.35 224.56,152.065C220.81,157.57 217.59,163.33 213.71,168.42C209.98,173.32 204.2,179.12 201.79,182.11C200.67,183.5 200.66,183.85 199.45,185.26C196.48,188.72 186.26,199.08 182.73,202.11C181.25,203.38 180.86,204.27 179.37,204.55C177.09,204.98 173.31,203.05 169.92,202.11C165.93,201 160.59,200.81 156.95,198.23C152.99,195.43 149.87,190.1 147.52,185.26C145.06,180.21 144.82,173.97 142.74,168.42C140.58,162.66 138.96,156.46 134.68,151.34500000000003C129.5,145.15 119.87,136.17 112.11,135.29C104.84,134.47 94.19,140.96 89.68,144.58C87,146.73 85.86,148.56 84.78,151.58C83.26,155.83 83.1,162.83 83.47,168.42C83.85,174.06 85.92,180.4 87.08,185.26C87.97,189.01 89.1,192.14 89.68,195.17C90.16,197.67 90.39,199.29 90.53,202.11C90.74,206.49 90.26,213.34 90.1,218.95C89.93,224.56 89.03,230.21 89.54,235.79C90.05,241.44 90.67,247.29 93.2,252.63C96.02,258.59 102.9,265.79 106.57,269.47C108.68,271.58 109.53,272.23 112.11,273.89C116.97,277.01 130.26,283.42 134.53,285.18C136.17,285.85 136.41,285.72 138.03,286.32Z" style="stroke-miterlimit: 1; vector-effect: non-scaling-stroke; fill: none; stroke: rgb(0, 0, 0); stroke-opacity: 1; stroke-width: 0.5px;"/></g><g class="contourlevel"><path class="closedline" d="M138.17,303.16C142.03,304.49 150.29,309.31 156.95,311.38C163.98,313.57 171.86,314.87 179.37,315.71C186.81,316.54 194.32,316.29 201.79,316.43C209.26,316.57 216.74,316.68 224.21,316.58C231.68,316.48 239.17,316.33 246.63,315.83C254.11,315.33 261.57,313.79 269.05,313.56C276.52,313.33 284,314.28 291.47,314.47C298.94,314.66 306.51,315.82 313.89,314.7C321.46,313.55 331.31,309.99 336.32,307.49C339.15,306.08 340.04,305.24 342.44,303.16C346.7,299.48 353.82,291.93 358.64,286.11C363.14,280.68 368.13,275.33 370.61,269.47C372.87,264.12 373.61,258.24 373.61,252.63C373.61,247.02 373.2,240.36 370.6,235.79C368.11,231.41 363.69,228.08 358.74,225.53C352.73,222.44 342.48,221.14 336.32,220.08C332.09,219.35 329.16,219.27 325.49,218.95C321.69,218.62 318.12,219.71 313.89,218.15C307.36,215.74 296.18,207.98 291.68,201.685C288.12,196.71 287.98,190.8 286.44,185.26C284.9,179.71 283.98,174.01 282.44,168.42C280.89,162.78 279.44,156.85 277.15,151.58C274.94,146.5 271.24,140.07 269.05,137.32C267.99,135.99 267.66,135.84 266.23,134.74C262.69,132.01 252.51,121.64 246.63,122.08C241.3,122.48 236.14,130.38 232.24,134.74C228.91,138.47 226.27,143.09 224.21,146.22C222.83,148.32 222.35,149.31 220.89,151.58C218.27,155.65 213.14,163.78 209.58,168.42C206.86,171.97 204.15,174.43 201.79,177.36C199.64,180.03 198.55,182.31 195.94,185.26C191.96,189.75 185.8,199.44 179.37,200.92C172.84,202.42 161.8,197.35 156.95,193.85C153.69,191.5 152.48,188.77 150.71,185.26C148.43,180.73 147.52,173.98 145.45,168.42C143.34,162.75 140.29,155.64 138.13,151.58C136.83,149.12 136.43,147.91 134.53,145.91C131.31,142.51 122.93,137.75 118.81,134.74C116.09,132.76 115.23,130.88 112.11,129.72C107,127.83 96.45,127.14 89.68,128.21C83.7,129.16 76.85,130.83 73.39,134.74C69.95,138.63 69.64,145.92 68.93,151.58C68.23,157.15 68.83,162.81 69.08,168.42C69.33,174.04 69.95,179.65 70.42,185.26C70.89,190.88 71.73,196.49 71.89,202.11C72.05,207.72 71.56,213.34 71.4,218.95C71.25,224.56 70.63,230.19 70.96,235.79C71.3,241.42 71.46,247.21 73.42,252.63C75.54,258.47 80.54,265.52 83.76,269.47C85.83,272.01 87.32,272.87 89.68,275.03C93.1,278.15 98.34,283.12 102.38,286.32C105.76,289 108.04,290.96 112.11,293.18C117.91,296.34 130.21,300.8 134.53,302.22C136.23,302.78 136.52,302.59 138.17,303.16Z" style="stroke-miterlimit: 1; vector-effect: non-scaling-stroke; fill: none; stroke: rgb(0, 0, 0); stroke-opacity: 1; stroke-width: 0.5px;"/></g><g class="contourlevel"><path class="closedline" d="M313.89,213.67C307.78,211.86 301.84,206.62 298.03,202.11C294.73,198.19 292.7,191.92 291.47,188.86C290.85,187.31 290.83,186.91 290.34,185.26C289.29,181.72 287.35,174.02 285.68,168.42C284,162.79 282.62,157.09 280.28,151.58C277.85,145.85 273.34,137.96 271.25,134.74C270.34,133.34 270.33,133.05 269.05,131.9C265.58,128.8 253.57,117.58 246.63,118.18C239.85,118.77 231.49,130.62 227.8,134.74C225.96,136.8 225.58,137.79 224.21,139.87C222.18,142.96 219.72,147.36 216.97,151.58C213.62,156.72 208.29,164.74 205.44,168.42C203.95,170.34 203.24,170.8 201.79,172.61C199.34,175.66 196,181.22 192.42,185.26C188.59,189.58 184.71,196.49 179.37,197.6C173.21,198.88 160.82,192.38 156.95,189.47C155.14,188.11 154.91,187.24 153.89,185.26C152,181.61 150.23,174.01 148.16,168.42C146.07,162.78 143.94,156.48 141.43,151.58C139.32,147.45 137.27,143.59 134.53,140.71C132.08,138.13 129.26,137.03 126.12,134.74C122.03,131.75 117.54,127.07 112.11,124.24C105.94,121.02 97.35,120.84 90.64,117.185C83.49,113.29 73.86,107.28 70.7,101.05C68.13,96 69.61,89.81 69.87,84.21C70.13,78.58 71.29,72.97 72.26,67.37C73.24,61.74 73.92,56.04 75.74,50.53C77.63,44.8 80.73,37.89 83.52,33.68C85.48,30.72 87.37,29.36 89.68,26.9C92.54,23.86 95.8,19.87 99.44,16.84C103.24,13.68 107.03,10.31 112.11,8.4C118.31,6.07 127.09,5.08 134.53,5.43C142.03,5.78 149.45,9.14 156.95,10.55C164.4,11.95 171.93,14.17 179.37,13.85C186.87,13.52 194.28,9.82 201.79,8.52C209.22,7.23 216.73,6.69 224.21,6.06C231.68,5.43 239.15,4.92 246.63,4.74C254.1,4.56 261.7,3.59 269.05,4.99C276.66,6.44 286.67,11.19 291.47,13.58C293.9,14.79 294.41,15.59 296.71,16.84C300.74,19.03 308.25,22.11 313.89,24.93C319.49,27.73 326.26,31.76 330.42,33.68C332.84,34.8 333.95,34.64 336.32,36.03C340.82,38.67 350.45,45.71 354.18,50.53C356.76,53.86 357.04,57.55 358.74,60.49C360.23,63.07 362.4,64.39 363.61,67.37C365.33,71.6 366.95,78.66 366.28,84.21C365.57,90.02 361.14,95.71 359.015,101.435C356.97,106.94 354.81,112.31 353.72,117.89C352.64,123.41 352.18,129.14 352.45,134.74C352.72,140.37 354.48,145.96 355.37,151.58C356.26,157.19 357.26,162.79 357.77,168.42C358.28,174.02 358.84,179.67 358.46,185.26C358.08,190.9 358.67,197.69 355.48,202.11C351.89,207.1 343.19,210.55 336.32,212.49C329.34,214.45 320.43,215.61 313.89,213.67Z" style="stroke-miterlimit: 1; vector-effect: non-scaling-stroke; fill: none; stroke: rgb(0, 0, 0); stroke-opacity: 1; stroke-width: 0.5px;"/></g><g class="contourlevel"><path class="closedline" d="M313.89,209.2C309.73,208.28 307,205.41 304.17,202.11C300.61,197.97 297.76,189.85 295.43,185.26C293.84,182.12 292.55,180.07 291.47,177.29C290.37,174.46 289.97,171.84 288.92,168.42C287.47,163.69 285.64,157.12 283.42,151.58C281.14,145.89 278.14,139.24 275.37,134.74C273.31,131.39 271.88,129.09 269.05,126.56C265.46,123.35 258.87,120.4 254.78,117.89C251.68,115.99 249.12,112.68 246.63,112.83C244.34,112.97 242.85,115.64 240.32,117.89C236.03,121.69 228.37,128.29 223.735,134.10500000000002C219.38,139.57 216.76,145.89 213.04,151.58C209.36,157.22 205.51,162.56 201.55,168.08999999999997C197.47,173.78 193.02,180.6 188.9,185.26C185.67,188.92 183.52,193.5 179.37,194.27C173.74,195.31 161.85,190 157.115,185.11C153.04,180.9 152.92,174 150.86,168.42C148.79,162.82 147.46,157.01 144.74,151.58C141.9,145.89 138.85,140.22 133.985,135.125C128.1,128.96 118.27,123.75 110.7,118.33C103.52,113.2 93.46,106.3 89.68,103.43C88.23,102.33 87.55,102.43 86.76,101.05C85.07,98.11 83.72,89.8 84.15,84.21C84.59,78.48 88,72.78 89.575,67.095C91.11,61.56 91.43,55.94 93.52,50.53C95.74,44.78 99.29,38 102.83,33.68C105.65,30.24 108.03,27.81 112.11,25.82C117.72,23.08 127.07,21.04 134.53,21.14C142.01,21.24 149.44,25.14 156.95,26.46C164.38,27.76 171.93,29.38 179.37,29.02C186.87,28.66 194.29,25.43 201.79,24.23C209.23,23.04 216.73,22.46 224.21,21.81C231.68,21.17 239.15,20.54 246.63,20.36C254.1,20.18 261.74,19.13 269.05,20.75C276.7,22.44 286.68,28.26 291.47,30.71C293.82,31.91 294.34,32.52 296.59,33.68C300.62,35.75 308.19,38.69 313.89,41.49C319.64,44.31 326.89,48.13 330.94,50.53C333.28,51.92 334.33,52.32 336.32,54.07C339.6,56.96 345.39,62.3 347.74,67.37C350.05,72.37 350.84,78.65 350.42,84.21C349.99,89.87 347.44,95.65 345.05,101.05C342.62,106.53 337.51,111.19 335.91499999999996,116.83C334.34,122.42 335.09,131.01 335.46,134.74C335.63,136.47 335.81,136.89 336.32,138.49C337.31,141.56 340.09,146.9 341.8,151.58C343.71,156.8 346.03,162.74 347.12,168.42C348.19,173.97 349.29,179.75 348.38,185.26C347.43,190.99 343.97,199.08 341.21,202.11C339.69,203.78 338.63,203.93 336.32,204.76C331.64,206.45 319.62,210.47 313.89,209.2Z" style="stroke-miterlimit: 1; vector-effect: non-scaling-stroke; fill: none; stroke: rgb(0, 0, 0); stroke-opacity: 1; stroke-width: 0.5px;"/></g><g class="contourlevel"><path class="closedline" d="M313.89,204.72C312.29,204.41 311.6,203.57 310.31,202.11C307.62,199.06 303.99,190.99 301,185.26C297.97,179.44 294.74,173.26 292.27,167.42C289.99,162.05 288.64,156.91 286.56,151.58C284.39,146.02 282.48,139.87 279.49,134.74C276.6,129.78 272.22,124.07 269.05,121.23C267.11,119.49 265.9,119.32 263.57,117.89C259.47,115.37 251.82,107.07 246.63,107.38C241.87,107.67 237.44,114.43 233.51,117.89C230.07,120.92 226.85,123.89 224.21,126.89C221.91,129.5 220.4,131.54 218.34,134.74C215.46,139.22 212.14,146.69 209.11,151.58C206.64,155.57 203.97,159.06 201.79,162.11C200.09,164.49 199.05,165.8 197.18,168.42C194.14,172.67 188.85,181.25 185.39,185.26C183.19,187.8 181.99,190.46 179.37,190.95C175.84,191.61 169.33,187.71 165.43,185.26C162.03,183.13 158.94,180.54 156.95,177.6C155.11,174.88 154.8,171.95 153.57,168.42C151.91,163.66 150.36,157.1 148.04,151.58C145.64,145.87 141.94,138.95 139.31,134.74C137.6,132 136.75,130.52 134.53,128.29C131.26,125 124.71,120.87 120.62,117.89C117.45,115.58 115.31,114.17 112.11,111.84C107.9,108.78 100.42,105.76 97.6,101.05C94.86,96.48 94.89,89.81 95.06,84.21C95.23,78.58 97.2,72.95 98.66,67.37C100.13,61.72 101.4,55.38 103.86,50.53C106.04,46.24 108.5,42.25 112.11,39.47C115.94,36.52 122.4,35.11 126.53,33.68C129.56,32.63 131.87,31.33 134.53,31.33C137.19,31.33 139.45,32.78 142.5,33.68C146.6,34.89 151.55,36.85 156.95,37.91C163.55,39.21 171.93,40.64 179.37,40.22C186.88,39.79 195.42,36.41 201.79,35.29C206.45,34.47 210.11,34.2 214,33.68C217.56,33.2 220.14,32.74 224.21,32.29C230.23,31.63 239.15,30.62 246.63,30.4C254.1,30.18 264.17,29.79 269.05,30.98C271.61,31.61 272.26,32.46 274.58,33.68C278.7,35.84 285.84,40.3 291.47,43.16C296.86,45.9 303.5,48.78 307.65,50.53C310.2,51.6 311.3,51.58 313.89,52.95C318.94,55.62 331.96,63.55 334.85,67.37C336.08,68.99 335.78,69.87 336.32,71.7C337.23,74.78 339.78,80.62 339.5,84.21C339.28,87.05 337.44,89.01 336.32,91.63C335.06,94.58 333.69,97.43 332.31,101.05C330.49,105.82 327.3,112.2 326.61,117.89C325.93,123.44 327.14,129.16 328.03,134.74C328.93,140.39 330.63,145.99 332.03,151.58C333.42,157.15 335.35,162.61 336.395,168.225C337.44,173.83 338.94,181.65 338.29,185.26C337.96,187.08 337.41,187.56 336.32,189.14C334.12,192.31 328.7,199.59 324.45,202.11C321.11,204.09 316.4,205.21 313.89,204.72Z" style="stroke-miterlimit: 1; vector-effect: non-scaling-stroke; fill: none; stroke: rgb(0, 0, 0); stroke-opacity: 1; stroke-width: 0.5px;"/></g><g class="contourlevel"><path class="closedline" d="M179.37,187.63C177.9,187.91 175.84,186.72 173.57,185.26C169.19,182.44 160.32,175.34 156.615,169.33499999999998C153.31,163.97 153.31,157.38 151.35,151.58C149.41,145.86 147.78,139.92 144.94,134.74C142.15,129.64 137.31,123.51 134.53,120.72C133.08,119.27 132.5,119.17 130.75,117.89C126.9,115.08 116.29,107.69 112.11,104.65C109.96,103.09 108.54,103.04 107.27,101.05C105.13,97.69 103.76,89.82 103.84,84.21C103.92,78.59 106.23,72.45 107.75,67.37C109.05,63.03 110.38,58.54 112.11,55.54C113.36,53.38 114.16,52.21 116.29,50.53C120.06,47.56 128.02,42.09 134.53,41.51C141.51,40.89 149.41,46.55 156.95,48.01C164.36,49.44 171.93,50.67 179.37,50.24C186.88,49.81 194.28,46.56 201.79,45.35C209.23,44.15 216.73,43.66 224.21,43C231.68,42.34 239.15,41.55 246.63,41.4C254.1,41.25 262.53,40.25 269.05,42.07C274.75,43.67 279.92,47.85 283.97,50.53C286.98,52.52 288.1,54.53 291.47,56.25C296.78,58.95 308.8,60.52 313.89,62.95C316.83,64.36 318.39,65.04 320.32,67.37C323.29,70.95 327.57,78.56 327.74,84.21C327.91,89.79 323.17,95.38 321.49,101.05C319.84,106.61 317.85,112.26 317.71,117.89C317.57,123.49 319.43,129.15 320.61,134.74C321.8,140.38 323.57,145.95 324.84,151.58C326.1,157.18 327.73,162.78 328.22,168.42C328.71,174.01 330.01,180.42 327.81,185.26C325.48,190.39 317.53,198.63 313.89,198.06C310.67,197.56 308.7,189.92 306.57,185.26C304.23,180.13 303.37,173.3 300.66,168.42C298.2,163.99 293.23,160.18 291.47,156.94C290.38,154.93 290.49,153.86 289.7,151.58C288.3,147.52 286.38,140.19 283.62,134.74C280.68,128.94 274.94,121.76 272.3,117.89C270.9,115.84 270.93,114.84 269.05,113.21C265.1,109.78 253.66,101.19 246.63,101.93C239.54,102.67 230.15,114.86 226.71,117.89C225.44,119.01 225.27,119.1 224.21,120.31C221.79,123.05 216.56,129.59 213.41,134.74C210.2,140 207.46,147.71 205.19,151.58C203.91,153.76 203.2,154.49 201.79,156.47C199.57,159.59 196.09,164.06 193.05,168.42C189.5,173.52 184.39,182.27 181.87,185.26C180.83,186.5 180.46,187.43 179.37,187.63Z" style="stroke-miterlimit: 1; vector-effect: non-scaling-stroke; fill: none; stroke: rgb(0, 0, 0); stroke-opacity: 1; stroke-width: 0.5px;"/></g><g class="contourlevel"><path class="closedline" d="M313.89,188.32C313.12,188.2 312.73,186.75 312.15,185.26C310.86,181.96 309.97,173.97 308.25,168.42C306.49,162.74 305,155.34 301.66,151.58C298.99,148.57 293.79,148.89 291.47,146.12C289.11,143.31 289.25,138.88 287.74,134.74C285.88,129.64 283.83,123.36 280.95,117.89C277.91,112.12 271.63,107.03 269.77,101.05C268.03,95.44 272.62,87.04 269.46000000000004,83.275C265.85,78.97 249.9,76.89 246.63,78.84C245.02,79.8 245.95,82 244.96,84.21C243.11,88.35 238.65,96.52 234.83,101.05C231.6,104.88 227.31,107.21 224.21,110.22C221.54,112.81 219.43,114.65 217.17,117.89C214.12,122.26 211.18,129.15 208.49,134.74C205.89,140.13 204.29,145.48 201.25,150.82C197.9,156.71 192.71,162.75 188.92,168.42C185.47,173.58 183.41,182.83 179.37,183.4C174.82,184.04 166.34,173.01 162.45,168.42C159.82,165.32 158.27,162.62 156.95,159.67C155.76,157 155.49,154.78 154.65,151.58C153.44,146.99 151.85,140.36 150.56,134.74C149.28,129.13 149.79,122.2 146.93,117.89C144.25,113.85 138.65,112.03 134.53,109.2C130.48,106.42 125.77,104.8 122.42,101.05C118.6,96.78 113.65,89.83 113.62,84.21C113.59,78.6 118.7,72.56 122.19,67.37C125.67,62.18 129.31,54.13 134.53,53.07C140.54,51.85 149.43,61.75 156.95,64.13C163.86,66.32 176.24,63.91 177.81,67.37C179.33,70.73 170.37,78.52 167.12,84.21C163.96,89.75 156.97,96.93 158.54,101.05C160.25,105.53 174.46,110.35 179.37,109.18C182.8,108.36 185.32,104.57 186.68,101.05C188.37,96.68 187.76,89.73 186.77,84.21C185.74,78.5 178.49,71.19 180.41,67.37C182.55,63.13 194.52,62.73 201.79,61.28C209.12,59.81 216.74,58.6 224.21,58.64C231.69,58.68 239.15,60.75 246.63,61.51C254.09,62.27 264.33,61.37 269.05,63.21C271.63,64.22 271.95,65.88 274.32,67.37C278.31,69.87 285.23,73.54 291.47,75.72C298.32,78.12 310.71,78.26 313.89,80.74C315.2,81.76 315.54,82.9 315.64,84.21C315.77,85.81 314.8,87.6 313.89,89.71C312.53,92.87 308.84,96.74 307.6,101.05C306.19,105.97 306.06,112.33 306.73,117.89C307.41,123.57 310.12,131.66 311.76,134.74C312.48,136.09 313.22,136.01 313.89,137.33C315.3,140.09 316.65,146.6 317.65,151.58C318.72,156.93 320.07,162.81 320,168.42C319.93,174.04 318.96,182.04 317.22,185.26C316.33,186.92 314.76,188.46 313.89,188.32Z" style="stroke-miterlimit: 1; vector-effect: non-scaling-stroke; fill: none; stroke: rgb(0, 0, 0); stroke-opacity: 1; stroke-width: 0.5px;"/></g><g class="contourlevel"><path class="closedline" d="M179.37,176.92C176.79,177.28 172.67,172.04 169.77,168.42C166.21,163.99 162.61,156.79 160.42,151.58C158.68,147.44 157.64,143.05 156.95,139.92C156.5,137.87 156.14,136.31 156.19,134.74C156.23,133.42 155.92,132.2 156.95,131.11C159.54,128.38 172.94,127.64 179.37,125.12C184.62,123.06 189.23,121 193.03,117.89C196.62,114.95 199.59,106.88 201.79,107.22C203.8,107.53 205.56,113.86 206.03,117.89C206.6,122.8 204.61,131.09 203.56,134.74C203.03,136.6 202.73,137.12 201.79,138.79C200.01,141.93 195.43,146.89 192.69,151.58C189.71,156.69 187.32,163.82 184.79,168.42C182.93,171.8 181.66,176.6 179.37,176.92Z" style="stroke-miterlimit: 1; vector-effect: non-scaling-stroke; fill: none; stroke: rgb(0, 0, 0); stroke-opacity: 1; stroke-width: 0.5px;"/><path class="closedline" d="M291.47,129.65C290.71,129.62 289.46,121.43 289.59,117.89C289.69,114.94 290.71,109.88 291.47,109.84C292.24,109.8 294.05,114.93 294.2,117.89C294.37,121.42 292.24,129.68 291.47,129.65Z" style="stroke-miterlimit: 1; vector-effect: non-scaling-stroke; fill: none; stroke: rgb(0, 0, 0); stroke-opacity: 1; stroke-width: 0.5px;"/></g><g class="contourlevel"><path class="closedline" d="M179.37,170.44C178.75,170.53 177.83,169.58 177.08,168.42C175.27,165.63 171.24,156.69 171.83,151.58C172.37,146.89 177.2,138.63 179.37,138.78C181.46,138.93 184.3,146.96 184.67,151.58C185.08,156.75 181.86,165.58 180.66,168.42C180.21,169.48 179.92,170.36 179.37,170.44Z" style="stroke-miterlimit: 1; vector-effect: non-scaling-stroke; fill: none; stroke: rgb(0, 0, 0); stroke-opacity: 1; stroke-width: 0.5px;"/></g></g></g></g><g class="scatterlayer mlayer"><g class="trace scatter trace31cfeb" style="stroke-miterlimit: 2; opacity: 1;"><g class="fills"/><g class="errorbars"/><g class="lines"/><g class="points"><path class="point" transform="translate(316.58,80.34)" d="M5,0A5,5 0 1,1 0,-5A5,5 0 0,1 5,0Z" style="opacity: 1; stroke-width: 0px; fill: rgb(5, 48, 97); fill-opacity: 1;"/><path class="point" transform="translate(215.08,208.68)" d="M5,0A5,5 0 1,1 0,-5A5,5 0 0,1 5,0Z" style="opacity: 1; stroke-width: 0px; fill: rgb(103, 0, 31); fill-opacity: 1;"/><path class="point" transform="translate(178.26,220.38)" d="M5,0A5,5 0 1,1 0,-5A5,5 0 0,1 5,0Z" style="opacity: 1; stroke-width: 0px; fill: rgb(103, 0, 31); fill-opacity: 1;"/><path class="point" transform="translate(165.39,193.43)" d="M5,0A5,5 0 1,1 0,-5A5,5 0 0,1 5,0Z" style="opacity: 1; stroke-width: 0px; fill: rgb(5, 48, 97); fill-opacity: 1;"/><path class="point" transform="translate(290.14,233.24)" d="M5,0A5,5 0 1,1 0,-5A5,5 0 0,1 5,0Z" style="opacity: 1; stroke-width: 0px; fill: rgb(103, 0, 31); fill-opacity: 1;"/><path class="point" transform="translate(136.51,105.16)" d="M5,0A5,5 0 1,1 0,-5A5,5 0 0,1 5,0Z" style="opacity: 1; stroke-width: 0px; fill: rgb(5, 48, 97); fill-opacity: 1;"/><path class="point" transform="translate(263.34,190.79)" d="M5,0A5,5 0 1,1 0,-5A5,5 0 0,1 5,0Z" style="opacity: 1; stroke-width: 0px; fill: rgb(103, 0, 31); fill-opacity: 1;"/><path class="point" transform="translate(179.15,124.42)" d="M5,0A5,5 0 1,1 0,-5A5,5 0 0,1 5,0Z" style="opacity: 1; stroke-width: 0px; fill: rgb(5, 48, 97); fill-opacity: 1;"/><path class="point" transform="translate(152.74,146.9)" d="M5,0A5,5 0 1,1 0,-5A5,5 0 0,1 5,0Z" style="opacity: 1; stroke-width: 0px; fill: rgb(5, 48, 97); fill-opacity: 1;"/><path class="point" transform="translate(132.95,198.46)" d="M5,0A5,5 0 1,1 0,-5A5,5 0 0,1 5,0Z" style="opacity: 1; stroke-width: 0px; fill: rgb(103, 0, 31); fill-opacity: 1;"/><path class="point" transform="translate(309.53,237.36)" d="M5,0A5,5 0 1,1 0,-5A5,5 0 0,1 5,0Z" style="opacity: 1; stroke-width: 0px; fill: rgb(103, 0, 31); fill-opacity: 1;"/><path class="point" transform="translate(227.78,58.52)" d="M5,0A5,5 0 1,1 0,-5A5,5 0 0,1 5,0Z" style="opacity: 1; stroke-width: 0px; fill: rgb(5, 48, 97); fill-opacity: 1;"/><path class="point" transform="translate(213.72,124.23)" d="M5,0A5,5 0 1,1 0,-5A5,5 0 0,1 5,0Z" style="opacity: 1; stroke-width: 0px; fill: rgb(5, 48, 97); fill-opacity: 1;"/><path class="point" transform="translate(113.78,169.36)" d="M5,0A5,5 0 1,1 0,-5A5,5 0 0,1 5,0Z" style="opacity: 1; stroke-width: 0px; fill: rgb(103, 0, 31); fill-opacity: 1;"/><path class="point" transform="translate(139.7,165.11)" d="M5,0A5,5 0 1,1 0,-5A5,5 0 0,1 5,0Z" style="opacity: 1; stroke-width: 0px; fill: rgb(103, 0, 31); fill-opacity: 1;"/><path class="point" transform="translate(142.65,75.46)" d="M5,0A5,5 0 1,1 0,-5A5,5 0 0,1 5,0Z" style="opacity: 1; stroke-width: 0px; fill: rgb(5, 48, 97); fill-opacity: 1;"/><path class="point" transform="translate(186.03,185.67)" d="M5,0A5,5 0 1,1 0,-5A5,5 0 0,1 5,0Z" style="opacity: 1; stroke-width: 0px; fill: rgb(5, 48, 97); fill-opacity: 1;"/><path class="point" transform="translate(289.32,128.84)" d="M5,0A5,5 0 1,1 0,-5A5,5 0 0,1 5,0Z" style="opacity: 1; stroke-width: 0px; fill: rgb(5, 48, 97); fill-opacity: 1;"/><path class="point" transform="translate(230.78,124.09)" d="M5,0A5,5 0 1,1 0,-5A5,5 0 0,1 5,0Z" style="opacity: 1; stroke-width: 0px; fill: rgb(103, 0, 31); fill-opacity: 1;"/><path class="point" transform="translate(144.37,85.49)" d="M5,0A5,5 0 1,1 0,-5A5,5 0 0,1 5,0Z" style="opacity: 1; stroke-width: 0px; fill: rgb(5, 48, 97); fill-opacity: 1;"/><path class="point" transform="translate(200.73,89.29)" d="M5,0A5,5 0 1,1 0,-5A5,5 0 0,1 5,0Z" style="opacity: 1; stroke-width: 0px; fill: rgb(5, 48, 97); fill-opacity: 1;"/><path class="point" transform="translate(269.22,70.47)" d="M5,0A5,5 0 1,1 0,-5A5,5 0 0,1 5,0Z" style="opacity: 1; stroke-width: 0px; fill: rgb(5, 48, 97); fill-opacity: 1;"/><path class="point" transform="translate(121.53,233.35)" d="M5,0A5,5 0 1,1 0,-5A5,5 0 0,1 5,0Z" style="opacity: 1; stroke-width: 0px; fill: rgb(103, 0, 31); fill-opacity: 1;"/><path class="point" transform="translate(242.16,148.12)" d="M5,0A5,5 0 1,1 0,-5A5,5 0 0,1 5,0Z" style="opacity: 1; stroke-width: 0px; fill: rgb(103, 0, 31); fill-opacity: 1;"/><path class="point" transform="translate(147.38,175.86)" d="M5,0A5,5 0 1,1 0,-5A5,5 0 0,1 5,0Z" style="opacity: 1; stroke-width: 0px; fill: rgb(103, 0, 31); fill-opacity: 1;"/><path class="point" transform="translate(215.86,209.2)" d="M5,0A5,5 0 1,1 0,-5A5,5 0 0,1 5,0Z" style="opacity: 1; stroke-width: 0px; fill: rgb(103, 0, 31); fill-opacity: 1;"/><path class="point" transform="translate(234.09,219.7)" d="M5,0A5,5 0 1,1 0,-5A5,5 0 0,1 5,0Z" style="opacity: 1; stroke-width: 0px; fill: rgb(103, 0, 31); fill-opacity: 1;"/><path class="point" transform="translate(170.58,256.34)" d="M5,0A5,5 0 1,1 0,-5A5,5 0 0,1 5,0Z" style="opacity: 1; stroke-width: 0px; fill: rgb(103, 0, 31); fill-opacity: 1;"/><path class="point" transform="translate(226.7,66.98)" d="M5,0A5,5 0 1,1 0,-5A5,5 0 0,1 5,0Z" style="opacity: 1; stroke-width: 0px; fill: rgb(5, 48, 97); fill-opacity: 1;"/><path class="point" transform="translate(277.54,117.91)" d="M5,0A5,5 0 1,1 0,-5A5,5 0 0,1 5,0Z" style="opacity: 1; stroke-width: 0px; fill: rgb(5, 48, 97); fill-opacity: 1;"/><path class="point" transform="translate(204.77,125.35)" d="M5,0A5,5 0 1,1 0,-5A5,5 0 0,1 5,0Z" style="opacity: 1; stroke-width: 0px; fill: rgb(5, 48, 97); fill-opacity: 1;"/><path class="point" transform="translate(266.18,153.29)" d="M5,0A5,5 0 1,1 0,-5A5,5 0 0,1 5,0Z" style="opacity: 1; stroke-width: 0px; fill: rgb(103, 0, 31); fill-opacity: 1;"/><path class="point" transform="translate(209.34,260.42)" d="M5,0A5,5 0 1,1 0,-5A5,5 0 0,1 5,0Z" style="opacity: 1; stroke-width: 0px; fill: rgb(103, 0, 31); fill-opacity: 1;"/><path class="point" transform="translate(296.98,89.27)" d="M5,0A5,5 0 1,1 0,-5A5,5 0 0,1 5,0Z" style="opacity: 1; stroke-width: 0px; fill: rgb(5, 48, 97); fill-opacity: 1;"/><path class="point" transform="translate(263.66,74.99)" d="M5,0A5,5 0 1,1 0,-5A5,5 0 0,1 5,0Z" style="opacity: 1; stroke-width: 0px; fill: rgb(5, 48, 97); fill-opacity: 1;"/><path class="point" transform="translate(155.65,228.28)" d="M5,0A5,5 0 1,1 0,-5A5,5 0 0,1 5,0Z" style="opacity: 1; stroke-width: 0px; fill: rgb(103, 0, 31); fill-opacity: 1;"/><path class="point" transform="translate(237.32,263.11)" d="M5,0A5,5 0 1,1 0,-5A5,5 0 0,1 5,0Z" style="opacity: 1; stroke-width: 0px; fill: rgb(103, 0, 31); fill-opacity: 1;"/><path class="point" transform="translate(170.26,124.04)" d="M5,0A5,5 0 1,1 0,-5A5,5 0 0,1 5,0Z" style="opacity: 1; stroke-width: 0px; fill: rgb(5, 48, 97); fill-opacity: 1;"/><path class="point" transform="translate(309.39,92.54)" d="M5,0A5,5 0 1,1 0,-5A5,5 0 0,1 5,0Z" style="opacity: 1; stroke-width: 0px; fill: rgb(5, 48, 97); fill-opacity: 1;"/><path class="point" transform="translate(123.08,237.95)" d="M5,0A5,5 0 1,1 0,-5A5,5 0 0,1 5,0Z" style="opacity: 1; stroke-width: 0px; fill: rgb(103, 0, 31); fill-opacity: 1;"/><path class="point" transform="translate(229.3,228.85)" d="M5,0A5,5 0 1,1 0,-5A5,5 0 0,1 5,0Z" style="opacity: 1; stroke-width: 0px; fill: rgb(103, 0, 31); fill-opacity: 1;"/><path class="point" transform="translate(318.32,241.63)" d="M5,0A5,5 0 1,1 0,-5A5,5 0 0,1 5,0Z" style="opacity: 1; stroke-width: 0px; fill: rgb(103, 0, 31); fill-opacity: 1;"/><path class="point" transform="translate(285.6,263.67)" d="M5,0A5,5 0 1,1 0,-5A5,5 0 0,1 5,0Z" style="opacity: 1; stroke-width: 0px; fill: rgb(103, 0, 31); fill-opacity: 1;"/><path class="point" transform="translate(292.17,74.15)" d="M5,0A5,5 0 1,1 0,-5A5,5 0 0,1 5,0Z" style="opacity: 1; stroke-width: 0px; fill: rgb(5, 48, 97); fill-opacity: 1;"/><path class="point" transform="translate(202.18,134.79)" d="M5,0A5,5 0 1,1 0,-5A5,5 0 0,1 5,0Z" style="opacity: 1; stroke-width: 0px; fill: rgb(5, 48, 97); fill-opacity: 1;"/><path class="point" transform="translate(315.02,181.91)" d="M5,0A5,5 0 1,1 0,-5A5,5 0 0,1 5,0Z" style="opacity: 1; stroke-width: 0px; fill: rgb(5, 48, 97); fill-opacity: 1;"/><path class="point" transform="translate(201.76,216.9)" d="M5,0A5,5 0 1,1 0,-5A5,5 0 0,1 5,0Z" style="opacity: 1; stroke-width: 0px; fill: rgb(103, 0, 31); fill-opacity: 1;"/><path class="point" transform="translate(304.96,208.47)" d="M5,0A5,5 0 1,1 0,-5A5,5 0 0,1 5,0Z" style="opacity: 1; stroke-width: 0px; fill: rgb(5, 48, 97); fill-opacity: 1;"/><path class="point" transform="translate(305.09,178.51)" d="M5,0A5,5 0 1,1 0,-5A5,5 0 0,1 5,0Z" style="opacity: 1; stroke-width: 0px; fill: rgb(5, 48, 97); fill-opacity: 1;"/><path class="point" transform="translate(140.72,166.66)" d="M5,0A5,5 0 1,1 0,-5A5,5 0 0,1 5,0Z" style="opacity: 1; stroke-width: 0px; fill: rgb(103, 0, 31); fill-opacity: 1;"/><path class="point" transform="translate(163.86,65.22)" d="M5,0A5,5 0 1,1 0,-5A5,5 0 0,1 5,0Z" style="opacity: 1; stroke-width: 0px; fill: rgb(5, 48, 97); fill-opacity: 1;"/><path class="point" transform="translate(169.43,234.33)" d="M5,0A5,5 0 1,1 0,-5A5,5 0 0,1 5,0Z" style="opacity: 1; stroke-width: 0px; fill: rgb(103, 0, 31); fill-opacity: 1;"/><path class="point" transform="translate(164.55,82.14)" d="M5,0A5,5 0 1,1 0,-5A5,5 0 0,1 5,0Z" style="opacity: 1; stroke-width: 0px; fill: rgb(5, 48, 97); fill-opacity: 1;"/><path class="point" transform="translate(301.79,106.71)" d="M5,0A5,5 0 1,1 0,-5A5,5 0 0,1 5,0Z" style="opacity: 1; stroke-width: 0px; fill: rgb(5, 48, 97); fill-opacity: 1;"/><path class="point" transform="translate(298.25,261.89)" d="M5,0A5,5 0 1,1 0,-5A5,5 0 0,1 5,0Z" style="opacity: 1; stroke-width: 0px; fill: rgb(103, 0, 31); fill-opacity: 1;"/><path class="point" transform="translate(115.22,74.98)" d="M5,0A5,5 0 1,1 0,-5A5,5 0 0,1 5,0Z" style="opacity: 1; stroke-width: 0px; fill: rgb(5, 48, 97); fill-opacity: 1;"/><path class="point" transform="translate(255.77,123.87)" d="M5,0A5,5 0 1,1 0,-5A5,5 0 0,1 5,0Z" style="opacity: 1; stroke-width: 0px; fill: rgb(103, 0, 31); fill-opacity: 1;"/><path class="point" transform="translate(224.26,112.48)" d="M5,0A5,5 0 1,1 0,-5A5,5 0 0,1 5,0Z" style="opacity: 1; stroke-width: 0px; fill: rgb(5, 48, 97); fill-opacity: 1;"/><path class="point" transform="translate(288.39,136.74)" d="M5,0A5,5 0 1,1 0,-5A5,5 0 0,1 5,0Z" style="opacity: 1; stroke-width: 0px; fill: rgb(5, 48, 97); fill-opacity: 1;"/><path class="point" transform="translate(202.86,203.38)" d="M5,0A5,5 0 1,1 0,-5A5,5 0 0,1 5,0Z" style="opacity: 1; stroke-width: 0px; fill: rgb(103, 0, 31); fill-opacity: 1;"/><path class="point" transform="translate(240.82,158.5)" d="M5,0A5,5 0 1,1 0,-5A5,5 0 0,1 5,0Z" style="opacity: 1; stroke-width: 0px; fill: rgb(103, 0, 31); fill-opacity: 1;"/><path class="point" transform="translate(185.36,237.18)" d="M5,0A5,5 0 1,1 0,-5A5,5 0 0,1 5,0Z" style="opacity: 1; stroke-width: 0px; fill: rgb(103, 0, 31); fill-opacity: 1;"/><path class="point" transform="translate(268.21,62.08)" d="M5,0A5,5 0 1,1 0,-5A5,5 0 0,1 5,0Z" style="opacity: 1; stroke-width: 0px; fill: rgb(5, 48, 97); fill-opacity: 1;"/><path class="point" transform="translate(165.93,110.76)" d="M5,0A5,5 0 1,1 0,-5A5,5 0 0,1 5,0Z" style="opacity: 1; stroke-width: 0px; fill: rgb(5, 48, 97); fill-opacity: 1;"/><path class="point" transform="translate(149.08,129.33)" d="M5,0A5,5 0 1,1 0,-5A5,5 0 0,1 5,0Z" style="opacity: 1; stroke-width: 0px; fill: rgb(5, 48, 97); fill-opacity: 1;"/><path class="point" transform="translate(149.71,255.91)" d="M5,0A5,5 0 1,1 0,-5A5,5 0 0,1 5,0Z" style="opacity: 1; stroke-width: 0px; fill: rgb(103, 0, 31); fill-opacity: 1;"/><path class="point" transform="translate(185.74,263.66)" d="M5,0A5,5 0 1,1 0,-5A5,5 0 0,1 5,0Z" style="opacity: 1; stroke-width: 0px; fill: rgb(103, 0, 31); fill-opacity: 1;"/><path class="point" transform="translate(127.71,53.47)" d="M5,0A5,5 0 1,1 0,-5A5,5 0 0,1 5,0Z" style="opacity: 1; stroke-width: 0px; fill: rgb(5, 48, 97); fill-opacity: 1;"/><path class="point" transform="translate(303.69,92.82)" d="M5,0A5,5 0 1,1 0,-5A5,5 0 0,1 5,0Z" style="opacity: 1; stroke-width: 0px; fill: rgb(5, 48, 97); fill-opacity: 1;"/><path class="point" transform="translate(153.87,245.88)" d="M5,0A5,5 0 1,1 0,-5A5,5 0 0,1 5,0Z" style="opacity: 1; stroke-width: 0px; fill: rgb(103, 0, 31); fill-opacity: 1;"/><path class="point" transform="translate(307.9,104.08)" d="M5,0A5,5 0 1,1 0,-5A5,5 0 0,1 5,0Z" style="opacity: 1; stroke-width: 0px; fill: rgb(5, 48, 97); fill-opacity: 1;"/><path class="point" transform="translate(176.51,69.13)" d="M5,0A5,5 0 1,1 0,-5A5,5 0 0,1 5,0Z" style="opacity: 1; stroke-width: 0px; fill: rgb(5, 48, 97); fill-opacity: 1;"/><path class="point" transform="translate(256.81,254.55)" d="M5,0A5,5 0 1,1 0,-5A5,5 0 0,1 5,0Z" style="opacity: 1; stroke-width: 0px; fill: rgb(103, 0, 31); fill-opacity: 1;"/><path class="point" transform="translate(211.93,182.44)" d="M5,0A5,5 0 1,1 0,-5A5,5 0 0,1 5,0Z" style="opacity: 1; stroke-width: 0px; fill: rgb(103, 0, 31); fill-opacity: 1;"/><path class="point" transform="translate(226.09,110.7)" d="M5,0A5,5 0 1,1 0,-5A5,5 0 0,1 5,0Z" style="opacity: 1; stroke-width: 0px; fill: rgb(5, 48, 97); fill-opacity: 1;"/><path class="point" transform="translate(229.79,258.57)" d="M5,0A5,5 0 1,1 0,-5A5,5 0 0,1 5,0Z" style="opacity: 1; stroke-width: 0px; fill: rgb(103, 0, 31); fill-opacity: 1;"/><path class="point" transform="translate(148.12,124.56)" d="M5,0A5,5 0 1,1 0,-5A5,5 0 0,1 5,0Z" style="opacity: 1; stroke-width: 0px; fill: rgb(5, 48, 97); fill-opacity: 1;"/><path class="point" transform="translate(257.12,198.82)" d="M5,0A5,5 0 1,1 0,-5A5,5 0 0,1 5,0Z" style="opacity: 1; stroke-width: 0px; fill: rgb(103, 0, 31); fill-opacity: 1;"/><path class="point" transform="translate(159.08,87.8)" d="M5,0A5,5 0 1,1 0,-5A5,5 0 0,1 5,0Z" style="opacity: 1; stroke-width: 0px; fill: rgb(5, 48, 97); fill-opacity: 1;"/><path class="point" transform="translate(124.4,105.32)" d="M5,0A5,5 0 1,1 0,-5A5,5 0 0,1 5,0Z" style="opacity: 1; stroke-width: 0px; fill: rgb(5, 48, 97); fill-opacity: 1;"/><path class="point" transform="translate(259.07,171.09)" d="M5,0A5,5 0 1,1 0,-5A5,5 0 0,1 5,0Z" style="opacity: 1; stroke-width: 0px; fill: rgb(103, 0, 31); fill-opacity: 1;"/><path class="point" transform="translate(116.73,123.11)" d="M5,0A5,5 0 1,1 0,-5A5,5 0 0,1 5,0Z" style="opacity: 1; stroke-width: 0px; fill: rgb(103, 0, 31); fill-opacity: 1;"/><path class="point" transform="translate(148.31,65.29)" d="M5,0A5,5 0 1,1 0,-5A5,5 0 0,1 5,0Z" style="opacity: 1; stroke-width: 0px; fill: rgb(5, 48, 97); fill-opacity: 1;"/><path class="point" transform="translate(225.6,89.32)" d="M5,0A5,5 0 1,1 0,-5A5,5 0 0,1 5,0Z" style="opacity: 1; stroke-width: 0px; fill: rgb(5, 48, 97); fill-opacity: 1;"/><path class="point" transform="translate(178.91,222.68)" d="M5,0A5,5 0 1,1 0,-5A5,5 0 0,1 5,0Z" style="opacity: 1; stroke-width: 0px; fill: rgb(103, 0, 31); fill-opacity: 1;"/><path class="point" transform="translate(215.51,55.3)" d="M5,0A5,5 0 1,1 0,-5A5,5 0 0,1 5,0Z" style="opacity: 1; stroke-width: 0px; fill: rgb(5, 48, 97); fill-opacity: 1;"/><path class="point" transform="translate(293.76,246.36)" d="M5,0A5,5 0 1,1 0,-5A5,5 0 0,1 5,0Z" style="opacity: 1; stroke-width: 0px; fill: rgb(103, 0, 31); fill-opacity: 1;"/><path class="point" transform="translate(212.79,138.23)" d="M5,0A5,5 0 1,1 0,-5A5,5 0 0,1 5,0Z" style="opacity: 1; stroke-width: 0px; fill: rgb(5, 48, 97); fill-opacity: 1;"/><path class="point" transform="translate(132.33,182.17)" d="M5,0A5,5 0 1,1 0,-5A5,5 0 0,1 5,0Z" style="opacity: 1; stroke-width: 0px; fill: rgb(103, 0, 31); fill-opacity: 1;"/><path class="point" transform="translate(234.47,168.42)" d="M5,0A5,5 0 1,1 0,-5A5,5 0 0,1 5,0Z" style="opacity: 1; stroke-width: 0px; fill: rgb(103, 0, 31); fill-opacity: 1;"/><path class="point" transform="translate(156.9,244.08)" d="M5,0A5,5 0 1,1 0,-5A5,5 0 0,1 5,0Z" style="opacity: 1; stroke-width: 0px; fill: rgb(103, 0, 31); fill-opacity: 1;"/><path class="point" transform="translate(316.27,265.27)" d="M5,0A5,5 0 1,1 0,-5A5,5 0 0,1 5,0Z" style="opacity: 1; stroke-width: 0px; fill: rgb(103, 0, 31); fill-opacity: 1;"/><path class="point" transform="translate(115.66,106.65)" d="M5,0A5,5 0 1,1 0,-5A5,5 0 0,1 5,0Z" style="opacity: 1; stroke-width: 0px; fill: rgb(5, 48, 97); fill-opacity: 1;"/><path class="point" transform="translate(264.04,53.54)" d="M5,0A5,5 0 1,1 0,-5A5,5 0 0,1 5,0Z" style="opacity: 1; stroke-width: 0px; fill: rgb(5, 48, 97); fill-opacity: 1;"/><path class="point" transform="translate(235.28,233.17)" d="M5,0A5,5 0 1,1 0,-5A5,5 0 0,1 5,0Z" style="opacity: 1; stroke-width: 0px; fill: rgb(103, 0, 31); fill-opacity: 1;"/><path class="point" transform="translate(125.32,84.79)" d="M5,0A5,5 0 1,1 0,-5A5,5 0 0,1 5,0Z" style="opacity: 1; stroke-width: 0px; fill: rgb(5, 48, 97); fill-opacity: 1;"/><path class="point" transform="translate(248.73,204.21)" d="M5,0A5,5 0 1,1 0,-5A5,5 0 0,1 5,0Z" style="opacity: 1; stroke-width: 0px; fill: rgb(103, 0, 31); fill-opacity: 1;"/><path class="point" transform="translate(125.11,199.86)" d="M5,0A5,5 0 1,1 0,-5A5,5 0 0,1 5,0Z" style="opacity: 1; stroke-width: 0px; fill: rgb(103, 0, 31); fill-opacity: 1;"/><path class="point" transform="translate(313.06,93.46)" d="M5,0A5,5 0 1,1 0,-5A5,5 0 0,1 5,0Z" style="opacity: 1; stroke-width: 0px; fill: rgb(5, 48, 97); fill-opacity: 1;"/><path class="point" transform="translate(156.67,174.69)" d="M5,0A5,5 0 1,1 0,-5A5,5 0 0,1 5,0Z" style="opacity: 1; stroke-width: 0px; fill: rgb(5, 48, 97); fill-opacity: 1;"/><path class="point" transform="translate(135.52,248.25)" d="M5,0A5,5 0 1,1 0,-5A5,5 0 0,1 5,0Z" style="opacity: 1; stroke-width: 0px; fill: rgb(103, 0, 31); fill-opacity: 1;"/><path class="point" transform="translate(163.92,230.43)" d="M5,0A5,5 0 1,1 0,-5A5,5 0 0,1 5,0Z" style="opacity: 1; stroke-width: 0px; fill: rgb(103, 0, 31); fill-opacity: 1;"/><path class="point" transform="translate(182.48,67.17)" d="M5,0A5,5 0 1,1 0,-5A5,5 0 0,1 5,0Z" style="opacity: 1; stroke-width: 0px; fill: rgb(5, 48, 97); fill-opacity: 1;"/><path class="point" transform="translate(231.38,217.74)" d="M5,0A5,5 0 1,1 0,-5A5,5 0 0,1 5,0Z" style="opacity: 1; stroke-width: 0px; fill: rgb(103, 0, 31); fill-opacity: 1;"/><path class="point" transform="translate(261.76,115.2)" d="M5,0A5,5 0 1,1 0,-5A5,5 0 0,1 5,0Z" style="opacity: 1; stroke-width: 0px; fill: rgb(5, 48, 97); fill-opacity: 1;"/><path class="point" transform="translate(139.98,115.25)" d="M5,0A5,5 0 1,1 0,-5A5,5 0 0,1 5,0Z" style="opacity: 1; stroke-width: 0px; fill: rgb(5, 48, 97); fill-opacity: 1;"/><path class="point" transform="translate(245.54,166.8)" d="M5,0A5,5 0 1,1 0,-5A5,5 0 0,1 5,0Z" style="opacity: 1; stroke-width: 0px; fill: rgb(103, 0, 31); fill-opacity: 1;"/><path class="point" transform="translate(254.92,177.67)" d="M5,0A5,5 0 1,1 0,-5A5,5 0 0,1 5,0Z" style="opacity: 1; stroke-width: 0px; fill: rgb(103, 0, 31); fill-opacity: 1;"/><path class="point" transform="translate(151.59,209.07)" d="M5,0A5,5 0 1,1 0,-5A5,5 0 0,1 5,0Z" style="opacity: 1; stroke-width: 0px; fill: rgb(103, 0, 31); fill-opacity: 1;"/><path class="point" transform="translate(204.29,133.45)" d="M5,0A5,5 0 1,1 0,-5A5,5 0 0,1 5,0Z" style="opacity: 1; stroke-width: 0px; fill: rgb(5, 48, 97); fill-opacity: 1;"/><path class="point" transform="translate(291.65,94.16)" d="M5,0A5,5 0 1,1 0,-5A5,5 0 0,1 5,0Z" style="opacity: 1; stroke-width: 0px; fill: rgb(5, 48, 97); fill-opacity: 1;"/><path class="point" transform="translate(291.16,146.76)" d="M5,0A5,5 0 1,1 0,-5A5,5 0 0,1 5,0Z" style="opacity: 1; stroke-width: 0px; fill: rgb(5, 48, 97); fill-opacity: 1;"/><path class="point" transform="translate(223.12,201.53)" d="M5,0A5,5 0 1,1 0,-5A5,5 0 0,1 5,0Z" style="opacity: 1; stroke-width: 0px; fill: rgb(103, 0, 31); fill-opacity: 1;"/><path class="point" transform="translate(154.29,165.98)" d="M5,0A5,5 0 1,1 0,-5A5,5 0 0,1 5,0Z" style="opacity: 1; stroke-width: 0px; fill: rgb(5, 48, 97); fill-opacity: 1;"/><path class="point" transform="translate(282.73,236.58)" d="M5,0A5,5 0 1,1 0,-5A5,5 0 0,1 5,0Z" style="opacity: 1; stroke-width: 0px; fill: rgb(103, 0, 31); fill-opacity: 1;"/><path class="point" transform="translate(218.23,139.61)" d="M5,0A5,5 0 1,1 0,-5A5,5 0 0,1 5,0Z" style="opacity: 1; stroke-width: 0px; fill: rgb(5, 48, 97); fill-opacity: 1;"/><path class="point" transform="translate(285.82,190.12)" d="M5,0A5,5 0 1,1 0,-5A5,5 0 0,1 5,0Z" style="opacity: 1; stroke-width: 0px; fill: rgb(103, 0, 31); fill-opacity: 1;"/><path class="point" transform="translate(204.32,204.01)" d="M5,0A5,5 0 1,1 0,-5A5,5 0 0,1 5,0Z" style="opacity: 1; stroke-width: 0px; fill: rgb(103, 0, 31); fill-opacity: 1;"/><path class="point" transform="translate(215.58,239.38)" d="M5,0A5,5 0 1,1 0,-5A5,5 0 0,1 5,0Z" style="opacity: 1; stroke-width: 0px; fill: rgb(103, 0, 31); fill-opacity: 1;"/><path class="point" transform="translate(148.2,144.52)" d="M5,0A5,5 0 1,1 0,-5A5,5 0 0,1 5,0Z" style="opacity: 1; stroke-width: 0px; fill: rgb(5, 48, 97); fill-opacity: 1;"/><path class="point" transform="translate(292.85,86.96)" d="M5,0A5,5 0 1,1 0,-5A5,5 0 0,1 5,0Z" style="opacity: 1; stroke-width: 0px; fill: rgb(5, 48, 97); fill-opacity: 1;"/><path class="point" transform="translate(120.94,200.49)" d="M5,0A5,5 0 1,1 0,-5A5,5 0 0,1 5,0Z" style="opacity: 1; stroke-width: 0px; fill: rgb(103, 0, 31); fill-opacity: 1;"/><path class="point" transform="translate(261.47,75.81)" d="M5,0A5,5 0 1,1 0,-5A5,5 0 0,1 5,0Z" style="opacity: 1; stroke-width: 0px; fill: rgb(5, 48, 97); fill-opacity: 1;"/><path class="point" transform="translate(279.75,123.48)" d="M5,0A5,5 0 1,1 0,-5A5,5 0 0,1 5,0Z" style="opacity: 1; stroke-width: 0px; fill: rgb(5, 48, 97); fill-opacity: 1;"/><path class="point" transform="translate(225.05,135.68)" d="M5,0A5,5 0 1,1 0,-5A5,5 0 0,1 5,0Z" style="opacity: 1; stroke-width: 0px; fill: rgb(103, 0, 31); fill-opacity: 1;"/><path class="point" transform="translate(262.07,246.24)" d="M5,0A5,5 0 1,1 0,-5A5,5 0 0,1 5,0Z" style="opacity: 1; stroke-width: 0px; fill: rgb(103, 0, 31); fill-opacity: 1;"/><path class="point" transform="translate(187.86,172.75)" d="M5,0A5,5 0 1,1 0,-5A5,5 0 0,1 5,0Z" style="opacity: 1; stroke-width: 0px; fill: rgb(5, 48, 97); fill-opacity: 1;"/><path class="point" transform="translate(241.86,226.44)" d="M5,0A5,5 0 1,1 0,-5A5,5 0 0,1 5,0Z" style="opacity: 1; stroke-width: 0px; fill: rgb(103, 0, 31); fill-opacity: 1;"/></g><g class="text"/></g><g class="trace scatter trace99180b" style="stroke-miterlimit: 2; opacity: 1;"><g class="fills"/><g class="errorbars"/><g class="lines"><path class="js-line" d="M106.5,108.86L113.37,106.7L120.24,110.04L127.11,118.53L133.98,131.31L147.73,164.11L154.6,180.75L161.47,195.26L168.34,206.12L175.21,212.23L182.08,212.95L188.95,208.21L195.82,198.5L202.69,184.81L209.56,168.56L223.31,135.19L230.18,121.5L237.05,111.79L243.92,107.05L250.79,107.77L257.66,113.88L264.53,124.74L271.4,139.25L292.02,188.69L298.89,201.47L305.76,209.96L312.63,213.3L319.5,211.14" style="vector-effect: non-scaling-stroke; fill: none; stroke: rgb(0, 204, 150); stroke-opacity: 1; stroke-width: 2px; opacity: 1;"/></g><g class="points"/><g class="text"/></g></g></g><g class="overplot"/><path class="xlines-above crisp" style="fill: none;" d="M0,0"/><path class="ylines-above crisp" style="fill: none;" d="M0,0"/><g class="overlines-above"/><g class="xaxislayer-above"><g class="xtick"><text text-anchor="middle" x="0" y="433" transform="translate(80,0)" style="font-family: 'Open Sans', verdana, arial, sans-serif; font-size: 12px; fill: rgb(42, 63, 95); fill-opacity: 1; white-space: pre;">2</text></g><g class="xtick"><text text-anchor="middle" x="0" y="433" transform="translate(186.5,0)" style="font-family: 'Open Sans', verdana, arial, sans-serif; font-size: 12px; fill: rgb(42, 63, 95); fill-opacity: 1; white-space: pre;">1</text></g><g class="xtick"><text text-anchor="middle" x="0" y="433" transform="translate(293,0)" style="font-family: 'Open Sans', verdana, arial, sans-serif; font-size: 12px; fill: rgb(42, 63, 95); fill-opacity: 1; white-space: pre;">0</text></g><g class="xtick"><text text-anchor="middle" x="0" y="433" transform="translate(399.5,0)" style="font-family: 'Open Sans', verdana, arial, sans-serif; font-size: 12px; fill: rgb(42, 63, 95); fill-opacity: 1; white-space: pre;">1</text></g><g class="xtick"><text text-anchor="middle" x="0" y="433" transform="translate(506,0)" style="font-family: 'Open Sans', verdana, arial, sans-serif; font-size: 12px; fill: rgb(42, 63, 95); fill-opacity: 1; white-space: pre;">2</text></g></g><g class="yaxislayer-above"><g class="ytick"><text text-anchor="end" x="79" y="4.199999999999999" transform="translate(0,420)" style="font-family: 'Open Sans', verdana, arial, sans-serif; font-size: 12px; fill: rgb(42, 63, 95); fill-opacity: 1; white-space: pre;">1.5</text></g><g class="ytick"><text text-anchor="end" x="79" y="4.199999999999999" transform="translate(0,366.67)" style="font-family: 'Open Sans', verdana, arial, sans-serif; font-size: 12px; fill: rgb(42, 63, 95); fill-opacity: 1; white-space: pre;">1</text></g><g class="ytick"><text text-anchor="end" x="79" y="4.199999999999999" transform="translate(0,313.33000000000004)" style="font-family: 'Open Sans', verdana, arial, sans-serif; font-size: 12px; fill: rgb(42, 63, 95); fill-opacity: 1; white-space: pre;">0.5</text></g><g class="ytick"><text text-anchor="end" x="79" y="4.199999999999999" transform="translate(0,260)" style="font-family: 'Open Sans', verdana, arial, sans-serif; font-size: 12px; fill: rgb(42, 63, 95); fill-opacity: 1; white-space: pre;">0</text></g><g class="ytick"><text text-anchor="end" x="79" y="4.199999999999999" transform="translate(0,206.67000000000002)" style="font-family: 'Open Sans', verdana, arial, sans-serif; font-size: 12px; fill: rgb(42, 63, 95); fill-opacity: 1; white-space: pre;">0.5</text></g><g class="ytick"><text text-anchor="end" x="79" y="4.199999999999999" transform="translate(0,153.32999999999998)" style="font-family: 'Open Sans', verdana, arial, sans-serif; font-size: 12px; fill: rgb(42, 63, 95); fill-opacity: 1; white-space: pre;">1</text></g><g class="ytick"><text text-anchor="end" x="79" y="4.199999999999999" transform="translate(0,100)" style="font-family: 'Open Sans', verdana, arial, sans-serif; font-size: 12px; fill: rgb(42, 63, 95); fill-opacity: 1; white-space: pre;">1.5</text></g></g><g class="overaxes-above"/></g></g><g class="polarlayer"/><g class="ternarylayer"/><g class="geolayer"/><g class="funnelarealayer"/><g class="pielayer"/><g class="treemaplayer"/><g class="sunburstlayer"/><g class="glimages"/><defs id="topdefs-73b614"><g class="clips"/></defs><g class="layer-above"><g class="imagelayer"/><g class="shapelayer"/></g><g class="infolayer"><g class="cbe00f61 colorbar" transform="translate(80,100)"><rect class="cbbg" x="435" y="0" width="73.796875" height="320" style="fill: rgb(0, 0, 0); fill-opacity: 0; stroke: rgb(68, 68, 68); stroke-opacity: 1; stroke-width: 0;"/><g class="cbfills" transform="translate(0,10)"><rect class="cbfill" x="445" width="30" y="1" height="299" fill="#67001f" style="stroke: none;"/><rect class="cbfill" x="445" width="30" y="1" height="288" fill="#9d1128" style="stroke: none;"/><rect class="cbfill" x="445" width="30" y="1" height="267" fill="#c1373a" style="stroke: none;"/><rect class="cbfill" x="445" width="30" y="1" height="245" fill="#da6a55" style="stroke: none;"/><rect class="cbfill" x="445" width="30" y="1" height="224" fill="#f09b7a" style="stroke: none;"/><rect class="cbfill" x="445" width="30" y="1" height="203" fill="#f9c4a9" style="stroke: none;"/><rect class="cbfill" x="445" width="30" y="1" height="181" fill="#fbe3d5" style="stroke: none;"/><rect class="cbfill" x="445" width="30" y="1" height="160" fill="#f7f7f7" style="stroke: none;"/><rect class="cbfill" x="445" width="30" y="1" height="138" fill="#dceaf2" style="stroke: none;"/><rect class="cbfill" x="445" width="30" y="1" height="117" fill="#b6d7e8" style="stroke: none;"/><rect class="cbfill" x="445" width="30" y="1" height="95" fill="#87beda" style="stroke: none;"/><rect class="cbfill" x="445" width="30" y="1" height="74" fill="#4e9ac7" style="stroke: none;"/><rect class="cbfill" x="445" width="30" y="1" height="53" fill="#3079b6" style="stroke: none;"/><rect class="cbfill" x="445" width="30" y="1" height="31" fill="#195797" style="stroke: none;"/><rect class="cbfill" x="445" width="30" y="0" height="11" fill="#053061" style="stroke: none;"/></g><g class="cblines" transform="translate(0,10)"><path class="cbline" d="M445,289.25h30" style="fill: none; stroke: rgb(0, 0, 0); stroke-opacity: 1; stroke-width: 0.5px;"/><path class="cbline" d="M445,268.25h30" style="fill: none; stroke: rgb(0, 0, 0); stroke-opacity: 1; stroke-width: 0.5px;"/><path class="cbline" d="M445,246.25h30" style="fill: none; stroke: rgb(0, 0, 0); stroke-opacity: 1; stroke-width: 0.5px;"/><path class="cbline" d="M445,225.25h30" style="fill: none; stroke: rgb(0, 0, 0); stroke-opacity: 1; stroke-width: 0.5px;"/><path class="cbline" d="M445,204.25h30" style="fill: none; stroke: rgb(0, 0, 0); stroke-opacity: 1; stroke-width: 0.5px;"/><path class="cbline" d="M445,182.25h30" style="fill: none; stroke: rgb(0, 0, 0); stroke-opacity: 1; stroke-width: 0.5px;"/><path class="cbline" d="M445,161.25h30" style="fill: none; stroke: rgb(0, 0, 0); stroke-opacity: 1; stroke-width: 0.5px;"/><path class="cbline" d="M445,139.25h30" style="fill: none; stroke: rgb(0, 0, 0); stroke-opacity: 1; stroke-width: 0.5px;"/><path class="cbline" d="M445,118.25h30" style="fill: none; stroke: rgb(0, 0, 0); stroke-opacity: 1; stroke-width: 0.5px;"/><path class="cbline" d="M445,96.25h30" style="fill: none; stroke: rgb(0, 0, 0); stroke-opacity: 1; stroke-width: 0.5px;"/><path class="cbline" d="M445,75.25h30" style="fill: none; stroke: rgb(0, 0, 0); stroke-opacity: 1; stroke-width: 0.5px;"/><path class="cbline" d="M445,54.25h30" style="fill: none; stroke: rgb(0, 0, 0); stroke-opacity: 1; stroke-width: 0.5px;"/><path class="cbline" d="M445,32.25h30" style="fill: none; stroke: rgb(0, 0, 0); stroke-opacity: 1; stroke-width: 0.5px;"/><path class="cbline" d="M445,11.25h30" style="fill: none; stroke: rgb(0, 0, 0); stroke-opacity: 1; stroke-width: 0.5px;"/></g><g class="cbaxis crisp" transform="translate(0,-100)"><g class="ycbe00f61tick"><text text-anchor="start" x="477.9" y="4.199999999999999" transform="translate(0,399.29)" style="font-family: 'Open Sans', verdana, arial, sans-serif; font-size: 12px; fill: rgb(42, 63, 95); fill-opacity: 1; white-space: pre;">1.2</text></g><g class="ycbe00f61tick"><text text-anchor="start" x="477.9" y="4.199999999999999" transform="translate(0,356.43)" style="font-family: 'Open Sans', verdana, arial, sans-serif; font-size: 12px; fill: rgb(42, 63, 95); fill-opacity: 1; white-space: pre;">0.8</text></g><g class="ycbe00f61tick"><text text-anchor="start" x="477.9" y="4.199999999999999" transform="translate(0,313.57)" style="font-family: 'Open Sans', verdana, arial, sans-serif; font-size: 12px; fill: rgb(42, 63, 95); fill-opacity: 1; white-space: pre;">0.4</text></g><g class="ycbe00f61tick"><text text-anchor="start" x="477.9" y="4.199999999999999" transform="translate(0,270.71000000000004)" style="font-family: 'Open Sans', verdana, arial, sans-serif; font-size: 12px; fill: rgb(42, 63, 95); fill-opacity: 1; white-space: pre;">0</text></g><g class="ycbe00f61tick"><text text-anchor="start" x="477.9" y="4.199999999999999" transform="translate(0,227.86)" style="font-family: 'Open Sans', verdana, arial, sans-serif; font-size: 12px; fill: rgb(42, 63, 95); fill-opacity: 1; white-space: pre;">0.4</text></g><g class="ycbe00f61tick"><text text-anchor="start" x="477.9" y="4.199999999999999" transform="translate(0,185)" style="font-family: 'Open Sans', verdana, arial, sans-serif; font-size: 12px; fill: rgb(42, 63, 95); fill-opacity: 1; white-space: pre;">0.8</text></g><g class="ycbe00f61tick"><text text-anchor="start" x="477.9" y="4.199999999999999" transform="translate(0,142.14)" style="font-family: 'Open Sans', verdana, arial, sans-serif; font-size: 12px; fill: rgb(42, 63, 95); fill-opacity: 1; white-space: pre;">1.2</text></g></g><g class="cbtitleunshift" transform="translate(-80,-100)"><g class="cbtitle"/></g><rect class="cboutline" x="445" y="10" width="30" height="300" style="stroke: rgb(68, 68, 68); stroke-opacity: 1; fill: none; stroke-width: 0;"/></g><g class="g-gtitle"><text class="gtitle" x="30" y="50" text-anchor="start" dy="0em" style="font-family: 'Open Sans', verdana, arial, sans-serif; font-size: 17px; fill: rgb(42, 63, 95); opacity: 1; font-weight: normal; white-space: pre;">Decision function with RBF</text></g><g class="g-xtitle"/><g class="g-ytitle"/></g></svg>