<svg class="main-svg" xmlns="http://www.w3.org/2000/svg" xmlns:xlink="http://www.w3.org/1999/xlink" width="600" height="500" style="" viewBox="0 0 600 500"><rect x="0" y="0" width="600" height="500" style="fill: rgb(255, 255, 255); fill-opacity: 1;"/><defs id="defs-636d98"><g class="clips"><clipPath id="clip636d98xyplot" class="plotclip"><rect width="436" height="320"/></clipPath><clipPath class="axesclip" id="clip636d98x"><rect x="80" y="0" width="436" height="500"/></clipPath><clipPath class="axesclip" id="clip636d98y"><rect x="0" y="100" width="600" height="320"/></clipPath><clipPath class="axesclip" id="clip636d98xy"><rect x="80" y="100" width="436" height="320"/></clipPath><clipPath class="contourclip" id="clipa59df6"><path d="M0,6.99L436,6.99L436,320L0,320Z"/></clipPath></g><g class="gradients"/></defs><g class="bglayer"><rect class="bg" x="80" y="100" width="436" height="320" style="fill: rgb(229, 236, 246); fill-opacity: 1; stroke-width: 0;"/></g><g class="layer-below"><g class="imagelayer"/><g class="shapelayer"/></g><g class="cartesianlayer"><g class="subplot xy"><g class="layer-subplot"><g class="shapelayer"/><g class="imagelayer"/></g><g class="gridlayer"><g class="x"><path class="xgrid crisp" transform="translate(183.26,0)" d="M0,100v320" style="stroke: rgb(255, 255, 255); stroke-opacity: 1; stroke-width: 1px;"/><path class="xgrid crisp" transform="translate(412.74,0)" d="M0,100v320" style="stroke: rgb(255, 255, 255); stroke-opacity: 1; stroke-width: 1px;"/></g><g class="y"><path class="ygrid crisp" transform="translate(0,367.83)" d="M80,0h436" style="stroke: rgb(255, 255, 255); stroke-opacity: 1; stroke-width: 1px;"/><path class="ygrid crisp" transform="translate(0,315.65999999999997)" d="M80,0h436" style="stroke: rgb(255, 255, 255); stroke-opacity: 1; stroke-width: 1px;"/><path class="ygrid crisp" transform="translate(0,211.32999999999998)" d="M80,0h436" style="stroke: rgb(255, 255, 255); stroke-opacity: 1; stroke-width: 1px;"/><path class="ygrid crisp" transform="translate(0,159.16)" d="M80,0h436" style="stroke: rgb(255, 255, 255); stroke-opacity: 1; stroke-width: 1px;"/><path class="ygrid crisp" transform="translate(0,106.99)" d="M80,0h436" style="stroke: rgb(255, 255, 255); stroke-opacity: 1; stroke-width: 1px;"/></g></g><g class="zerolinelayer"><path class="xzl zl crisp" transform="translate(298,0)" d="M0,100v320" style="stroke: rgb(255, 255, 255); stroke-opacity: 1; stroke-width: 2px;"/><path class="yzl zl crisp" transform="translate(0,263.49)" d="M80,0h436" style="stroke: rgb(255, 255, 255); stroke-opacity: 1; stroke-width: 2px;"/></g><path class="xlines-below"/><path class="ylines-below"/><g class="overlines-below"/><g class="xaxislayer-below"/><g class="yaxislayer-below"/><g class="overaxes-below"/><g class="plot" transform="translate(80, 100)" clip-path="url('#clip636d98xyplot')"><g class="contourlayer mlayer"><g class="contour" clip-path="url('#clipa59df6')" style="opacity: 1;"><g class="heatmapcoloring"/><g class="contourbg"><path d="M0,6.99L436,6.99L436,320L0,320Z" style="stroke: none; fill: rgb(103, 0, 31);"/></g><g class="contourfill"><path d="M0,50.84Q4.73,43.95 7.48,39.94C10.86,35.01 15.93,27.61 18.78,23.46C20.51,20.94 21.37,19.68 22.95,17.38Q25.01,14.38 30.08,6.99L436,6.99L436,320L0,320Z" style="stroke: none; fill: rgb(178, 24, 43);"/><path d="M0,144.5Q2.27,141.18 3.92,138.78C6.71,134.71 11.81,127.28 15.22,122.31C18.04,118.2 20.87,114.09 22.95,111.05C24.37,108.98 25,108.06 26.52,105.83C29.23,101.87 34.37,94.39 37.82,89.36C40.74,85.11 43.8,80.63 45.89,77.59C47.21,75.67 47.72,74.93 49.12,72.89C51.75,69.07 56.93,61.5 60.42,56.41C63.43,52.02 66.77,47.15 68.84,44.13C70.05,42.37 70.44,41.8 71.72,39.94C74.25,36.26 79.49,28.6 83.02,23.46C86.13,18.93 89.75,13.66 91.79,10.68Q92.89,9.08 94.32,6.99L436,6.99L436,320L0,320Z" style="stroke: none; fill: rgb(214, 96, 77);"/><path d="M0,238.16Q7.81,226.77 11.67,221.15C15.46,215.62 19.2,210.18 22.96,204.695C26.73,199.2 30.49,193.73 34.27,188.21C38.08,182.66 41.93,177.02 45.725,171.49C49.46,166.04 53.11,160.73 56.86,155.26C60.7,149.67 64.68,143.86 68.5,138.285C72.21,132.88 75.74,127.74 79.46,122.31C83.32,116.68 87.43,110.7 91.275,105.08500000000001C94.95,99.72 98.37,94.74 102.06,89.36C105.95,83.69 110.18,77.53 114.05,71.88499999999999C117.7,66.57 121.07,61.65 124.66,56.41C128.37,51.01 133.85,43.03 135.96,39.94C136.79,38.73 136.87,38.6 137.68,37.42C139.58,34.64 143.94,28.31 147.26,23.46Q150.87,18.2 158.56,6.99L436,6.99L436,320L0,320Z" style="stroke: none; fill: rgb(244, 165, 130);"/><path d="M8.11,320Q16.71,307.47 19.41,303.53C20.92,301.32 21.54,300.42 22.95,298.37C25.04,295.33 27.88,291.18 30.71,287.05C34.12,282.07 39.23,274.64 42.01,270.58C43.64,268.2 44.39,267.1 45.89,264.91C47.97,261.88 50.58,258.08 53.31,254.1C56.68,249.19 61.75,241.8 64.61,237.63C66.36,235.08 67.25,233.78 68.84,231.46C70.9,228.46 73.28,224.99 75.91,221.15C79.24,216.3 84.28,208.95 87.21,204.68C89.08,201.96 90.12,200.44 91.79,198C93.82,195.05 95.98,191.9 98.51,188.21C101.79,183.43 106.81,176.1 109.81,171.73C111.79,168.84 112.99,167.09 114.74,164.54C116.73,161.64 118.68,158.79 121.11,155.26C124.34,150.55 129.35,143.24 132.41,138.78C134.5,135.73 135.86,133.74 137.68,131.09C139.62,128.26 141.38,125.69 143.7,122.31C146.88,117.67 151.88,110.37 155,105.83C157.2,102.62 158.75,100.37 160.63,97.63C162.52,94.88 164.09,92.59 166.3,89.36C169.42,84.81 174.43,77.51 177.6,72.89C179.91,69.53 181.65,66.99 183.58,64.17C185.41,61.51 186.8,59.48 188.9,56.41C191.97,51.94 196.97,44.64 200.2,39.94C202.61,36.42 204.55,33.61 206.53,30.72C208.29,28.16 209.51,26.37 211.5,23.46Q214.5,19.08 222.8,6.99L436,6.99L436,320Z" style="stroke: none; fill: rgb(253, 219, 199);"/><path d="M72.35,320Q80.19,308.57 83.65,303.53C86.59,299.25 89.71,294.7 91.79,291.66C93.09,289.77 93.57,289.06 94.95,287.05C97.56,283.25 102.75,275.68 106.25,270.58C109.28,266.16 112.67,261.23 114.74,258.21C115.93,256.47 116.3,255.93 117.55,254.1C120.06,250.44 125.32,242.78 128.85,237.63C131.98,233.07 135.64,227.72 137.68,224.75C138.76,223.18 139.03,222.79 140.15,221.15C142.55,217.65 147.88,209.89 151.45,204.68C154.67,199.99 158.64,194.18 160.63,191.29C161.58,189.9 161.76,189.64 162.75,188.21C165.03,184.89 170.44,176.99 174.05,171.73C177.36,166.9 181.67,160.63 183.58,157.84C184.4,156.64 184.5,156.49 185.35,155.26C187.49,152.15 192.94,144.18 196.65,138.78C200.24,133.55 203.6,128.65 207.24,123.345C211.12,117.69 215.36,111.51 219.25,105.83C222.93,100.46 226.33,95.49 230.005,90.14C233.86,84.53 237.97,78.53 241.84,72.89C245.56,67.47 249.08,62.34 252.77999999999997,56.94C256.6,51.36 260.6,45.54 264.44,39.94C268.19,34.47 271.82,29.18 275.555,23.735Q279.35,18.2 287.04,6.99L436,6.99L436,320Z" style="stroke: none; fill: rgb(247, 247, 247);"/><path d="M136.59,320Q144.07,309.11 147.89,303.53C151.84,297.78 156.03,291.66 159.91,286C163.55,280.69 166.91,275.81 170.49,270.58C174.2,265.18 179.64,257.22 181.79,254.1C182.64,252.86 182.75,252.71 183.58,251.5C185.5,248.71 189.78,242.45 193.09,237.63C196.69,232.37 202.1,224.48 204.39,221.15C205.38,219.7 205.57,219.44 206.53,218.04C208.52,215.14 212.48,209.37 215.69,204.68C219.26,199.48 224.59,191.72 226.99,188.21C228.12,186.56 228.39,186.16 229.47,184.58C231.51,181.61 235.17,176.28 238.29,171.73C241.82,166.58 247.08,158.92 249.59,155.26C250.85,153.43 251.22,152.87 252.42,151.13C254.49,148.11 257.86,143.19 260.89,138.78C264.39,133.68 269.58,126.12 272.19,122.31C273.58,120.29 274.07,119.57 275.37,117.67C277.45,114.63 280.56,110.1 283.49,105.83C286.95,100.79 292.09,93.3 294.79,89.36C296.3,87.16 296.91,86.26 298.32,84.21C300.41,81.17 303.26,77.02 306.09,72.89C309.5,67.91 314.6,60.47 317.38,56.41C319.01,54.03 319.76,52.95 321.26,50.76C323.34,47.73 325.95,43.92 328.68,39.94C332.05,35.02 337.12,27.63 339.98,23.46C341.73,20.91 342.62,19.62 344.21,17.3Q346.27,14.3 351.28,6.99L436,6.99L436,320Z" style="stroke: none; fill: rgb(209, 229, 240);"/><path d="M200.84,320Q204.64,314.46 206.53,311.7C208.4,308.97 209.94,306.73 212.13,303.53C215.24,298.99 220.25,291.69 223.43,287.05C225.76,283.66 227.53,281.08 229.47,278.25C231.28,275.61 232.65,273.62 234.73,270.58C237.79,266.12 242.8,258.81 246.03,254.1C248.46,250.56 250.43,247.69 252.42,244.79C254.16,242.25 255.36,240.51 257.33,237.63C260.32,233.27 265.35,225.94 268.63,221.15C271.16,217.46 273.34,214.29 275.37,211.33C277.04,208.9 278.07,207.39 279.93,204.68C282.86,200.41 287.9,193.06 291.23,188.21C293.87,184.37 296.26,180.88 298.32,177.88C299.91,175.57 300.79,174.27 302.53,171.73C305.38,167.56 310.46,160.18 313.83,155.26C316.57,151.27 319.18,147.45 321.26,144.42C322.76,142.24 323.5,141.15 325.13,138.78C327.91,134.73 333.01,127.29 336.43,122.31C339.27,118.18 342.12,114 344.21,110.96C345.61,108.91 346.22,108.03 347.73,105.83C350.43,101.9 355.57,94.4 359.03,89.36C361.96,85.09 365.08,80.55 367.16,77.51C368.46,75.61 368.95,74.9 370.33,72.89C372.94,69.09 378.13,61.51 381.63,56.41C384.66,51.99 388.04,47.06 390.11,44.05C391.3,42.31 391.68,41.77 392.93,39.94C395.44,36.28 400.69,28.61 404.22,23.46C407.34,18.9 411.01,13.56 413.05,10.59Q414.13,9.02 415.52,6.99L436,6.99L436,320Z" style="stroke: none; fill: rgb(146, 197, 222);"/><path d="M265.08,320Q272.2,309.62 275.875,304.26C279.72,298.65 283.82,292.68 287.68,287.05C291.4,281.62 294.94,276.47 298.645,271.06C302.46,265.49 306.44,259.69 310.27,254.1C314.02,248.63 317.67,243.31 321.41499999999996,237.85500000000002C325.21,232.33 329.06,226.7 332.87,221.15C336.65,215.63 340.42,210.14 344.19,204.65C347.95,199.16 351.69,193.72 355.47,188.21C359.28,182.65 363.17,176.99 366.96500000000003,171.45C370.7,166.01 374.32,160.72 378.07,155.26C381.91,149.66 385.91,143.82 389.74,138.245C393.44,132.85 396.95,127.73 400.67,122.31C404.54,116.67 408.66,110.66 412.51,105.045C416.18,99.69 419.53,94.81 423.27,89.36Q427.34,83.43 436,70.8L436,320Z" style="stroke: none; fill: rgb(67, 147, 195);"/><path d="M329.32,320Q337.9,307.49 340.62,303.53C342.15,301.3 342.79,300.37 344.21,298.29C346.29,295.25 349.11,291.15 351.92,287.05C355.33,282.08 360.42,274.66 363.22,270.58C364.87,268.17 365.64,267.04 367.16,264.83C369.23,261.81 371.81,258.06 374.52,254.1C377.88,249.2 382.94,241.82 385.81,237.63C387.58,235.05 388.5,233.71 390.11,231.37C392.16,228.38 394.5,224.96 397.11,221.15C400.43,216.31 405.47,208.97 408.41,204.68C410.3,201.93 411.36,200.38 413.05,197.92C415.07,194.98 417.2,191.87 419.71,188.21C422.98,183.44 428,176.11 431.01,171.73Q433.01,168.82 436,164.46L436,320Z" style="stroke: none; fill: rgb(33, 102, 172);"/><path d="M393.56,320Q401.4,308.58 404.86,303.53C407.81,299.23 410.97,294.62 413.05,291.58C414.33,289.71 414.8,289.03 416.16,287.05C418.75,283.27 423.96,275.69 427.46,270.58Q430.51,266.14 436,258.12L436,320Z" style="stroke: none; fill: rgb(5, 48, 97);"/></g><g class="contourlines"><g class="contourlevel"><path class="openline" d="M0,50.84Q4.73,43.95 7.48,39.94C10.86,35.01 15.93,27.61 18.78,23.46C20.51,20.94 21.37,19.68 22.95,17.38Q25.01,14.38 30.08,6.99" style="stroke-miterlimit: 1; vector-effect: non-scaling-stroke; fill: none; stroke: rgb(0, 0, 0); stroke-opacity: 1; stroke-width: 0.5px;"/></g><g class="contourlevel"><path class="openline" d="M0,144.5Q2.27,141.18 3.92,138.78C6.71,134.71 11.81,127.28 15.22,122.31C18.04,118.2 20.87,114.09 22.95,111.05C24.37,108.98 25,108.06 26.52,105.83C29.23,101.87 34.37,94.39 37.82,89.36C40.74,85.11 43.8,80.63 45.89,77.59C47.21,75.67 47.72,74.93 49.12,72.89C51.75,69.07 56.93,61.5 60.42,56.41C63.43,52.02 66.77,47.15 68.84,44.13C70.05,42.37 70.44,41.8 71.72,39.94C74.25,36.26 79.49,28.6 83.02,23.46C86.13,18.93 89.75,13.66 91.79,10.68Q92.89,9.08 94.32,6.99" style="stroke-miterlimit: 1; vector-effect: non-scaling-stroke; fill: none; stroke: rgb(0, 0, 0); stroke-opacity: 1; stroke-width: 0.5px;"/></g><g class="contourlevel"><path class="openline" d="M0,238.16Q7.81,226.77 11.67,221.15C15.46,215.62 19.2,210.18 22.96,204.695C26.73,199.2 30.49,193.73 34.27,188.21C38.08,182.66 41.93,177.02 45.725,171.49C49.46,166.04 53.11,160.73 56.86,155.26C60.7,149.67 64.68,143.86 68.5,138.285C72.21,132.88 75.74,127.74 79.46,122.31C83.32,116.68 87.43,110.7 91.275,105.08500000000001C94.95,99.72 98.37,94.74 102.06,89.36C105.95,83.69 110.18,77.53 114.05,71.88499999999999C117.7,66.57 121.07,61.65 124.66,56.41C128.37,51.01 133.85,43.03 135.96,39.94C136.79,38.73 136.87,38.6 137.68,37.42C139.58,34.64 143.94,28.31 147.26,23.46Q150.87,18.2 158.56,6.99" style="stroke-miterlimit: 1; vector-effect: non-scaling-stroke; fill: none; stroke: rgb(0, 0, 0); stroke-opacity: 1; stroke-width: 0.5px;"/></g><g class="contourlevel"><path class="openline" d="M8.11,320Q16.71,307.47 19.41,303.53C20.92,301.32 21.54,300.42 22.95,298.37C25.04,295.33 27.88,291.18 30.71,287.05C34.12,282.07 39.23,274.64 42.01,270.58C43.64,268.2 44.39,267.1 45.89,264.91C47.97,261.88 50.58,258.08 53.31,254.1C56.68,249.19 61.75,241.8 64.61,237.63C66.36,235.08 67.25,233.78 68.84,231.46C70.9,228.46 73.28,224.99 75.91,221.15C79.24,216.3 84.28,208.95 87.21,204.68C89.08,201.96 90.12,200.44 91.79,198C93.82,195.05 95.98,191.9 98.51,188.21C101.79,183.43 106.81,176.1 109.81,171.73C111.79,168.84 112.99,167.09 114.74,164.54C116.73,161.64 118.68,158.79 121.11,155.26C124.34,150.55 129.35,143.24 132.41,138.78C134.5,135.73 135.86,133.74 137.68,131.09C139.62,128.26 141.38,125.69 143.7,122.31C146.88,117.67 151.88,110.37 155,105.83C157.2,102.62 158.75,100.37 160.63,97.63C162.52,94.88 164.09,92.59 166.3,89.36C169.42,84.81 174.43,77.51 177.6,72.89C179.91,69.53 181.65,66.99 183.58,64.17C185.41,61.51 186.8,59.48 188.9,56.41C191.97,51.94 196.97,44.64 200.2,39.94C202.61,36.42 204.55,33.61 206.53,30.72C208.29,28.16 209.51,26.37 211.5,23.46Q214.5,19.08 222.8,6.99" style="stroke-miterlimit: 1; vector-effect: non-scaling-stroke; fill: none; stroke: rgb(0, 0, 0); stroke-opacity: 1; stroke-width: 0.5px;"/></g><g class="contourlevel"><path class="openline" d="M72.35,320Q80.19,308.57 83.65,303.53C86.59,299.25 89.71,294.7 91.79,291.66C93.09,289.77 93.57,289.06 94.95,287.05C97.56,283.25 102.75,275.68 106.25,270.58C109.28,266.16 112.67,261.23 114.74,258.21C115.93,256.47 116.3,255.93 117.55,254.1C120.06,250.44 125.32,242.78 128.85,237.63C131.98,233.07 135.64,227.72 137.68,224.75C138.76,223.18 139.03,222.79 140.15,221.15C142.55,217.65 147.88,209.89 151.45,204.68C154.67,199.99 158.64,194.18 160.63,191.29C161.58,189.9 161.76,189.64 162.75,188.21C165.03,184.89 170.44,176.99 174.05,171.73C177.36,166.9 181.67,160.63 183.58,157.84C184.4,156.64 184.5,156.49 185.35,155.26C187.49,152.15 192.94,144.18 196.65,138.78C200.24,133.55 203.6,128.65 207.24,123.345C211.12,117.69 215.36,111.51 219.25,105.83C222.93,100.46 226.33,95.49 230.005,90.14C233.86,84.53 237.97,78.53 241.84,72.89C245.56,67.47 249.08,62.34 252.77999999999997,56.94C256.6,51.36 260.6,45.54 264.44,39.94C268.19,34.47 271.82,29.18 275.555,23.735Q279.35,18.2 287.04,6.99" style="stroke-miterlimit: 1; vector-effect: non-scaling-stroke; fill: none; stroke: rgb(0, 0, 0); stroke-opacity: 1; stroke-width: 0.5px;"/></g><g class="contourlevel"><path class="openline" d="M136.59,320Q144.07,309.11 147.89,303.53C151.84,297.78 156.03,291.66 159.91,286C163.55,280.69 166.91,275.81 170.49,270.58C174.2,265.18 179.64,257.22 181.79,254.1C182.64,252.86 182.75,252.71 183.58,251.5C185.5,248.71 189.78,242.45 193.09,237.63C196.69,232.37 202.1,224.48 204.39,221.15C205.38,219.7 205.57,219.44 206.53,218.04C208.52,215.14 212.48,209.37 215.69,204.68C219.26,199.48 224.59,191.72 226.99,188.21C228.12,186.56 228.39,186.16 229.47,184.58C231.51,181.61 235.17,176.28 238.29,171.73C241.82,166.58 247.08,158.92 249.59,155.26C250.85,153.43 251.22,152.87 252.42,151.13C254.49,148.11 257.86,143.19 260.89,138.78C264.39,133.68 269.58,126.12 272.19,122.31C273.58,120.29 274.07,119.57 275.37,117.67C277.45,114.63 280.56,110.1 283.49,105.83C286.95,100.79 292.09,93.3 294.79,89.36C296.3,87.16 296.91,86.26 298.32,84.21C300.41,81.17 303.26,77.02 306.09,72.89C309.5,67.91 314.6,60.47 317.38,56.41C319.01,54.03 319.76,52.95 321.26,50.76C323.34,47.73 325.95,43.92 328.68,39.94C332.05,35.02 337.12,27.63 339.98,23.46C341.73,20.91 342.62,19.62 344.21,17.3Q346.27,14.3 351.28,6.99" style="stroke-miterlimit: 1; vector-effect: non-scaling-stroke; fill: none; stroke: rgb(0, 0, 0); stroke-opacity: 1; stroke-width: 0.5px;"/></g><g class="contourlevel"><path class="openline" d="M200.84,320Q204.64,314.46 206.53,311.7C208.4,308.97 209.94,306.73 212.13,303.53C215.24,298.99 220.25,291.69 223.43,287.05C225.76,283.66 227.53,281.08 229.47,278.25C231.28,275.61 232.65,273.62 234.73,270.58C237.79,266.12 242.8,258.81 246.03,254.1C248.46,250.56 250.43,247.69 252.42,244.79C254.16,242.25 255.36,240.51 257.33,237.63C260.32,233.27 265.35,225.94 268.63,221.15C271.16,217.46 273.34,214.29 275.37,211.33C277.04,208.9 278.07,207.39 279.93,204.68C282.86,200.41 287.9,193.06 291.23,188.21C293.87,184.37 296.26,180.88 298.32,177.88C299.91,175.57 300.79,174.27 302.53,171.73C305.38,167.56 310.46,160.18 313.83,155.26C316.57,151.27 319.18,147.45 321.26,144.42C322.76,142.24 323.5,141.15 325.13,138.78C327.91,134.73 333.01,127.29 336.43,122.31C339.27,118.18 342.12,114 344.21,110.96C345.61,108.91 346.22,108.03 347.73,105.83C350.43,101.9 355.57,94.4 359.03,89.36C361.96,85.09 365.08,80.55 367.16,77.51C368.46,75.61 368.95,74.9 370.33,72.89C372.94,69.09 378.13,61.51 381.63,56.41C384.66,51.99 388.04,47.06 390.11,44.05C391.3,42.31 391.68,41.77 392.93,39.94C395.44,36.28 400.69,28.61 404.22,23.46C407.34,18.9 411.01,13.56 413.05,10.59Q414.13,9.02 415.52,6.99" style="stroke-miterlimit: 1; vector-effect: non-scaling-stroke; fill: none; stroke: rgb(0, 0, 0); stroke-opacity: 1; stroke-width: 0.5px;"/></g><g class="contourlevel"><path class="openline" d="M265.08,320Q272.2,309.62 275.875,304.26C279.72,298.65 283.82,292.68 287.68,287.05C291.4,281.62 294.94,276.47 298.645,271.06C302.46,265.49 306.44,259.69 310.27,254.1C314.02,248.63 317.67,243.31 321.41499999999996,237.85500000000002C325.21,232.33 329.06,226.7 332.87,221.15C336.65,215.63 340.42,210.14 344.19,204.65C347.95,199.16 351.69,193.72 355.47,188.21C359.28,182.65 363.17,176.99 366.96500000000003,171.45C370.7,166.01 374.32,160.72 378.07,155.26C381.91,149.66 385.91,143.82 389.74,138.245C393.44,132.85 396.95,127.73 400.67,122.31C404.54,116.67 408.66,110.66 412.51,105.045C416.18,99.69 419.53,94.81 423.27,89.36Q427.34,83.43 436,70.8" style="stroke-miterlimit: 1; vector-effect: non-scaling-stroke; fill: none; stroke: rgb(0, 0, 0); stroke-opacity: 1; stroke-width: 0.5px;"/></g><g class="contourlevel"><path class="openline" d="M329.32,320Q337.9,307.49 340.62,303.53C342.15,301.3 342.79,300.37 344.21,298.29C346.29,295.25 349.11,291.15 351.92,287.05C355.33,282.08 360.42,274.66 363.22,270.58C364.87,268.17 365.64,267.04 367.16,264.83C369.23,261.81 371.81,258.06 374.52,254.1C377.88,249.2 382.94,241.82 385.81,237.63C387.58,235.05 388.5,233.71 390.11,231.37C392.16,228.38 394.5,224.96 397.11,221.15C400.43,216.31 405.47,208.97 408.41,204.68C410.3,201.93 411.36,200.38 413.05,197.92C415.07,194.98 417.2,191.87 419.71,188.21C422.98,183.44 428,176.11 431.01,171.73Q433.01,168.82 436,164.46" style="stroke-miterlimit: 1; vector-effect: non-scaling-stroke; fill: none; stroke: rgb(0, 0, 0); stroke-opacity: 1; stroke-width: 0.5px;"/></g><g class="contourlevel"><path class="openline" d="M393.56,320Q401.4,308.58 404.86,303.53C407.81,299.23 410.97,294.62 413.05,291.58C414.33,289.71 414.8,289.03 416.16,287.05C418.75,283.27 423.96,275.69 427.46,270.58Q430.51,266.14 436,258.12" style="stroke-miterlimit: 1; vector-effect: non-scaling-stroke; fill: none; stroke: rgb(0, 0, 0); stroke-opacity: 1; stroke-width: 0.5px;"/></g></g></g></g><g class="scatterlayer mlayer"><g class="trace scatter trace5cb27f" style="stroke-miterlimit: 2; opacity: 1;"><g class="fills"/><g class="errorbars"/><g class="lines"/><g class="points"><path class="point" transform="translate(327.62,134.69)" d="M5,0A5,5 0 1,1 0,-5A5,5 0 0,1 5,0Z" style="opacity: 1; stroke-width: 0px; fill: rgb(5, 48, 97); fill-opacity: 1;"/><path class="point" transform="translate(265.48,176.52)" d="M5,0A5,5 0 1,1 0,-5A5,5 0 0,1 5,0Z" style="opacity: 1; stroke-width: 0px; fill: rgb(5, 48, 97); fill-opacity: 1;"/><path class="point" transform="translate(207.87,180.98)" d="M5,0A5,5 0 1,1 0,-5A5,5 0 0,1 5,0Z" style="opacity: 1; stroke-width: 0px; fill: rgb(5, 48, 97); fill-opacity: 1;"/><path class="point" transform="translate(135.81,229.58)" d="M5,0A5,5 0 1,1 0,-5A5,5 0 0,1 5,0Z" style="opacity: 1; stroke-width: 0px; fill: rgb(103, 0, 31); fill-opacity: 1;"/><path class="point" transform="translate(314.2,285.56)" d="M5,0A5,5 0 1,1 0,-5A5,5 0 0,1 5,0Z" style="opacity: 1; stroke-width: 0px; fill: rgb(5, 48, 97); fill-opacity: 1;"/><path class="point" transform="translate(112.57,92.26)" d="M5,0A5,5 0 1,1 0,-5A5,5 0 0,1 5,0Z" style="opacity: 1; stroke-width: 0px; fill: rgb(103, 0, 31); fill-opacity: 1;"/><path class="point" transform="translate(324.15,160.62)" d="M5,0A5,5 0 1,1 0,-5A5,5 0 0,1 5,0Z" style="opacity: 1; stroke-width: 0px; fill: rgb(5, 48, 97); fill-opacity: 1;"/><path class="point" transform="translate(133.1,166.81)" d="M5,0A5,5 0 1,1 0,-5A5,5 0 0,1 5,0Z" style="opacity: 1; stroke-width: 0px; fill: rgb(103, 0, 31); fill-opacity: 1;"/><path class="point" transform="translate(161.86,184.35)" d="M5,0A5,5 0 1,1 0,-5A5,5 0 0,1 5,0Z" style="opacity: 1; stroke-width: 0px; fill: rgb(103, 0, 31); fill-opacity: 1;"/><path class="point" transform="translate(188.49,241.03)" d="M5,0A5,5 0 1,1 0,-5A5,5 0 0,1 5,0Z" style="opacity: 1; stroke-width: 0px; fill: rgb(103, 0, 31); fill-opacity: 1;"/><path class="point" transform="translate(361.11,289.87)" d="M5,0A5,5 0 1,1 0,-5A5,5 0 0,1 5,0Z" style="opacity: 1; stroke-width: 0px; fill: rgb(5, 48, 97); fill-opacity: 1;"/><path class="point" transform="translate(276.57,22.25)" d="M5,0A5,5 0 1,1 0,-5A5,5 0 0,1 5,0Z" style="opacity: 1; stroke-width: 0px; fill: rgb(103, 0, 31); fill-opacity: 1;"/><path class="point" transform="translate(212.94,116.18)" d="M5,0A5,5 0 1,1 0,-5A5,5 0 0,1 5,0Z" style="opacity: 1; stroke-width: 0px; fill: rgb(103, 0, 31); fill-opacity: 1;"/><path class="point" transform="translate(166.07,183.37)" d="M5,0A5,5 0 1,1 0,-5A5,5 0 0,1 5,0Z" style="opacity: 1; stroke-width: 0px; fill: rgb(103, 0, 31); fill-opacity: 1;"/><path class="point" transform="translate(132.97,196.32)" d="M5,0A5,5 0 1,1 0,-5A5,5 0 0,1 5,0Z" style="opacity: 1; stroke-width: 0px; fill: rgb(103, 0, 31); fill-opacity: 1;"/><path class="point" transform="translate(191.74,104.51)" d="M5,0A5,5 0 1,1 0,-5A5,5 0 0,1 5,0Z" style="opacity: 1; stroke-width: 0px; fill: rgb(103, 0, 31); fill-opacity: 1;"/><path class="point" transform="translate(238.55,197.65)" d="M5,0A5,5 0 1,1 0,-5A5,5 0 0,1 5,0Z" style="opacity: 1; stroke-width: 0px; fill: rgb(103, 0, 31); fill-opacity: 1;"/><path class="point" transform="translate(261.29,136.27)" d="M5,0A5,5 0 1,1 0,-5A5,5 0 0,1 5,0Z" style="opacity: 1; stroke-width: 0px; fill: rgb(5, 48, 97); fill-opacity: 1;"/><path class="point" transform="translate(210.68,82.01)" d="M5,0A5,5 0 1,1 0,-5A5,5 0 0,1 5,0Z" style="opacity: 1; stroke-width: 0px; fill: rgb(103, 0, 31); fill-opacity: 1;"/><path class="point" transform="translate(120.59,126.97)" d="M5,0A5,5 0 1,1 0,-5A5,5 0 0,1 5,0Z" style="opacity: 1; stroke-width: 0px; fill: rgb(103, 0, 31); fill-opacity: 1;"/><path class="point" transform="translate(178.68,56.25)" d="M5,0A5,5 0 1,1 0,-5A5,5 0 0,1 5,0Z" style="opacity: 1; stroke-width: 0px; fill: rgb(103, 0, 31); fill-opacity: 1;"/><path class="point" transform="translate(326.39,49.85)" d="M5,0A5,5 0 1,1 0,-5A5,5 0 0,1 5,0Z" style="opacity: 1; stroke-width: 0px; fill: rgb(103, 0, 31); fill-opacity: 1;"/><path class="point" transform="translate(165.38,285.07)" d="M5,0A5,5 0 1,1 0,-5A5,5 0 0,1 5,0Z" style="opacity: 1; stroke-width: 0px; fill: rgb(103, 0, 31); fill-opacity: 1;"/><path class="point" transform="translate(196.74,110.29)" d="M5,0A5,5 0 1,1 0,-5A5,5 0 0,1 5,0Z" style="opacity: 1; stroke-width: 0px; fill: rgb(5, 48, 97); fill-opacity: 1;"/><path class="point" transform="translate(170.34,161.34)" d="M5,0A5,5 0 1,1 0,-5A5,5 0 0,1 5,0Z" style="opacity: 1; stroke-width: 0px; fill: rgb(103, 0, 31); fill-opacity: 1;"/><path class="point" transform="translate(227.14,188.38)" d="M5,0A5,5 0 1,1 0,-5A5,5 0 0,1 5,0Z" style="opacity: 1; stroke-width: 0px; fill: rgb(5, 48, 97); fill-opacity: 1;"/><path class="point" transform="translate(281.33,210.51)" d="M5,0A5,5 0 1,1 0,-5A5,5 0 0,1 5,0Z" style="opacity: 1; stroke-width: 0px; fill: rgb(5, 48, 97); fill-opacity: 1;"/><path class="point" transform="translate(166.84,278.95)" d="M5,0A5,5 0 1,1 0,-5A5,5 0 0,1 5,0Z" style="opacity: 1; stroke-width: 0px; fill: rgb(5, 48, 97); fill-opacity: 1;"/><path class="point" transform="translate(247.75,71.77)" d="M5,0A5,5 0 1,1 0,-5A5,5 0 0,1 5,0Z" style="opacity: 1; stroke-width: 0px; fill: rgb(103, 0, 31); fill-opacity: 1;"/><path class="point" transform="translate(272.65,160.07)" d="M5,0A5,5 0 1,1 0,-5A5,5 0 0,1 5,0Z" style="opacity: 1; stroke-width: 0px; fill: rgb(5, 48, 97); fill-opacity: 1;"/><path class="point" transform="translate(238.88,81.71)" d="M5,0A5,5 0 1,1 0,-5A5,5 0 0,1 5,0Z" style="opacity: 1; stroke-width: 0px; fill: rgb(103, 0, 31); fill-opacity: 1;"/><path class="point" transform="translate(249.94,132.85)" d="M5,0A5,5 0 1,1 0,-5A5,5 0 0,1 5,0Z" style="opacity: 1; stroke-width: 0px; fill: rgb(5, 48, 97); fill-opacity: 1;"/></g><g class="text"/></g></g></g><g class="overplot"/><path class="xlines-above crisp" style="fill: none;" d="M0,0"/><path class="ylines-above crisp" style="fill: none;" d="M0,0"/><g class="overlines-above"/><g class="xaxislayer-above"><g class="xtick"><text text-anchor="middle" x="0" y="433" transform="translate(183.26,0)" style="font-family: 'Open Sans', verdana, arial, sans-serif; font-size: 12px; fill: rgb(42, 63, 95); fill-opacity: 1; white-space: pre;">−1</text></g><g class="xtick"><text text-anchor="middle" x="0" y="433" transform="translate(298,0)" style="font-family: 'Open Sans', verdana, arial, sans-serif; font-size: 12px; fill: rgb(42, 63, 95); fill-opacity: 1; white-space: pre;">0</text></g><g class="xtick"><text text-anchor="middle" x="0" y="433" transform="translate(412.74,0)" style="font-family: 'Open Sans', verdana, arial, sans-serif; font-size: 12px; fill: rgb(42, 63, 95); fill-opacity: 1; white-space: pre;">1</text></g></g><g class="yaxislayer-above"><g class="ytick"><text text-anchor="end" x="79" y="4.199999999999999" transform="translate(0,420)" style="font-family: 'Open Sans', verdana, arial, sans-serif; font-size: 12px; fill: rgb(42, 63, 95); fill-opacity: 1; white-space: pre;">−1.5</text></g><g class="ytick"><text text-anchor="end" x="79" y="4.199999999999999" transform="translate(0,367.83)" style="font-family: 'Open Sans', verdana, arial, sans-serif; font-size: 12px; fill: rgb(42, 63, 95); fill-opacity: 1; white-space: pre;">−1</text></g><g class="ytick"><text text-anchor="end" x="79" y="4.199999999999999" transform="translate(0,315.65999999999997)" style="font-family: 'Open Sans', verdana, arial, sans-serif; font-size: 12px; fill: rgb(42, 63, 95); fill-opacity: 1; white-space: pre;">−0.5</text></g><g class="ytick"><text text-anchor="end" x="79" y="4.199999999999999" transform="translate(0,263.49)" style="font-family: 'Open Sans', verdana, arial, sans-serif; font-size: 12px; fill: rgb(42, 63, 95); fill-opacity: 1; white-space: pre;">0</text></g><g class="ytick"><text text-anchor="end" x="79" y="4.199999999999999" transform="translate(0,211.32999999999998)" style="font-family: 'Open Sans', verdana, arial, sans-serif; font-size: 12px; fill: rgb(42, 63, 95); fill-opacity: 1; white-space: pre;">0.5</text></g><g class="ytick"><text text-anchor="end" x="79" y="4.199999999999999" transform="translate(0,159.16)" style="font-family: 'Open Sans', verdana, arial, sans-serif; font-size: 12px; fill: rgb(42, 63, 95); fill-opacity: 1; white-space: pre;">1</text></g><g class="ytick"><text text-anchor="end" x="79" y="4.199999999999999" transform="translate(0,106.99)" style="font-family: 'Open Sans', verdana, arial, sans-serif; font-size: 12px; fill: rgb(42, 63, 95); fill-opacity: 1; white-space: pre;">1.5</text></g></g><g class="overaxes-above"/></g></g><g class="polarlayer"/><g class="ternarylayer"/><g class="geolayer"/><g class="funnelarealayer"/><g class="pielayer"/><g class="treemaplayer"/><g class="sunburstlayer"/><g class="glimages"/><defs id="topdefs-636d98"><g class="clips"/></defs><g class="layer-above"><g class="imagelayer"/><g class="shapelayer"/></g><g class="infolayer"><g class="cba59df6 colorbar" transform="translate(80,100)"><rect class="cbbg" x="445" y="0" width="63.734375" height="320" style="fill: rgb(0, 0, 0); fill-opacity: 0; stroke: rgb(68, 68, 68); stroke-opacity: 1; stroke-width: 0;"/><g class="cbfills" transform="translate(0,10)"><rect class="cbfill" x="455" width="30" y="1" height="299" fill="#67001f" style="stroke: none;"/><rect class="cbfill" x="455" width="30" y="1" height="284" fill="#b2182b" style="stroke: none;"/><rect class="cbfill" x="455" width="30" y="1" height="254" fill="#d6604d" style="stroke: none;"/><rect class="cbfill" x="455" width="30" y="1" height="224" fill="#f4a582" style="stroke: none;"/><rect class="cbfill" x="455" width="30" y="1" height="194" fill="#fddbc7" style="stroke: none;"/><rect class="cbfill" x="455" width="30" y="1" height="164" fill="#f7f7f7" style="stroke: none;"/><rect class="cbfill" x="455" width="30" y="1" height="134" fill="#d1e5f0" style="stroke: none;"/><rect class="cbfill" x="455" width="30" y="1" height="104" fill="#92c5de" style="stroke: none;"/><rect class="cbfill" x="455" width="30" y="1" height="74" fill="#4393c3" style="stroke: none;"/><rect class="cbfill" x="455" width="30" y="1" height="44" fill="#2166ac" style="stroke: none;"/><rect class="cbfill" x="455" width="30" y="0" height="15" fill="#053061" style="stroke: none;"/></g><g class="cblines" transform="translate(0,10)"><path class="cbline" d="M455,285.25h30" style="fill: none; stroke: rgb(0, 0, 0); stroke-opacity: 1; stroke-width: 0.5px;"/><path class="cbline" d="M455,255.25h30" style="fill: none; stroke: rgb(0, 0, 0); stroke-opacity: 1; stroke-width: 0.5px;"/><path class="cbline" d="M455,225.25h30" style="fill: none; stroke: rgb(0, 0, 0); stroke-opacity: 1; stroke-width: 0.5px;"/><path class="cbline" d="M455,195.25h30" style="fill: none; stroke: rgb(0, 0, 0); stroke-opacity: 1; stroke-width: 0.5px;"/><path class="cbline" d="M455,165.25h30" style="fill: none; stroke: rgb(0, 0, 0); stroke-opacity: 1; stroke-width: 0.5px;"/><path class="cbline" d="M455,135.25h30" style="fill: none; stroke: rgb(0, 0, 0); stroke-opacity: 1; stroke-width: 0.5px;"/><path class="cbline" d="M455,105.25h30" style="fill: none; stroke: rgb(0, 0, 0); stroke-opacity: 1; stroke-width: 0.5px;"/><path class="cbline" d="M455,75.25h30" style="fill: none; stroke: rgb(0, 0, 0); stroke-opacity: 1; stroke-width: 0.5px;"/><path class="cbline" d="M455,45.25h30" style="fill: none; stroke: rgb(0, 0, 0); stroke-opacity: 1; stroke-width: 0.5px;"/><path class="cbline" d="M455,15.25h30" style="fill: none; stroke: rgb(0, 0, 0); stroke-opacity: 1; stroke-width: 0.5px;"/></g><g class="cbaxis crisp" transform="translate(0,-100)"><g class="ycba59df6tick"><text text-anchor="start" x="487.9" y="4.199999999999999" transform="translate(0,365)" style="font-family: 'Open Sans', verdana, arial, sans-serif; font-size: 12px; fill: rgb(42, 63, 95); fill-opacity: 1; white-space: pre;">−4</text></g><g class="ycba59df6tick"><text text-anchor="start" x="487.9" y="4.199999999999999" transform="translate(0,305)" style="font-family: 'Open Sans', verdana, arial, sans-serif; font-size: 12px; fill: rgb(42, 63, 95); fill-opacity: 1; white-space: pre;">−2</text></g><g class="ycba59df6tick"><text text-anchor="start" x="487.9" y="4.199999999999999" transform="translate(0,245)" style="font-family: 'Open Sans', verdana, arial, sans-serif; font-size: 12px; fill: rgb(42, 63, 95); fill-opacity: 1; white-space: pre;">0</text></g><g class="ycba59df6tick"><text text-anchor="start" x="487.9" y="4.199999999999999" transform="translate(0,185)" style="font-family: 'Open Sans', verdana, arial, sans-serif; font-size: 12px; fill: rgb(42, 63, 95); fill-opacity: 1; white-space: pre;">2</text></g><g class="ycba59df6tick"><text text-anchor="start" x="487.9" y="4.199999999999999" transform="translate(0,125)" style="font-family: 'Open Sans', verdana, arial, sans-serif; font-size: 12px; fill: rgb(42, 63, 95); fill-opacity: 1; white-space: pre;">4</text></g></g><g class="cbtitleunshift" transform="translate(-80,-100)"><g class="cbtitle"/></g><rect class="cboutline" x="455" y="10" width="30" height="300" style="stroke: rgb(68, 68, 68); stroke-opacity: 1; fill: none; stroke-width: 0;"/></g><g class="g-gtitle"><text class="gtitle" x="30" y="50" text-anchor="start" dy="0em" style="font-family: 'Open Sans', verdana, arial, sans-serif; font-size: 17px; fill: rgb(42, 63, 95); opacity: 1; font-weight: normal; white-space: pre;">Decision function</text></g><g class="g-xtitle"/><g class="g-ytitle"/></g></svg>