<svg class="main-svg" xmlns="http://www.w3.org/2000/svg" xmlns:xlink="http://www.w3.org/1999/xlink" width="600" height="500" style="" viewBox="0 0 600 500"><rect x="0" y="0" width="600" height="500" style="fill: rgb(255, 255, 255); fill-opacity: 1;"/><defs id="defs-4ead4b"><g class="clips"><clipPath id="clip4ead4bxyplot" class="plotclip"><rect width="436" height="320"/></clipPath><clipPath class="axesclip" id="clip4ead4bx"><rect x="80" y="0" width="436" height="500"/></clipPath><clipPath class="axesclip" id="clip4ead4by"><rect x="0" y="100" width="600" height="320"/></clipPath><clipPath class="axesclip" id="clip4ead4bxy"><rect x="80" y="100" width="436" height="320"/></clipPath><clipPath class="contourclip" id="clip3eb576"><path d="M0,0L436,0L436,320L0,320Z"/></clipPath></g><g class="gradients"/></defs><g class="bglayer"><rect class="bg" x="80" y="100" width="436" height="320" style="fill: rgb(229, 236, 246); fill-opacity: 1; stroke-width: 0;"/></g><g class="layer-below"><g class="imagelayer"/><g class="shapelayer"/></g><g class="cartesianlayer"><g class="subplot xy"><g class="layer-subplot"><g class="shapelayer"/><g class="imagelayer"/></g><g class="gridlayer"><g class="x"><path class="xgrid crisp" transform="translate(189,0)" d="M0,100v320" style="stroke: rgb(255, 255, 255); stroke-opacity: 1; stroke-width: 1px;"/><path class="xgrid crisp" transform="translate(407,0)" d="M0,100v320" style="stroke: rgb(255, 255, 255); stroke-opacity: 1; stroke-width: 1px;"/></g><g class="y"><path class="ygrid crisp" transform="translate(0,380)" d="M80,0h436" style="stroke: rgb(255, 255, 255); stroke-opacity: 1; stroke-width: 1px;"/><path class="ygrid crisp" transform="translate(0,340)" d="M80,0h436" style="stroke: rgb(255, 255, 255); stroke-opacity: 1; stroke-width: 1px;"/><path class="ygrid crisp" transform="translate(0,300)" d="M80,0h436" style="stroke: rgb(255, 255, 255); stroke-opacity: 1; stroke-width: 1px;"/><path class="ygrid crisp" transform="translate(0,220)" d="M80,0h436" style="stroke: rgb(255, 255, 255); stroke-opacity: 1; stroke-width: 1px;"/><path class="ygrid crisp" transform="translate(0,180)" d="M80,0h436" style="stroke: rgb(255, 255, 255); stroke-opacity: 1; stroke-width: 1px;"/><path class="ygrid crisp" transform="translate(0,140)" d="M80,0h436" style="stroke: rgb(255, 255, 255); stroke-opacity: 1; stroke-width: 1px;"/></g></g><g class="zerolinelayer"><path class="xzl zl crisp" transform="translate(298,0)" d="M0,100v320" style="stroke: rgb(255, 255, 255); stroke-opacity: 1; stroke-width: 2px;"/><path class="yzl zl crisp" transform="translate(0,260)" d="M80,0h436" style="stroke: rgb(255, 255, 255); stroke-opacity: 1; stroke-width: 2px;"/></g><path class="xlines-below"/><path class="ylines-below"/><g class="overlines-below"/><g class="xaxislayer-below"/><g class="yaxislayer-below"/><g class="overaxes-below"/><g class="plot" transform="translate(80, 100)" clip-path="url('#clip4ead4bxyplot')"><g class="contourlayer mlayer"><g class="contour" clip-path="url('#clip3eb576')" style="opacity: 1;"><g class="heatmapcoloring"/><g class="contourbg"><path d="M0,0L436,0L436,320L0,320Z" style="stroke: none; fill: rgb(103, 0, 31);"/></g><g class="contourfill"><path d="M0,10.35L19.09,0L436,0L436,320L0,320Z" style="stroke: none; fill: rgb(171, 22, 42);"/><path d="M0,63.96Q16.07,55.25 23.869999999999997,51.03C31.36,46.97 39.99,42.29 45.89,39.09C49.86,36.93 52.32,35.6 55.86,33.68C59.9,31.49 64.15,29.19 68.84,26.65C74.37,23.65 82.82,19.07 86.94,16.84C89.07,15.68 89.57,15.41 91.79,14.21C96.61,11.6 110.55,4.04 114.74,1.77Q116.32,0.91 118.01,0L436,0L436,320L0,320Z" style="stroke: none; fill: rgb(207, 83, 71);"/><path d="M0,117.58Q17.38,108.16 22.95,105.14C26.15,103.41 27.53,102.65 30.49,101.05C34.72,98.76 40.73,95.49 45.89,92.7C51.09,89.88 57.33,86.5 61.56,84.21C64.45,82.65 65.73,81.96 68.84,80.27C74.42,77.25 84.5,71.78 92.215,67.6C99.79,63.49 108.93,58.54 114.74,55.39C118.41,53.4 120.39,52.33 123.71,50.53C127.85,48.28 132.79,45.6 137.68,42.95C143.09,40.01 150.57,35.96 154.78,33.68C157.24,32.35 158.02,31.93 160.63,30.51C165.93,27.64 176.89,21.7 184.715,17.46C192.17,13.42 200.59,8.86 206.53,5.64Q210.63,3.42 216.93,0L436,0L436,320L0,320Z" style="stroke: none; fill: rgb(236, 146, 116);"/><path d="M0,171.2Q2.9,169.63 5.12,168.42C9.27,166.17 17.45,161.74 22.95,158.76C27.69,156.19 32.12,153.79 36.19,151.58C39.67,149.69 42,148.43 45.89,146.32C51.77,143.13 60.54,138.38 68.05000000000001,134.31C75.83,130.09 86.34,124.39 91.79,121.44C94.65,119.89 95.66,119.34 98.34,117.89C102.57,115.6 109.43,111.89 114.74,109.01C119.77,106.29 125.22,103.32 129.41,101.05C132.56,99.34 134.24,98.44 137.68,96.57C143.41,93.47 152.92,88.31 160.555,84.16999999999999C168.22,80.02 177.89,74.77 183.58,71.69C186.93,69.88 188.49,69.04 191.56,67.37C195.77,65.09 201.45,62 206.53,59.25C211.8,56.39 218.39,52.83 222.63,50.53C225.39,49.03 226.51,48.43 229.47,46.82C234.97,43.84 245.31,38.23 253.06,34.03C260.6,29.94 269.52,25.11 275.37,21.94C279.17,19.88 281.35,18.69 284.77,16.84C288.87,14.61 293.51,12.1 298.32,9.5Q303.79,6.54 315.85,0L436,0L436,320L0,320Z" style="stroke: none; fill: rgb(250, 199, 174);"/><path d="M0,224.81Q7.11,220.96 10.82,218.95C14.75,216.82 18.46,214.81 22.95,212.37C28.56,209.33 37.91,204.27 41.89,202.11C43.72,201.12 44.01,200.96 45.89,199.94C50.4,197.5 64.28,189.97 68.84,187.5C70.77,186.45 71.09,186.28 72.97,185.26C76.97,183.09 86.19,178.1 91.79,175.06C96.31,172.61 100.09,170.56 104.04,168.42C107.73,166.42 110.55,164.89 114.74,162.62C120.7,159.39 128.97,154.9 136.395,150.88C144.25,146.63 155.4,140.58 160.63,137.75C163.13,136.39 163.82,136.02 166.18,134.74C170.37,132.47 178.13,128.27 183.58,125.31C188.41,122.69 193.14,120.12 197.26,117.89C200.65,116.05 202.77,114.91 206.53,112.87C212.37,109.7 221.35,104.83 228.9,100.74000000000001C236.64,96.54 246.89,90.99 252.42,87.99C255.43,86.36 256.6,85.73 259.4,84.21C263.64,81.92 270.12,78.4 275.37,75.56C280.48,72.79 286.26,69.66 290.48,67.37C293.52,65.72 295.02,64.91 298.32,63.12C303.99,60.05 313.73,54.76 321.405,50.605000000000004C329.03,46.47 338.47,41.35 344.21,38.24C347.7,36.35 349.44,35.41 352.62,33.68C356.81,31.41 362.16,28.51 367.16,25.8C372.49,22.91 379.46,19.13 383.69,16.84C386.33,15.41 387.28,14.9 390.11,13.37Q395.66,10.36 414.77,0L436,0L436,320L0,320Z" style="stroke: none; fill: rgb(250, 234, 225);"/><path d="M0,278.43Q12.29,271.76 16.52,269.47C19.16,268.04 20.13,267.52 22.95,265.99C28.38,263.05 38.96,257.31 46.74,253.09C54.24,249.02 62.94,244.3 68.84,241.11C72.77,238.98 75.16,237.69 78.67,235.79C82.73,233.59 87.07,231.24 91.79,228.68C97.31,225.69 105.61,221.19 109.74,218.95C111.92,217.77 112.47,217.47 114.74,216.24C119.61,213.6 133.55,206.03 137.68,203.8C139.2,202.98 139.32,202.92 140.81,202.11C144.57,200.08 154.95,194.44 160.63,191.36C164.91,189.04 168.1,187.31 171.89,185.26C175.75,183.17 179.19,181.31 183.58,178.93C189.23,175.87 199.08,170.52 202.96,168.42C204.62,167.52 204.82,167.41 206.53,166.49C210.86,164.15 224.75,156.61 229.47,154.05C231.57,152.91 232,152.68 234.03,151.58C238.11,149.37 246.86,144.62 252.42,141.61C257.04,139.11 261.1,136.91 265.1,134.74C268.7,132.79 271.31,131.37 275.37,129.17C281.3,125.96 289.79,121.36 297.25,117.315C305.07,113.08 315.93,107.19 321.26,104.3C323.92,102.86 324.74,102.41 327.25,101.05C331.46,98.76 338.82,94.78 344.21,91.86C349.13,89.19 354.16,86.46 358.32,84.21C361.61,82.43 363.53,81.38 367.16,79.42C372.96,76.28 382.16,71.29 389.75,67.17500000000001C397.46,63 407.45,57.59 413.05,54.55C416.21,52.84 417.55,52.12 420.47,50.53Q424.7,48.24 436,42.11L436,320L0,320Z" style="stroke: none; fill: rgb(230, 239, 244);"/><path d="M22.22,320Q40.23,310.24 45.89,307.17C49.06,305.45 50.38,304.74 53.3,303.16C57.53,300.87 63.66,297.54 68.84,294.73C74.02,291.92 80.14,288.61 84.37,286.32C87.3,284.73 88.63,284.01 91.79,282.29C97.39,279.25 107.38,273.84 115.09,269.665C122.68,265.55 131.89,260.56 137.68,257.42C141.3,255.46 143.22,254.41 146.51,252.63C150.67,250.38 155.71,247.65 160.63,244.98C166.02,242.06 173.38,238.08 177.59,235.79C180.1,234.43 180.92,233.98 183.58,232.54C188.91,229.65 199.78,223.76 207.595,219.52499999999998C215.06,215.48 223.54,210.88 229.47,207.67C233.53,205.47 236.13,204.06 239.73,202.11C243.74,199.94 247.8,197.74 252.42,195.23C257.98,192.21 266.72,187.47 270.8,185.26C272.83,184.16 273.26,183.93 275.37,182.79C280.09,180.23 294,172.69 298.32,170.35C300.02,169.43 300.22,169.32 301.88,168.42C305.76,166.32 315.61,160.97 321.26,157.91C325.65,155.53 329.09,153.67 332.95,151.58C336.74,149.53 339.93,147.8 344.21,145.48C349.89,142.4 360.26,136.78 364.02,134.74C365.52,133.93 365.63,133.87 367.16,133.04C371.29,130.8 385.24,123.24 390.11,120.6C392.38,119.37 392.92,119.07 395.1,117.89C399.23,115.65 407.53,111.15 413.05,108.16C417.77,105.6 422.11,103.25 426.17,101.05Q429.68,99.15 436,95.72L436,320Z" style="stroke: none; fill: rgb(186, 217, 233);"/><path d="M121.14,320Q132.34,313.92 137.68,311.03C142.68,308.32 148.03,305.43 152.22,303.16C155.41,301.43 157.14,300.49 160.63,298.6C166.37,295.49 175.81,290.37 183.435,286.24C191.11,282.08 200.86,276.79 206.53,273.72C209.83,271.93 211.32,271.12 214.36,269.47C218.58,267.18 224.36,264.05 229.47,261.28C234.72,258.44 241.19,254.93 245.43,252.63C248.23,251.11 249.4,250.47 252.42,248.84C257.95,245.84 268.2,240.3 275.94,236.1C283.49,232.01 292.48,227.14 298.32,223.97C302.08,221.93 304.19,220.79 307.58,218.95C311.7,216.72 316.43,214.15 321.26,211.53C326.71,208.58 334.46,204.38 338.65,202.11C341.02,200.83 341.7,200.45 344.21,199.09C349.44,196.25 360.59,190.21 368.44000000000005,185.95499999999998C375.86,181.93 384.15,177.45 390.11,174.22C394.3,171.95 397.12,170.42 400.8,168.42C404.74,166.28 408.53,164.23 413.05,161.78C418.65,158.74 427.87,153.75 431.87,151.58Q433.75,150.56 436,149.34L436,320Z" style="stroke: none; fill: rgb(124, 183, 215);"/><path d="M220.06,320Q225.67,316.96 229.47,314.9C235.33,311.73 244.24,306.9 251.77499999999998,302.81C259.53,298.61 269.86,293 275.37,290.02C278.33,288.42 279.45,287.82 282.21,286.32C286.45,284.02 293.05,280.44 298.32,277.58C303.4,274.83 309.07,271.75 313.28,269.47C316.35,267.8 317.91,266.96 321.26,265.15C326.95,262.07 336.62,256.82 344.28,252.67000000000002C351.92,248.53 361.43,243.37 367.16,240.27C370.6,238.4 372.28,237.5 375.43,235.79C379.63,233.52 385.08,230.56 390.11,227.83C395.42,224.95 402.27,221.25 406.5,218.95C409.18,217.5 410.2,216.93 413.05,215.39Q418.38,212.5 436,202.96L436,320Z" style="stroke: none; fill: rgb(61, 139, 191);"/><path d="M318.98,320Q338.75,309.29 344.21,306.33C346.84,304.9 347.59,304.49 350.05,303.16C354.26,300.88 361.75,296.82 367.16,293.89C372.05,291.24 376.99,288.57 381.13,286.32C384.45,284.52 386.44,283.44 390.11,281.45C395.92,278.3 405.05,273.35 412.625,269.24Q420.34,265.06 436,256.57L436,320Z" style="stroke: none; fill: rgb(30, 97, 165);"/><path d="M417.9,320L436,310.19L436,320Z" style="stroke: none; fill: rgb(5, 48, 97);"/></g><g class="contourlines"><g class="contourlevel"><path class="openline" d="M0,10.35L19.09,0" style="stroke-miterlimit: 1; vector-effect: non-scaling-stroke; fill: none; stroke: rgb(0, 0, 0); stroke-opacity: 1; stroke-width: 0.5px;"/></g><g class="contourlevel"><path class="openline" d="M0,63.96Q16.07,55.25 23.869999999999997,51.03C31.36,46.97 39.99,42.29 45.89,39.09C49.86,36.93 52.32,35.6 55.86,33.68C59.9,31.49 64.15,29.19 68.84,26.65C74.37,23.65 82.82,19.07 86.94,16.84C89.07,15.68 89.57,15.41 91.79,14.21C96.61,11.6 110.55,4.04 114.74,1.77Q116.32,0.91 118.01,0" style="stroke-miterlimit: 1; vector-effect: non-scaling-stroke; fill: none; stroke: rgb(0, 0, 0); stroke-opacity: 1; stroke-width: 0.5px;"/></g><g class="contourlevel"><path class="openline" d="M0,117.58Q17.38,108.16 22.95,105.14C26.15,103.41 27.53,102.65 30.49,101.05C34.72,98.76 40.73,95.49 45.89,92.7C51.09,89.88 57.33,86.5 61.56,84.21C64.45,82.65 65.73,81.96 68.84,80.27C74.42,77.25 84.5,71.78 92.215,67.6C99.79,63.49 108.93,58.54 114.74,55.39C118.41,53.4 120.39,52.33 123.71,50.53C127.85,48.28 132.79,45.6 137.68,42.95C143.09,40.01 150.57,35.96 154.78,33.68C157.24,32.35 158.02,31.93 160.63,30.51C165.93,27.64 176.89,21.7 184.715,17.46C192.17,13.42 200.59,8.86 206.53,5.64Q210.63,3.42 216.93,0" style="stroke-miterlimit: 1; vector-effect: non-scaling-stroke; fill: none; stroke: rgb(0, 0, 0); stroke-opacity: 1; stroke-width: 0.5px;"/></g><g class="contourlevel"><path class="openline" d="M0,171.2Q2.9,169.63 5.12,168.42C9.27,166.17 17.45,161.74 22.95,158.76C27.69,156.19 32.12,153.79 36.19,151.58C39.67,149.69 42,148.43 45.89,146.32C51.77,143.13 60.54,138.38 68.05000000000001,134.31C75.83,130.09 86.34,124.39 91.79,121.44C94.65,119.89 95.66,119.34 98.34,117.89C102.57,115.6 109.43,111.89 114.74,109.01C119.77,106.29 125.22,103.32 129.41,101.05C132.56,99.34 134.24,98.44 137.68,96.57C143.41,93.47 152.92,88.31 160.555,84.16999999999999C168.22,80.02 177.89,74.77 183.58,71.69C186.93,69.88 188.49,69.04 191.56,67.37C195.77,65.09 201.45,62 206.53,59.25C211.8,56.39 218.39,52.83 222.63,50.53C225.39,49.03 226.51,48.43 229.47,46.82C234.97,43.84 245.31,38.23 253.06,34.03C260.6,29.94 269.52,25.11 275.37,21.94C279.17,19.88 281.35,18.69 284.77,16.84C288.87,14.61 293.51,12.1 298.32,9.5Q303.79,6.54 315.85,0" style="stroke-miterlimit: 1; vector-effect: non-scaling-stroke; fill: none; stroke: rgb(0, 0, 0); stroke-opacity: 1; stroke-width: 0.5px;"/></g><g class="contourlevel"><path class="openline" d="M0,224.81Q7.11,220.96 10.82,218.95C14.75,216.82 18.46,214.81 22.95,212.37C28.56,209.33 37.91,204.27 41.89,202.11C43.72,201.12 44.01,200.96 45.89,199.94C50.4,197.5 64.28,189.97 68.84,187.5C70.77,186.45 71.09,186.28 72.97,185.26C76.97,183.09 86.19,178.1 91.79,175.06C96.31,172.61 100.09,170.56 104.04,168.42C107.73,166.42 110.55,164.89 114.74,162.62C120.7,159.39 128.97,154.9 136.395,150.88C144.25,146.63 155.4,140.58 160.63,137.75C163.13,136.39 163.82,136.02 166.18,134.74C170.37,132.47 178.13,128.27 183.58,125.31C188.41,122.69 193.14,120.12 197.26,117.89C200.65,116.05 202.77,114.91 206.53,112.87C212.37,109.7 221.35,104.83 228.9,100.74000000000001C236.64,96.54 246.89,90.99 252.42,87.99C255.43,86.36 256.6,85.73 259.4,84.21C263.64,81.92 270.12,78.4 275.37,75.56C280.48,72.79 286.26,69.66 290.48,67.37C293.52,65.72 295.02,64.91 298.32,63.12C303.99,60.05 313.73,54.76 321.405,50.605000000000004C329.03,46.47 338.47,41.35 344.21,38.24C347.7,36.35 349.44,35.41 352.62,33.68C356.81,31.41 362.16,28.51 367.16,25.8C372.49,22.91 379.46,19.13 383.69,16.84C386.33,15.41 387.28,14.9 390.11,13.37Q395.66,10.36 414.77,0" style="stroke-miterlimit: 1; vector-effect: non-scaling-stroke; fill: none; stroke: rgb(0, 0, 0); stroke-opacity: 1; stroke-width: 0.5px;"/></g><g class="contourlevel"><path class="openline" d="M0,278.43Q12.29,271.76 16.52,269.47C19.16,268.04 20.13,267.52 22.95,265.99C28.38,263.05 38.96,257.31 46.74,253.09C54.24,249.02 62.94,244.3 68.84,241.11C72.77,238.98 75.16,237.69 78.67,235.79C82.73,233.59 87.07,231.24 91.79,228.68C97.31,225.69 105.61,221.19 109.74,218.95C111.92,217.77 112.47,217.47 114.74,216.24C119.61,213.6 133.55,206.03 137.68,203.8C139.2,202.98 139.32,202.92 140.81,202.11C144.57,200.08 154.95,194.44 160.63,191.36C164.91,189.04 168.1,187.31 171.89,185.26C175.75,183.17 179.19,181.31 183.58,178.93C189.23,175.87 199.08,170.52 202.96,168.42C204.62,167.52 204.82,167.41 206.53,166.49C210.86,164.15 224.75,156.61 229.47,154.05C231.57,152.91 232,152.68 234.03,151.58C238.11,149.37 246.86,144.62 252.42,141.61C257.04,139.11 261.1,136.91 265.1,134.74C268.7,132.79 271.31,131.37 275.37,129.17C281.3,125.96 289.79,121.36 297.25,117.315C305.07,113.08 315.93,107.19 321.26,104.3C323.92,102.86 324.74,102.41 327.25,101.05C331.46,98.76 338.82,94.78 344.21,91.86C349.13,89.19 354.16,86.46 358.32,84.21C361.61,82.43 363.53,81.38 367.16,79.42C372.96,76.28 382.16,71.29 389.75,67.17500000000001C397.46,63 407.45,57.59 413.05,54.55C416.21,52.84 417.55,52.12 420.47,50.53Q424.7,48.24 436,42.11" style="stroke-miterlimit: 1; vector-effect: non-scaling-stroke; fill: none; stroke: rgb(0, 0, 0); stroke-opacity: 1; stroke-width: 0.5px;"/></g><g class="contourlevel"><path class="openline" d="M22.22,320Q40.23,310.24 45.89,307.17C49.06,305.45 50.38,304.74 53.3,303.16C57.53,300.87 63.66,297.54 68.84,294.73C74.02,291.92 80.14,288.61 84.37,286.32C87.3,284.73 88.63,284.01 91.79,282.29C97.39,279.25 107.38,273.84 115.09,269.665C122.68,265.55 131.89,260.56 137.68,257.42C141.3,255.46 143.22,254.41 146.51,252.63C150.67,250.38 155.71,247.65 160.63,244.98C166.02,242.06 173.38,238.08 177.59,235.79C180.1,234.43 180.92,233.98 183.58,232.54C188.91,229.65 199.78,223.76 207.595,219.52499999999998C215.06,215.48 223.54,210.88 229.47,207.67C233.53,205.47 236.13,204.06 239.73,202.11C243.74,199.94 247.8,197.74 252.42,195.23C257.98,192.21 266.72,187.47 270.8,185.26C272.83,184.16 273.26,183.93 275.37,182.79C280.09,180.23 294,172.69 298.32,170.35C300.02,169.43 300.22,169.32 301.88,168.42C305.76,166.32 315.61,160.97 321.26,157.91C325.65,155.53 329.09,153.67 332.95,151.58C336.74,149.53 339.93,147.8 344.21,145.48C349.89,142.4 360.26,136.78 364.02,134.74C365.52,133.93 365.63,133.87 367.16,133.04C371.29,130.8 385.24,123.24 390.11,120.6C392.38,119.37 392.92,119.07 395.1,117.89C399.23,115.65 407.53,111.15 413.05,108.16C417.77,105.6 422.11,103.25 426.17,101.05Q429.68,99.15 436,95.72" style="stroke-miterlimit: 1; vector-effect: non-scaling-stroke; fill: none; stroke: rgb(0, 0, 0); stroke-opacity: 1; stroke-width: 0.5px;"/></g><g class="contourlevel"><path class="openline" d="M121.14,320Q132.34,313.92 137.68,311.03C142.68,308.32 148.03,305.43 152.22,303.16C155.41,301.43 157.14,300.49 160.63,298.6C166.37,295.49 175.81,290.37 183.435,286.24C191.11,282.08 200.86,276.79 206.53,273.72C209.83,271.93 211.32,271.12 214.36,269.47C218.58,267.18 224.36,264.05 229.47,261.28C234.72,258.44 241.19,254.93 245.43,252.63C248.23,251.11 249.4,250.47 252.42,248.84C257.95,245.84 268.2,240.3 275.94,236.1C283.49,232.01 292.48,227.14 298.32,223.97C302.08,221.93 304.19,220.79 307.58,218.95C311.7,216.72 316.43,214.15 321.26,211.53C326.71,208.58 334.46,204.38 338.65,202.11C341.02,200.83 341.7,200.45 344.21,199.09C349.44,196.25 360.59,190.21 368.44000000000005,185.95499999999998C375.86,181.93 384.15,177.45 390.11,174.22C394.3,171.95 397.12,170.42 400.8,168.42C404.74,166.28 408.53,164.23 413.05,161.78C418.65,158.74 427.87,153.75 431.87,151.58Q433.75,150.56 436,149.34" style="stroke-miterlimit: 1; vector-effect: non-scaling-stroke; fill: none; stroke: rgb(0, 0, 0); stroke-opacity: 1; stroke-width: 0.5px;"/></g><g class="contourlevel"><path class="openline" d="M220.06,320Q225.67,316.96 229.47,314.9C235.33,311.73 244.24,306.9 251.77499999999998,302.81C259.53,298.61 269.86,293 275.37,290.02C278.33,288.42 279.45,287.82 282.21,286.32C286.45,284.02 293.05,280.44 298.32,277.58C303.4,274.83 309.07,271.75 313.28,269.47C316.35,267.8 317.91,266.96 321.26,265.15C326.95,262.07 336.62,256.82 344.28,252.67000000000002C351.92,248.53 361.43,243.37 367.16,240.27C370.6,238.4 372.28,237.5 375.43,235.79C379.63,233.52 385.08,230.56 390.11,227.83C395.42,224.95 402.27,221.25 406.5,218.95C409.18,217.5 410.2,216.93 413.05,215.39Q418.38,212.5 436,202.96" style="stroke-miterlimit: 1; vector-effect: non-scaling-stroke; fill: none; stroke: rgb(0, 0, 0); stroke-opacity: 1; stroke-width: 0.5px;"/></g><g class="contourlevel"><path class="openline" d="M318.98,320Q338.75,309.29 344.21,306.33C346.84,304.9 347.59,304.49 350.05,303.16C354.26,300.88 361.75,296.82 367.16,293.89C372.05,291.24 376.99,288.57 381.13,286.32C384.45,284.52 386.44,283.44 390.11,281.45C395.92,278.3 405.05,273.35 412.625,269.24Q420.34,265.06 436,256.57" style="stroke-miterlimit: 1; vector-effect: non-scaling-stroke; fill: none; stroke: rgb(0, 0, 0); stroke-opacity: 1; stroke-width: 0.5px;"/></g><g class="contourlevel"><path class="openline" d="M417.9,320L436,310.19" style="stroke-miterlimit: 1; vector-effect: non-scaling-stroke; fill: none; stroke: rgb(0, 0, 0); stroke-opacity: 1; stroke-width: 0.5px;"/></g></g></g></g><g class="scatterlayer mlayer"><g class="trace scatter trace717707" style="stroke-miterlimit: 2; opacity: 1;"><g class="fills"/><g class="errorbars"/><g class="lines"/><g class="points"><path class="point" transform="translate(53.18,109.39)" d="M5,0A5,5 0 1,1 0,-5A5,5 0 0,1 5,0Z" style="opacity: 1; stroke-width: 0px; fill: rgb(103, 0, 31); fill-opacity: 1;"/><path class="point" transform="translate(46.53,118.11)" d="M5,0A5,5 0 1,1 0,-5A5,5 0 0,1 5,0Z" style="opacity: 1; stroke-width: 0px; fill: rgb(103, 0, 31); fill-opacity: 1;"/><path class="point" transform="translate(121.02,159.23)" d="M5,0A5,5 0 1,1 0,-5A5,5 0 0,1 5,0Z" style="opacity: 1; stroke-width: 0px; fill: rgb(103, 0, 31); fill-opacity: 1;"/><path class="point" transform="translate(126.38,89.69)" d="M5,0A5,5 0 1,1 0,-5A5,5 0 0,1 5,0Z" style="opacity: 1; stroke-width: 0px; fill: rgb(103, 0, 31); fill-opacity: 1;"/><path class="point" transform="translate(125.33,122.95)" d="M5,0A5,5 0 1,1 0,-5A5,5 0 0,1 5,0Z" style="opacity: 1; stroke-width: 0px; fill: rgb(103, 0, 31); fill-opacity: 1;"/><path class="point" transform="translate(84.47,39.82)" d="M5,0A5,5 0 1,1 0,-5A5,5 0 0,1 5,0Z" style="opacity: 1; stroke-width: 0px; fill: rgb(103, 0, 31); fill-opacity: 1;"/><path class="point" transform="translate(197.74,135.31)" d="M5,0A5,5 0 1,1 0,-5A5,5 0 0,1 5,0Z" style="opacity: 1; stroke-width: 0px; fill: rgb(103, 0, 31); fill-opacity: 1;"/><path class="point" transform="translate(145.84,170.24)" d="M5,0A5,5 0 1,1 0,-5A5,5 0 0,1 5,0Z" style="opacity: 1; stroke-width: 0px; fill: rgb(103, 0, 31); fill-opacity: 1;"/><path class="point" transform="translate(96.23,133)" d="M5,0A5,5 0 1,1 0,-5A5,5 0 0,1 5,0Z" style="opacity: 1; stroke-width: 0px; fill: rgb(103, 0, 31); fill-opacity: 1;"/><path class="point" transform="translate(164.17,99.18)" d="M5,0A5,5 0 1,1 0,-5A5,5 0 0,1 5,0Z" style="opacity: 1; stroke-width: 0px; fill: rgb(103, 0, 31); fill-opacity: 1;"/><path class="point" transform="translate(247.85,90.46)" d="M5,0A5,5 0 1,1 0,-5A5,5 0 0,1 5,0Z" style="opacity: 1; stroke-width: 0px; fill: rgb(103, 0, 31); fill-opacity: 1;"/><path class="point" transform="translate(146.96,100.17)" d="M5,0A5,5 0 1,1 0,-5A5,5 0 0,1 5,0Z" style="opacity: 1; stroke-width: 0px; fill: rgb(103, 0, 31); fill-opacity: 1;"/><path class="point" transform="translate(157.44,139.18)" d="M5,0A5,5 0 1,1 0,-5A5,5 0 0,1 5,0Z" style="opacity: 1; stroke-width: 0px; fill: rgb(103, 0, 31); fill-opacity: 1;"/><path class="point" transform="translate(59.66,141.51)" d="M5,0A5,5 0 1,1 0,-5A5,5 0 0,1 5,0Z" style="opacity: 1; stroke-width: 0px; fill: rgb(103, 0, 31); fill-opacity: 1;"/><path class="point" transform="translate(118.58,64.17)" d="M5,0A5,5 0 1,1 0,-5A5,5 0 0,1 5,0Z" style="opacity: 1; stroke-width: 0px; fill: rgb(103, 0, 31); fill-opacity: 1;"/><path class="point" transform="translate(229.67,30.01)" d="M5,0A5,5 0 1,1 0,-5A5,5 0 0,1 5,0Z" style="opacity: 1; stroke-width: 0px; fill: rgb(103, 0, 31); fill-opacity: 1;"/><path class="point" transform="translate(305.74,240.86)" d="M5,0A5,5 0 1,1 0,-5A5,5 0 0,1 5,0Z" style="opacity: 1; stroke-width: 0px; fill: rgb(5, 48, 97); fill-opacity: 1;"/><path class="point" transform="translate(390.36,244.97)" d="M5,0A5,5 0 1,1 0,-5A5,5 0 0,1 5,0Z" style="opacity: 1; stroke-width: 0px; fill: rgb(5, 48, 97); fill-opacity: 1;"/><path class="point" transform="translate(323.72,235.42)" d="M5,0A5,5 0 1,1 0,-5A5,5 0 0,1 5,0Z" style="opacity: 1; stroke-width: 0px; fill: rgb(5, 48, 97); fill-opacity: 1;"/><path class="point" transform="translate(346.09,144.45)" d="M5,0A5,5 0 1,1 0,-5A5,5 0 0,1 5,0Z" style="opacity: 1; stroke-width: 0px; fill: rgb(5, 48, 97); fill-opacity: 1;"/><path class="point" transform="translate(297.78,279.42)" d="M5,0A5,5 0 1,1 0,-5A5,5 0 0,1 5,0Z" style="opacity: 1; stroke-width: 0px; fill: rgb(5, 48, 97); fill-opacity: 1;"/><path class="point" transform="translate(204.58,218.21)" d="M5,0A5,5 0 1,1 0,-5A5,5 0 0,1 5,0Z" style="opacity: 1; stroke-width: 0px; fill: rgb(5, 48, 97); fill-opacity: 1;"/><path class="point" transform="translate(185.7,206.32)" d="M5,0A5,5 0 1,1 0,-5A5,5 0 0,1 5,0Z" style="opacity: 1; stroke-width: 0px; fill: rgb(5, 48, 97); fill-opacity: 1;"/><path class="point" transform="translate(324,221.79)" d="M5,0A5,5 0 1,1 0,-5A5,5 0 0,1 5,0Z" style="opacity: 1; stroke-width: 0px; fill: rgb(5, 48, 97); fill-opacity: 1;"/><path class="point" transform="translate(334.4,218.71)" d="M5,0A5,5 0 1,1 0,-5A5,5 0 0,1 5,0Z" style="opacity: 1; stroke-width: 0px; fill: rgb(5, 48, 97); fill-opacity: 1;"/><path class="point" transform="translate(349.57,199.99)" d="M5,0A5,5 0 1,1 0,-5A5,5 0 0,1 5,0Z" style="opacity: 1; stroke-width: 0px; fill: rgb(5, 48, 97); fill-opacity: 1;"/><path class="point" transform="translate(397.76,227.92)" d="M5,0A5,5 0 1,1 0,-5A5,5 0 0,1 5,0Z" style="opacity: 1; stroke-width: 0px; fill: rgb(5, 48, 97); fill-opacity: 1;"/><path class="point" transform="translate(328.42,164.78)" d="M5,0A5,5 0 1,1 0,-5A5,5 0 0,1 5,0Z" style="opacity: 1; stroke-width: 0px; fill: rgb(5, 48, 97); fill-opacity: 1;"/><path class="point" transform="translate(281.49,228.16)" d="M5,0A5,5 0 1,1 0,-5A5,5 0 0,1 5,0Z" style="opacity: 1; stroke-width: 0px; fill: rgb(5, 48, 97); fill-opacity: 1;"/><path class="point" transform="translate(323.12,189.47)" d="M5,0A5,5 0 1,1 0,-5A5,5 0 0,1 5,0Z" style="opacity: 1; stroke-width: 0px; fill: rgb(5, 48, 97); fill-opacity: 1;"/><path class="point" transform="translate(272.3,250.26)" d="M5,0A5,5 0 1,1 0,-5A5,5 0 0,1 5,0Z" style="opacity: 1; stroke-width: 0px; fill: rgb(5, 48, 97); fill-opacity: 1;"/><path class="point" transform="translate(318.98,219.54)" d="M5,0A5,5 0 1,1 0,-5A5,5 0 0,1 5,0Z" style="opacity: 1; stroke-width: 0px; fill: rgb(5, 48, 97); fill-opacity: 1;"/></g><g class="text"/></g></g></g><g class="overplot"/><path class="xlines-above crisp" style="fill: none;" d="M0,0"/><path class="ylines-above crisp" style="fill: none;" d="M0,0"/><g class="overlines-above"/><g class="xaxislayer-above"><g class="xtick"><text text-anchor="middle" x="0" y="433" transform="translate(80,0)" style="font-family: 'Open Sans', verdana, arial, sans-serif; font-size: 12px; fill: rgb(42, 63, 95); fill-opacity: 1; white-space: pre;">−2</text></g><g class="xtick"><text text-anchor="middle" x="0" y="433" transform="translate(189,0)" style="font-family: 'Open Sans', verdana, arial, sans-serif; font-size: 12px; fill: rgb(42, 63, 95); fill-opacity: 1; white-space: pre;">−1</text></g><g class="xtick"><text text-anchor="middle" x="0" y="433" transform="translate(298,0)" style="font-family: 'Open Sans', verdana, arial, sans-serif; font-size: 12px; fill: rgb(42, 63, 95); fill-opacity: 1; white-space: pre;">0</text></g><g class="xtick"><text text-anchor="middle" x="0" y="433" transform="translate(407,0)" style="font-family: 'Open Sans', verdana, arial, sans-serif; font-size: 12px; fill: rgb(42, 63, 95); fill-opacity: 1; white-space: pre;">1</text></g><g class="xtick"><text text-anchor="middle" x="0" y="433" transform="translate(516,0)" style="font-family: 'Open Sans', verdana, arial, sans-serif; font-size: 12px; fill: rgb(42, 63, 95); fill-opacity: 1; white-space: pre;">2</text></g></g><g class="yaxislayer-above"><g class="ytick"><text text-anchor="end" x="79" y="4.199999999999999" transform="translate(0,420)" style="font-family: 'Open Sans', verdana, arial, sans-serif; font-size: 12px; fill: rgb(42, 63, 95); fill-opacity: 1; white-space: pre;">−2</text></g><g class="ytick"><text text-anchor="end" x="79" y="4.199999999999999" transform="translate(0,380)" style="font-family: 'Open Sans', verdana, arial, sans-serif; font-size: 12px; fill: rgb(42, 63, 95); fill-opacity: 1; white-space: pre;">−1.5</text></g><g class="ytick"><text text-anchor="end" x="79" y="4.199999999999999" transform="translate(0,340)" style="font-family: 'Open Sans', verdana, arial, sans-serif; font-size: 12px; fill: rgb(42, 63, 95); fill-opacity: 1; white-space: pre;">−1</text></g><g class="ytick"><text text-anchor="end" x="79" y="4.199999999999999" transform="translate(0,300)" style="font-family: 'Open Sans', verdana, arial, sans-serif; font-size: 12px; fill: rgb(42, 63, 95); fill-opacity: 1; white-space: pre;">−0.5</text></g><g class="ytick"><text text-anchor="end" x="79" y="4.199999999999999" transform="translate(0,260)" style="font-family: 'Open Sans', verdana, arial, sans-serif; font-size: 12px; fill: rgb(42, 63, 95); fill-opacity: 1; white-space: pre;">0</text></g><g class="ytick"><text text-anchor="end" x="79" y="4.199999999999999" transform="translate(0,220)" style="font-family: 'Open Sans', verdana, arial, sans-serif; font-size: 12px; fill: rgb(42, 63, 95); fill-opacity: 1; white-space: pre;">0.5</text></g><g class="ytick"><text text-anchor="end" x="79" y="4.199999999999999" transform="translate(0,180)" style="font-family: 'Open Sans', verdana, arial, sans-serif; font-size: 12px; fill: rgb(42, 63, 95); fill-opacity: 1; white-space: pre;">1</text></g><g class="ytick"><text text-anchor="end" x="79" y="4.199999999999999" transform="translate(0,140)" style="font-family: 'Open Sans', verdana, arial, sans-serif; font-size: 12px; fill: rgb(42, 63, 95); fill-opacity: 1; white-space: pre;">1.5</text></g><g class="ytick"><text text-anchor="end" x="79" y="4.199999999999999" transform="translate(0,100)" style="font-family: 'Open Sans', verdana, arial, sans-serif; font-size: 12px; fill: rgb(42, 63, 95); fill-opacity: 1; white-space: pre;">2</text></g></g><g class="overaxes-above"/></g></g><g class="polarlayer"/><g class="ternarylayer"/><g class="geolayer"/><g class="funnelarealayer"/><g class="pielayer"/><g class="treemaplayer"/><g class="sunburstlayer"/><g class="glimages"/><defs id="topdefs-4ead4b"><g class="clips"/></defs><g class="layer-above"><g class="imagelayer"/><g class="shapelayer"/></g><g class="infolayer"><g class="cb3eb576 colorbar" transform="translate(80,100)"><rect class="cbbg" x="445" y="0" width="63.734375" height="320" style="fill: rgb(0, 0, 0); fill-opacity: 0; stroke: rgb(68, 68, 68); stroke-opacity: 1; stroke-width: 0;"/><g class="cbfills" transform="translate(0,10)"><rect class="cbfill" x="455" width="30" y="1" height="299" fill="#67001f" style="stroke: none;"/><rect class="cbfill" x="455" width="30" y="1" height="285" fill="#ab162a" style="stroke: none;"/><rect class="cbfill" x="455" width="30" y="1" height="258" fill="#cf5347" style="stroke: none;"/><rect class="cbfill" x="455" width="30" y="1" height="231" fill="#ec9274" style="stroke: none;"/><rect class="cbfill" x="455" width="30" y="1" height="204" fill="#fac7ae" style="stroke: none;"/><rect class="cbfill" x="455" width="30" y="1" height="176" fill="#faeae1" style="stroke: none;"/><rect class="cbfill" x="455" width="30" y="1" height="149" fill="#e6eff4" style="stroke: none;"/><rect class="cbfill" x="455" width="30" y="1" height="122" fill="#bad9e9" style="stroke: none;"/><rect class="cbfill" x="455" width="30" y="1" height="94" fill="#7cb7d7" style="stroke: none;"/><rect class="cbfill" x="455" width="30" y="1" height="67" fill="#3d8bbf" style="stroke: none;"/><rect class="cbfill" x="455" width="30" y="1" height="40" fill="#1e61a5" style="stroke: none;"/><rect class="cbfill" x="455" width="30" y="0" height="14" fill="#053061" style="stroke: none;"/></g><g class="cblines" transform="translate(0,10)"><path class="cbline" d="M455,286.25h30" style="fill: none; stroke: rgb(0, 0, 0); stroke-opacity: 1; stroke-width: 0.5px;"/><path class="cbline" d="M455,259.25h30" style="fill: none; stroke: rgb(0, 0, 0); stroke-opacity: 1; stroke-width: 0.5px;"/><path class="cbline" d="M455,232.25h30" style="fill: none; stroke: rgb(0, 0, 0); stroke-opacity: 1; stroke-width: 0.5px;"/><path class="cbline" d="M455,205.25h30" style="fill: none; stroke: rgb(0, 0, 0); stroke-opacity: 1; stroke-width: 0.5px;"/><path class="cbline" d="M455,177.25h30" style="fill: none; stroke: rgb(0, 0, 0); stroke-opacity: 1; stroke-width: 0.5px;"/><path class="cbline" d="M455,150.25h30" style="fill: none; stroke: rgb(0, 0, 0); stroke-opacity: 1; stroke-width: 0.5px;"/><path class="cbline" d="M455,123.25h30" style="fill: none; stroke: rgb(0, 0, 0); stroke-opacity: 1; stroke-width: 0.5px;"/><path class="cbline" d="M455,95.25h30" style="fill: none; stroke: rgb(0, 0, 0); stroke-opacity: 1; stroke-width: 0.5px;"/><path class="cbline" d="M455,68.25h30" style="fill: none; stroke: rgb(0, 0, 0); stroke-opacity: 1; stroke-width: 0.5px;"/><path class="cbline" d="M455,41.25h30" style="fill: none; stroke: rgb(0, 0, 0); stroke-opacity: 1; stroke-width: 0.5px;"/><path class="cbline" d="M455,14.25h30" style="fill: none; stroke: rgb(0, 0, 0); stroke-opacity: 1; stroke-width: 0.5px;"/></g><g class="cbaxis crisp" transform="translate(0,-100)"><g class="ycb3eb576tick"><text text-anchor="start" x="487.9" y="4.199999999999999" transform="translate(0,369.09)" style="font-family: 'Open Sans', verdana, arial, sans-serif; font-size: 12px; fill: rgb(42, 63, 95); fill-opacity: 1; white-space: pre;">−4</text></g><g class="ycb3eb576tick"><text text-anchor="start" x="487.9" y="4.199999999999999" transform="translate(0,314.55)" style="font-family: 'Open Sans', verdana, arial, sans-serif; font-size: 12px; fill: rgb(42, 63, 95); fill-opacity: 1; white-space: pre;">−2</text></g><g class="ycb3eb576tick"><text text-anchor="start" x="487.9" y="4.199999999999999" transform="translate(0,260)" style="font-family: 'Open Sans', verdana, arial, sans-serif; font-size: 12px; fill: rgb(42, 63, 95); fill-opacity: 1; white-space: pre;">0</text></g><g class="ycb3eb576tick"><text text-anchor="start" x="487.9" y="4.199999999999999" transform="translate(0,205.45)" style="font-family: 'Open Sans', verdana, arial, sans-serif; font-size: 12px; fill: rgb(42, 63, 95); fill-opacity: 1; white-space: pre;">2</text></g><g class="ycb3eb576tick"><text text-anchor="start" x="487.9" y="4.199999999999999" transform="translate(0,150.91)" style="font-family: 'Open Sans', verdana, arial, sans-serif; font-size: 12px; fill: rgb(42, 63, 95); fill-opacity: 1; white-space: pre;">4</text></g></g><g class="cbtitleunshift" transform="translate(-80,-100)"><g class="cbtitle"/></g><rect class="cboutline" x="455" y="10" width="30" height="300" style="stroke: rgb(68, 68, 68); stroke-opacity: 1; fill: none; stroke-width: 0;"/></g><g class="g-gtitle"><text class="gtitle" x="30" y="50" text-anchor="start" dy="0em" style="font-family: 'Open Sans', verdana, arial, sans-serif; font-size: 17px; fill: rgb(42, 63, 95); opacity: 1; font-weight: normal; white-space: pre;">Decision function</text></g><g class="g-xtitle"/><g class="g-ytitle"/></g></svg>