<svg class="main-svg" xmlns="http://www.w3.org/2000/svg" xmlns:xlink="http://www.w3.org/1999/xlink" width="900" height="500" style="" viewBox="0 0 900 500"><rect x="0" y="0" width="900" height="500" style="fill: rgb(255, 255, 255); fill-opacity: 1;"/><defs id="defs-52bbdf"><g class="clips"><clipPath id="clip52bbdfxyplot" class="plotclip"><rect width="660" height="320"/></clipPath><clipPath class="axesclip" id="clip52bbdfx"><rect x="80" y="0" width="660" height="500"/></clipPath><clipPath class="axesclip" id="clip52bbdfy"><rect x="0" y="100" width="900" height="320"/></clipPath><clipPath class="axesclip" id="clip52bbdfxy"><rect x="80" y="100" width="660" height="320"/></clipPath></g><g class="gradients"/></defs><g class="bglayer"><rect class="bg" x="80" y="100" width="660" height="320" style="fill: rgb(229, 236, 246); fill-opacity: 1; stroke-width: 0;"/></g><g class="layer-below"><g class="imagelayer"/><g class="shapelayer"/></g><g class="cartesianlayer"><g class="subplot xy"><g class="layer-subplot"><g class="shapelayer"/><g class="imagelayer"/></g><g class="gridlayer"><g class="x"><path class="xgrid crisp" transform="translate(245,0)" d="M0,100v320" style="stroke: rgb(255, 255, 255); stroke-opacity: 1; stroke-width: 1px;"/><path class="xgrid crisp" transform="translate(575,0)" d="M0,100v320" style="stroke: rgb(255, 255, 255); stroke-opacity: 1; stroke-width: 1px;"/></g><g class="y"><path class="ygrid crisp" transform="translate(0,401.82)" d="M80,0h660" style="stroke: rgb(255, 255, 255); stroke-opacity: 1; stroke-width: 1px;"/><path class="ygrid crisp" transform="translate(0,373.46)" d="M80,0h660" style="stroke: rgb(255, 255, 255); stroke-opacity: 1; stroke-width: 1px;"/><path class="ygrid crisp" transform="translate(0,335.98)" d="M80,0h660" style="stroke: rgb(255, 255, 255); stroke-opacity: 1; stroke-width: 1px;"/><path class="ygrid crisp" transform="translate(0,307.62)" d="M80,0h660" style="stroke: rgb(255, 255, 255); stroke-opacity: 1; stroke-width: 1px;"/><path class="ygrid crisp" transform="translate(0,279.26)" d="M80,0h660" style="stroke: rgb(255, 255, 255); stroke-opacity: 1; stroke-width: 1px;"/><path class="ygrid crisp" transform="translate(0,241.77)" d="M80,0h660" style="stroke: rgb(255, 255, 255); stroke-opacity: 1; stroke-width: 1px;"/><path class="ygrid crisp" transform="translate(0,213.42000000000002)" d="M80,0h660" style="stroke: rgb(255, 255, 255); stroke-opacity: 1; stroke-width: 1px;"/><path class="ygrid crisp" transform="translate(0,185.06)" d="M80,0h660" style="stroke: rgb(255, 255, 255); stroke-opacity: 1; stroke-width: 1px;"/><path class="ygrid crisp" transform="translate(0,147.57)" d="M80,0h660" style="stroke: rgb(255, 255, 255); stroke-opacity: 1; stroke-width: 1px;"/><path class="ygrid crisp" transform="translate(0,119.21000000000001)" d="M80,0h660" style="stroke: rgb(255, 255, 255); stroke-opacity: 1; stroke-width: 1px;"/></g></g><g class="zerolinelayer"><path class="xzl zl crisp" transform="translate(410,0)" d="M0,100v320" style="stroke: rgb(255, 255, 255); stroke-opacity: 1; stroke-width: 2px;"/></g><path class="xlines-below"/><path class="ylines-below"/><g class="overlines-below"/><g class="xaxislayer-below"/><g class="yaxislayer-below"/><g class="overaxes-below"/><g class="plot" transform="translate(80, 100)" clip-path="url('#clip52bbdfxyplot')"><g class="scatterlayer mlayer"><g class="trace scatter traced85e62" style="stroke-miterlimit: 2; opacity: 1;"><g class="fills"/><g class="errorbars"/><g class="lines"><path class="js-line" d="M0,52L10.31,68L15.47,77.91L20.63,89.86L25.78,105.12L30.94,126.81L36.09,167.49L41.25,194.37L46.41,142.23L51.56,122.43L56.72,110.94L61.88,103.45L67.03,98.38L72.19,95L77.34,92.92L82.5,91.89L87.66,91.8L92.81,92.6L97.97,94.26L103.13,96.82L108.28,100.39L113.44,105.12L118.59,111.32L123.75,119.49L128.91,130.66L134.06,147.17L139.22,176.88L144.38,275.67L149.53,169.94L154.69,143.34L159.84,127.65L165,116.74L170.16,108.55L175.31,102.19L180.47,97.15L190.78,90L195.94,87.58L206.25,84.62L211.41,83.98L221.72,84.28L226.88,85.2L237.19,88.69L242.34,91.31L252.66,98.61L257.81,103.52L262.97,109.48L268.13,116.81L273.28,125.98L278.44,137.89L283.59,154.55L288.75,181.91L293.91,279.52L299.06,193.27L304.22,164.45L309.38,149.25L314.53,139.6L319.69,133.08L324.84,128.71L330,125.96L335.16,124.6L340.31,124.49L345.47,125.58L350.63,127.96L355.78,131.8L360.94,137.44L366.09,145.5L371.25,157.37L376.41,176.64L381.56,220L386.72,220.08L391.88,174.09L397.03,152.66L402.19,138.63L407.34,128.33L412.5,120.33L422.81,108.72L427.97,104.46L438.28,98.15L443.44,95.91L453.75,92.93L458.91,92.11L469.22,91.67L474.38,92.02L484.69,93.79L489.84,95.2L500.16,99.07L505.31,101.54L515.63,107.55L520.78,111.12L531.09,119.39L536.25,124.1L551.72,140.3L556.88,146.14L567.19,157.41L572.34,162.12L577.5,165.56L582.66,167.26L587.81,166.87L592.97,164.38L598.13,160.12L603.28,154.53L618.75,134.51L623.91,127.74L639.38,108.98L644.53,103.34L660,88.2" style="vector-effect: non-scaling-stroke; fill: none; stroke: rgb(99, 110, 250); stroke-opacity: 1; stroke-width: 2px; opacity: 1;"/></g><g class="points"/><g class="text"/></g><g class="trace scatter traceeb0b24" style="stroke-miterlimit: 2; opacity: 1;"><g class="fills"/><g class="errorbars"/><g class="lines"><path class="js-line" d="M0,82.05L10.31,90.56L15.47,95.36L25.78,106.36L30.94,112.75L41.25,128.12L46.41,137.66L51.56,149.2L56.72,163.88L61.88,184.55L67.03,221.92L72.19,265.98L77.34,204.47L82.5,183.17L87.66,170.97L92.81,162.93L97.97,157.4L103.13,153.55L108.28,150.94L113.44,149.31L118.59,148.52L128.91,148.97L134.06,150.09L144.38,154L149.53,156.76L159.84,163.89L165,168.3L175.31,178.97L180.47,185.3L190.78,200.3L195.94,209.2L206.25,230.34L211.41,242.81L221.72,272.24L226.88,287.37L232.03,299.98L237.19,304L242.34,297.7L247.5,285.49L262.97,244.46L268.13,232.77L278.44,212.35L283.59,203.22L299.06,178.66L304.22,171.14L319.69,150.3L324.84,143.84L340.31,125.96L345.47,120.5L360.94,105.67L366.09,101.25L381.56,89.53L386.72,86.14L402.19,77.48L407.34,75.09L422.81,69.38L427.97,67.96L443.44,65.11L448.59,64.64L464.06,64.64L469.22,65.11L484.69,68.01L489.84,69.47L505.31,75.37L510.47,77.84L525.94,86.7L531.09,90.08L556.88,107.53L562.03,110.23L567.19,112.22L572.34,113.27L577.5,113.22L582.66,111.98L587.81,109.59L592.97,106.16L603.28,97.01L608.44,91.71L644.53,53.77L649.69,48.91L660,39.75" style="vector-effect: non-scaling-stroke; fill: none; stroke: rgb(239, 85, 59); stroke-opacity: 1; stroke-width: 2px; opacity: 1;"/></g><g class="points"/><g class="text"/></g><g class="trace scatter tracee09962" style="stroke-miterlimit: 2; opacity: 1;"><g class="fills"/><g class="errorbars"/><g class="lines"><path class="js-line" d="M0,26.17L10.31,45.07L15.47,57.36L20.63,73.11L25.78,95.71L30.94,139.85L36.09,153.53L41.25,107.43L46.41,88.81L51.56,77.95L56.72,70.95L61.88,66.35L67.03,63.46L72.19,61.91L77.34,61.53L82.5,62.21L87.66,63.98L92.81,66.89L97.97,71.13L103.13,77.03L108.28,85.22L113.44,96.99L118.59,115.62L123.75,155.13L128.91,168.96L134.06,117.87L139.22,95.55L144.38,81.18L149.53,70.72L154.69,62.67L159.84,56.31L165,51.23L170.16,47.22L180.47,41.94L185.63,40.57L190.78,40.08L195.94,40.54L201.09,42.11L206.25,45.05L211.41,49.83L216.56,57.35L221.72,69.61L226.88,92.82L232.03,196.78L237.19,92.38L242.34,59.11L247.5,38.87L252.66,23.85L257.81,18.17L262.97,34.88L268.13,59.27L273.28,109.93L278.44,106.96L283.59,68.33L288.75,52.65L293.91,44.59L299.06,40.9L304.22,40.59L309.38,43.64L314.53,44.1L319.69,45.72L324.84,49.48L330,56.33L340.31,84.23L345.47,123.62L350.63,114.92L355.78,66.04L366.09,16.14L371.25,16L376.41,31.83L381.56,53.66L386.72,91.9L391.88,140.39L397.03,78.77L402.19,59.14L407.34,48.88L412.5,43.17L417.66,40.37L422.81,39.81L427.97,41.3L433.13,44.92L438.28,51.16L443.44,61.22L453.75,94.23L458.91,79.2L464.06,70.65L469.22,65.51L474.38,62.56L479.53,61.19L484.69,61.06L489.84,61.99L495,63.86L500.16,66.64L505.31,70.3L510.47,74.89L515.63,80.47L520.78,87.18L525.94,95.19L531.09,104.78L536.25,116.38L541.41,130.65L546.56,148.63L551.72,172.13L562.03,240L567.19,234.79L572.34,195.44L577.5,162.61L582.66,137.56L587.81,117.69L598.13,87.39L603.28,75.3L613.59,55.06L618.75,46.41L623.91,49.4L629.06,60.54L634.22,74.01L639.38,91.27L644.53,116.09L649.69,166.04L654.84,168.16L660,129.25" style="vector-effect: non-scaling-stroke; fill: none; stroke: rgb(0, 204, 150); stroke-opacity: 1; stroke-width: 2px; opacity: 1;"/></g><g class="points"/><g class="text"/></g><g class="trace scatter trace3d424d" style="stroke-miterlimit: 2; opacity: 1;"><g class="fills"/><g class="errorbars"/><g class="lines"><path class="js-line" d="M0,41.45L5.16,76.54L10.31,169.52L15.47,86.8L20.63,79.09L25.78,95.64L30.94,298.74L36.09,91.67L41.25,67.96L46.41,60.29L51.56,61.62L56.72,70.01L61.88,85.25L67.03,108.75L72.19,146.02L77.34,237.46L82.5,209.51L87.66,258L92.81,182.26L97.97,142.4L103.13,120.31L108.28,105.59L113.44,95.02L118.59,87.1L123.75,81.04L128.91,76.35L134.06,72.73L144.38,68.01L149.53,66.73L159.84,66.11L165,66.76L175.31,70.06L180.47,72.79L190.78,80.75L195.94,86.15L201.09,92.69L206.25,100.52L211.41,109.89L216.56,121.07L221.72,134.4L226.88,150.09L237.19,184.13L242.34,191.23L247.5,182.85L252.66,165.62L262.97,131.22L268.13,117.37L278.44,95.74L283.59,87.35L293.91,74.32L299.06,69.36L309.38,62.08L314.53,59.63L324.84,56.88L330,56.54L340.31,57.9L345.47,59.63L355.78,65.31L360.94,69.36L371.25,80.27L376.41,87.35L381.56,95.74L386.72,105.65L391.88,117.37L397.03,131.22L407.34,165.62L412.5,182.85L417.66,191.23L422.81,184.13L438.28,134.4L443.44,121.07L448.59,109.89L453.75,100.52L464.06,86.15L469.22,80.75L479.53,72.79L484.69,70.06L495,66.76L500.16,66.11L510.47,66.73L515.63,68.01L525.94,72.73L531.09,76.35L536.25,81.04L541.41,87.1L546.56,95.02L551.72,105.59L556.88,120.31L562.03,142.4L567.19,182.26L572.34,258L577.5,209.51L582.66,237.46L587.81,146.02L592.97,108.75L598.13,85.25L603.28,70.01L608.44,61.62L613.59,60.29L618.75,67.96L623.91,91.67L629.06,298.74L634.22,95.64L639.38,79.09L644.53,86.8L649.69,169.52L654.84,76.54L660,41.45" style="vector-effect: non-scaling-stroke; fill: none; stroke: rgb(171, 99, 250); stroke-opacity: 1; stroke-width: 2px; opacity: 1;"/></g><g class="points"/><g class="text"/></g></g></g><g class="overplot"/><path class="xlines-above crisp" style="fill: none;" d="M0,0"/><path class="ylines-above crisp" style="fill: none;" d="M0,0"/><g class="overlines-above"/><g class="xaxislayer-above"><g class="xtick"><text text-anchor="middle" x="0" y="433" transform="translate(80,0)" style="font-family: 'Open Sans', verdana, arial, sans-serif; font-size: 12px; fill: rgb(42, 63, 95); fill-opacity: 1; white-space: pre;">−1</text></g><g class="xtick"><text text-anchor="middle" x="0" y="433" transform="translate(245,0)" style="font-family: 'Open Sans', verdana, arial, sans-serif; font-size: 12px; fill: rgb(42, 63, 95); fill-opacity: 1; white-space: pre;">−0.5</text></g><g class="xtick"><text text-anchor="middle" x="0" y="433" transform="translate(410,0)" style="font-family: 'Open Sans', verdana, arial, sans-serif; font-size: 12px; fill: rgb(42, 63, 95); fill-opacity: 1; white-space: pre;">0</text></g><g class="xtick"><text text-anchor="middle" x="0" y="433" transform="translate(575,0)" style="font-family: 'Open Sans', verdana, arial, sans-serif; font-size: 12px; fill: rgb(42, 63, 95); fill-opacity: 1; white-space: pre;">0.5</text></g><g class="xtick"><text text-anchor="middle" x="0" y="433" transform="translate(740,0)" style="font-family: 'Open Sans', verdana, arial, sans-serif; font-size: 12px; fill: rgb(42, 63, 95); fill-opacity: 1; white-space: pre;">1</text></g></g><g class="yaxislayer-above"><g class="ytick"><text text-anchor="end" x="79" y="4.199999999999999" transform="translate(0,401.82)" style="font-family: 'Open Sans', verdana, arial, sans-serif; font-size: 12px; fill: rgb(42, 63, 95); fill-opacity: 1; white-space: pre;">10μ</text></g><g class="ytick"><text text-anchor="end" x="79" y="3.15" transform="translate(0,373.46)" style="font-family: 'Open Sans', verdana, arial, sans-serif; font-size: 9px; fill: rgb(42, 63, 95); fill-opacity: 1; white-space: pre;">2</text></g><g class="ytick"><text text-anchor="end" x="79" y="3.15" transform="translate(0,335.98)" style="font-family: 'Open Sans', verdana, arial, sans-serif; font-size: 9px; fill: rgb(42, 63, 95); fill-opacity: 1; white-space: pre;">5</text></g><g class="ytick"><text text-anchor="end" x="79" y="4.199999999999999" transform="translate(0,307.62)" style="font-family: 'Open Sans', verdana, arial, sans-serif; font-size: 12px; fill: rgb(42, 63, 95); fill-opacity: 1; white-space: pre;">100μ</text></g><g class="ytick"><text text-anchor="end" x="79" y="3.15" transform="translate(0,279.26)" style="font-family: 'Open Sans', verdana, arial, sans-serif; font-size: 9px; fill: rgb(42, 63, 95); fill-opacity: 1; white-space: pre;">2</text></g><g class="ytick"><text text-anchor="end" x="79" y="3.15" transform="translate(0,241.77)" style="font-family: 'Open Sans', verdana, arial, sans-serif; font-size: 9px; fill: rgb(42, 63, 95); fill-opacity: 1; white-space: pre;">5</text></g><g class="ytick"><text text-anchor="end" x="79" y="4.199999999999999" transform="translate(0,213.42000000000002)" style="font-family: 'Open Sans', verdana, arial, sans-serif; font-size: 12px; fill: rgb(42, 63, 95); fill-opacity: 1; white-space: pre;">0.001</text></g><g class="ytick"><text text-anchor="end" x="79" y="3.15" transform="translate(0,185.06)" style="font-family: 'Open Sans', verdana, arial, sans-serif; font-size: 9px; fill: rgb(42, 63, 95); fill-opacity: 1; white-space: pre;">2</text></g><g class="ytick"><text text-anchor="end" x="79" y="3.15" transform="translate(0,147.57)" style="font-family: 'Open Sans', verdana, arial, sans-serif; font-size: 9px; fill: rgb(42, 63, 95); fill-opacity: 1; white-space: pre;">5</text></g><g class="ytick"><text text-anchor="end" x="79" y="4.199999999999999" transform="translate(0,119.21000000000001)" style="font-family: 'Open Sans', verdana, arial, sans-serif; font-size: 12px; fill: rgb(42, 63, 95); fill-opacity: 1; white-space: pre;">0.01</text></g></g><g class="overaxes-above"/></g></g><g class="polarlayer"/><g class="ternarylayer"/><g class="geolayer"/><g class="funnelarealayer"/><g class="pielayer"/><g class="treemaplayer"/><g class="sunburstlayer"/><g class="glimages"/><defs id="topdefs-52bbdf"><g class="clips"/><clipPath id="legend52bbdf"><rect width="135" height="86" x="0" y="0"/></clipPath></defs><g class="layer-above"><g class="imagelayer"/><g class="shapelayer"/></g><g class="infolayer"><g class="legend" pointer-events="all" transform="translate(753.2, 100)"><rect class="bg" shape-rendering="crispEdges" style="stroke: rgb(68, 68, 68); stroke-opacity: 1; fill: rgb(255, 255, 255); fill-opacity: 1; stroke-width: 0px;" width="135" height="86" x="0" y="0"/><g class="scrollbox" transform="translate(0, 0)" clip-path="url('#legend52bbdf')"><g class="groups"><g class="traces" style="opacity: 1;" transform="translate(0, 14.5)"><text class="legendtext user-select-none" text-anchor="start" x="40" y="4.680000000000001" style="font-family: 'Open Sans', verdana, arial, sans-serif; font-size: 12px; fill: rgb(42, 63, 95); fill-opacity: 1; white-space: pre;">seql tanh</text><g class="layers" style="opacity: 1;"><g class="legendfill"/><g class="legendlines"><path class="js-line" d="M5,0h30" style="fill: none; stroke: rgb(99, 110, 250); stroke-opacity: 1; stroke-width: 2px;"/></g><g class="legendsymbols"><g class="legendpoints"/></g></g><rect class="legendtoggle" pointer-events="all" x="0" y="-9.5" width="129.3125" height="19" style="cursor: pointer; fill: rgb(0, 0, 0); fill-opacity: 0;"/></g><g class="traces" style="opacity: 1;" transform="translate(0, 33.5)"><text class="legendtext user-select-none" text-anchor="start" x="40" y="4.680000000000001" style="font-family: 'Open Sans', verdana, arial, sans-serif; font-size: 12px; fill: rgb(42, 63, 95); fill-opacity: 1; white-space: pre;">funcl concat</text><g class="layers" style="opacity: 1;"><g class="legendfill"/><g class="legendlines"><path class="js-line" d="M5,0h30" style="fill: none; stroke: rgb(239, 85, 59); stroke-opacity: 1; stroke-width: 2px;"/></g><g class="legendsymbols"><g class="legendpoints"/></g></g><rect class="legendtoggle" pointer-events="all" x="0" y="-9.5" width="129.3125" height="19" style="cursor: pointer; fill: rgb(0, 0, 0); fill-opacity: 0;"/></g><g class="traces" style="opacity: 1;" transform="translate(0, 52.5)"><text class="legendtext user-select-none" text-anchor="start" x="40" y="4.680000000000001" style="font-family: 'Open Sans', verdana, arial, sans-serif; font-size: 12px; fill: rgb(42, 63, 95); fill-opacity: 1; white-space: pre;">subclass relu</text><g class="layers" style="opacity: 1;"><g class="legendfill"/><g class="legendlines"><path class="js-line" d="M5,0h30" style="fill: none; stroke: rgb(0, 204, 150); stroke-opacity: 1; stroke-width: 2px;"/></g><g class="legendsymbols"><g class="legendpoints"/></g></g><rect class="legendtoggle" pointer-events="all" x="0" y="-9.5" width="129.3125" height="19" style="cursor: pointer; fill: rgb(0, 0, 0); fill-opacity: 0;"/></g><g class="traces" style="opacity: 1;" transform="translate(0, 71.5)"><text class="legendtext user-select-none" text-anchor="start" x="40" y="4.680000000000001" style="font-family: 'Open Sans', verdana, arial, sans-serif; font-size: 12px; fill: rgb(42, 63, 95); fill-opacity: 1; white-space: pre;">subclass multi X</text><g class="layers" style="opacity: 1;"><g class="legendfill"/><g class="legendlines"><path class="js-line" d="M5,0h30" style="fill: none; stroke: rgb(171, 99, 250); stroke-opacity: 1; stroke-width: 2px;"/></g><g class="legendsymbols"><g class="legendpoints"/></g></g><rect class="legendtoggle" pointer-events="all" x="0" y="-9.5" width="129.3125" height="19" style="cursor: pointer; fill: rgb(0, 0, 0); fill-opacity: 0;"/></g></g></g><rect class="scrollbar" rx="20" ry="3" width="0" height="0" style="fill: rgb(128, 139, 164); fill-opacity: 1;" x="0" y="0"/></g><g class="g-gtitle"/><g class="g-xtitle"><text class="xtitle" x="410" y="461.3" text-anchor="middle" style="font-family: 'Open Sans', verdana, arial, sans-serif; font-size: 14px; fill: rgb(42, 63, 95); opacity: 1; font-weight: normal; white-space: pre;">x</text></g><g class="g-ytitle"/></g></svg>