<svg class="main-svg" xmlns="http://www.w3.org/2000/svg" xmlns:xlink="http://www.w3.org/1999/xlink" width="600" height="500" style="" viewBox="0 0 600 500"><rect x="0" y="0" width="600" height="500" style="fill: rgb(255, 255, 255); fill-opacity: 1;"/><defs id="defs-a5268e"><g class="clips"><clipPath id="clipa5268exyplot" class="plotclip"><rect width="369" height="320"/></clipPath><clipPath class="axesclip" id="clipa5268ex"><rect x="80" y="0" width="369" height="500"/></clipPath><clipPath class="axesclip" id="clipa5268ey"><rect x="0" y="100" width="600" height="320"/></clipPath><clipPath class="axesclip" id="clipa5268exy"><rect x="80" y="100" width="369" height="320"/></clipPath></g><g class="gradients"/></defs><g class="bglayer"><rect class="bg" x="80" y="100" width="369" height="320" style="fill: rgb(229, 236, 246); fill-opacity: 1; stroke-width: 0;"/></g><g class="layer-below"><g class="imagelayer"/><g class="shapelayer"/></g><g class="cartesianlayer"><g class="subplot xy"><g class="layer-subplot"><g class="shapelayer"/><g class="imagelayer"/></g><g class="gridlayer"><g class="x"><path class="xgrid crisp" transform="translate(172.37,0)" d="M0,100v320" style="stroke: rgb(255, 255, 255); stroke-opacity: 1; stroke-width: 1px;"/><path class="xgrid crisp" transform="translate(264.73,0)" d="M0,100v320" style="stroke: rgb(255, 255, 255); stroke-opacity: 1; stroke-width: 1px;"/><path class="xgrid crisp" transform="translate(357.1,0)" d="M0,100v320" style="stroke: rgb(255, 255, 255); stroke-opacity: 1; stroke-width: 1px;"/></g><g class="y"><path class="ygrid crisp" transform="translate(0,395.92)" d="M80,0h369" style="stroke: rgb(255, 255, 255); stroke-opacity: 1; stroke-width: 1px;"/><path class="ygrid crisp" transform="translate(0,364.08)" d="M80,0h369" style="stroke: rgb(255, 255, 255); stroke-opacity: 1; stroke-width: 1px;"/><path class="ygrid crisp" transform="translate(0,340)" d="M80,0h369" style="stroke: rgb(255, 255, 255); stroke-opacity: 1; stroke-width: 1px;"/><path class="ygrid crisp" transform="translate(0,315.91999999999996)" d="M80,0h369" style="stroke: rgb(255, 255, 255); stroke-opacity: 1; stroke-width: 1px;"/><path class="ygrid crisp" transform="translate(0,284.08000000000004)" d="M80,0h369" style="stroke: rgb(255, 255, 255); stroke-opacity: 1; stroke-width: 1px;"/><path class="ygrid crisp" transform="translate(0,260)" d="M80,0h369" style="stroke: rgb(255, 255, 255); stroke-opacity: 1; stroke-width: 1px;"/><path class="ygrid crisp" transform="translate(0,235.92)" d="M80,0h369" style="stroke: rgb(255, 255, 255); stroke-opacity: 1; stroke-width: 1px;"/><path class="ygrid crisp" transform="translate(0,204.07999999999998)" d="M80,0h369" style="stroke: rgb(255, 255, 255); stroke-opacity: 1; stroke-width: 1px;"/><path class="ygrid crisp" transform="translate(0,180)" d="M80,0h369" style="stroke: rgb(255, 255, 255); stroke-opacity: 1; stroke-width: 1px;"/><path class="ygrid crisp" transform="translate(0,155.92000000000002)" d="M80,0h369" style="stroke: rgb(255, 255, 255); stroke-opacity: 1; stroke-width: 1px;"/><path class="ygrid crisp" transform="translate(0,124.08)" d="M80,0h369" style="stroke: rgb(255, 255, 255); stroke-opacity: 1; stroke-width: 1px;"/></g></g><g class="zerolinelayer"><path class="xzl zl crisp" transform="translate(80,0)" d="M0,100v320" style="stroke: rgb(255, 255, 255); stroke-opacity: 1; stroke-width: 2px;"/></g><path class="xlines-below"/><path class="ylines-below"/><g class="overlines-below"/><g class="xaxislayer-below"/><g class="yaxislayer-below"/><g class="overaxes-below"/><g class="plot" transform="translate(80, 100)" clip-path="url('#clipa5268exyplot')"><g class="scatterlayer mlayer"><g class="trace scatter trace59b10f" style="stroke-miterlimit: 2; opacity: 1;"><g class="fills"/><g class="errorbars"/><g class="lines"><path class="js-line" d="M0,-142.51L1.39,134.14L1.85,132.06L3.23,140.57L3.69,139.13L5.08,144.1L5.54,145.58L6,146.02L6.47,148.13L6.93,147.03L7.39,138.61L8.77,153.96L9.24,150.3L10.16,154.38L10.62,149.57L11.55,160.04L12.01,157.96L12.47,162.54L12.93,159.22L14.32,163.93L14.78,157.87L15.24,166.69L15.7,160.55L16.16,158.17L16.63,169.62L17.55,167.62L18.01,173.52L18.93,170.22L19.4,173.36L19.86,170.77L20.32,175.84L20.78,172.13L21.24,173.15L21.71,173.53L22.17,170.98L22.63,177.44L23.09,175.53L23.55,178.7L24.48,167.7L24.94,173.3L26.32,181.76L26.79,181.78L27.25,179.96L27.71,180.61L28.17,181.83L29.56,177.67L30.02,182.56L30.48,179.49L30.94,184.08L31.4,178.37L31.87,179.03L32.33,181.81L32.79,181.1L33.25,181.98L34.18,184.17L34.64,184.17L35.1,183.7L35.56,184.93L36.02,179.32L36.48,182.84L36.95,181.94L37.41,181.54L37.87,182.45L38.79,181.96L39.26,186.66L39.72,178.68L40.18,182.24L40.64,183.19L41.56,181.87L42.03,186.69L42.95,183.02L43.41,186.86L43.87,186.68L44.34,184.95L45.26,183.28L45.72,183.82L46.18,186.83L46.64,186.31L47.11,186.43L47.57,187.89L48.03,186.57L48.49,186.52L48.95,188.43L49.42,187.58L49.88,184.77L50.34,189.16L50.8,185.56L51.26,189.06L51.72,184.6L52.19,189.47L52.65,186.34L53.57,189.65L54.03,186.17L54.5,186.04L54.96,187.61L55.42,184.9L55.88,189.96L56.34,186.11L56.8,186.97L57.27,186.43L57.73,185.37L58.19,189.53L58.65,183.63L59.11,184.55L59.58,189.85L60.04,189.36L60.5,186.77L60.96,188.07L61.42,183.92L62.35,184.96L62.81,189.29L63.27,186.4L63.73,189.09L64.19,191.2L64.66,186.91L65.12,187.27L65.58,183.78L66.04,190.76L66.5,188.86L66.96,185.51L67.43,190.42L67.89,190.03L68.35,187.5L68.81,185.48L69.27,190.76L69.74,187.53L70.2,189.45L70.66,191.18L71.12,183.35L71.58,185.26L72.05,186.17L72.51,188.13L72.97,185.85L73.89,191.42L74.35,191.37L74.82,192.42L75.28,186.88L75.74,192.03L76.2,189.73L76.66,188.9L77.13,186.09L77.59,191.75L78.05,190.49L78.51,186.7L79.43,191.36L79.9,185.75L80.36,190.1L80.82,189.54L81.28,190.98L82.67,184.44L83.13,191.12L83.59,190.51L84.05,191.81L84.98,189.03L85.44,191.42L85.9,192.37L86.36,187.4L87.29,193.4L87.75,192.36L88.67,187.74L89.13,192.43L89.59,187.88L90.06,188.63L90.52,192.62L90.98,193.59L91.44,188.43L91.9,188.49L92.37,193.23L92.83,188.13L93.29,192.45L93.75,192.57L94.21,186.09L95.14,192.45L95.6,189.28L96.06,188.55L96.52,189.87L96.98,189.68L97.45,193.42L97.91,193.11L98.37,188.99L99.29,191.23L99.75,185.79L100.22,192.07L100.68,190.43L101.14,193.88L102.53,188.99L102.99,193.11L103.45,194.45L103.91,193.96L104.37,190.48L104.83,192.5L105.3,186.22L106.22,192.14L106.68,185.07L107.61,194.62L108.07,189.75L108.53,194.84L108.99,194.12L109.45,193.53L109.91,191.63L110.38,191.85L110.84,191.6L111.3,191.78L111.76,194.52L112.69,195.75L113.15,191.65L113.61,192.43L114.07,195.13L114.99,193.97L115.46,194.78L115.92,194.24L116.38,190.1L116.84,190.67L117.3,187.67L118.23,196.3L118.69,194.04L119.15,195.98L119.61,195.36L120.08,193.43L121.46,191.28L121.92,194.57L122.38,197.03L122.85,195.28L123.77,188.36L124.23,196.69L124.69,191.08L125.16,196.72L126.54,191.16L127,194.18L127.46,193.52L127.93,197.56L128.39,190.7L128.85,193.51L129.31,190.95L130.24,195.89L130.7,187.22L131.16,197.53L131.62,192.26L132.08,195.22L132.54,188.35L133.01,191.81L133.47,193.98L133.93,196.36L134.39,195.19L134.85,195.58L135.32,192.24L135.78,196.23L136.24,193.48L136.7,197.06L137.16,192.11L137.62,193.43L138.09,196.79L138.55,188.64L139.01,191.06L139.47,191.81L140.4,193.06L140.86,197.01L142.24,194.96L142.7,197.08L144.09,189.36L144.55,194.79L145.01,196.42L145.48,191.54L145.94,195.99L146.4,194.77L146.86,192.52L147.78,194.08L148.25,191.96L149.17,192.97L149.63,190.55L150.09,194.91L150.56,194.65L151.02,196.57L151.48,194.33L151.94,198.46L152.4,195.96L152.86,197.9L153.33,196.05L153.79,198.56L154.25,193.76L154.71,198.95L156.1,195.38L156.56,196.8L157.02,197.9L157.48,194.76L157.94,194.1L158.41,196.14L158.87,199.14L159.33,197.17L159.79,193.69L160.25,194.2L160.72,198.87L161.18,194.4L161.64,199.11L162.56,195.31L163.03,196.75L163.95,198.89L164.41,198.48L164.87,194.86L165.33,192.08L165.8,200.29L166.26,198.33L166.72,198.87L167.18,192.68L168.11,198.43L168.57,198.12L169.03,198.15L169.49,199.06L169.95,195.77L170.88,199.69L171.34,196.22L171.8,196.33L172.26,198.22L172.72,192.76L173.19,196.2L173.65,199.48L174.11,195.14L174.57,195.73L175.03,194.19L175.49,199.45L175.96,193.95L176.42,199.46L176.88,197.55L177.34,193.65L178.27,195.77L178.73,194.25L179.19,199.47L179.65,195.56L180.11,188.51L180.57,197.27L181.5,193.34L181.96,197.23L182.42,194.18L182.88,200.06L183.35,197.59L183.81,200.03L184.27,194.03L184.73,197.62L185.19,200.81L185.65,200.65L186.12,199.33L186.58,201.26L187.04,198.33L187.5,199.15L187.96,193.14L188.89,201.07L189.35,198.37L189.81,200.33L190.27,197.75L190.73,201.45L191.2,196.9L191.66,197.76L192.12,200.22L192.58,195.09L193.04,201.82L194.43,196.73L194.89,198.75L195.35,196.55L195.81,198.16L196.28,200.96L196.74,199.05L197.2,200.58L197.66,199.38L198.12,199.58L198.59,200.76L199.05,201.56L199.51,200.17L200.43,196.29L200.89,199.3L201.36,197.88L201.82,200.78L202.28,203L202.74,197.53L203.2,195.77L203.67,197.49L204.59,202.3L205.05,196.08L205.51,202.07L205.97,193.74L206.44,202.08L206.9,198.22L207.36,200.56L207.82,200.96L208.28,197.53L209.21,202.86L209.67,200.74L210.59,197.09L211.06,200.39L211.52,201.85L211.98,196.53L212.9,201.48L213.36,200.24L214.29,200.86L214.75,202.27L215.21,202.06L215.67,198.22L216.14,202.73L216.6,197.28L217.06,197.25L217.52,203.3L218.91,195.32L219.37,201.52L219.83,196.9L220.29,203.96L220.75,204.32L221.22,200.21L222.14,195.35L222.6,203.38L223.06,199.8L223.52,201.53L223.99,202.29L224.91,200.81L225.37,203.16L225.83,200.41L226.3,203.51L226.76,195.66L227.22,202.5L227.68,195.99L228.14,200.65L229.53,203.39L229.99,201.2L230.45,202.47L230.91,201.55L231.38,197.26L232.76,204.51L233.22,196.23L235.07,202.86L235.53,199.16L235.99,197.13L236.46,203.61L236.92,197.98L237.38,205.52L237.84,197.38L238.3,205.19L238.76,199.76L239.23,200.97L239.69,204.51L240.15,203.2L240.61,204.21L241.07,201.34L241.54,203.99L242,202.66L242.46,197.28L243.38,205.09L243.84,203.88L244.31,203.91L244.77,204.35L245.23,196.51L245.69,205.64L246.15,202.31L246.62,200.99L247.08,199.1L247.54,203.98L248,204.6L248.46,202.38L248.92,201.07L249.39,195.51L250.31,197.01L250.77,204.28L251.23,205.58L251.7,204.15L252.16,193.01L252.62,204.79L253.08,194.75L253.54,199.79L254.01,199.38L254.47,206.09L254.93,202.79L255.39,199.64L255.85,205.47L256.31,201.76L257.24,201.38L257.7,202.96L258.16,205.84L258.62,203.38L259.09,203.24L259.55,205.89L261.39,200.16L261.86,205.99L263.7,200.77L264.17,202.95L265.55,207.26L266.01,199.49L266.47,203.42L266.94,197.88L267.4,199.43L267.86,205.32L268.32,199.41L268.78,206.75L269.25,200.66L269.71,203.34L270.17,205.28L271.09,199.73L271.55,203.67L272.48,206.82L272.94,202.76L273.4,197.92L273.86,206.35L274.33,204.99L274.79,207.17L276.17,205.92L276.63,206.6L277.1,207.31L277.56,202.83L278.02,206.83L278.48,202.62L279.87,205.17L280.33,204.2L280.79,205.58L281.25,186.68L281.71,205.79L282.18,186.69L283.1,204.58L283.56,202.64L284.02,199.72L284.49,203.68L285.87,208.14L286.33,203.82L286.79,205.29L287.26,201.08L288.18,208.22L288.64,190.6L289.1,207.61L289.57,206.45L290.03,203.3L290.49,206.86L290.95,203.52L291.41,201.29L291.87,207.44L292.34,204.12L292.8,204.83L293.26,207.16L293.72,206.09L294.18,199.52L295.11,206.77L295.57,206.11L296.03,204.09L296.49,208.55L296.95,203.04L297.42,204.82L297.88,204.33L298.34,209.27L298.8,202.01L299.26,206.06L299.73,207.16L300.19,204.97L300.65,205.98L301.11,208.46L301.57,207.18L302.04,207.88L302.5,208.42L302.96,199.06L303.42,205.61L304.34,209.97L304.81,205.67L305.27,199.14L305.73,206.26L306.65,208.61L307.12,204.31L308.04,209.01L308.5,204.86L308.96,204.86L309.42,207.82L310.81,209.18L311.27,207.3L311.73,204.51L312.2,208.36L312.66,200.73L313.12,205.96L313.58,201.62L314.04,207.78L314.5,204.97L314.97,205.97L315.43,206.16L315.89,204.4L316.35,209.45L316.81,203.72L317.28,205.9L317.74,209.33L318.2,206.74L318.66,210.32L319.12,208.3L319.58,209.72L320.05,202.5L320.51,205.65L320.97,205.67L321.89,207.92L322.36,205.57L322.82,204.26L323.28,206.44L323.74,211.15L324.2,209.13L324.66,209.85L325.13,209.52L325.59,206.55L326.05,210.24L326.51,204.78L326.97,206.75L327.44,204.21L327.9,209.67L328.36,209.25L328.82,204.42L329.28,210.57L329.74,207.64L330.21,208.42L330.67,205.7L331.13,207.41L331.59,211.49L332.52,209.35L332.98,205.44L333.9,206.92L334.36,199.58L335.29,210.26L335.75,209.21L336.21,209.22L336.67,211.45L337.6,205.09L338.06,210.35L338.52,206.74L338.98,210.99L339.44,210.97L339.9,209.38L340.37,201.43L340.83,212.48L341.29,206.45L341.75,208.82L342.21,209.81L342.68,211.73L343.14,205.52L344.52,211.06L344.98,203.8L345.45,209.6L345.91,203.41L346.83,210.35L347.29,207.18L347.76,202.63L348.22,207.67L348.68,208.47L349.14,211.21L349.6,209.9L350.07,212.58L350.53,211.98L350.99,207.11L351.91,211.86L352.37,204.22L353.3,211.94L353.76,206.52L355.15,212.72L355.61,205.45L356.07,210.16L356.53,205.21L356.99,211.72L357.45,207.53L357.92,211.12L358.38,210.37L358.84,189.01L359.3,210.19L359.76,208.74L360.23,212.83L361.15,207.9L361.61,210.32L362.07,208.12L362.53,213.09L363.46,207.62L363.92,209.71L364.84,207.21L365.31,203.14L366.23,211.63L366.69,207.59L367.15,212.15L367.61,208.52L368.08,204.3L368.54,212.61L369,213.35" style="vector-effect: non-scaling-stroke; fill: none; stroke: rgb(99, 110, 250); stroke-opacity: 1; stroke-width: 2px; opacity: 1;"/></g><g class="points"/><g class="text"/></g><g class="trace scatter trace7b02d4" style="stroke-miterlimit: 2; opacity: 1;"><g class="fills"/><g class="errorbars"/><g class="lines"><path class="js-line" d="M0,-47.49L0.92,128.01L1.39,112.95L1.85,137.84L2.31,122.32L2.77,128.28L3.23,110.56L3.69,128.85L4.16,122.88L4.62,126.27L5.08,142.91L5.54,124.49L6,136.68L6.47,128.33L6.93,88.01L7.39,103.9L7.85,89.2L8.31,153.81L8.77,112.9L9.24,134.79L9.7,122.6L10.16,97.16L10.62,142.05L11.08,140.21L11.55,133.85L12.01,160.85L12.47,125.95L13.39,127.12L13.85,125.69L14.32,111.56L14.78,151.7L15.7,111.14L16.16,168.57L16.63,136.91L17.09,138.02L17.55,172.37L18.01,171.96L18.47,146.71L18.93,160.78L19.4,138.21L19.86,176.77L20.32,161.83L20.78,148.29L21.71,127.65L22.17,179.16L22.63,148.84L23.09,180.2L23.55,172.25L24.02,121.9L26.32,179.94L26.79,162.74L27.25,162.7L27.71,177.81L28.17,150.36L28.63,182.49L29.1,146.6L29.56,163.46L30.02,142.9L30.48,184.79L30.94,154.37L31.4,148.82L31.87,150.51L32.33,154.51L32.79,157.45L33.25,172.88L34.18,185.56L34.64,159.75L35.1,178.84L35.56,146.15L36.02,148.39L36.48,161.01L36.95,164.69L37.41,143.22L37.87,159.48L38.33,144.62L38.79,183.52L39.26,141.36L40.18,149.15L40.64,142.78L41.1,146.5L41.56,160.24L42.03,166.2L42.49,142.63L42.95,183.19L43.41,180.97L43.87,149.01L44.34,153.24L44.8,147.12L45.72,175.75L46.18,175.62L46.64,147.6L47.11,181.28L47.57,153.82L48.03,157.58L48.49,182.45L48.95,185.49L49.42,163.77L49.88,184.21L50.34,174.73L50.8,181.68L51.26,147.14L51.72,189.44L52.19,161.55L52.65,176.61L53.11,180L54.03,147.48L54.5,161.49L54.96,143.42L55.42,181.95L56.34,160.1L56.8,162.69L57.27,153.81L57.73,179.3L58.65,151.67L59.11,190.21L60.04,171.17L60.5,169.45L61.42,147.42L61.88,148.55L62.35,179.83L63.27,161.04L63.73,191.15L64.66,150.15L65.12,143.41L65.58,186.77L66.04,167.32L66.5,149.76L66.96,191.11L67.43,179.82L67.89,150.7L68.35,146.02L68.81,190.87L69.27,154.49L69.74,162.53L70.2,191.87L71.12,152.09L71.58,152.63L72.05,162.27L72.51,154.62L73.43,192.22L73.89,190.43L74.35,191.34L74.82,147.73L75.28,188.72L76.66,148.05L77.13,190.34L78.05,149.17L78.51,191.77L78.97,181.3L79.43,150.08L80.82,173.67L81.28,151.7L81.74,152.05L82.21,154.5L83.59,189.15L84.05,148.8L85.44,189.71L85.9,151.54L86.36,181.11L86.82,173.12L87.29,173.44L87.75,147.77L88.21,153.11L88.67,172.2L89.13,149.28L89.59,157.53L90.06,178.73L90.52,192.33L90.98,158.15L91.44,164.54L91.9,193.87L92.37,160.75L92.83,193.36L93.29,193.74L93.75,155.75L94.21,159.45L94.67,193.9L95.6,141.44L96.06,155.26L96.52,162.91L96.98,187.01L97.45,178.32L97.91,148.67L98.83,163.35L99.29,154.47L100.68,194.39L101.14,183.81L102.06,157.33L102.53,190.27L103.45,194.57L103.91,159.56L104.37,180.97L104.83,147.01L105.3,144.44L105.76,193.9L106.22,145.98L106.68,174.86L107.14,192.86L107.61,159.43L108.07,188.25L108.53,191.15L108.99,166.25L109.45,167.82L109.91,177.03L110.38,157.3L110.84,160.65L111.3,181.18L112.22,194.3L112.69,156.29L113.15,158.01L113.61,194.44L114.53,185.01L114.99,195.64L116.38,146.37L116.84,151.13L117.77,195.14L118.23,172.67L118.69,194.25L119.15,185.18L119.61,174.48L120.08,161.43L120.54,168.21L121,156.76L121.92,195.2L122.38,194.37L123.31,146.68L123.77,191.68L124.23,150.49L124.69,192.87L125.16,162.68L125.62,162.96L126.08,161.75L126.54,196.04L127,167.91L127.46,196.05L127.93,154.39L128.39,170.12L128.85,150.3L129.77,175.83L130.24,148.48L130.7,196.5L131.16,165.34L131.62,176.76L132.08,151.63L133.01,164.89L133.47,196.97L133.93,195.33L134.39,182.44L134.85,152.3L135.32,191.55L135.78,166.73L136.24,189.81L137.16,169.46L137.62,175.13L138.55,155.93L139.01,158.99L139.47,159.32L139.93,158.04L140.4,188.69L140.86,186.42L141.32,189.65L141.78,171.1L142.24,194.81L143.17,149.65L143.63,159.43L144.09,160.85L144.55,187.2L145.01,150.49L145.48,184.13L146.4,154.61L146.86,162.85L147.32,152.39L147.78,153.03L148.25,164.46L149.17,147.73L149.63,162.37L150.56,185.17L151.02,163.58L151.48,194.35L151.94,166.96L152.4,193.09L152.86,169.11L153.33,197.98L153.79,159.77L154.71,194.43L155.17,185.87L155.64,161.16L156.1,172.29L156.56,188.77L157.48,156.31L157.94,165.62L158.41,198.8L158.87,177.77L159.33,165.36L159.79,166.89L160.25,185.94L160.72,165L161.18,188.48L162.1,164.31L162.56,164.07L163.03,170.51L163.49,198.63L164.87,148.24L165.33,194.94L165.8,190.77L166.26,191.6L166.72,161.46L167.18,162.72L167.64,183.06L168.11,181.3L168.57,183.27L169.03,187.31L169.49,181.11L169.95,165.76L170.41,197.2L170.88,158.57L171.34,173.75L171.8,188.13L172.26,151.06L172.72,171.69L173.19,179.82L173.65,159.74L174.11,162.01L174.57,157.79L175.03,177.94L175.49,159.23L175.96,194.42L176.42,171.84L177.8,160.39L178.27,170.77L178.73,179.14L179.19,169.37L179.65,151.48L180.11,166L180.57,165.08L181.04,150.48L181.5,169.38L181.96,152.68L182.42,172.59L182.88,168.08L183.35,174.38L183.81,152.7L184.27,167.43L184.73,198.68L185.19,181.41L185.65,188.24L186.12,198.21L186.58,174.42L187.04,182.07L187.5,159.8L187.96,168.6L188.43,200.76L188.89,173.08L189.35,183.34L189.81,170.07L190.27,198.12L190.73,160.55L191.66,193.06L192.12,153.31L192.58,198.14L193.04,184.13L193.51,189.17L193.97,174.16L194.43,183.21L194.89,174.24L195.35,174.37L195.81,181.01L196.28,164.17L196.74,190.3L197.2,155.09L197.66,172.83L198.12,191.78L198.59,175.23L199.05,180.39L199.51,191.57L199.97,157.77L200.43,184.51L200.89,167.31L201.36,191.87L201.82,201.83L202.28,159.98L204.13,201.46L204.59,157.83L205.05,188.13L205.51,158.64L205.97,192.85L206.44,167.09L206.9,188.25L207.36,185.49L207.82,158.8L208.75,202.07L209.21,170L210.13,156.83L210.59,179.2L211.06,177.66L211.52,168.22L211.98,202.24L212.44,184.68L212.9,184.89L213.83,175.18L214.29,194.47L214.75,201.25L215.21,157.56L215.67,202.75L216.14,158.72L216.6,169.53L217.06,202.68L217.52,200.13L217.98,167.17L218.44,164.52L218.91,183.21L219.37,152.07L219.83,202.94L220.29,201.89L220.75,175.99L221.68,161.35L222.14,198.97L222.6,171.74L223.06,182.21L223.52,192L224.45,171.49L224.91,187.64L225.37,176.06L225.83,203.82L226.3,159.69L226.76,198.92L227.22,163.75L227.68,171.84L228.14,181.07L228.6,199.84L229.07,195.67L229.53,174.06L229.99,190.28L230.45,176.54L230.91,156.84L231.38,162.61L231.84,177.56L232.3,201.33L232.76,160.12L233.22,164.54L233.68,182.1L234.61,195.82L235.07,160.17L235.53,154.94L235.99,195.84L236.46,167.22L236.92,202.59L237.38,157.44L237.84,203.27L238.76,169.68L239.23,202.7L239.69,180L240.15,204.67L240.61,171.58L241.07,203.81L242.46,160.82L242.92,196.61L243.84,179.22L244.31,184.04L244.77,152.44L245.23,200.31L245.69,179.79L246.15,172.55L246.62,165.53L247.08,188.43L247.54,202.45L248,191.58L249.39,158.52L249.85,157.66L250.77,201.52L251.23,205.19L251.7,151.18L252.16,201.57L252.62,157.29L253.08,159.73L253.54,159.66L254.01,203.45L254.47,166.14L254.93,164.53L255.39,195.61L255.85,168.43L256.31,174.42L256.78,176.34L257.7,204.42L258.16,183.06L258.62,174.21L259.09,204.45L260.93,166.75L261.39,205.85L262.32,193.07L262.78,194.44L263.24,165.37L263.7,189.97L264.17,187.44L264.63,201.87L265.09,195.88L265.55,167.14L266.01,191L266.47,167.97L266.94,159.66L267.4,180.98L267.86,164.64L268.32,198.51L268.78,170.28L269.25,173.77L269.71,187.93L270.63,156.04L271.09,186.7L271.55,180.26L272.02,202.55L272.94,157.43L273.4,189.11L273.86,182.24L274.33,206.82L274.79,191.66L275.25,206.87L275.71,181.46L276.17,207.3L276.63,203.42L277.1,168.78L277.56,190.86L278.02,178.55L278.48,179.06L279.41,186.18L279.87,176.8L280.33,196.48L280.79,139.98L281.25,187.86L281.71,142.7L282.64,184.3L283.1,176.36L283.56,154.56L284.02,174.22L284.49,203.19L284.95,201.77L285.41,207.88L285.87,172.11L286.33,186.36L286.79,160.54L287.72,205.68L288.18,145.03L289.1,207.91L289.57,170.96L290.03,188.3L290.49,169.34L290.95,161.84L291.41,193.27L292.34,169.89L292.8,179.26L293.72,158.38L294.18,160.05L294.65,198.97L295.57,176.27L296.03,207.17L296.49,175.15L296.95,191.62L297.42,191.73L297.88,208.38L298.34,167.09L298.8,170.38L299.26,195.88L299.73,176.19L300.19,180.3L300.65,194.75L301.11,185L301.57,200.26L302.04,203.18L302.5,165.25L303.88,208.2L304.34,176.25L304.81,159.37L305.27,191.56L305.73,186.01L306.19,209.1L306.65,179.2L307.12,179.26L307.58,203.03L308.04,166.58L308.5,172.24L308.96,176.28L309.42,202.15L309.89,181.26L310.35,202.14L310.81,196.5L311.27,163.04L311.73,191.42L312.2,163.38L312.66,177.52L313.12,167.1L313.58,182.87L314.04,178.15L314.5,174.94L314.97,177.28L315.43,165.79L315.89,206.34L316.35,175.5L316.81,163.37L317.28,208.47L317.74,177.68L318.2,208.69L318.66,204.42L319.12,209.14L319.58,163.04L320.05,176.23L320.51,173.06L321.43,191.84L321.89,175.82L322.36,167.65L322.82,184.48L323.28,204.28L323.74,197.18L324.2,209.11L325.13,170.47L325.59,204.19L326.05,171.41L326.51,189.05L326.97,165.01L327.9,208.56L328.36,161.71L328.82,206.47L329.28,191.49L329.74,189.35L330.21,166.56L330.67,175.7L331.13,207.27L331.59,194L332.05,201.54L332.52,165.66L332.98,181.72L333.44,169.33L333.9,165.99L334.36,189.95L334.82,198.1L335.29,189.48L335.75,186.2L336.21,210.73L337.13,169.34L337.6,208.72L338.06,175.43L338.52,210.3L338.98,205.83L339.44,190.64L339.9,163.75L340.37,208.24L340.83,177.39L341.29,195.21L341.75,211.47L342.21,211.35L342.68,170.59L344.06,207.12L344.52,171.69L344.98,208.71L345.45,163.38L345.91,170.77L346.37,190.41L347.29,158.25L347.76,191.49L348.22,180.34L348.68,194.72L349.14,190.57L349.6,208.61L350.07,209.99L350.53,181.88L350.99,208.13L351.45,207.37L351.91,172.39L352.37,212.2L352.84,203.19L353.3,170.13L354.68,211.41L355.15,166.74L355.61,182.73L356.07,163.25L356.53,211.27L356.99,177.22L357.45,198.45L357.92,176.64L358.38,140.62L358.84,186.53L359.3,189.57L359.76,210.83L360.23,177.06L360.69,181.29L361.15,176.79L361.61,180.67L362.07,212.23L363.92,176.8L364.38,189.46L364.84,170.7L365.31,193.11L365.77,198.17L366.23,165.28L366.69,206.32L367.15,185.92L367.61,168.52L368.08,212.44L368.54,207.63L369,183.04" style="vector-effect: non-scaling-stroke; fill: none; stroke: rgb(239, 85, 59); stroke-opacity: 1; stroke-width: 2px; opacity: 1;"/></g><g class="points"/><g class="text"/></g></g></g><g class="overplot"/><path class="xlines-above crisp" d="M0,0" style="fill: none;"/><path class="ylines-above crisp" d="M0,0" style="fill: none;"/><g class="overlines-above"/><g class="xaxislayer-above"><g class="xtick"><text text-anchor="middle" x="0" y="433" transform="translate(80,0)" style="font-family: 'Open Sans', verdana, arial, sans-serif; font-size: 12px; fill: rgb(42, 63, 95); fill-opacity: 1; white-space: pre;">0</text></g><g class="xtick"><text text-anchor="middle" x="0" y="433" transform="translate(172.37,0)" style="font-family: 'Open Sans', verdana, arial, sans-serif; font-size: 12px; fill: rgb(42, 63, 95); fill-opacity: 1; white-space: pre;">200</text></g><g class="xtick"><text text-anchor="middle" x="0" y="433" transform="translate(264.73,0)" style="font-family: 'Open Sans', verdana, arial, sans-serif; font-size: 12px; fill: rgb(42, 63, 95); fill-opacity: 1; white-space: pre;">400</text></g><g class="xtick"><text text-anchor="middle" x="0" y="433" transform="translate(357.1,0)" style="font-family: 'Open Sans', verdana, arial, sans-serif; font-size: 12px; fill: rgb(42, 63, 95); fill-opacity: 1; white-space: pre;">600</text></g></g><g class="yaxislayer-above"><g class="ytick"><text text-anchor="end" x="79" y="4.199999999999999" transform="translate(0,420)" style="font-family: 'Open Sans', verdana, arial, sans-serif; font-size: 12px; fill: rgb(42, 63, 95); fill-opacity: 1; white-space: pre;">100n</text></g><g class="ytick"><text text-anchor="end" x="79" y="3.15" transform="translate(0,395.92)" style="font-family: 'Open Sans', verdana, arial, sans-serif; font-size: 9px; fill: rgb(42, 63, 95); fill-opacity: 1; white-space: pre;">2</text></g><g class="ytick"><text text-anchor="end" x="79" y="3.15" transform="translate(0,364.08)" style="font-family: 'Open Sans', verdana, arial, sans-serif; font-size: 9px; fill: rgb(42, 63, 95); fill-opacity: 1; white-space: pre;">5</text></g><g class="ytick"><text text-anchor="end" x="79" y="4.199999999999999" transform="translate(0,340)" style="font-family: 'Open Sans', verdana, arial, sans-serif; font-size: 12px; fill: rgb(42, 63, 95); fill-opacity: 1; white-space: pre;">1μ</text></g><g class="ytick"><text text-anchor="end" x="79" y="3.15" transform="translate(0,315.91999999999996)" style="font-family: 'Open Sans', verdana, arial, sans-serif; font-size: 9px; fill: rgb(42, 63, 95); fill-opacity: 1; white-space: pre;">2</text></g><g class="ytick"><text text-anchor="end" x="79" y="3.15" transform="translate(0,284.08000000000004)" style="font-family: 'Open Sans', verdana, arial, sans-serif; font-size: 9px; fill: rgb(42, 63, 95); fill-opacity: 1; white-space: pre;">5</text></g><g class="ytick"><text text-anchor="end" x="79" y="4.199999999999999" transform="translate(0,260)" style="font-family: 'Open Sans', verdana, arial, sans-serif; font-size: 12px; fill: rgb(42, 63, 95); fill-opacity: 1; white-space: pre;">10μ</text></g><g class="ytick"><text text-anchor="end" x="79" y="3.15" transform="translate(0,235.92)" style="font-family: 'Open Sans', verdana, arial, sans-serif; font-size: 9px; fill: rgb(42, 63, 95); fill-opacity: 1; white-space: pre;">2</text></g><g class="ytick"><text text-anchor="end" x="79" y="3.15" transform="translate(0,204.07999999999998)" style="font-family: 'Open Sans', verdana, arial, sans-serif; font-size: 9px; fill: rgb(42, 63, 95); fill-opacity: 1; white-space: pre;">5</text></g><g class="ytick"><text text-anchor="end" x="79" y="4.199999999999999" transform="translate(0,180)" style="font-family: 'Open Sans', verdana, arial, sans-serif; font-size: 12px; fill: rgb(42, 63, 95); fill-opacity: 1; white-space: pre;">100μ</text></g><g class="ytick"><text text-anchor="end" x="79" y="3.15" transform="translate(0,155.92000000000002)" style="font-family: 'Open Sans', verdana, arial, sans-serif; font-size: 9px; fill: rgb(42, 63, 95); fill-opacity: 1; white-space: pre;">2</text></g><g class="ytick"><text text-anchor="end" x="79" y="3.15" transform="translate(0,124.08)" style="font-family: 'Open Sans', verdana, arial, sans-serif; font-size: 9px; fill: rgb(42, 63, 95); fill-opacity: 1; white-space: pre;">5</text></g><g class="ytick"><text text-anchor="end" x="79" y="4.199999999999999" transform="translate(0,100)" style="font-family: 'Open Sans', verdana, arial, sans-serif; font-size: 12px; fill: rgb(42, 63, 95); fill-opacity: 1; white-space: pre;">0.001</text></g></g><g class="overaxes-above"/></g></g><g class="polarlayer"/><g class="ternarylayer"/><g class="geolayer"/><g class="funnelarealayer"/><g class="pielayer"/><g class="treemaplayer"/><g class="sunburstlayer"/><g class="glimages"/><defs id="topdefs-a5268e"><g class="clips"/><clipPath id="legenda5268e"><rect width="132" height="48" x="0" y="0"/></clipPath></defs><g class="layer-above"><g class="imagelayer"/><g class="shapelayer"/></g><g class="infolayer"><g class="legend" pointer-events="all" transform="translate(456.38, 100)"><rect class="bg" shape-rendering="crispEdges" width="132" height="48" x="0" y="0" style="stroke: rgb(68, 68, 68); stroke-opacity: 1; fill: rgb(255, 255, 255); fill-opacity: 1; stroke-width: 0px;"/><g class="scrollbox" transform="translate(0, 0)" clip-path="url('#legenda5268e')"><g class="groups"><g class="traces" transform="translate(0, 14.5)" style="opacity: 1;"><text class="legendtext user-select-none" text-anchor="start" x="40" y="4.680000000000001" style="font-family: 'Open Sans', verdana, arial, sans-serif; font-size: 12px; fill: rgb(42, 63, 95); fill-opacity: 1; white-space: pre;">error training</text><g class="layers" style="opacity: 1;"><g class="legendfill"/><g class="legendlines"><path class="js-line" d="M5,0h30" style="fill: none; stroke: rgb(99, 110, 250); stroke-opacity: 1; stroke-width: 2px;"/></g><g class="legendsymbols"><g class="legendpoints"/></g></g><rect class="legendtoggle" pointer-events="all" x="0" y="-9.5" width="126.46875" height="19" style="cursor: pointer; fill: rgb(0, 0, 0); fill-opacity: 0;"/></g><g class="traces" transform="translate(0, 33.5)" style="opacity: 1;"><text class="legendtext user-select-none" text-anchor="start" x="40" y="4.680000000000001" style="font-family: 'Open Sans', verdana, arial, sans-serif; font-size: 12px; fill: rgb(42, 63, 95); fill-opacity: 1; white-space: pre;">error validation</text><g class="layers" style="opacity: 1;"><g class="legendfill"/><g class="legendlines"><path class="js-line" d="M5,0h30" style="fill: none; stroke: rgb(239, 85, 59); stroke-opacity: 1; stroke-width: 2px;"/></g><g class="legendsymbols"><g class="legendpoints"/></g></g><rect class="legendtoggle" pointer-events="all" x="0" y="-9.5" width="126.46875" height="19" style="cursor: pointer; fill: rgb(0, 0, 0); fill-opacity: 0;"/></g></g></g><rect class="scrollbar" rx="20" ry="3" width="0" height="0" x="0" y="0" style="fill: rgb(128, 139, 164); fill-opacity: 1;"/></g><g class="g-gtitle"/><g class="g-xtitle"><text class="xtitle" x="264.5" y="461.3" text-anchor="middle" style="font-family: 'Open Sans', verdana, arial, sans-serif; font-size: 14px; fill: rgb(42, 63, 95); opacity: 1; font-weight: normal; white-space: pre;">epoch</text></g><g class="g-ytitle"/></g></svg>