<svg class="main-svg" xmlns="http://www.w3.org/2000/svg" xmlns:xlink="http://www.w3.org/1999/xlink" width="600" height="500" style="" viewBox="0 0 600 500"><rect x="0" y="0" width="600" height="500" style="fill: rgb(255, 255, 255); fill-opacity: 1;"/><defs id="defs-2779a7"><g class="clips"><clipPath id="clip2779a7xyplot" class="plotclip"><rect width="369" height="320"/></clipPath><clipPath class="axesclip" id="clip2779a7x"><rect x="80" y="0" width="369" height="500"/></clipPath><clipPath class="axesclip" id="clip2779a7y"><rect x="0" y="100" width="600" height="320"/></clipPath><clipPath class="axesclip" id="clip2779a7xy"><rect x="80" y="100" width="369" height="320"/></clipPath></g><g class="gradients"/></defs><g class="bglayer"><rect class="bg" x="80" y="100" width="369" height="320" style="fill: rgb(229, 236, 246); fill-opacity: 1; stroke-width: 0;"/></g><g class="layer-below"><g class="imagelayer"/><g class="shapelayer"/></g><g class="cartesianlayer"><g class="subplot xy"><g class="layer-subplot"><g class="shapelayer"/><g class="imagelayer"/></g><g class="gridlayer"><g class="x"><path class="xgrid crisp" transform="translate(172.37,0)" d="M0,100v320" style="stroke: rgb(255, 255, 255); stroke-opacity: 1; stroke-width: 1px;"/><path class="xgrid crisp" transform="translate(264.73,0)" d="M0,100v320" style="stroke: rgb(255, 255, 255); stroke-opacity: 1; stroke-width: 1px;"/><path class="xgrid crisp" transform="translate(357.1,0)" d="M0,100v320" style="stroke: rgb(255, 255, 255); stroke-opacity: 1; stroke-width: 1px;"/></g><g class="y"><path class="ygrid crisp" transform="translate(0,395.92)" d="M80,0h369" style="stroke: rgb(255, 255, 255); stroke-opacity: 1; stroke-width: 1px;"/><path class="ygrid crisp" transform="translate(0,364.08)" d="M80,0h369" style="stroke: rgb(255, 255, 255); stroke-opacity: 1; stroke-width: 1px;"/><path class="ygrid crisp" transform="translate(0,340)" d="M80,0h369" style="stroke: rgb(255, 255, 255); stroke-opacity: 1; stroke-width: 1px;"/><path class="ygrid crisp" transform="translate(0,315.91999999999996)" d="M80,0h369" style="stroke: rgb(255, 255, 255); stroke-opacity: 1; stroke-width: 1px;"/><path class="ygrid crisp" transform="translate(0,284.08000000000004)" d="M80,0h369" style="stroke: rgb(255, 255, 255); stroke-opacity: 1; stroke-width: 1px;"/><path class="ygrid crisp" transform="translate(0,260)" d="M80,0h369" style="stroke: rgb(255, 255, 255); stroke-opacity: 1; stroke-width: 1px;"/><path class="ygrid crisp" transform="translate(0,235.92)" d="M80,0h369" style="stroke: rgb(255, 255, 255); stroke-opacity: 1; stroke-width: 1px;"/><path class="ygrid crisp" transform="translate(0,204.07999999999998)" d="M80,0h369" style="stroke: rgb(255, 255, 255); stroke-opacity: 1; stroke-width: 1px;"/><path class="ygrid crisp" transform="translate(0,180)" d="M80,0h369" style="stroke: rgb(255, 255, 255); stroke-opacity: 1; stroke-width: 1px;"/><path class="ygrid crisp" transform="translate(0,155.92000000000002)" d="M80,0h369" style="stroke: rgb(255, 255, 255); stroke-opacity: 1; stroke-width: 1px;"/><path class="ygrid crisp" transform="translate(0,124.08)" d="M80,0h369" style="stroke: rgb(255, 255, 255); stroke-opacity: 1; stroke-width: 1px;"/></g></g><g class="zerolinelayer"><path class="xzl zl crisp" transform="translate(80,0)" d="M0,100v320" style="stroke: rgb(255, 255, 255); stroke-opacity: 1; stroke-width: 2px;"/></g><path class="xlines-below"/><path class="ylines-below"/><g class="overlines-below"/><g class="xaxislayer-below"/><g class="yaxislayer-below"/><g class="overaxes-below"/><g class="plot" transform="translate(80, 100)" clip-path="url('#clip2779a7xyplot')"><g class="scatterlayer mlayer"><g class="trace scatter trace46ccce" style="stroke-miterlimit: 2; opacity: 1;"><g class="fills"/><g class="errorbars"/><g class="lines"><path class="js-line" d="M0,-145L1.85,-16.34L2.31,-0.21L5.08,68.16L5.54,74.74L7.85,99.25L8.31,101.38L9.24,105.02L9.7,102.99L10.62,107.77L11.08,107.83L12.93,110.34L13.39,110.49L14.32,110.8L14.78,110.82L16.16,111.09L16.63,110.98L18.93,112.44L19.4,111.11L20.32,112.86L20.78,113.15L21.24,113.54L21.71,112.78L22.17,113.84L22.63,112.85L24.02,114.24L24.48,114.49L25.4,114.19L25.86,113.8L27.25,114.72L27.71,114.36L28.63,114.86L29.1,114.6L30.02,115.74L30.48,114.86L31.87,115.82L32.33,115.59L33.25,116.23L33.71,116.19L36.48,116.81L36.95,115.01L37.41,117.09L37.87,116.87L38.33,117.34L38.79,116.48L39.26,117.65L39.72,117.84L40.18,117.06L42.03,118.08L42.49,117.33L43.41,118.54L43.87,118.21L44.34,118.69L44.8,118.19L45.26,118.2L46.64,118.87L47.11,119.22L48.49,119.02L48.95,119.86L50.34,118.96L50.8,119.85L51.26,117.77L51.72,120.07L53.57,120.04L54.03,119.31L56.8,121.36L57.27,119.95L58.19,121.27L58.65,120.16L59.58,121.63L60.04,121.23L60.5,120.99L60.96,122.16L61.42,116.85L61.88,120.96L62.81,121.67L63.27,120.42L64.19,122.35L64.66,122.31L65.58,121.76L66.04,122.78L67.43,122.33L67.89,122.81L68.35,122.21L68.81,122.68L69.27,122.91L70.66,122.87L71.12,123.79L71.58,123.13L72.05,123.61L72.51,123.61L72.97,123L73.43,123.97L74.82,123.55L75.28,123.94L77.13,124.01L77.59,122.67L78.51,124.44L78.97,123.8L79.43,121.25L79.9,124.86L80.82,124.52L81.28,124.8L82.21,125.12L82.67,124.58L83.13,125.54L83.59,124.45L86.36,125.73L86.82,125.23L88.21,126.29L88.67,125.48L89.13,124.82L89.59,125.84L90.52,125.22L90.98,125.91L91.44,126.21L91.9,124.94L92.83,126.44L93.29,126.51L95.6,126.57L96.06,122.11L96.98,126.33L97.45,126.97L97.91,123.72L98.37,127.21L100.22,127.64L100.68,127.2L101.6,128.02L102.06,123.6L102.99,127.86L103.45,127.61L103.91,128.29L104.37,125.3L105.76,128.65L106.22,125.4L107.14,128.84L107.61,128.99L108.99,128.84L109.45,127.77L109.91,129.16L110.38,128.92L110.84,128.01L111.76,129.17L112.22,125.61L112.69,124.8L113.15,128.85L114.99,129.69L115.46,129.26L115.92,128.87L116.38,129.67L118.69,130.28L119.15,129.02L119.61,130.37L120.08,129.23L120.54,129.2L121,130.42L122.85,130.3L123.31,130.54L124.23,130.81L124.69,130.77L128.39,131.33L128.85,129.06L129.31,128.77L129.77,131.31L130.24,131.53L130.7,130.76L132.54,131.8L133.01,130.6L133.93,131.4L134.39,131.72L138.09,132.21L138.55,131.29L139.47,132.82L139.93,131.34L140.86,132.9L141.32,132.4L141.78,133.08L142.24,132.99L142.7,131.73L143.63,133.15L144.09,132.93L144.55,132.81L145.48,132.65L145.94,133.09L146.4,133.26L146.86,132.51L147.32,132.27L147.78,132.95L148.25,133.17L148.71,132.19L149.17,133.64L149.63,133.14L150.09,132.92L151.02,133.06L151.48,134.06L151.94,132.83L152.4,133.59L152.86,133.96L153.79,133.86L154.25,132.99L155.17,134.08L155.64,133.46L156.1,129.56L156.56,133.99L157.94,134.36L158.41,134.29L158.87,134.57L159.33,132.32L159.79,134.66L160.25,134.29L160.72,134.35L161.64,134.52L162.1,130.07L162.56,134.96L163.03,134.47L163.49,134.64L165.8,135.14L166.26,135.43L166.72,134.1L167.18,134.75L167.64,135.1L168.11,135.3L168.57,134.51L169.03,135.38L169.49,133.39L170.88,135.34L171.34,135.31L171.8,135.41L172.26,130.23L172.72,135.84L173.19,134.96L173.65,135.74L174.11,134.9L174.57,136.04L177.8,135.93L178.27,136.74L179.65,135.35L180.11,136.26L180.57,136.58L181.04,135.77L181.5,136.67L181.96,136.39L182.42,136.36L184.27,135.93L184.73,137.3L185.19,136.69L185.65,137.16L186.12,136.87L186.58,137.13L187.04,136.41L187.5,136.31L187.96,136.99L188.43,136.33L188.89,137.14L189.81,137.3L190.27,135.63L191.2,137.56L191.66,136.47L192.58,137.58L193.04,137.06L194.43,137.78L194.89,136.57L195.81,137.71L196.28,136.81L197.66,137.67L198.12,137.55L200.89,138.36L201.36,138.06L201.82,133.89L202.28,137.72L202.74,138.28L203.2,137.62L203.67,137.2L204.13,137.84L204.59,138.42L205.05,137.71L205.97,138.67L206.44,138.41L207.82,138.93L208.28,138.13L208.75,138.51L209.21,137.42L210.13,138.83L210.59,138.42L211.52,139.15L211.98,138.26L213.36,138.88L213.83,138.48L214.29,138.7L214.75,137.39L215.21,138.6L215.67,138.31L216.14,137.2L216.6,139.4L217.06,139.04L217.52,139.22L217.98,139.67L218.44,138.56L219.83,140.01L220.29,138.67L222.14,139.99L222.6,138.93L223.06,139.41L223.52,137.96L223.99,140.06L224.45,139.3L224.91,139.78L225.83,139.45L226.3,138.97L227.68,140.06L228.14,140.36L228.6,139.4L229.07,140.35L229.53,139.68L229.99,140.26L230.45,140.13L231.38,140.23L231.84,139.72L232.3,140.66L232.76,133.76L233.68,140.18L234.15,140.11L234.61,140.31L235.07,139.27L235.53,140.55L235.99,139.96L236.46,136.06L237.38,139.98L237.84,139.84L238.3,140.87L238.76,140.37L239.23,139.76L240.15,140.89L240.61,141.31L241.54,140.34L242,141L242.92,141.14L243.38,134.08L244.31,140.9L244.77,141.28L248.46,141.07L248.92,141.5L249.39,140.54L249.85,141.23L250.31,141.09L250.77,140.62L251.23,141.43L252.62,141.56L253.08,141.1L253.54,140.77L254.01,141.63L255.85,142.02L256.31,140.86L257.7,141.88L258.16,141.92L259.09,141.5L259.55,141.94L260.47,142.21L260.93,142.21L261.39,141.82L261.86,139.93L262.78,142.25L263.24,142.13L263.7,142.04L264.17,139.4L264.63,142.16L265.09,140.9L265.55,141.97L266.01,139.87L266.47,142.55L267.4,142.64L267.86,141.88L268.32,142.65L268.78,142.14L269.25,142.47L269.71,141.55L270.17,142.61L270.63,142.7L271.09,137.98L272.48,142.97L272.94,142.42L273.4,142.51L274.33,142.64L274.79,141.47L275.25,141.99L275.71,140.97L276.63,143.24L277.1,143.24L277.56,142.88L278.02,143.63L278.48,142.77L278.94,143.28L279.41,143.21L280.79,143.87L281.25,143.2L282.64,143.42L283.1,143.59L284.02,142.94L284.49,143.55L284.95,141.13L285.41,143.28L287.26,142.81L287.72,143.72L289.1,143.79L289.57,142.74L290.03,142.78L290.49,143.63L290.95,142.59L291.41,143.98L291.87,142.81L292.34,144.11L293.26,143.71L293.72,144.29L294.65,138.56L295.11,144.29L296.03,143.44L296.49,143.83L297.88,144.22L298.34,144.22L298.8,142.36L299.26,144.39L299.73,143.31L300.19,144.82L302.04,143.53L302.5,144.72L303.42,143L303.88,143.86L304.34,144.92L304.81,144.18L305.27,143.25L306.65,144.84L307.12,144.13L307.58,143.97L308.04,144.97L309.42,144.03L309.89,144.88L312.2,144.14L312.66,139.49L313.12,145.13L313.58,144.99L314.04,143.96L314.5,143.36L314.97,144.96L315.43,143.91L315.89,145.09L317.28,143.79L317.74,145.22L318.66,144.58L319.12,145.31L320.05,144.89L320.51,142.63L320.97,145.16L321.43,145.06L321.89,145.03L322.36,143.79L322.82,145.1L323.74,145.14L324.2,145.28L325.13,145.11L325.59,139.49L326.05,145.01L326.51,139.77L327.44,145.59L327.9,144.43L328.82,145.67L329.28,144.55L330.21,145.6L330.67,144.92L332.05,145.98L332.52,145L333.44,144.6L333.9,145.36L335.29,145.68L335.75,145.46L337.13,146.21L337.6,145.3L338.06,145.94L338.52,145.16L338.98,146.39L339.44,145.68L339.9,145.83L340.83,145.58L341.29,145.74L343.6,145.83L344.06,144.13L344.52,145.98L344.98,143.58L345.91,146.27L346.37,145.23L347.29,146.5L347.76,145.65L348.22,146.45L348.68,146.09L349.14,146.1L350.53,146.7L350.99,145.82L351.45,145.82L351.91,143.74L352.84,146.92L353.3,145.56L354.22,145.04L354.68,146.45L355.15,145.23L355.61,146.67L356.99,146.33L357.45,146.03L357.92,144.44L358.38,146.76L358.84,145.71L359.3,146.7L359.76,146.18L360.23,146.88L361.15,147.21L361.61,145.36L362.07,147.01L362.53,146.87L363,146.07L364.38,147.14L364.84,144.31L365.31,147.04L365.77,146.85L366.23,145.09L367.15,146.8L367.61,146.56L369,147.21" style="vector-effect: non-scaling-stroke; fill: none; stroke: rgb(99, 110, 250); stroke-opacity: 1; stroke-width: 2px; opacity: 1;"/></g><g class="points"/><g class="text"/></g><g class="trace scatter trace249378" style="stroke-miterlimit: 2; opacity: 1;"><g class="fills"/><g class="errorbars"/><g class="lines"><path class="js-line" d="M0,-85.91L2.31,-5.38L2.77,20.3L4.62,62.08L5.08,53.28L7.39,96.4L7.85,93.31L8.31,93.76L8.77,103.82L9.24,68.65L9.7,106.57L10.16,107.7L10.62,97.09L11.08,109.13L11.55,104.99L12.01,102.95L12.93,101.58L13.39,109.06L14.32,95.26L14.78,102.13L15.24,110.13L15.7,99.01L16.16,98.1L16.63,91.84L18.01,109.74L18.47,100.15L18.93,93.18L19.4,113.47L20.32,108.22L20.78,112.87L21.24,97.4L21.71,111.6L22.17,99.24L22.63,113.27L23.09,109.43L23.55,111.78L24.02,114.05L24.48,114.32L24.94,106.24L25.4,97.26L25.86,111.21L26.32,115.12L26.79,105.05L27.25,100.27L27.71,107.34L29.1,99.69L29.56,115.71L30.48,106.1L30.94,107.14L31.4,110.76L31.87,108.17L33.25,116.13L33.71,114.73L34.18,116.84L34.64,114.19L35.1,116.59L35.56,116.12L36.02,112.08L36.48,77.05L36.95,117.02L37.41,102.37L37.87,104.95L38.33,101.76L39.26,117.86L39.72,110.18L40.18,108.02L40.64,118.28L41.1,114.69L41.56,118.71L42.03,107.32L42.49,117.93L42.95,118.56L43.41,111.49L43.87,118.63L44.34,109.28L44.8,106.72L45.26,113.82L45.72,116.52L46.18,108.8L46.64,119.65L47.11,117.68L47.57,119.46L48.03,111.87L48.49,119.78L49.88,110.37L50.34,113.57L50.8,82.59L51.26,120.26L51.72,118.63L52.19,120.32L52.65,119.83L53.11,107.8L53.57,91.52L54.03,107.28L54.96,118.77L55.42,113.68L55.88,114.69L56.34,120.41L56.8,103.05L57.27,120.86L57.73,120.75L58.19,96.97L59.11,121.89L59.58,117.04L60.04,116.08L60.5,121.56L60.96,68.05L61.42,102.65L62.35,116.37L62.81,96.71L63.73,121.03L64.19,121.61L64.66,110.44L65.12,112.11L65.58,122.3L66.96,111.88L67.43,122.22L67.89,110.39L68.35,114.12L68.81,123.37L69.74,109.26L70.2,120.48L70.66,123.91L71.12,118.86L71.58,124.01L72.05,120.93L72.51,117.45L72.97,123.46L73.43,111.34L74.35,123.79L74.82,122.53L75.28,123.29L75.74,112.73L76.2,119.56L76.66,114.44L77.13,95.71L77.59,124.78L78.51,108.87L78.97,83.57L79.43,119.97L79.9,119.96L80.36,119.59L80.82,118.63L81.28,123.34L81.74,125.73L82.21,113.86L82.67,125.87L83.13,113.3L83.59,122.4L84.05,114.16L84.51,121.06L84.98,114.71L85.44,110.28L85.9,125.93L86.36,115.4L86.82,126.15L87.29,126.2L87.75,118.01L88.67,107.96L89.13,126.55L90.06,108.99L90.52,124.89L90.98,121.5L91.44,97.76L91.9,123.4L92.37,121.83L92.83,119.07L93.29,110.71L93.75,114.94L94.21,118.48L95.14,119.78L95.6,68.03L96.06,119.55L96.52,116.84L96.98,121.75L97.45,84.69L97.91,127.07L98.37,117.63L98.83,123.88L99.29,128.17L99.75,126.06L100.22,120.99L101.14,128.08L101.6,72.91L102.53,127.75L102.99,118.34L103.45,128.71L103.91,80.37L104.83,128.03L105.3,129.04L105.76,83.76L106.22,127.34L107.14,129.3L107.61,127.66L108.07,129.28L108.53,125.12L108.99,116.55L109.45,129.61L109.91,127.69L110.38,105.17L110.84,128.36L111.3,121.81L111.76,83.57L112.22,74.73L112.69,124.59L113.15,127.6L113.61,126.45L114.07,120.73L114.53,126.74L114.99,116.74L115.46,112.18L115.92,124.17L116.38,116.53L116.84,126.32L118.23,129.92L118.69,107.34L119.15,128.49L119.61,115.99L120.08,106.89L120.54,122.67L121,121.92L121.46,126.2L121.92,114.23L122.38,125.68L123.31,115.88L123.77,131.08L124.23,128.62L124.69,131.39L125.62,129.76L126.08,131.26L126.54,116.83L127,130.95L127.46,122.06L127.93,126.67L128.39,101.09L128.85,99.74L129.31,129.02L129.77,130.39L130.24,113.43L131.16,115.61L131.62,130.66L132.08,130.06L132.54,113.14L133.01,130.13L133.47,123.53L133.93,127.71L134.39,128.46L134.85,117.91L135.32,130.93L135.78,129.4L136.24,128.48L136.7,132.07L137.16,129.43L138.09,115.41L138.55,122.65L139.01,131.71L139.47,117.46L140.4,133.07L140.86,123.29L141.32,132.21L141.78,129.67L142.24,105.54L143.17,133.38L143.63,128.94L144.09,127.8L144.55,128.14L145.01,121.08L145.94,132.15L146.4,115.71L147.32,131.02L147.78,121.13L148.25,115.32L148.71,131.16L149.63,119.48L150.09,128.93L150.56,120.54L151.02,134.18L151.48,123.71L151.94,129.69L152.4,129.27L152.86,132.67L153.33,130.2L153.79,129.56L154.25,131.94L154.71,129.48L155.17,120.25L155.64,81.51L156.1,129.27L156.56,134.09L157.02,125.11L157.48,133.86L157.94,123.39L158.41,126.24L158.87,95.6L159.79,132.62L160.25,134.54L160.72,134.22L161.18,127.59L161.64,80.18L162.1,133.36L162.56,120.25L163.03,131.67L163.49,127.95L163.95,134.3L164.41,132.35L164.87,124.2L165.33,132.95L165.8,129.36L166.26,122.13L166.72,132.31L167.18,132.1L167.64,134.25L168.11,116L168.57,132.44L169.03,99.24L169.49,121.99L169.95,108.76L170.41,133.54L170.88,133.17L171.34,122.25L171.8,76.98L172.26,134.82L172.72,118.04L173.19,130.72L173.65,123.05L174.11,136.28L175.03,133.78L175.49,128.22L175.96,127.38L176.42,136.67L176.88,132.19L177.34,135.09L177.8,136.86L178.27,129.35L178.73,133.56L179.19,115.99L180.11,136.44L180.57,122.99L181.96,135.6L182.42,126.98L182.88,130.97L183.35,123.05L184.27,135.01L184.73,120.89L186.12,136.81L186.58,126.68L187.04,121.63L187.5,137.5L187.96,117.97L188.43,133.42L189.35,136.22L189.81,127.4L190.73,137.92L191.2,121.38L192.12,136.76L192.58,122.08L193.04,133.07L193.51,130.3L193.97,136.14L194.43,122.14L194.89,137.5L195.35,137.05L195.81,120.39L196.28,138.46L196.74,123.21L197.2,125.12L197.66,132.13L198.12,133.33L198.59,125.93L199.05,136.6L199.51,128.53L200.43,136.63L200.89,133.31L201.36,84.1L201.82,128.7L202.28,136.6L202.74,124.99L203.2,118.18L203.67,126.93L204.13,136.45L204.59,124.45L205.05,138.85L205.51,131.6L205.97,135.08L206.44,138.65L206.9,129.83L207.36,125.78L207.82,134.95L208.75,120.69L209.21,128.2L209.67,124.13L210.13,131.58L211.06,139.42L211.52,125.75L212.44,137.43L212.9,131.4L213.36,138.83L213.83,122.5L214.29,112.58L214.75,122.07L215.21,122.66L215.67,105.33L216.14,139.61L216.6,127.12L217.06,136.05L217.52,138.41L217.98,129.3L219.37,139.55L219.83,122.49L220.29,137L220.75,133.98L221.22,140.23L221.68,140.1L222.14,121.48L222.6,131.93L223.06,114.35L223.52,136.53L223.99,121.44L224.91,137.89L225.37,135.26L225.83,122.1L226.3,134.95L226.76,128.19L227.22,139.63L227.68,139.04L228.14,124.88L228.6,139.42L229.07,124.46L229.53,134.99L229.99,132.39L230.45,134.34L230.91,128.97L231.38,132.42L231.84,134.15L232.3,74.16L233.22,140.56L233.68,130.71L234.61,117.31L235.07,131.23L235.53,128.05L235.99,90.08L236.46,129.52L236.92,127.27L237.38,123.41L237.84,140.99L238.3,139.46L238.76,126.57L239.23,123.29L239.69,139.45L241.07,126.14L241.54,137.67L242,137.74L242.46,139.76L242.92,73.05L243.38,132.28L243.84,139.37L244.31,137.07L244.77,138.39L245.23,133.22L245.69,135.86L246.15,140.95L246.62,137.91L247.08,129.11L248,141.92L248.46,141.31L248.92,121.11L249.85,138.89L250.31,125.84L250.77,139.34L251.23,139.12L251.7,139.3L252.16,142.3L252.62,136.52L253.08,124.94L253.54,136.64L254.01,133.17L254.47,136.62L254.93,131.85L255.39,139.19L255.85,122.24L256.31,126.26L256.78,140.29L257.24,138.73L257.7,140.13L258.62,125.83L259.09,138.23L259.55,138.23L260.01,139.74L260.47,139.02L260.93,126.59L261.39,106.43L261.86,142.33L262.32,142.74L262.78,130.13L263.24,139.32L263.7,92.6L264.17,136.89L264.63,117.39L265.09,136.78L265.55,107.5L266.01,141.49L266.47,142.72L266.94,141.34L267.4,129.75L267.86,140.67L268.32,124.24L268.78,142.94L269.25,125.83L269.71,131.68L270.17,141.45L270.63,85.69L271.09,104.66L271.55,121.39L272.02,140.53L272.48,125.24L273.4,133.58L273.86,129.7L275.25,108.52L275.71,138.98L276.17,143.37L276.63,140.54L277.1,137.65L277.56,141.87L278.02,135.66L278.48,141.74L278.94,132.06L279.41,142.6L279.87,139.98L280.33,142.54L281.71,136.06L282.18,142.72L282.64,143.82L283.1,124.73L284.02,143.43L284.49,104.39L285.41,139.74L285.87,133.82L286.33,141.17L286.79,122.75L287.72,141.85L288.18,137.12L288.64,143.29L289.57,124.95L290.03,140.57L290.49,130.9L290.95,144.48L291.41,125.82L291.87,139.64L292.34,144.57L292.8,132.44L293.26,143.81L293.72,98.26L294.18,86.44L294.65,144.12L295.11,129.39L295.57,144.45L296.95,135.69L297.42,139.04L297.88,142.76L298.34,117.32L298.8,144.35L299.26,126.67L300.19,144.35L300.65,128.51L301.11,138.1L301.57,131.34L302.04,145.04L302.5,127.22L302.96,120.64L303.42,142.84L303.88,143.86L304.34,137.94L304.81,118.07L305.27,134.18L305.73,143.98L306.19,141.19L306.65,132.8L307.12,132.56L307.58,143.23L308.04,142.34L308.5,145.13L308.96,129.9L309.42,144.01L310.35,130.48L310.81,139.87L311.73,131.51L312.2,88.27L313.12,143.94L313.58,126.4L314.04,122.11L314.5,140.97L314.97,124.23L315.43,144.96L316.35,136.36L316.81,125.01L317.74,144.97L318.2,131.14L318.66,141.6L319.12,126.49L319.58,131.3L320.05,112.76L320.51,143.98L320.97,121.79L321.43,141.93L321.89,125.06L322.82,144.57L323.28,139.83L324.66,140.06L325.13,92.27L325.59,133.67L326.05,88.49L326.97,145.73L327.44,125.63L328.36,143.11L328.82,124.05L329.74,142.36L330.21,123.53L330.67,146.04L331.13,141.15L331.59,145.46L332.05,124.89L332.52,126.19L332.98,124.02L333.9,144.21L334.36,145.28L334.82,145.95L335.29,139.24L335.75,139.04L336.21,144.89L336.67,146.3L337.13,130.4L337.6,143.68L338.06,130.12L338.52,146.29L338.98,135.46L339.44,142.19L339.9,129.65L340.37,139.86L340.83,137.78L341.29,133.29L341.75,132.14L342.21,144.53L342.68,134.26L343.14,142.87L343.6,116.82L344.06,141.2L344.52,112.19L344.98,127.73L345.45,146.45L345.91,125.08L346.37,146.82L347.29,138.35L347.76,145.9L348.22,146.94L348.68,143.6L349.14,147.04L349.6,146.56L350.07,146.75L351.45,104.45L351.91,143.09L352.37,146.88L352.84,127.63L353.3,129.99L353.76,118.36L354.22,134.8L354.68,119.46L355.15,146.43L355.61,136.12L356.07,142.09L356.53,141.97L356.99,134.46L357.45,115.17L357.92,144.81L358.38,130.44L358.84,145.21L359.3,133.35L359.76,142.54L360.23,140.94L360.69,146.4L361.15,125.54L361.61,142.63L362.07,143.72L362.53,134.44L363,134.13L363.46,138.71L363.92,144.24L364.38,102.89L364.84,147.43L365.31,146.14L365.77,118.89L366.23,143.06L366.69,142.72L367.15,135.44L367.61,143.2L368.08,127.56L368.54,147.21L369,143.5" style="vector-effect: non-scaling-stroke; fill: none; stroke: rgb(239, 85, 59); stroke-opacity: 1; stroke-width: 2px; opacity: 1;"/></g><g class="points"/><g class="text"/></g></g></g><g class="overplot"/><path class="xlines-above crisp" d="M0,0" style="fill: none;"/><path class="ylines-above crisp" d="M0,0" style="fill: none;"/><g class="overlines-above"/><g class="xaxislayer-above"><g class="xtick"><text text-anchor="middle" x="0" y="433" transform="translate(80,0)" style="font-family: 'Open Sans', verdana, arial, sans-serif; font-size: 12px; fill: rgb(42, 63, 95); fill-opacity: 1; white-space: pre;">0</text></g><g class="xtick"><text text-anchor="middle" x="0" y="433" transform="translate(172.37,0)" style="font-family: 'Open Sans', verdana, arial, sans-serif; font-size: 12px; fill: rgb(42, 63, 95); fill-opacity: 1; white-space: pre;">200</text></g><g class="xtick"><text text-anchor="middle" x="0" y="433" transform="translate(264.73,0)" style="font-family: 'Open Sans', verdana, arial, sans-serif; font-size: 12px; fill: rgb(42, 63, 95); fill-opacity: 1; white-space: pre;">400</text></g><g class="xtick"><text text-anchor="middle" x="0" y="433" transform="translate(357.1,0)" style="font-family: 'Open Sans', verdana, arial, sans-serif; font-size: 12px; fill: rgb(42, 63, 95); fill-opacity: 1; white-space: pre;">600</text></g></g><g class="yaxislayer-above"><g class="ytick"><text text-anchor="end" x="79" y="4.199999999999999" transform="translate(0,420)" style="font-family: 'Open Sans', verdana, arial, sans-serif; font-size: 12px; fill: rgb(42, 63, 95); fill-opacity: 1; white-space: pre;">100n</text></g><g class="ytick"><text text-anchor="end" x="79" y="3.15" transform="translate(0,395.92)" style="font-family: 'Open Sans', verdana, arial, sans-serif; font-size: 9px; fill: rgb(42, 63, 95); fill-opacity: 1; white-space: pre;">2</text></g><g class="ytick"><text text-anchor="end" x="79" y="3.15" transform="translate(0,364.08)" style="font-family: 'Open Sans', verdana, arial, sans-serif; font-size: 9px; fill: rgb(42, 63, 95); fill-opacity: 1; white-space: pre;">5</text></g><g class="ytick"><text text-anchor="end" x="79" y="4.199999999999999" transform="translate(0,340)" style="font-family: 'Open Sans', verdana, arial, sans-serif; font-size: 12px; fill: rgb(42, 63, 95); fill-opacity: 1; white-space: pre;">1μ</text></g><g class="ytick"><text text-anchor="end" x="79" y="3.15" transform="translate(0,315.91999999999996)" style="font-family: 'Open Sans', verdana, arial, sans-serif; font-size: 9px; fill: rgb(42, 63, 95); fill-opacity: 1; white-space: pre;">2</text></g><g class="ytick"><text text-anchor="end" x="79" y="3.15" transform="translate(0,284.08000000000004)" style="font-family: 'Open Sans', verdana, arial, sans-serif; font-size: 9px; fill: rgb(42, 63, 95); fill-opacity: 1; white-space: pre;">5</text></g><g class="ytick"><text text-anchor="end" x="79" y="4.199999999999999" transform="translate(0,260)" style="font-family: 'Open Sans', verdana, arial, sans-serif; font-size: 12px; fill: rgb(42, 63, 95); fill-opacity: 1; white-space: pre;">10μ</text></g><g class="ytick"><text text-anchor="end" x="79" y="3.15" transform="translate(0,235.92)" style="font-family: 'Open Sans', verdana, arial, sans-serif; font-size: 9px; fill: rgb(42, 63, 95); fill-opacity: 1; white-space: pre;">2</text></g><g class="ytick"><text text-anchor="end" x="79" y="3.15" transform="translate(0,204.07999999999998)" style="font-family: 'Open Sans', verdana, arial, sans-serif; font-size: 9px; fill: rgb(42, 63, 95); fill-opacity: 1; white-space: pre;">5</text></g><g class="ytick"><text text-anchor="end" x="79" y="4.199999999999999" transform="translate(0,180)" style="font-family: 'Open Sans', verdana, arial, sans-serif; font-size: 12px; fill: rgb(42, 63, 95); fill-opacity: 1; white-space: pre;">100μ</text></g><g class="ytick"><text text-anchor="end" x="79" y="3.15" transform="translate(0,155.92000000000002)" style="font-family: 'Open Sans', verdana, arial, sans-serif; font-size: 9px; fill: rgb(42, 63, 95); fill-opacity: 1; white-space: pre;">2</text></g><g class="ytick"><text text-anchor="end" x="79" y="3.15" transform="translate(0,124.08)" style="font-family: 'Open Sans', verdana, arial, sans-serif; font-size: 9px; fill: rgb(42, 63, 95); fill-opacity: 1; white-space: pre;">5</text></g><g class="ytick"><text text-anchor="end" x="79" y="4.199999999999999" transform="translate(0,100)" style="font-family: 'Open Sans', verdana, arial, sans-serif; font-size: 12px; fill: rgb(42, 63, 95); fill-opacity: 1; white-space: pre;">0.001</text></g></g><g class="overaxes-above"/></g></g><g class="polarlayer"/><g class="ternarylayer"/><g class="geolayer"/><g class="funnelarealayer"/><g class="pielayer"/><g class="treemaplayer"/><g class="sunburstlayer"/><g class="glimages"/><defs id="topdefs-2779a7"><g class="clips"/><clipPath id="legend2779a7"><rect width="132" height="48" x="0" y="0"/></clipPath></defs><g class="layer-above"><g class="imagelayer"/><g class="shapelayer"/></g><g class="infolayer"><g class="legend" pointer-events="all" transform="translate(456.38, 100)"><rect class="bg" shape-rendering="crispEdges" width="132" height="48" x="0" y="0" style="stroke: rgb(68, 68, 68); stroke-opacity: 1; fill: rgb(255, 255, 255); fill-opacity: 1; stroke-width: 0px;"/><g class="scrollbox" transform="translate(0, 0)" clip-path="url('#legend2779a7')"><g class="groups"><g class="traces" transform="translate(0, 14.5)" style="opacity: 1;"><text class="legendtext user-select-none" text-anchor="start" x="40" y="4.680000000000001" style="font-family: 'Open Sans', verdana, arial, sans-serif; font-size: 12px; fill: rgb(42, 63, 95); fill-opacity: 1; white-space: pre;">error training</text><g class="layers" style="opacity: 1;"><g class="legendfill"/><g class="legendlines"><path class="js-line" d="M5,0h30" style="fill: none; stroke: rgb(99, 110, 250); stroke-opacity: 1; stroke-width: 2px;"/></g><g class="legendsymbols"><g class="legendpoints"/></g></g><rect class="legendtoggle" pointer-events="all" x="0" y="-9.5" width="126.46875" height="19" style="cursor: pointer; fill: rgb(0, 0, 0); fill-opacity: 0;"/></g><g class="traces" transform="translate(0, 33.5)" style="opacity: 1;"><text class="legendtext user-select-none" text-anchor="start" x="40" y="4.680000000000001" style="font-family: 'Open Sans', verdana, arial, sans-serif; font-size: 12px; fill: rgb(42, 63, 95); fill-opacity: 1; white-space: pre;">error validation</text><g class="layers" style="opacity: 1;"><g class="legendfill"/><g class="legendlines"><path class="js-line" d="M5,0h30" style="fill: none; stroke: rgb(239, 85, 59); stroke-opacity: 1; stroke-width: 2px;"/></g><g class="legendsymbols"><g class="legendpoints"/></g></g><rect class="legendtoggle" pointer-events="all" x="0" y="-9.5" width="126.46875" height="19" style="cursor: pointer; fill: rgb(0, 0, 0); fill-opacity: 0;"/></g></g></g><rect class="scrollbar" rx="20" ry="3" width="0" height="0" x="0" y="0" style="fill: rgb(128, 139, 164); fill-opacity: 1;"/></g><g class="g-gtitle"/><g class="g-xtitle"><text class="xtitle" x="264.5" y="461.3" text-anchor="middle" style="font-family: 'Open Sans', verdana, arial, sans-serif; font-size: 14px; fill: rgb(42, 63, 95); opacity: 1; font-weight: normal; white-space: pre;">epoch</text></g><g class="g-ytitle"/></g></svg>