<svg class="main-svg" xmlns="http://www.w3.org/2000/svg" xmlns:xlink="http://www.w3.org/1999/xlink" width="900" height="500" style="" viewBox="0 0 900 500"><rect x="0" y="0" width="900" height="500" style="fill: rgb(255, 255, 255); fill-opacity: 1;"/><defs id="defs-465d1b"><g class="clips"><clipPath id="clip465d1bxyplot" class="plotclip"><rect width="682" height="320"/></clipPath><clipPath class="axesclip" id="clip465d1bx"><rect x="80" y="0" width="682" height="500"/></clipPath><clipPath class="axesclip" id="clip465d1by"><rect x="0" y="100" width="900" height="320"/></clipPath><clipPath class="axesclip" id="clip465d1bxy"><rect x="80" y="100" width="682" height="320"/></clipPath></g><g class="gradients"/></defs><g class="bglayer"><rect class="bg" x="80" y="100" width="682" height="320" style="fill: rgb(229, 236, 246); fill-opacity: 1; stroke-width: 0;"/></g><g class="layer-below"><g class="imagelayer"/><g class="shapelayer"/></g><g class="cartesianlayer"><g class="subplot xy"><g class="layer-subplot"><g class="shapelayer"/><g class="imagelayer"/></g><g class="gridlayer"><g class="x"><path class="xgrid crisp" transform="translate(250.5,0)" d="M0,100v320" style="stroke: rgb(255, 255, 255); stroke-opacity: 1; stroke-width: 1px;"/><path class="xgrid crisp" transform="translate(591.5,0)" d="M0,100v320" style="stroke: rgb(255, 255, 255); stroke-opacity: 1; stroke-width: 1px;"/></g><g class="y"><path class="ygrid crisp" transform="translate(0,401.82)" d="M80,0h682" style="stroke: rgb(255, 255, 255); stroke-opacity: 1; stroke-width: 1px;"/><path class="ygrid crisp" transform="translate(0,373.46)" d="M80,0h682" style="stroke: rgb(255, 255, 255); stroke-opacity: 1; stroke-width: 1px;"/><path class="ygrid crisp" transform="translate(0,335.98)" d="M80,0h682" style="stroke: rgb(255, 255, 255); stroke-opacity: 1; stroke-width: 1px;"/><path class="ygrid crisp" transform="translate(0,307.62)" d="M80,0h682" style="stroke: rgb(255, 255, 255); stroke-opacity: 1; stroke-width: 1px;"/><path class="ygrid crisp" transform="translate(0,279.26)" d="M80,0h682" style="stroke: rgb(255, 255, 255); stroke-opacity: 1; stroke-width: 1px;"/><path class="ygrid crisp" transform="translate(0,241.77)" d="M80,0h682" style="stroke: rgb(255, 255, 255); stroke-opacity: 1; stroke-width: 1px;"/><path class="ygrid crisp" transform="translate(0,213.42000000000002)" d="M80,0h682" style="stroke: rgb(255, 255, 255); stroke-opacity: 1; stroke-width: 1px;"/><path class="ygrid crisp" transform="translate(0,185.06)" d="M80,0h682" style="stroke: rgb(255, 255, 255); stroke-opacity: 1; stroke-width: 1px;"/><path class="ygrid crisp" transform="translate(0,147.57)" d="M80,0h682" style="stroke: rgb(255, 255, 255); stroke-opacity: 1; stroke-width: 1px;"/><path class="ygrid crisp" transform="translate(0,119.21000000000001)" d="M80,0h682" style="stroke: rgb(255, 255, 255); stroke-opacity: 1; stroke-width: 1px;"/></g></g><g class="zerolinelayer"><path class="xzl zl crisp" transform="translate(421,0)" d="M0,100v320" style="stroke: rgb(255, 255, 255); stroke-opacity: 1; stroke-width: 2px;"/></g><path class="xlines-below"/><path class="ylines-below"/><g class="overlines-below"/><g class="xaxislayer-below"/><g class="yaxislayer-below"/><g class="overaxes-below"/><g class="plot" transform="translate(80, 100)" clip-path="url('#clip465d1bxyplot')"><g class="scatterlayer mlayer"><g class="trace scatter trace7448f0" style="stroke-miterlimit: 2; opacity: 1;"><g class="fills"/><g class="errorbars"/><g class="lines"><path class="js-line" d="M0,26.17L5.33,34.9L10.66,45.07L15.98,57.36L21.31,73.11L26.64,95.71L31.97,139.85L37.3,153.53L42.63,107.43L47.95,88.81L53.28,77.95L58.61,70.95L63.94,66.35L69.27,63.46L74.59,61.91L79.92,61.53L85.25,62.21L90.58,63.98L95.91,66.89L101.23,71.13L106.56,77.03L111.89,85.22L117.22,96.99L122.55,115.62L127.88,155.13L133.2,168.96L138.53,117.87L143.86,95.55L149.19,81.18L154.52,70.72L159.84,62.67L165.17,56.31L170.5,51.23L175.83,47.22L181.16,44.15L186.48,41.94L191.81,40.57L197.14,40.08L202.47,40.54L207.8,42.11L213.13,45.05L218.45,49.83L223.78,57.35L229.11,69.61L234.44,92.82L239.77,196.78L245.09,92.38L250.42,59.11L255.75,38.87L261.08,23.85L266.41,18.17L271.73,34.88L277.06,59.27L282.39,109.93L287.72,106.96L293.05,68.33L298.38,52.65L303.7,44.59L309.03,40.9L314.36,40.59L319.69,43.64L325.02,44.1L330.34,45.72L335.67,49.48L341,56.33L351.66,84.23L356.98,123.62L362.31,114.92L367.64,66.04L378.3,16.14L383.63,16L388.95,31.83L394.28,53.66L399.61,91.9L404.94,140.39L410.27,78.77L415.59,59.14L420.92,48.88L426.25,43.17L431.58,40.37L436.91,39.81L442.23,41.3L447.56,44.92L452.89,51.16L458.22,61.22L468.88,94.23L474.2,79.2L479.53,70.65L484.86,65.51L490.19,62.56L495.52,61.19L500.84,61.06L506.17,61.99L511.5,63.86L516.83,66.64L522.16,70.3L527.48,74.89L532.81,80.47L538.14,87.18L543.47,95.19L548.8,104.78L554.13,116.38L559.45,130.65L564.78,148.63L570.11,172.13L580.77,240L586.09,234.79L591.42,195.44L596.75,162.61L602.08,137.56L607.41,117.69L612.73,101.31L618.06,87.39L628.72,64.62L634.05,55.06L639.38,46.41L644.7,49.4L650.03,60.54L655.36,74.01L660.69,91.27L666.02,116.09L671.34,166.04L676.67,168.16L682,129.25" style="vector-effect: non-scaling-stroke; fill: none; stroke: rgb(99, 110, 250); stroke-opacity: 1; stroke-width: 2px; opacity: 1;"/></g><g class="points"/><g class="text"/></g><g class="trace scatter tracea6c9be" style="stroke-miterlimit: 2; opacity: 1;"><g class="fills"/><g class="errorbars"/><g class="lines"><path class="js-line" d="M0,82.05L10.66,90.56L15.98,95.36L26.64,106.36L31.97,112.75L42.63,128.12L47.95,137.66L53.28,149.2L58.61,163.88L63.94,184.55L69.27,221.92L74.59,265.98L79.92,204.47L85.25,183.17L90.58,170.97L95.91,162.93L101.23,157.4L106.56,153.55L111.89,150.94L117.22,149.31L122.55,148.52L133.2,148.97L138.53,150.09L149.19,154L154.52,156.76L165.17,163.89L170.5,168.3L181.16,178.97L186.48,185.3L197.14,200.3L202.47,209.2L213.13,230.34L218.45,242.81L229.11,272.24L234.44,287.37L239.77,299.98L245.09,304L250.42,297.7L255.75,285.49L271.73,244.46L277.06,232.77L287.72,212.35L293.05,203.22L309.03,178.66L314.36,171.14L330.34,150.3L335.67,143.84L351.66,125.96L356.98,120.5L372.97,105.67L378.3,101.25L394.28,89.53L399.61,86.14L415.59,77.48L420.92,75.09L436.91,69.38L442.23,67.96L458.22,65.11L463.55,64.64L479.53,64.64L484.86,65.11L500.84,68.01L506.17,69.47L522.16,75.37L527.48,77.84L543.47,86.7L548.8,90.08L575.44,107.53L580.77,110.23L586.09,112.22L591.42,113.27L596.75,113.22L602.08,111.98L607.41,109.59L612.73,106.16L623.39,97.01L628.72,91.71L666.02,53.77L671.34,48.91L682,39.75" style="vector-effect: non-scaling-stroke; fill: none; stroke: rgb(239, 85, 59); stroke-opacity: 1; stroke-width: 2px; opacity: 1;"/></g><g class="points"/><g class="text"/></g><g class="trace scatter tracebbe1e8" style="stroke-miterlimit: 2; opacity: 1;"><g class="fills"/><g class="errorbars"/><g class="lines"><path class="js-line" d="M0,52L10.66,68L15.98,77.91L21.31,89.86L26.64,105.12L31.97,126.81L37.3,167.49L42.63,194.37L47.95,142.23L53.28,122.43L58.61,110.94L63.94,103.45L69.27,98.38L74.59,95L79.92,92.92L85.25,91.89L90.58,91.8L95.91,92.6L101.23,94.26L106.56,96.82L111.89,100.39L117.22,105.12L122.55,111.32L127.88,119.49L133.2,130.66L138.53,147.17L143.86,176.88L149.19,275.67L154.52,169.94L159.84,143.34L165.17,127.65L170.5,116.74L175.83,108.55L181.16,102.19L186.48,97.15L197.14,90L202.47,87.58L213.13,84.62L218.45,83.98L229.11,84.28L234.44,85.2L245.09,88.69L250.42,91.31L261.08,98.61L266.41,103.52L271.73,109.48L277.06,116.81L282.39,125.98L287.72,137.89L293.05,154.55L298.38,181.91L303.7,279.52L309.03,193.27L314.36,164.45L319.69,149.25L325.02,139.6L330.34,133.08L335.67,128.71L341,125.96L346.33,124.6L351.66,124.49L356.98,125.58L362.31,127.96L367.64,131.8L372.97,137.44L378.3,145.5L383.63,157.37L388.95,176.64L394.28,220L399.61,220.08L404.94,174.09L410.27,152.66L415.59,138.63L420.92,128.33L426.25,120.33L431.58,113.93L436.91,108.72L447.56,100.98L452.89,98.15L463.55,94.19L468.88,92.93L479.53,91.7L484.86,91.67L495.52,92.73L500.84,93.79L511.5,96.97L516.83,99.07L527.48,104.36L532.81,107.55L543.47,115.06L548.8,119.39L559.45,129.18L564.78,134.6L586.09,157.41L591.42,162.12L596.75,165.56L602.08,167.26L607.41,166.87L612.73,164.38L618.06,160.12L623.39,154.53L639.38,134.51L644.7,127.74L660.69,108.98L666.02,103.34L682,88.2" style="vector-effect: non-scaling-stroke; fill: none; stroke: rgb(0, 204, 150); stroke-opacity: 1; stroke-width: 2px; opacity: 1;"/></g><g class="points"/><g class="text"/></g><g class="trace scatter trace7c229a" style="stroke-miterlimit: 2; opacity: 1;"><g class="fills"/><g class="errorbars"/><g class="lines"><path class="js-line" d="M0,41.45L5.33,76.54L10.66,169.52L15.98,86.8L21.31,79.09L26.64,95.64L31.97,298.74L37.3,91.67L42.63,67.96L47.95,60.29L53.28,61.62L58.61,70.01L63.94,85.25L69.27,108.75L74.59,146.02L79.92,237.46L85.25,209.51L90.58,258L95.91,182.26L101.23,142.4L106.56,120.31L111.89,105.59L117.22,95.02L122.55,87.1L127.88,81.04L133.2,76.35L138.53,72.73L149.19,68.01L154.52,66.73L165.17,66.11L170.5,66.76L181.16,70.06L186.48,72.79L197.14,80.75L202.47,86.15L207.8,92.69L213.13,100.52L218.45,109.89L223.78,121.07L229.11,134.4L234.44,150.09L245.09,184.13L250.42,191.23L255.75,182.85L261.08,165.62L271.73,131.22L277.06,117.37L287.72,95.74L293.05,87.35L303.7,74.32L309.03,69.36L319.69,62.08L325.02,59.63L335.67,56.88L341,56.54L351.66,57.9L356.98,59.63L367.64,65.31L372.97,69.36L383.63,80.27L388.95,87.35L394.28,95.74L399.61,105.65L404.94,117.37L410.27,131.22L420.92,165.62L426.25,182.85L431.58,191.23L436.91,184.13L452.89,134.4L458.22,121.07L463.55,109.89L468.88,100.52L479.53,86.15L484.86,80.75L495.52,72.79L500.84,70.06L511.5,66.76L516.83,66.11L527.48,66.73L532.81,68.01L543.47,72.73L548.8,76.35L554.13,81.04L559.45,87.1L564.78,95.02L570.11,105.59L575.44,120.31L580.77,142.4L586.09,182.26L591.42,258L596.75,209.51L602.08,237.46L607.41,146.02L612.73,108.75L618.06,85.25L623.39,70.01L628.72,61.62L634.05,60.29L639.38,67.96L644.7,91.67L650.03,298.74L655.36,95.64L660.69,79.09L666.02,86.8L671.34,169.52L676.67,76.54L682,41.45" style="vector-effect: non-scaling-stroke; fill: none; stroke: rgb(171, 99, 250); stroke-opacity: 1; stroke-width: 2px; opacity: 1;"/></g><g class="points"/><g class="text"/></g></g></g><g class="overplot"/><path class="xlines-above crisp" style="fill: none;" d="M0,0"/><path class="ylines-above crisp" style="fill: none;" d="M0,0"/><g class="overlines-above"/><g class="xaxislayer-above"><g class="xtick"><text text-anchor="middle" x="0" y="433" transform="translate(80,0)" style="font-family: 'Open Sans', verdana, arial, sans-serif; font-size: 12px; fill: rgb(42, 63, 95); fill-opacity: 1; white-space: pre;">−1</text></g><g class="xtick"><text text-anchor="middle" x="0" y="433" transform="translate(250.5,0)" style="font-family: 'Open Sans', verdana, arial, sans-serif; font-size: 12px; fill: rgb(42, 63, 95); fill-opacity: 1; white-space: pre;">−0.5</text></g><g class="xtick"><text text-anchor="middle" x="0" y="433" transform="translate(421,0)" style="font-family: 'Open Sans', verdana, arial, sans-serif; font-size: 12px; fill: rgb(42, 63, 95); fill-opacity: 1; white-space: pre;">0</text></g><g class="xtick"><text text-anchor="middle" x="0" y="433" transform="translate(591.5,0)" style="font-family: 'Open Sans', verdana, arial, sans-serif; font-size: 12px; fill: rgb(42, 63, 95); fill-opacity: 1; white-space: pre;">0.5</text></g><g class="xtick"><text text-anchor="middle" x="0" y="433" transform="translate(762,0)" style="font-family: 'Open Sans', verdana, arial, sans-serif; font-size: 12px; fill: rgb(42, 63, 95); fill-opacity: 1; white-space: pre;">1</text></g></g><g class="yaxislayer-above"><g class="ytick"><text text-anchor="end" x="79" y="4.199999999999999" transform="translate(0,401.82)" style="font-family: 'Open Sans', verdana, arial, sans-serif; font-size: 12px; fill: rgb(42, 63, 95); fill-opacity: 1; white-space: pre;">10μ</text></g><g class="ytick"><text text-anchor="end" x="79" y="3.15" transform="translate(0,373.46)" style="font-family: 'Open Sans', verdana, arial, sans-serif; font-size: 9px; fill: rgb(42, 63, 95); fill-opacity: 1; white-space: pre;">2</text></g><g class="ytick"><text text-anchor="end" x="79" y="3.15" transform="translate(0,335.98)" style="font-family: 'Open Sans', verdana, arial, sans-serif; font-size: 9px; fill: rgb(42, 63, 95); fill-opacity: 1; white-space: pre;">5</text></g><g class="ytick"><text text-anchor="end" x="79" y="4.199999999999999" transform="translate(0,307.62)" style="font-family: 'Open Sans', verdana, arial, sans-serif; font-size: 12px; fill: rgb(42, 63, 95); fill-opacity: 1; white-space: pre;">100μ</text></g><g class="ytick"><text text-anchor="end" x="79" y="3.15" transform="translate(0,279.26)" style="font-family: 'Open Sans', verdana, arial, sans-serif; font-size: 9px; fill: rgb(42, 63, 95); fill-opacity: 1; white-space: pre;">2</text></g><g class="ytick"><text text-anchor="end" x="79" y="3.15" transform="translate(0,241.77)" style="font-family: 'Open Sans', verdana, arial, sans-serif; font-size: 9px; fill: rgb(42, 63, 95); fill-opacity: 1; white-space: pre;">5</text></g><g class="ytick"><text text-anchor="end" x="79" y="4.199999999999999" transform="translate(0,213.42000000000002)" style="font-family: 'Open Sans', verdana, arial, sans-serif; font-size: 12px; fill: rgb(42, 63, 95); fill-opacity: 1; white-space: pre;">0.001</text></g><g class="ytick"><text text-anchor="end" x="79" y="3.15" transform="translate(0,185.06)" style="font-family: 'Open Sans', verdana, arial, sans-serif; font-size: 9px; fill: rgb(42, 63, 95); fill-opacity: 1; white-space: pre;">2</text></g><g class="ytick"><text text-anchor="end" x="79" y="3.15" transform="translate(0,147.57)" style="font-family: 'Open Sans', verdana, arial, sans-serif; font-size: 9px; fill: rgb(42, 63, 95); fill-opacity: 1; white-space: pre;">5</text></g><g class="ytick"><text text-anchor="end" x="79" y="4.199999999999999" transform="translate(0,119.21000000000001)" style="font-family: 'Open Sans', verdana, arial, sans-serif; font-size: 12px; fill: rgb(42, 63, 95); fill-opacity: 1; white-space: pre;">0.01</text></g></g><g class="overaxes-above"/></g></g><g class="polarlayer"/><g class="ternarylayer"/><g class="geolayer"/><g class="funnelarealayer"/><g class="pielayer"/><g class="treemaplayer"/><g class="sunburstlayer"/><g class="glimages"/><defs id="topdefs-465d1b"><g class="clips"/><clipPath id="legend465d1b"><rect width="112" height="86" x="0" y="0"/></clipPath></defs><g class="layer-above"><g class="imagelayer"/><g class="shapelayer"/></g><g class="infolayer"><g class="legend" pointer-events="all" transform="translate(775.64, 100)"><rect class="bg" shape-rendering="crispEdges" style="stroke: rgb(68, 68, 68); stroke-opacity: 1; fill: rgb(255, 255, 255); fill-opacity: 1; stroke-width: 0px;" width="112" height="86" x="0" y="0"/><g class="scrollbox" transform="translate(0, 0)" clip-path="url('#legend465d1b')"><g class="groups"><g class="traces" style="opacity: 1;" transform="translate(0, 14.5)"><text class="legendtext user-select-none" text-anchor="start" x="40" y="4.680000000000001" style="font-family: 'Open Sans', verdana, arial, sans-serif; font-size: 12px; fill: rgb(42, 63, 95); fill-opacity: 1; white-space: pre;">relu DNN</text><g class="layers" style="opacity: 1;"><g class="legendfill"/><g class="legendlines"><path class="js-line" d="M5,0h30" style="fill: none; stroke: rgb(99, 110, 250); stroke-opacity: 1; stroke-width: 2px;"/></g><g class="legendsymbols"><g class="legendpoints"/></g></g><rect class="legendtoggle" pointer-events="all" x="0" y="-9.5" width="106.921875" height="19" style="cursor: pointer; fill: rgb(0, 0, 0); fill-opacity: 0;"/></g><g class="traces" style="opacity: 1;" transform="translate(0, 33.5)"><text class="legendtext user-select-none" text-anchor="start" x="40" y="4.680000000000001" style="font-family: 'Open Sans', verdana, arial, sans-serif; font-size: 12px; fill: rgb(42, 63, 95); fill-opacity: 1; white-space: pre;">concat DNN</text><g class="layers" style="opacity: 1;"><g class="legendfill"/><g class="legendlines"><path class="js-line" d="M5,0h30" style="fill: none; stroke: rgb(239, 85, 59); stroke-opacity: 1; stroke-width: 2px;"/></g><g class="legendsymbols"><g class="legendpoints"/></g></g><rect class="legendtoggle" pointer-events="all" x="0" y="-9.5" width="106.921875" height="19" style="cursor: pointer; fill: rgb(0, 0, 0); fill-opacity: 0;"/></g><g class="traces" style="opacity: 1;" transform="translate(0, 52.5)"><text class="legendtext user-select-none" text-anchor="start" x="40" y="4.680000000000001" style="font-family: 'Open Sans', verdana, arial, sans-serif; font-size: 12px; fill: rgb(42, 63, 95); fill-opacity: 1; white-space: pre;">seq DNN</text><g class="layers" style="opacity: 1;"><g class="legendfill"/><g class="legendlines"><path class="js-line" d="M5,0h30" style="fill: none; stroke: rgb(0, 204, 150); stroke-opacity: 1; stroke-width: 2px;"/></g><g class="legendsymbols"><g class="legendpoints"/></g></g><rect class="legendtoggle" pointer-events="all" x="0" y="-9.5" width="106.921875" height="19" style="cursor: pointer; fill: rgb(0, 0, 0); fill-opacity: 0;"/></g><g class="traces" style="opacity: 1;" transform="translate(0, 71.5)"><text class="legendtext user-select-none" text-anchor="start" x="40" y="4.680000000000001" style="font-family: 'Open Sans', verdana, arial, sans-serif; font-size: 12px; fill: rgb(42, 63, 95); fill-opacity: 1; white-space: pre;">multi X</text><g class="layers" style="opacity: 1;"><g class="legendfill"/><g class="legendlines"><path class="js-line" d="M5,0h30" style="fill: none; stroke: rgb(171, 99, 250); stroke-opacity: 1; stroke-width: 2px;"/></g><g class="legendsymbols"><g class="legendpoints"/></g></g><rect class="legendtoggle" pointer-events="all" x="0" y="-9.5" width="106.921875" height="19" style="cursor: pointer; fill: rgb(0, 0, 0); fill-opacity: 0;"/></g></g></g><rect class="scrollbar" rx="20" ry="3" width="0" height="0" style="fill: rgb(128, 139, 164); fill-opacity: 1;" x="0" y="0"/></g><g class="g-gtitle"/><g class="g-xtitle"><text class="xtitle" x="421" y="461.3" text-anchor="middle" style="font-family: 'Open Sans', verdana, arial, sans-serif; font-size: 14px; fill: rgb(42, 63, 95); opacity: 1; font-weight: normal; white-space: pre;">x</text></g><g class="g-ytitle"/></g></svg>