<svg class="main-svg" xmlns="http://www.w3.org/2000/svg" xmlns:xlink="http://www.w3.org/1999/xlink" width="600" height="500" style="" viewBox="0 0 600 500"><rect x="0" y="0" width="600" height="500" style="fill: rgb(255, 255, 255); fill-opacity: 1;"/><defs id="defs-97e98d"><g class="clips"><clipPath id="clip97e98dxyplot" class="plotclip"><rect width="369" height="320"/></clipPath><clipPath class="axesclip" id="clip97e98dx"><rect x="80" y="0" width="369" height="500"/></clipPath><clipPath class="axesclip" id="clip97e98dy"><rect x="0" y="100" width="600" height="320"/></clipPath><clipPath class="axesclip" id="clip97e98dxy"><rect x="80" y="100" width="369" height="320"/></clipPath></g><g class="gradients"/></defs><g class="bglayer"><rect class="bg" x="80" y="100" width="369" height="320" style="fill: rgb(229, 236, 246); fill-opacity: 1; stroke-width: 0;"/></g><g class="layer-below"><g class="imagelayer"/><g class="shapelayer"/></g><g class="cartesianlayer"><g class="subplot xy"><g class="layer-subplot"><g class="shapelayer"/><g class="imagelayer"/></g><g class="gridlayer"><g class="x"><path class="xgrid crisp" transform="translate(172.37,0)" d="M0,100v320" style="stroke: rgb(255, 255, 255); stroke-opacity: 1; stroke-width: 1px;"/><path class="xgrid crisp" transform="translate(264.73,0)" d="M0,100v320" style="stroke: rgb(255, 255, 255); stroke-opacity: 1; stroke-width: 1px;"/><path class="xgrid crisp" transform="translate(357.1,0)" d="M0,100v320" style="stroke: rgb(255, 255, 255); stroke-opacity: 1; stroke-width: 1px;"/></g><g class="y"><path class="ygrid crisp" transform="translate(0,395.92)" d="M80,0h369" style="stroke: rgb(255, 255, 255); stroke-opacity: 1; stroke-width: 1px;"/><path class="ygrid crisp" transform="translate(0,364.08)" d="M80,0h369" style="stroke: rgb(255, 255, 255); stroke-opacity: 1; stroke-width: 1px;"/><path class="ygrid crisp" transform="translate(0,340)" d="M80,0h369" style="stroke: rgb(255, 255, 255); stroke-opacity: 1; stroke-width: 1px;"/><path class="ygrid crisp" transform="translate(0,315.91999999999996)" d="M80,0h369" style="stroke: rgb(255, 255, 255); stroke-opacity: 1; stroke-width: 1px;"/><path class="ygrid crisp" transform="translate(0,284.08000000000004)" d="M80,0h369" style="stroke: rgb(255, 255, 255); stroke-opacity: 1; stroke-width: 1px;"/><path class="ygrid crisp" transform="translate(0,260)" d="M80,0h369" style="stroke: rgb(255, 255, 255); stroke-opacity: 1; stroke-width: 1px;"/><path class="ygrid crisp" transform="translate(0,235.92)" d="M80,0h369" style="stroke: rgb(255, 255, 255); stroke-opacity: 1; stroke-width: 1px;"/><path class="ygrid crisp" transform="translate(0,204.07999999999998)" d="M80,0h369" style="stroke: rgb(255, 255, 255); stroke-opacity: 1; stroke-width: 1px;"/><path class="ygrid crisp" transform="translate(0,180)" d="M80,0h369" style="stroke: rgb(255, 255, 255); stroke-opacity: 1; stroke-width: 1px;"/><path class="ygrid crisp" transform="translate(0,155.92000000000002)" d="M80,0h369" style="stroke: rgb(255, 255, 255); stroke-opacity: 1; stroke-width: 1px;"/><path class="ygrid crisp" transform="translate(0,124.08)" d="M80,0h369" style="stroke: rgb(255, 255, 255); stroke-opacity: 1; stroke-width: 1px;"/></g></g><g class="zerolinelayer"><path class="xzl zl crisp" transform="translate(80,0)" d="M0,100v320" style="stroke: rgb(255, 255, 255); stroke-opacity: 1; stroke-width: 2px;"/></g><path class="xlines-below"/><path class="ylines-below"/><g class="overlines-below"/><g class="xaxislayer-below"/><g class="yaxislayer-below"/><g class="overaxes-below"/><g class="plot" transform="translate(80, 100)" clip-path="url('#clip97e98dxyplot')"><g class="scatterlayer mlayer"><g class="trace scatter trace60899b" style="stroke-miterlimit: 2; opacity: 1;"><g class="fills"/><g class="errorbars"/><g class="lines"><path class="js-line" d="M0,-117.63L1.39,10.73L1.85,27.82L5.08,80.65L5.54,86.9L6.47,91.19L6.93,97.01L7.39,97.86L7.85,100.38L11.55,110.79L12.01,103.03L12.93,116.26L13.39,116.96L14.32,118.26L14.78,107.66L15.24,122.96L15.7,122.5L16.16,123.76L16.63,124.59L17.09,127.06L17.55,127.4L18.01,129.7L18.47,129.59L18.93,130.74L19.4,130.5L19.86,131.63L20.78,135.47L21.24,134.99L22.63,139.76L23.09,138.48L24.02,141.01L24.48,135.23L25.4,144.1L25.86,128.45L26.32,148.17L26.79,142.36L27.25,149.63L28.17,152.13L28.63,136.4L29.56,155.47L30.02,154.7L31.4,158.41L31.87,154.88L32.33,160.69L32.79,155.1L33.71,162.29L34.18,150.06L35.1,162.89L35.56,164.64L36.48,168.6L36.95,168.12L37.41,169.3L37.87,170.2L38.33,169.44L38.79,171.59L39.26,163.08L39.72,172.36L40.18,169.11L40.64,173.1L42.49,176.7L42.95,179.33L43.41,174.55L43.87,179L44.34,176.14L44.8,178.69L45.26,181.14L45.72,173.45L46.64,184.22L47.11,180.67L47.57,182.77L48.03,180.34L48.95,186.46L49.42,178.85L49.88,187.82L50.34,186.48L50.8,185.1L51.72,190.47L52.19,188.85L52.65,185.03L53.11,189.73L53.57,191.14L54.03,189.82L54.96,194.19L55.42,191.4L55.88,192.74L56.34,185.7L58.19,196.66L58.65,195.65L59.11,195.5L59.58,198.14L60.5,198.42L60.96,196.79L61.42,199.41L61.88,198.31L62.35,199.75L63.27,198.37L63.73,201.04L64.66,200.72L65.12,194.58L66.04,199.01L66.5,194.47L67.43,201.15L67.89,201.8L69.27,204.4L69.74,204.35L70.66,203.09L71.12,205.49L72.05,205.21L72.51,205.44L72.97,197.59L73.43,205.18L73.89,204.93L74.35,206.48L74.82,206.24L75.28,198.71L75.74,207.22L76.2,204.08L76.66,205.27L77.59,184.98L78.05,203.03L78.51,203.09L78.97,208.17L79.9,206.21L80.36,207.95L81.28,205.91L81.74,207.61L82.21,206.29L82.67,201.65L84.05,209.82L84.51,198.36L84.98,210.09L85.44,209.9L85.9,210.41L86.36,208.48L86.82,203.27L87.75,207.64L88.21,210.07L88.67,208.78L89.13,211.06L89.59,209.88L90.06,210.27L90.52,212.05L91.44,211.16L91.9,188.03L92.37,211.26L92.83,206.34L93.29,211.35L93.75,208.61L94.21,212.14L94.67,211.15L95.14,211.58L95.6,211.19L96.06,211.94L96.52,209.04L96.98,212.39L97.45,210.49L97.91,210.5L98.37,208.87L98.83,212.37L99.29,212.61L99.75,211.11L100.22,211.76L100.68,210.65L101.6,213.23L102.06,211.16L102.53,213.48L102.99,212.32L103.45,212.35L103.91,213.23L104.37,209.74L105.3,213.85L105.76,211.64L106.22,212.15L106.68,206.36L107.14,213.21L107.61,209.11L108.07,213.85L109.45,209.71L109.91,213.09L110.38,214.26L110.84,190.09L111.3,214.72L111.76,212.1L112.22,212.16L112.69,214.44L113.15,214.21L113.61,214.86L114.53,212.45L114.99,214.43L115.46,211.6L115.92,214.32L116.38,213.52L116.84,214.81L117.3,213.5L117.77,208.71L118.69,216.35L119.15,195.9L119.61,214.47L120.08,211.01L120.54,212.21L121,214.12L121.46,210.45L121.92,214.7L122.38,213.13L122.85,214.59L123.31,211.78L123.77,214.65L124.23,213.62L124.69,215.96L125.62,216.49L126.08,215.23L126.54,214.94L127,213.48L127.46,213.52L127.93,210.7L128.85,215.9L129.31,214.68L130.24,216.51L130.7,215.77L131.16,199.41L131.62,213.64L132.08,211.86L132.54,216.72L133.01,216.59L133.47,215.28L133.93,208.56L134.39,215.91L135.32,208.3L135.78,211.23L136.24,217.01L136.7,216.52L137.16,216.17L137.62,217.62L138.09,215.1L138.55,214.08L139.01,216.6L139.47,216.44L139.93,213.83L140.4,214.08L140.86,216.43L141.32,209.45L141.78,217.83L142.24,217.72L142.7,216.5L143.63,218.06L144.09,217.82L144.55,216.52L145.01,218.82L145.48,214.57L145.94,217.97L146.4,217.86L146.86,217.86L147.32,218.79L147.78,216.36L148.25,211.96L148.71,216.9L149.17,218.94L149.63,213.19L151.02,218.4L151.48,217.51L151.94,212.75L152.4,216.84L152.86,216.57L153.33,214.07L153.79,212.68L154.25,217.36L154.71,214.28L155.17,219.27L155.64,214.31L156.1,217.17L156.56,218.86L157.94,218.38L158.41,215.88L158.87,219.43L159.33,218.58L159.79,214.23L160.25,218.06L160.72,215.44L161.64,218.64L162.1,216.64L162.56,219.09L163.03,214.74L163.95,216.48L164.41,218.13L164.87,218.83L165.33,217L165.8,218.96L166.26,215.15L166.72,213.26L167.18,220.23L168.57,218.86L169.03,219.82L169.49,201.57L169.95,220.69L170.41,218.28L170.88,220.37L171.34,220.47L171.8,218.54L173.19,221.41L173.65,219.59L174.11,218.32L174.57,221.29L175.03,221.2L175.49,218.9L175.96,219.98L176.42,212.06L177.34,220.13L177.8,219.35L178.27,219.94L178.73,217.8L179.19,220.66L179.65,217.05L180.11,221.11L181.5,219.7L181.96,219.31L182.42,217.73L182.88,220.77L183.35,214.48L183.81,214.85L184.27,216.37L184.73,222.38L185.19,222.05L185.65,214.99L186.12,221.54L186.58,220.14L187.04,217.65L187.5,218.08L187.96,221.12L188.43,218.8L188.89,221.28L189.35,221.7L189.81,218.85L190.27,221.22L190.73,220.72L191.2,222.04L193.51,220.32L193.97,219.6L194.43,222.67L194.89,220.3L195.35,220.29L195.81,222.84L196.28,205.32L196.74,219.61L197.2,215.63L197.66,216.19L198.12,217.24L199.05,221.24L199.51,221.29L199.97,220.68L200.43,221.85L201.36,223L201.82,220.74L202.74,222.02L203.2,220.71L203.67,219.46L204.13,221.57L204.59,221.6L205.05,218.04L206.44,223.83L206.9,223.75L207.36,222.94L207.82,214.79L208.28,220.5L208.75,218.69L209.21,218.54L209.67,222.74L210.13,218.77L210.59,218.31L211.06,223.05L211.98,219.15L212.44,223.42L212.9,221.51L213.36,222.63L213.83,222.56L214.75,206.62L215.21,222.39L215.67,216.48L216.14,222.48L216.6,222.2L217.06,223.63L217.52,221.65L217.98,222.66L218.44,221.76L218.91,217.69L219.37,223.42L219.83,224.24L220.29,220.31L220.75,223.87L221.22,223.37L221.68,223.94L222.14,224.09L222.6,222.41L223.06,223.09L223.52,206.38L223.99,224.95L224.45,224.53L224.91,223.22L225.37,223.83L225.83,222.98L226.3,212.09L226.76,217.99L227.22,224.5L228.14,223.23L228.6,218.68L229.99,224.13L230.45,223.01L230.91,222.84L231.38,224.72L231.84,218.27L232.3,224.05L232.76,223.09L233.22,224.78L233.68,224.39L234.15,221.54L235.07,213.01L235.53,223.11L235.99,224.28L236.46,223.49L236.92,223.76L237.84,220.56L238.3,224.87L239.23,219.94L239.69,211.06L240.15,224.58L240.61,223.02L241.07,224.6L241.54,220.42L242,223.85L242.92,225.12L243.38,223.12L243.84,218.35L244.31,221.33L244.77,225.57L245.23,225.14L245.69,222.92L246.15,219.28L246.62,225.73L247.08,225.57L247.54,222.32L248.46,225.85L248.92,225.57L249.39,220.66L250.31,225.13L250.77,216.16L251.7,226.2L252.16,224.02L253.08,224.13L253.54,216.22L254.01,224.99L254.47,223.33L254.93,225.47L255.39,226.89L255.85,226.44L256.31,217.71L257.24,226.66L257.7,226.07L258.16,226.88L258.62,223.47L259.09,221.65L259.55,226.45L260.47,225.22L260.93,225.05L261.86,206.43L262.32,225.85L263.24,225L263.7,226.09L264.17,225.38L264.63,226.34L265.09,224.43L265.55,225.99L266.47,225.75L266.94,227.57L267.4,224.17L267.86,225.21L268.32,223.08L269.25,226.15L269.71,224.45L271.09,225.91L271.55,224.29L272.02,224.11L272.48,225.78L273.4,212.71L273.86,227.14L274.79,222.92L275.25,226.8L275.71,224.14L276.17,226.66L276.63,226.05L277.1,226.62L277.56,226.2L278.48,228.11L278.94,226.28L279.87,227.84L280.33,226.71L280.79,227.72L281.25,226.55L281.71,227.3L282.18,225.9L282.64,226.09L283.1,227.4L283.56,226.75L284.02,224.2L284.49,222.68L284.95,227.74L285.41,227.19L285.87,222.98L286.33,227.94L286.79,227.35L287.26,226.21L287.72,227.29L288.18,226.09L289.1,227.84L289.57,225.94L290.03,226.05L290.49,228.34L291.87,223.67L292.34,226.83L293.26,226.33L293.72,229.09L294.65,225.94L295.11,225.37L295.57,220.34L296.03,226.82L296.95,228.04L297.42,222.83L298.34,226.69L298.8,225.92L299.26,228.04L299.73,222.1L300.19,229.03L300.65,227.78L301.11,226.85L301.57,227.44L302.04,225.99L302.5,226.21L302.96,216.38L303.88,229.51L304.34,228.61L304.81,228.55L305.27,227.72L306.65,228.2L307.12,220.29L307.58,228.72L308.04,225.84L308.5,226.69L308.96,227.77L309.42,226.93L310.35,228.74L310.81,228.94L311.73,225.75L312.2,229.51L313.12,226.86L313.58,228.76L314.04,228.18L314.5,225.87L314.97,228.93L315.43,227.12L315.89,228.37L316.35,228.83L316.81,223.4L318.2,230.26L318.66,229.26L319.12,229.25L319.58,225.89L320.05,226.6L320.51,211.34L321.43,227.72L321.89,227.74L322.82,225.58L323.28,229.53L324.66,229.76L325.13,223.93L326.51,229.03L326.97,229.39L327.44,229.32L327.9,222.54L328.36,229.52L328.82,228.66L329.28,224.94L329.74,229.96L330.21,228.1L330.67,228.75L331.13,227.7L331.59,228.96L332.05,223.34L332.52,226.84L332.98,230.41L333.44,227.1L333.9,225.75L334.36,229.72L335.75,228.12L336.21,230.11L336.67,231.31L337.13,225.07L337.6,228.9L338.06,228.65L338.52,223.84L338.98,229.83L339.44,229.63L339.9,231.06L340.37,224.27L340.83,230.55L341.29,228.69L341.75,230.09L342.21,226.79L342.68,229.43L343.14,229.61L343.6,225.89L344.06,214.84L344.52,229.89L345.45,229.67L345.91,230.95L346.37,225.6L346.83,230.78L347.76,228.51L348.22,230.22L348.68,228.89L349.14,230.25L349.6,229.47L350.07,230.42L351.45,231.11L351.91,229.81L352.37,230.72L352.84,230.2L353.3,229.51L354.22,226.63L354.68,231.94L356.07,229.01L356.53,229.53L356.99,224.41L357.45,228.41L357.92,211.34L358.38,231.63L359.76,228.79L360.23,230.14L360.69,230.61L361.15,232.2L361.61,218.23L362.07,230.75L363,230.05L363.46,227.5L363.92,232.3L364.38,230.59L364.84,210.45L365.31,230.88L365.77,228.59L366.23,230.43L367.61,231.51L368.08,229.54L368.54,226.36L369,229.86" style="vector-effect: non-scaling-stroke; fill: none; stroke: rgb(99, 110, 250); stroke-opacity: 1; stroke-width: 2px; opacity: 1;"/></g><g class="points"/><g class="text"/></g><g class="trace scatter trace38e0a4" style="stroke-miterlimit: 2; opacity: 1;"><g class="fills"/><g class="errorbars"/><g class="lines"><path class="js-line" d="M0,-95.91L1.39,22.32L1.85,-14.01L2.77,33.81L3.23,22.42L4.16,71.4L4.62,40.26L5.08,86.25L5.54,57.38L6,52.68L6.47,91.9L6.93,65.98L7.39,100.44L7.85,78.97L8.31,91.82L8.77,79.94L9.24,89.34L9.7,74.22L10.16,110.05L11.55,27.56L12.01,83.69L12.47,114.87L12.93,90.15L13.39,89.54L13.85,91.66L14.32,19.77L14.78,121.08L15.7,102.22L16.16,117.79L16.63,124.37L17.09,101.14L17.55,127.29L18.01,125.04L18.47,127.91L19.4,109.53L19.86,134.78L20.32,134.94L20.78,116.21L21.24,121.94L21.71,139.16L22.63,101.43L23.09,115.27L23.55,123.99L24.02,68.41L24.94,120.7L25.4,38.96L25.86,140.12L26.32,92.57L26.79,123.5L27.71,152.4L28.17,50.5L29.1,148.37L29.56,141.02L30.02,142.34L30.48,153.18L31.4,105.47L31.87,159.94L32.33,94.05L32.79,143.23L33.25,134.96L33.71,81.64L34.64,128.57L35.1,140.83L35.56,144.5L36.02,165.89L36.48,168.66L36.95,140.25L37.41,160.94L37.87,159.39L38.33,164.29L38.79,109.9L39.26,157.78L39.72,114.83L40.18,150.86L40.64,149.88L41.1,171.21L41.56,161.88L42.03,168.87L42.49,172.57L42.95,123.46L43.41,148.97L43.87,115.1L44.34,129.38L44.8,170.64L45.26,108.25L45.72,158.12L46.18,179.59L46.64,148.33L47.57,125.99L48.03,161.74L48.49,174.99L48.95,118.63L49.42,186.8L49.88,181.3L50.34,131.28L50.8,189.22L51.26,180.98L51.72,150.11L52.19,134.94L52.65,186.95L53.57,157.98L54.03,182.47L54.5,184.35L54.96,149.39L55.42,172.42L55.88,125.12L56.8,161.62L57.27,148.24L57.73,190.69L58.19,153.87L59.11,195.77L59.58,193.99L60.04,193.79L60.5,156.27L60.96,191.33L61.42,195.1L61.88,189.33L62.35,198.18L62.81,163.15L63.73,201.23L64.19,196.18L65.12,143.33L65.58,184.52L66.04,132.29L66.5,159.48L66.96,188.77L67.43,202.93L67.89,188.39L68.35,201.73L68.81,201.37L69.27,203.96L69.74,194L70.2,204.2L70.66,204.8L71.12,202.56L72.05,204.3L72.51,134.84L72.97,205.92L73.43,170.18L73.89,205.47L74.35,196.2L74.82,145.39L75.28,206.76L75.74,151.1L76.2,201.52L76.66,108.69L77.13,82.02L77.59,149.63L78.05,142.46L78.51,206.97L79.43,174.79L79.9,196.01L80.82,206.61L81.28,203.05L81.74,209.29L82.21,134.71L83.59,209.93L84.05,137.27L84.98,207.54L85.44,210.92L85.9,209.48L86.36,130.43L87.75,209.05L88.21,168.21L88.67,211.12L89.13,209.18L89.59,212L90.06,211.25L90.52,198.94L90.98,197.4L91.44,88.72L91.9,194.14L92.37,147.68L92.83,197.54L93.29,172.52L93.75,212.1L94.21,211.12L94.67,194.08L95.14,212.68L95.6,188.9L96.06,206.1L96.52,195.81L96.98,202.08L97.91,157.06L98.37,200.94L99.29,209.93L99.75,189.19L100.22,169.55L100.68,204.13L101.14,209.91L101.6,189.03L102.53,213.23L102.99,198.46L103.45,211.84L103.91,189.98L104.37,203.03L104.83,191.47L105.3,209.53L105.76,193.74L106.22,156.18L106.68,201.31L107.14,161.55L107.61,213.91L108.07,213.87L108.53,170.81L108.99,170.02L109.45,167.45L109.91,213.93L110.38,106.91L110.84,215.24L111.3,205.76L111.76,184.47L112.22,187.36L112.69,206.94L113.15,214.81L113.61,208.35L114.07,182.17L114.53,205.18L114.99,154.75L115.46,214.94L116.38,193.03L116.84,214.8L117.3,159.95L117.77,215.72L118.23,210.35L118.69,106.07L119.15,206.89L119.61,168.83L120.08,172.03L120.54,216.37L121,143.97L121.46,213.9L121.92,175.04L122.38,195.16L122.85,157.37L123.31,187.33L123.77,211.04L124.23,193.88L125.16,216.2L125.62,213.9L126.08,214.05L126.54,176.02L127,186.14L127.46,154.62L127.93,215.88L128.39,193.81L128.85,177.71L129.31,211.44L129.77,198.88L130.24,217.52L130.7,115.62L131.16,172.35L131.62,160.31L133.01,217.83L133.47,147.97L133.93,208L134.39,153.12L134.85,145.71L135.32,155.63L135.78,218L136.24,188.52L136.7,208.27L137.16,216.61L137.62,194.71L138.09,185.05L138.55,211.52L139.93,160.49L140.4,208.95L140.86,136.1L141.32,208.91L141.78,212.51L142.24,197.48L143.17,214.73L143.63,207.87L144.55,218.89L145.01,168.41L145.48,216.42L145.94,215.68L146.4,217.03L147.32,207.6L147.78,147.87L148.71,215.01L149.17,170.15L151.02,219.13L151.48,150.47L151.94,219.44L152.4,204.34L152.86,160.71L153.33,158.18L153.79,218L154.25,158.33L154.71,219.1L155.17,157.03L155.64,187.17L156.1,217.06L156.56,205.23L157.02,219.31L157.94,166.94L158.41,219.87L159.33,153.48L159.79,201.9L160.25,175.42L160.72,213.54L161.64,189.49L162.1,216.8L162.56,156.63L163.03,169.78L163.49,187.29L163.95,188.12L164.41,217.89L164.87,198.8L165.33,216.57L165.8,154.42L166.26,156.29L166.72,219.33L167.18,216.98L167.64,206.31L168.11,191.87L168.57,220.89L169.03,104.23L169.49,199.29L169.95,199.52L170.41,220.55L170.88,216.92L171.34,169.2L172.72,221.25L173.19,219.64L173.65,219.56L174.11,217.17L174.57,221.15L175.03,218.6L175.49,203.79L175.96,147.07L176.42,164.58L176.88,219.46L177.34,218.39L177.8,218.92L178.27,162.69L178.73,215.03L179.19,186.66L179.65,221.01L180.11,221.39L180.57,205.69L181.04,211.99L181.5,186.87L181.96,184.8L182.42,200.1L182.88,154.38L183.35,166.26L183.81,171.58L184.27,222.09L184.73,216.69L185.19,149.94L185.65,220.85L186.12,215.7L186.58,157.12L187.5,220.54L187.96,179.49L188.43,221.33L188.89,217.87L189.35,173.92L189.81,218.03L190.27,213.65L190.73,221.5L191.2,221.47L191.66,208.04L192.12,218.27L192.58,199.06L193.04,205.67L193.51,192.05L193.97,220.9L194.43,203.1L194.89,183.99L195.35,220.27L195.81,129.14L196.28,200.06L196.74,158.23L197.2,153.43L197.66,165.11L198.12,208.29L198.59,216.76L199.05,211.62L199.51,188.06L200.43,219.32L200.89,211.14L201.36,191.76L201.82,219.83L202.74,213.76L203.2,186.52L204.13,212.8L204.59,154.09L205.05,222.49L205.51,207.51L205.97,223.65L206.44,220.93L206.9,213.36L207.36,148.5L207.82,222.23L208.75,173.8L209.21,222.48L209.67,152.64L210.13,162.66L210.59,215.12L211.06,223.91L211.52,168.72L212.44,223.85L212.9,211.91L213.36,215.54L213.83,132.81L214.29,119.88L214.75,201.9L215.21,151.81L215.67,189.85L216.14,187.65L216.6,207.59L217.06,222.94L217.52,208.6L218.44,166.81L218.91,220.8L219.37,223.87L219.83,179.53L220.29,221.67L220.75,216.41L221.22,217.21L221.68,221.35L222.14,186.4L222.6,224.08L223.06,124.26L223.99,224.11L224.45,209.26L225.37,213.74L225.83,139.85L227.22,216.24L227.68,191.03L228.14,166.21L228.6,176.86L229.07,220.31L229.53,223.73L229.99,199.34L230.91,221.67L231.38,165.89L232.76,223.1L233.22,217.85L233.68,207.73L234.15,176.76L234.61,131.83L235.07,225.24L235.99,195.98L236.46,223.78L237.38,175.72L237.84,222.33L239.23,132.15L239.69,220.49L240.15,217.5L240.61,223.91L241.07,182.21L241.54,211.79L242,193.17L242.46,226.19L243.38,149.42L243.84,209.42L244.77,225.73L245.23,215.66L245.69,160.55L246.15,223.76L246.62,221.54L247.08,198.22L247.54,223.94L248,201.94L248.46,226.1L248.92,172.04L249.85,224.98L250.31,153.56L251.23,226.46L251.7,183.48L252.16,218.37L252.62,192.13L253.08,151.03L253.54,171.47L254.01,206.6L254.93,225.8L255.39,225.72L255.85,151.74L256.31,203.82L256.78,227.14L257.24,215.61L257.7,220.04L258.62,162.51L259.09,227.23L259.55,207.89L260.01,215.51L260.47,222.02L261.39,113.72L261.86,225.97L262.32,208.05L262.78,219.31L263.24,210.49L263.7,195.32L264.17,215.54L264.63,204.99L265.09,215.71L265.55,205.53L266.01,224.31L266.47,220.12L266.94,186.7L267.4,198.11L267.86,179.39L268.78,223.14L269.25,193.13L269.71,201.99L270.17,227.71L271.09,188.43L271.55,192.24L272.02,224.12L272.48,163.49L272.94,140.82L273.4,216.47L274.33,184L274.79,205.27L275.25,191.38L275.71,224.78L276.17,207.48L276.63,225.19L277.1,222.55L277.56,226.51L278.94,211.61L279.41,226.44L279.87,214.82L280.33,220.24L280.79,217.18L281.71,227.48L282.18,212.63L282.64,225.76L283.1,223.04L283.56,180.91L284.02,178.34L284.49,202.85L284.95,219.17L285.41,172.84L285.87,225.69L286.33,213.33L286.79,212.94L287.26,199.27L287.72,220.18L288.18,225.38L288.64,224.63L289.1,182.86L290.03,228.88L290.49,217.68L291.41,187.1L291.87,183.26L293.26,227.82L293.72,198.05L294.18,200.13L294.65,190L295.11,159.84L295.57,220.89L296.49,228.89L296.95,180.4L297.88,228.1L298.34,210.86L298.8,223.65L299.26,167.61L300.19,226.78L300.65,182.61L301.11,218.73L301.57,185.88L302.04,192.69L302.5,143.88L303.42,227.31L303.88,219.97L304.34,228.07L305.27,209.91L305.73,229.57L306.65,162.74L307.12,229.94L307.58,179.6L308.04,211.07L308.5,210.83L308.96,224.23L309.42,220.6L309.89,195.24L310.35,229.76L310.81,216.89L311.27,197.27L311.73,228.41L312.2,199.65L313.12,229.71L313.58,213.57L314.04,187.3L314.5,225.45L314.97,182.62L315.43,191.23L315.89,226.94L316.35,171.75L316.81,189.45L317.28,229.73L317.74,229.06L318.2,221.93L318.66,226.9L319.12,175.96L319.58,204.1L320.05,123.81L320.97,188.48L321.43,194.43L322.36,175.15L322.82,210.19L323.74,227.27L324.2,222.74L324.66,168.11L325.59,209.96L326.05,201.21L326.97,213.37L327.44,166.14L328.36,230.16L328.82,176.81L329.74,223.94L330.21,194.53L331.13,225.41L331.59,176.92L332.52,205.62L332.98,182.3L333.44,174.4L333.9,218.42L334.36,195.46L334.82,209.99L335.75,226.77L336.21,220.01L336.67,172L337.13,224.36L337.6,231.3L338.06,179.22L338.52,230.8L338.98,228.47L339.44,225.61L339.9,161.67L340.37,230.73L340.83,197.7L341.29,224.18L341.75,176.62L342.21,224.69L343.6,134.78L344.06,215.58L344.52,211.07L344.98,217.5L345.45,229L345.91,172.13L346.83,229.14L347.29,210.85L348.22,222.14L348.68,223.49L349.14,229.2L349.6,225.88L350.07,210.79L350.53,206.34L350.99,223.87L351.45,207.86L351.91,226.46L352.37,225.37L352.84,215.12L353.3,215.41L353.76,195.53L354.22,220.86L354.68,201.84L355.15,230.18L355.61,220.67L356.07,232.2L357.45,127.98L357.92,225.18L358.38,201.88L358.84,223.46L359.3,188.52L359.76,221.96L360.69,230.32L361.15,140.2L361.61,207.89L362.07,196.91L362.53,217.8L363,198.01L363.46,227.68L363.92,222.7L364.38,117.09L364.84,211.87L365.31,194.18L365.77,195.46L366.23,223.22L366.69,218.77L367.15,221.4L368.08,169.09L368.54,227.83L369,223.24" style="vector-effect: non-scaling-stroke; fill: none; stroke: rgb(239, 85, 59); stroke-opacity: 1; stroke-width: 2px; opacity: 1;"/></g><g class="points"/><g class="text"/></g></g></g><g class="overplot"/><path class="xlines-above crisp" style="fill: none;" d="M0,0"/><path class="ylines-above crisp" style="fill: none;" d="M0,0"/><g class="overlines-above"/><g class="xaxislayer-above"><g class="xtick"><text text-anchor="middle" x="0" y="433" transform="translate(80,0)" style="font-family: 'Open Sans', verdana, arial, sans-serif; font-size: 12px; fill: rgb(42, 63, 95); fill-opacity: 1; white-space: pre;">0</text></g><g class="xtick"><text text-anchor="middle" x="0" y="433" transform="translate(172.37,0)" style="font-family: 'Open Sans', verdana, arial, sans-serif; font-size: 12px; fill: rgb(42, 63, 95); fill-opacity: 1; white-space: pre;">200</text></g><g class="xtick"><text text-anchor="middle" x="0" y="433" transform="translate(264.73,0)" style="font-family: 'Open Sans', verdana, arial, sans-serif; font-size: 12px; fill: rgb(42, 63, 95); fill-opacity: 1; white-space: pre;">400</text></g><g class="xtick"><text text-anchor="middle" x="0" y="433" transform="translate(357.1,0)" style="font-family: 'Open Sans', verdana, arial, sans-serif; font-size: 12px; fill: rgb(42, 63, 95); fill-opacity: 1; white-space: pre;">600</text></g></g><g class="yaxislayer-above"><g class="ytick"><text text-anchor="end" x="79" y="4.199999999999999" transform="translate(0,420)" style="font-family: 'Open Sans', verdana, arial, sans-serif; font-size: 12px; fill: rgb(42, 63, 95); fill-opacity: 1; white-space: pre;">100n</text></g><g class="ytick"><text text-anchor="end" x="79" y="3.15" transform="translate(0,395.92)" style="font-family: 'Open Sans', verdana, arial, sans-serif; font-size: 9px; fill: rgb(42, 63, 95); fill-opacity: 1; white-space: pre;">2</text></g><g class="ytick"><text text-anchor="end" x="79" y="3.15" transform="translate(0,364.08)" style="font-family: 'Open Sans', verdana, arial, sans-serif; font-size: 9px; fill: rgb(42, 63, 95); fill-opacity: 1; white-space: pre;">5</text></g><g class="ytick"><text text-anchor="end" x="79" y="4.199999999999999" transform="translate(0,340)" style="font-family: 'Open Sans', verdana, arial, sans-serif; font-size: 12px; fill: rgb(42, 63, 95); fill-opacity: 1; white-space: pre;">1μ</text></g><g class="ytick"><text text-anchor="end" x="79" y="3.15" transform="translate(0,315.91999999999996)" style="font-family: 'Open Sans', verdana, arial, sans-serif; font-size: 9px; fill: rgb(42, 63, 95); fill-opacity: 1; white-space: pre;">2</text></g><g class="ytick"><text text-anchor="end" x="79" y="3.15" transform="translate(0,284.08000000000004)" style="font-family: 'Open Sans', verdana, arial, sans-serif; font-size: 9px; fill: rgb(42, 63, 95); fill-opacity: 1; white-space: pre;">5</text></g><g class="ytick"><text text-anchor="end" x="79" y="4.199999999999999" transform="translate(0,260)" style="font-family: 'Open Sans', verdana, arial, sans-serif; font-size: 12px; fill: rgb(42, 63, 95); fill-opacity: 1; white-space: pre;">10μ</text></g><g class="ytick"><text text-anchor="end" x="79" y="3.15" transform="translate(0,235.92)" style="font-family: 'Open Sans', verdana, arial, sans-serif; font-size: 9px; fill: rgb(42, 63, 95); fill-opacity: 1; white-space: pre;">2</text></g><g class="ytick"><text text-anchor="end" x="79" y="3.15" transform="translate(0,204.07999999999998)" style="font-family: 'Open Sans', verdana, arial, sans-serif; font-size: 9px; fill: rgb(42, 63, 95); fill-opacity: 1; white-space: pre;">5</text></g><g class="ytick"><text text-anchor="end" x="79" y="4.199999999999999" transform="translate(0,180)" style="font-family: 'Open Sans', verdana, arial, sans-serif; font-size: 12px; fill: rgb(42, 63, 95); fill-opacity: 1; white-space: pre;">100μ</text></g><g class="ytick"><text text-anchor="end" x="79" y="3.15" transform="translate(0,155.92000000000002)" style="font-family: 'Open Sans', verdana, arial, sans-serif; font-size: 9px; fill: rgb(42, 63, 95); fill-opacity: 1; white-space: pre;">2</text></g><g class="ytick"><text text-anchor="end" x="79" y="3.15" transform="translate(0,124.08)" style="font-family: 'Open Sans', verdana, arial, sans-serif; font-size: 9px; fill: rgb(42, 63, 95); fill-opacity: 1; white-space: pre;">5</text></g><g class="ytick"><text text-anchor="end" x="79" y="4.199999999999999" transform="translate(0,100)" style="font-family: 'Open Sans', verdana, arial, sans-serif; font-size: 12px; fill: rgb(42, 63, 95); fill-opacity: 1; white-space: pre;">0.001</text></g></g><g class="overaxes-above"/></g></g><g class="polarlayer"/><g class="ternarylayer"/><g class="geolayer"/><g class="funnelarealayer"/><g class="pielayer"/><g class="treemaplayer"/><g class="sunburstlayer"/><g class="glimages"/><defs id="topdefs-97e98d"><g class="clips"/><clipPath id="legend97e98d"><rect width="132" height="48" x="0" y="0"/></clipPath></defs><g class="layer-above"><g class="imagelayer"/><g class="shapelayer"/></g><g class="infolayer"><g class="legend" pointer-events="all" transform="translate(456.38, 100)"><rect class="bg" shape-rendering="crispEdges" style="stroke: rgb(68, 68, 68); stroke-opacity: 1; fill: rgb(255, 255, 255); fill-opacity: 1; stroke-width: 0px;" width="132" height="48" x="0" y="0"/><g class="scrollbox" transform="translate(0, 0)" clip-path="url('#legend97e98d')"><g class="groups"><g class="traces" style="opacity: 1;" transform="translate(0, 14.5)"><text class="legendtext user-select-none" text-anchor="start" x="40" y="4.680000000000001" style="font-family: 'Open Sans', verdana, arial, sans-serif; font-size: 12px; fill: rgb(42, 63, 95); fill-opacity: 1; white-space: pre;">error training</text><g class="layers" style="opacity: 1;"><g class="legendfill"/><g class="legendlines"><path class="js-line" d="M5,0h30" style="fill: none; stroke: rgb(99, 110, 250); stroke-opacity: 1; stroke-width: 2px;"/></g><g class="legendsymbols"><g class="legendpoints"/></g></g><rect class="legendtoggle" pointer-events="all" x="0" y="-9.5" width="126.46875" height="19" style="cursor: pointer; fill: rgb(0, 0, 0); fill-opacity: 0;"/></g><g class="traces" style="opacity: 1;" transform="translate(0, 33.5)"><text class="legendtext user-select-none" text-anchor="start" x="40" y="4.680000000000001" style="font-family: 'Open Sans', verdana, arial, sans-serif; font-size: 12px; fill: rgb(42, 63, 95); fill-opacity: 1; white-space: pre;">error validation</text><g class="layers" style="opacity: 1;"><g class="legendfill"/><g class="legendlines"><path class="js-line" d="M5,0h30" style="fill: none; stroke: rgb(239, 85, 59); stroke-opacity: 1; stroke-width: 2px;"/></g><g class="legendsymbols"><g class="legendpoints"/></g></g><rect class="legendtoggle" pointer-events="all" x="0" y="-9.5" width="126.46875" height="19" style="cursor: pointer; fill: rgb(0, 0, 0); fill-opacity: 0;"/></g></g></g><rect class="scrollbar" rx="20" ry="3" width="0" height="0" style="fill: rgb(128, 139, 164); fill-opacity: 1;" x="0" y="0"/></g><g class="g-gtitle"/><g class="g-xtitle"><text class="xtitle" x="264.5" y="461.3" text-anchor="middle" style="font-family: 'Open Sans', verdana, arial, sans-serif; font-size: 14px; fill: rgb(42, 63, 95); opacity: 1; font-weight: normal; white-space: pre;">epoch</text></g><g class="g-ytitle"/></g></svg>