<svg class="main-svg" xmlns="http://www.w3.org/2000/svg" xmlns:xlink="http://www.w3.org/1999/xlink" width="600" height="500" style="" viewBox="0 0 600 500"><rect x="0" y="0" width="600" height="500" style="fill: rgb(255, 255, 255); fill-opacity: 1;"/><defs id="defs-86d3ba"><g class="clips"><clipPath id="clip86d3baxyplot" class="plotclip"><rect width="369" height="320"/></clipPath><clipPath class="axesclip" id="clip86d3bax"><rect x="80" y="0" width="369" height="500"/></clipPath><clipPath class="axesclip" id="clip86d3bay"><rect x="0" y="100" width="600" height="320"/></clipPath><clipPath class="axesclip" id="clip86d3baxy"><rect x="80" y="100" width="369" height="320"/></clipPath></g><g class="gradients"/></defs><g class="bglayer"><rect class="bg" x="80" y="100" width="369" height="320" style="fill: rgb(229, 236, 246); fill-opacity: 1; stroke-width: 0;"/></g><g class="layer-below"><g class="imagelayer"/><g class="shapelayer"/></g><g class="cartesianlayer"><g class="subplot xy"><g class="layer-subplot"><g class="shapelayer"/><g class="imagelayer"/></g><g class="gridlayer"><g class="x"><path class="xgrid crisp" transform="translate(172.37,0)" d="M0,100v320" style="stroke: rgb(255, 255, 255); stroke-opacity: 1; stroke-width: 1px;"/><path class="xgrid crisp" transform="translate(264.73,0)" d="M0,100v320" style="stroke: rgb(255, 255, 255); stroke-opacity: 1; stroke-width: 1px;"/><path class="xgrid crisp" transform="translate(357.1,0)" d="M0,100v320" style="stroke: rgb(255, 255, 255); stroke-opacity: 1; stroke-width: 1px;"/></g><g class="y"><path class="ygrid crisp" transform="translate(0,395.92)" d="M80,0h369" style="stroke: rgb(255, 255, 255); stroke-opacity: 1; stroke-width: 1px;"/><path class="ygrid crisp" transform="translate(0,364.08)" d="M80,0h369" style="stroke: rgb(255, 255, 255); stroke-opacity: 1; stroke-width: 1px;"/><path class="ygrid crisp" transform="translate(0,340)" d="M80,0h369" style="stroke: rgb(255, 255, 255); stroke-opacity: 1; stroke-width: 1px;"/><path class="ygrid crisp" transform="translate(0,315.91999999999996)" d="M80,0h369" style="stroke: rgb(255, 255, 255); stroke-opacity: 1; stroke-width: 1px;"/><path class="ygrid crisp" transform="translate(0,284.08000000000004)" d="M80,0h369" style="stroke: rgb(255, 255, 255); stroke-opacity: 1; stroke-width: 1px;"/><path class="ygrid crisp" transform="translate(0,260)" d="M80,0h369" style="stroke: rgb(255, 255, 255); stroke-opacity: 1; stroke-width: 1px;"/><path class="ygrid crisp" transform="translate(0,235.92)" d="M80,0h369" style="stroke: rgb(255, 255, 255); stroke-opacity: 1; stroke-width: 1px;"/><path class="ygrid crisp" transform="translate(0,204.07999999999998)" d="M80,0h369" style="stroke: rgb(255, 255, 255); stroke-opacity: 1; stroke-width: 1px;"/><path class="ygrid crisp" transform="translate(0,180)" d="M80,0h369" style="stroke: rgb(255, 255, 255); stroke-opacity: 1; stroke-width: 1px;"/><path class="ygrid crisp" transform="translate(0,155.92000000000002)" d="M80,0h369" style="stroke: rgb(255, 255, 255); stroke-opacity: 1; stroke-width: 1px;"/><path class="ygrid crisp" transform="translate(0,124.08)" d="M80,0h369" style="stroke: rgb(255, 255, 255); stroke-opacity: 1; stroke-width: 1px;"/></g></g><g class="zerolinelayer"><path class="xzl zl crisp" transform="translate(80,0)" d="M0,100v320" style="stroke: rgb(255, 255, 255); stroke-opacity: 1; stroke-width: 2px;"/></g><path class="xlines-below"/><path class="ylines-below"/><g class="overlines-below"/><g class="xaxislayer-below"/><g class="yaxislayer-below"/><g class="overaxes-below"/><g class="plot" transform="translate(80, 100)" clip-path="url('#clip86d3baxyplot')"><g class="scatterlayer mlayer"><g class="trace scatter trace2b441b" style="stroke-miterlimit: 2; opacity: 1;"><g class="fills"/><g class="errorbars"/><g class="lines"><path class="js-line" d="M0,-159.82L1.85,-45.96L2.31,-25.34L6,130.54L6.47,133.06L7.85,139.85L8.31,140.14L10.16,142.96L10.62,143.83L11.55,143.8L12.01,140.87L13.39,148.28L13.85,148.19L14.32,147.85L14.78,143.09L15.7,150.31L16.16,150.27L16.63,150.63L17.09,152.46L17.55,151.93L18.01,153.45L18.47,152.85L18.93,154.2L19.4,152.89L19.86,154.4L20.78,156.21L21.24,155.75L21.71,155.89L22.17,158.03L23.55,158.76L24.02,158.55L24.48,156.31L24.94,160.06L25.4,158.98L25.86,153.94L26.32,161.39L26.79,159.51L27.25,162.33L28.17,163.42L28.63,157.95L30.02,165.63L30.48,165.85L31.4,166.4L31.87,165.73L32.33,167.54L32.79,166.87L33.25,167.25L33.71,168.65L34.18,164.89L34.64,169.9L35.1,168.3L35.56,170.35L36.95,171.37L37.41,171.83L37.87,171.22L38.33,171.58L38.79,171.88L39.26,170.44L39.72,174L40.64,172.98L41.1,174.33L42.95,176.91L43.41,175.1L44.8,177.67L45.26,176.96L45.72,176.3L46.18,178.34L46.64,179.59L47.11,177.85L48.03,178.64L48.49,180.78L48.95,181L49.42,179.16L49.88,181.17L50.34,180.12L50.8,181.31L51.72,182.77L52.19,181.01L52.65,180.7L53.11,183.1L53.57,182.86L54.03,183.86L54.5,183.75L54.96,185.57L55.88,183.83L56.34,184.19L56.8,183.36L57.27,184.75L57.73,184.6L58.19,186.79L58.65,186.97L59.11,185.39L59.58,188.31L60.04,186.37L60.96,186.86L61.42,189.2L61.88,187.59L62.35,187.94L62.81,188.05L63.73,189.78L64.19,189.51L64.66,189.25L65.12,190.18L65.58,189.41L66.04,189.08L66.5,189.9L67.43,191.29L67.89,191.28L70.2,192.46L70.66,191.48L71.12,193.35L71.58,192.51L72.05,192.66L72.97,192.48L73.43,193.68L74.35,193.45L74.82,194.03L75.28,192.65L75.74,195.33L76.2,195L76.66,193.46L77.59,188.9L78.05,193.97L78.97,194.66L79.43,196.61L80.36,196.22L80.82,194.2L81.74,196.9L82.21,196.51L82.67,196.38L84.05,197.96L84.51,197.06L85.44,196.87L85.9,195.63L86.82,198.12L87.29,197.18L88.21,197.14L88.67,199.09L90.06,198.54L90.52,198.7L90.98,200.33L91.44,198.93L91.9,193.67L92.37,199.27L94.21,200.45L94.67,199.72L95.14,201.73L95.6,200.73L96.06,202L96.52,200.11L96.98,201.66L97.45,200.98L97.91,201.55L98.37,202.08L99.29,201.04L99.75,202.6L100.68,202.66L101.14,202.72L102.53,201.93L102.99,202.39L103.45,201.8L103.91,203.02L105.3,202.9L105.76,203.77L106.22,203.72L106.68,202.71L107.14,203.64L107.61,202.66L108.07,202.81L108.53,201.08L109.45,204.92L109.91,204.59L111.3,198.67L111.76,204.47L112.69,205.42L113.15,205L113.61,205.9L114.07,205.3L114.53,205.82L114.99,206.78L115.46,206.09L115.92,203.88L116.84,206.08L117.3,205.41L117.77,205.39L118.23,203.83L118.69,205.73L119.15,202.32L120.08,207.36L120.54,206.46L121,205.44L121.46,206.76L121.92,206.4L122.38,207.76L122.85,206.49L123.31,207.61L124.69,208.36L125.16,206.37L125.62,208.75L126.08,198.64L127,208.78L127.46,208.64L128.39,206.19L128.85,208.51L129.77,208.67L130.24,208.89L130.7,208.71L131.16,206.08L131.62,209.72L132.08,207.96L132.54,208.48L133.01,208.52L133.47,199.08L133.93,208.79L134.39,208.42L134.85,209.76L135.78,209.23L136.24,210.77L136.7,211.03L137.16,210.03L138.09,210.94L138.55,210.96L139.01,209.13L139.47,210.74L139.93,211.29L140.4,210.76L140.86,210.71L141.32,209.55L141.78,211.34L143.17,211.72L143.63,211.54L144.55,210.99L145.01,209.22L145.94,212.39L146.4,211.45L146.86,211.23L147.32,212.33L148.71,212.15L149.17,211.73L150.09,213.56L150.56,212.42L151.02,213.81L151.48,212.26L151.94,212.98L152.4,210.69L152.86,213.71L153.33,212.66L153.79,212.69L154.25,211.61L154.71,213.07L155.17,213.19L155.64,214.42L156.1,214.94L156.56,212.64L157.94,215.05L158.41,214.77L159.33,215.21L159.79,213.98L161.18,215.07L161.64,215.01L162.56,216.1L163.03,215.76L163.49,214.69L163.95,215.73L164.41,216.5L164.87,215.94L165.33,216.42L166.72,215.13L167.18,206.33L167.64,216.61L168.11,216.27L168.57,216.19L169.49,214.13L169.95,216.91L170.41,216.99L170.88,209.97L172.26,217.68L172.72,215.78L173.19,217.18L173.65,215.14L174.57,216.82L175.03,209.64L175.96,218.04L176.42,216.78L177.8,218.91L178.27,218.29L178.73,216.78L179.19,218.34L179.65,218.89L180.11,216.77L180.57,214.54L181.04,217.64L181.5,216.98L181.96,219.04L183.35,217.66L183.81,218.89L184.27,218.51L184.73,219.98L186.12,212.37L186.58,218.81L187.04,219.03L187.5,220.33L187.96,219.51L188.43,220.99L189.35,218.99L189.81,219.7L190.27,220.09L190.73,217.67L192.12,221.44L192.58,219.14L193.04,221.44L193.51,220.5L193.97,221.44L194.43,219.9L194.89,220.37L195.35,221.27L195.81,222.23L196.28,219.78L196.74,221.68L197.2,221.16L197.66,221.63L198.12,222.04L198.59,221.45L199.05,220.61L199.51,222.42L199.97,222.69L200.43,219.81L201.82,222.8L202.28,222.48L202.74,220.7L203.2,221.8L203.67,223.64L204.59,222.7L205.05,223.41L206.44,221.56L206.9,224.31L207.36,221.18L207.82,223.39L208.28,220.66L208.75,223.19L209.21,224.61L209.67,222.4L210.59,224.95L211.06,224L211.52,221.11L211.98,225.03L212.44,223.41L212.9,224.57L213.83,224.33L214.29,221.13L215.21,225.47L215.67,224.98L216.14,225.31L217.52,223.04L217.98,223.96L219.37,225.98L219.83,224.89L220.29,226.29L220.75,225.64L221.22,225.47L221.68,226.32L222.14,225.79L222.6,226.07L223.06,225.43L223.52,223.32L223.99,222.69L224.45,225.06L224.91,226.07L225.37,225.73L225.83,225.25L226.3,225.03L226.76,227.09L228.14,227.75L228.6,228.26L229.07,226.66L229.53,227.31L229.99,227.99L230.91,227.06L231.38,228.37L231.84,226.91L232.3,228.53L232.76,228.18L233.22,223.79L233.68,228.53L234.15,227.77L234.61,227.45L235.07,225.45L235.53,227.78L236.46,228.9L236.92,228.35L237.38,229.42L237.84,229.18L238.3,229.21L239.69,227.29L240.15,228.82L240.61,224.86L241.07,228.69L242.46,230.18L242.92,227.85L243.38,230.17L243.84,229.97L244.31,229.05L244.77,219.2L245.23,228.11L245.69,227.34L246.15,230.91L246.62,228.15L247.08,228.68L247.54,230.36L248,226.48L248.46,230.23L249.39,231.87L249.85,226.95L250.31,224.05L250.77,231.43L251.7,229.61L252.16,230.58L252.62,230.06L253.08,231.92L253.54,231.74L254.01,230.72L254.47,231.78L254.93,226.78L255.39,231.82L255.85,228.13L256.31,232.32L256.78,231.84L257.24,231.64L257.7,232.33L258.16,230.43L258.62,232.85L259.09,232.36L259.55,232.27L260.47,232.98L260.93,220.53L261.39,233.28L261.86,230.04L262.32,232.81L262.78,233.44L263.24,232.47L264.63,233.32L265.09,233.04L265.55,234.75L266.01,233.81L266.47,233.55L267.4,233.41L267.86,233.33L268.78,235.41L269.25,231.83L269.71,235.11L270.17,234.35L270.63,234.84L271.09,234.15L271.55,235.18L273.4,233.74L273.86,233.7L274.33,235.05L274.79,234.34L275.25,235.07L276.17,235.28L276.63,235.18L277.1,231.2L277.56,220.55L278.94,236.41L279.41,236.02L279.87,233.84L280.33,234.29L280.79,236.72L282.64,236.01L283.1,234.16L284.49,236.99L284.95,235.24L285.41,237.22L285.87,236.78L286.33,237.85L286.79,238.36L287.26,236.65L287.72,237.5L288.18,233.89L288.64,238.1L289.1,236.41L289.57,237.6L290.03,235.55L290.49,237.4L291.87,238.74L292.34,238.07L292.8,237.33L293.26,238.58L294.18,238.33L294.65,238.51L295.57,237.57L296.03,238.58L296.49,234.27L296.95,237.14L297.42,239.08L297.88,238.84L298.34,239.3L298.8,239.81L299.26,238.06L300.19,239.28L300.65,238.19L301.11,239.93L301.57,223.81L302.5,240.38L302.96,239.08L303.42,239.87L303.88,234.87L305.73,241.21L306.19,240.33L307.12,240.05L307.58,240.91L309.42,238.69L309.89,241.49L310.81,240.89L311.27,239.38L311.73,241.43L312.2,239.76L312.66,241.61L313.12,240.79L313.58,242.02L314.5,241.7L314.97,238.43L315.43,242.48L315.89,241.36L316.35,241.58L317.28,242L317.74,240.46L318.2,242.84L318.66,240.97L319.58,243.05L320.05,242.33L320.51,240.65L320.97,242.6L321.43,243.61L321.89,242.28L323.74,242.8L324.2,233.49L324.66,231.67L325.13,242.23L326.51,243.98L326.97,243.52L327.9,243.09L328.36,240.83L329.74,244.35L330.21,240.58L330.67,244.63L331.13,244.12L331.59,234.14L332.52,245.07L332.98,244.67L334.82,245.17L335.29,242.02L335.75,245.27L336.21,244.69L336.67,245.56L337.6,243.48L338.06,244.62L338.52,245.21L338.98,244.31L339.9,245.99L340.37,245.34L340.83,244.45L341.29,246.45L341.75,244.96L342.21,245.48L342.68,245.36L343.14,246.56L343.6,244.61L344.52,243.93L344.98,245.51L345.45,246.17L345.91,242.56L346.83,247.06L347.29,245.81L348.22,247.07L348.68,245.11L349.14,242.73L349.6,246.68L350.07,247.79L350.53,245.39L351.45,247.41L351.91,247.36L352.37,244.51L352.84,245.61L353.3,246.87L353.76,246.35L354.22,247.56L354.68,245.19L355.15,247.73L355.61,245.67L356.07,247.91L356.99,246.89L357.45,247.77L357.92,246.19L358.38,247.57L359.76,248.43L360.23,245.95L361.15,248.42L361.61,247.69L362.07,246.98L362.53,248.61L363.92,250.19L364.38,244.26L365.31,247.95L365.77,248.83L366.23,249.36L366.69,244.7L367.15,237.1L367.61,247.65L368.54,250.23L369,248.5" style="vector-effect: non-scaling-stroke; fill: none; stroke: rgb(99, 110, 250); stroke-opacity: 1; stroke-width: 2px; opacity: 1;"/></g><g class="points"/><g class="text"/></g><g class="trace scatter tracef62784" style="stroke-miterlimit: 2; opacity: 1;"><g class="fills"/><g class="errorbars"/><g class="lines"><path class="js-line" d="M0,-114.55L2.31,-36.69L2.77,4.74L3.23,12.99L3.69,37.65L5.54,122.78L6,102.16L6.47,134.89L6.93,124.21L7.39,139.22L7.85,118.26L8.31,139.3L9.24,120.98L9.7,127.74L10.16,144.29L10.62,117.22L11.08,118.83L11.55,89.01L12.47,144.79L12.93,137.01L13.39,131.37L13.85,125.69L14.32,82.24L14.78,146.45L15.24,139.74L15.7,128.03L16.63,148.32L17.09,124.17L17.55,148.72L18.01,146.64L18.47,145.11L18.93,131.64L19.4,143.08L20.32,153.9L20.78,146.91L21.24,131.83L21.71,156.51L22.17,151.88L22.63,158.39L24.02,115.83L24.48,150.19L25.4,93.4L25.86,154.84L26.32,128.66L26.79,142.76L27.25,148.36L27.71,156.98L28.17,101.95L29.56,165.81L30.02,163.45L31.4,141.6L31.87,158.23L32.33,137.67L32.79,155.32L33.25,150.72L33.71,122.31L34.18,165.37L34.64,140.2L35.1,166.96L35.56,169.15L36.02,153.91L36.48,168.68L36.95,155.07L37.41,146.01L37.87,149.71L38.33,146.44L38.79,140.6L39.26,174.37L40.18,149.95L40.64,158.29L41.56,170.75L42.03,151.47L42.49,173.77L42.95,143.45L43.41,152.14L43.87,145.38L44.34,165.69L44.8,151.77L45.26,150.12L45.72,175.75L46.18,173.87L46.64,156.9L47.57,146.01L48.03,180.82L48.49,180.44L48.95,152.29L49.42,164.8L49.88,163.74L50.34,158.87L51.26,180.96L51.72,152.6L52.19,151.97L52.65,181.5L53.11,157.88L53.57,171.65L54.03,158.79L54.5,183.7L54.96,154.65L55.42,160.57L55.88,157.5L56.34,154.63L56.8,173.02L57.27,155.35L57.73,186.7L58.19,175.39L58.65,159.96L59.11,186.69L59.58,159.84L60.04,167.7L60.5,158.94L60.96,188.15L61.42,166.72L61.88,166.4L62.35,169.66L63.27,188.42L63.73,180.27L64.19,175.65L64.66,183.48L65.58,168.19L66.04,168.64L66.5,190.03L67.43,181.71L67.89,187.75L68.35,172.27L68.81,184.56L69.27,177.18L69.74,185.01L70.2,168.36L70.66,189.56L72.05,166.7L72.51,166.16L72.97,185.35L73.43,177.61L73.89,184.16L74.35,181L74.82,163.71L75.28,194.74L75.74,180.49L76.2,174.19L77.13,127.74L77.59,166.13L78.05,170.74L78.51,168.59L78.97,196.27L79.43,177.75L79.9,191.35L80.36,162.25L80.82,167.49L81.28,194.19L81.74,192.18L82.21,183.05L82.67,193L83.13,178.2L83.59,192.58L84.05,180.16L85.44,164.32L85.9,190.99L86.82,170.51L87.29,170.86L87.75,170.88L88.21,199.5L88.67,171.27L89.13,178.82L89.59,177.23L90.06,172.15L90.52,197.79L90.98,180.29L91.44,134.79L91.9,176.26L92.37,171.07L92.83,187.06L93.75,179.15L94.21,180.1L94.67,201.69L95.14,183.47L95.6,201.7L96.06,179.05L96.52,194.29L96.98,180.85L97.45,201.58L97.91,198.07L98.37,187.2L98.83,179.07L99.29,191.6L99.75,195.88L100.22,193.05L100.68,201.78L101.14,187.62L101.6,202.7L102.06,185.52L103.91,203.59L104.37,187.28L105.76,202.56L106.22,176.87L106.68,188.4L107.14,178.03L107.61,173.04L108.07,157.28L108.53,201.69L108.99,201.64L109.45,198.59L110.84,141.66L111.3,190.7L112.22,205.07L112.69,182.75L113.15,206.09L113.61,205.33L114.07,205.47L114.53,206.05L114.99,200.31L115.46,177.46L115.92,182.01L116.38,199.69L117.77,165.06L118.23,185.84L118.69,153.55L119.15,207.26L119.61,206.53L120.08,193.1L121,184.22L121.46,190.93L121.92,207.04L122.38,189.72L123.31,205.67L123.77,190.4L124.23,198.61L124.69,177.01L125.16,201.03L125.62,135.94L126.54,209.17L127,205.8L127.93,164.59L128.39,192.55L128.85,192.67L129.31,188.93L129.77,191.08L130.24,179.89L130.7,163.78L131.16,208.53L131.62,182.92L132.08,190.19L132.54,182.86L133.01,128.64L133.47,188.31L133.93,173.8L134.39,185.84L134.85,196.1L135.32,183.75L135.78,206.89L136.24,203.17L136.7,191.81L137.16,209.4L137.62,200.95L138.09,211.15L138.55,179.1L139.01,195.76L139.47,210.1L139.93,209.91L140.4,195.02L140.86,172.92L141.32,195.69L141.78,193.48L142.24,205.55L142.7,192.81L143.17,201.83L144.55,169.05L145.01,212.37L145.48,213.03L145.94,190.93L146.4,180.16L146.86,196.74L147.32,212.02L147.78,193.42L148.25,198.37L148.71,180.42L149.63,212.94L150.09,193.45L150.56,208.59L151.02,182.36L151.48,192.64L151.94,165.86L152.4,201.17L152.86,185.63L153.33,191.2L153.79,169.61L154.25,190.6L154.71,195.64L155.17,210L155.64,214.18L156.1,175.26L157.48,212.34L157.94,212.9L158.41,195.33L158.87,210.65L159.33,191.4L159.79,196.57L160.25,196.29L160.72,196.78L161.18,206.91L161.64,215.6L162.1,210.29L162.56,201.57L163.03,193.75L163.49,216.29L163.95,211.06L164.41,216.62L164.87,203.73L165.33,213.96L165.8,194.64L166.26,202.98L166.72,131.17L167.18,211.53L167.64,201.15L168.11,196.95L169.03,162.86L169.49,203.25L169.95,211.12L170.41,137.55L171.8,215.37L172.26,184.3L172.72,186.69L173.19,172.48L173.65,200.07L174.11,199.19L174.57,153.52L175.03,216.55L175.49,197.61L175.96,194.71L176.42,211.46L176.88,175.86L177.34,211.09L177.8,202.21L178.27,198.15L178.73,197.13L179.19,218.52L180.11,161.72L180.57,205.71L181.04,186.07L181.5,218.14L181.96,200.91L182.42,203.18L182.88,196.82L183.81,216.88L184.27,216.98L185.65,144.68L186.12,195.04L186.58,200.43L187.04,218.36L187.5,200.93L187.96,220.08L188.43,183.86L188.89,188.23L189.35,200.16L189.81,204.18L190.27,170.89L190.73,195.97L191.2,190.6L191.66,203.98L192.12,186.12L192.58,218.12L193.04,209.12L193.51,221.44L193.97,181.92L194.43,207.01L194.89,208.87L195.35,216.02L195.81,186.2L196.28,211.2L197.2,201.32L197.66,218.35L198.59,188.62L199.05,220.11L199.51,221.75L199.97,176.85L200.43,181.36L200.89,194.18L201.36,223.16L201.82,215.06L202.28,184.1L203.2,223.13L203.67,207.6L204.13,222.74L204.59,215.9L205.05,200.53L205.51,213.28L205.97,182.78L206.44,218.1L206.9,191.92L207.36,203.56L207.82,183.08L208.75,224.38L209.21,200.29L210.13,222.03L210.59,207.48L211.06,181.7L211.52,223.89L211.98,207.41L212.44,220.37L212.9,195.25L213.36,225.33L214.29,186.13L214.75,222.8L215.21,213.68L215.67,225.7L217.06,179.84L217.52,198.33L217.98,225.79L218.44,222.35L218.91,216.96L219.37,193.38L219.83,225.35L220.29,205.52L220.75,211.04L221.22,212.02L221.68,208.67L222.14,225.45L223.52,174.48L223.99,196.31L224.91,212.87L225.37,193.88L225.83,193.74L226.3,223.74L226.76,212.02L227.22,222L227.68,220.16L228.14,226.24L228.6,209.2L229.07,213.19L229.53,226.8L229.99,227.29L230.45,218.31L230.91,221.46L231.38,208.51L232.3,228.05L232.76,172.25L233.22,221.08L233.68,213.49L234.15,218.2L234.61,191.45L235.07,211.69L236.92,227.36L237.38,222.8L237.84,215.37L238.3,223.9L239.23,196.78L239.69,212.13L240.15,174.65L240.61,213.6L241.54,220.71L242,219.86L242.46,192.77L242.92,229.32L244.31,147.66L244.77,189.7L245.23,195.22L245.69,211.51L246.62,186.62L247.08,219.54L247.54,184.24L248,216.1L248.46,215.66L248.92,231.29L249.85,157.93L250.31,217.89L251.23,191.53L251.7,212.41L252.16,213.79L252.62,222.97L253.54,211.05L254.01,228.35L254.47,175.37L254.93,212.31L255.39,190.17L255.85,218.05L256.31,228.82L256.78,220.14L257.24,218.06L257.7,185.32L258.16,230.73L258.62,220.99L259.09,218.32L259.55,210.59L260.01,231.16L260.47,144.17L260.93,225.69L261.39,185.89L261.86,220.75L262.32,221.45L262.78,227.6L263.24,210.75L263.7,231.58L264.63,221.6L265.09,233.22L266.94,218.29L267.4,222.9L268.32,234.33L268.78,186.07L269.25,234.54L269.71,223.21L270.17,232.67L270.63,233.57L271.09,224.18L271.55,234.76L272.02,212.63L272.48,219.06L272.94,206.92L273.4,201.87L273.86,223.62L274.33,234.97L274.79,222.37L275.71,233.39L276.17,223.37L277.1,138.25L277.56,167.94L278.02,185.66L278.48,234.68L279.41,217.42L279.87,201.18L280.33,236.55L280.79,223.51L281.25,236.98L281.71,237.07L282.18,204.57L282.64,198.38L283.1,205.33L283.56,232.87L284.02,231.77L284.49,226.41L284.95,236.26L285.41,218.7L285.87,223.53L286.33,237.81L286.79,225.08L287.26,226.88L287.72,182.55L288.18,237.63L288.64,214.45L289.1,230.19L289.57,209.25L290.03,224.19L290.95,233.7L291.41,229.2L291.87,232.78L292.34,223.29L292.8,232.75L293.26,224.29L293.72,239.02L294.18,238.91L294.65,224.16L295.11,217.16L295.57,232.22L296.03,173.18L296.49,201.22L296.95,237.31L297.42,230.05L297.88,236.02L298.8,200.91L299.26,231.78L300.19,227.23L300.65,235.09L301.11,139.46L301.57,236.6L302.04,236.42L302.5,210.73L302.96,240.46L303.42,171.59L304.34,232.6L304.81,229.82L305.27,239.32L305.73,228.07L306.19,233.16L306.65,224.72L307.12,219.6L307.58,228.52L308.96,205.12L309.42,239.07L309.89,240.97L310.35,217.72L310.81,204.41L311.27,229.92L311.73,212.68L312.2,231.42L312.66,226.43L313.12,228.75L313.58,239.07L314.04,241.45L314.5,186.35L314.97,241.1L315.43,235.91L315.89,227.18L316.35,225.75L316.81,242.24L317.28,204.29L317.74,229.7L318.2,210.82L318.66,241.66L319.12,242.71L319.58,228.42L320.05,205.6L320.51,231.03L320.97,241.95L321.43,231.48L322.36,238.43L322.82,208.92L323.28,237.41L323.74,165.79L324.2,155.47L324.66,224.37L325.59,243.84L326.05,232.35L326.97,237.67L327.44,235.44L327.9,190.69L328.36,202.22L328.82,243.37L329.74,192.78L330.21,243.32L330.67,237L331.13,160.47L332.05,242.53L332.52,243.6L332.98,244.97L333.44,230.06L333.9,226.52L334.36,241.65L334.82,210.29L335.29,235.28L335.75,234.73L336.21,245.33L336.67,240.36L337.13,212.09L338.06,240.72L338.52,233.85L338.98,227.66L339.44,241.71L339.9,229.02L340.37,229.1L340.83,243.86L341.29,228.98L341.75,242.33L342.21,226.37L342.68,234.7L343.14,238.9L344.06,210.79L344.52,235.43L344.98,233.38L345.45,192.96L345.91,246.02L346.37,236.01L346.83,241.87L347.76,247.13L348.22,204.83L348.68,186.47L349.14,237.21L349.6,247.62L350.07,214.3L350.53,245.47L350.99,241.69L351.45,239.05L351.91,196.72L352.37,212.63L352.84,243.49L353.3,234.96L353.76,241.86L354.22,212.31L354.68,244.84L355.15,218.1L355.61,236.76L356.07,241.37L356.53,230.89L356.99,235.77L357.45,217.91L358.84,246.34L359.3,243.93L359.76,192.54L360.23,236.77L361.61,221.85L362.07,242.05L362.53,233.97L363,244.69L363.46,236.91L363.92,197.46L365.77,244.14L366.23,193.04L366.69,158.21L367.15,214.88L367.61,247.86L368.08,243.87L368.54,216.79L369,197.7" style="vector-effect: non-scaling-stroke; fill: none; stroke: rgb(239, 85, 59); stroke-opacity: 1; stroke-width: 2px; opacity: 1;"/></g><g class="points"/><g class="text"/></g></g></g><g class="overplot"/><path class="xlines-above crisp" d="M0,0" style="fill: none;"/><path class="ylines-above crisp" d="M0,0" style="fill: none;"/><g class="overlines-above"/><g class="xaxislayer-above"><g class="xtick"><text text-anchor="middle" x="0" y="433" transform="translate(80,0)" style="font-family: 'Open Sans', verdana, arial, sans-serif; font-size: 12px; fill: rgb(42, 63, 95); fill-opacity: 1; white-space: pre;">0</text></g><g class="xtick"><text text-anchor="middle" x="0" y="433" transform="translate(172.37,0)" style="font-family: 'Open Sans', verdana, arial, sans-serif; font-size: 12px; fill: rgb(42, 63, 95); fill-opacity: 1; white-space: pre;">200</text></g><g class="xtick"><text text-anchor="middle" x="0" y="433" transform="translate(264.73,0)" style="font-family: 'Open Sans', verdana, arial, sans-serif; font-size: 12px; fill: rgb(42, 63, 95); fill-opacity: 1; white-space: pre;">400</text></g><g class="xtick"><text text-anchor="middle" x="0" y="433" transform="translate(357.1,0)" style="font-family: 'Open Sans', verdana, arial, sans-serif; font-size: 12px; fill: rgb(42, 63, 95); fill-opacity: 1; white-space: pre;">600</text></g></g><g class="yaxislayer-above"><g class="ytick"><text text-anchor="end" x="79" y="4.199999999999999" transform="translate(0,420)" style="font-family: 'Open Sans', verdana, arial, sans-serif; font-size: 12px; fill: rgb(42, 63, 95); fill-opacity: 1; white-space: pre;">100n</text></g><g class="ytick"><text text-anchor="end" x="79" y="3.15" transform="translate(0,395.92)" style="font-family: 'Open Sans', verdana, arial, sans-serif; font-size: 9px; fill: rgb(42, 63, 95); fill-opacity: 1; white-space: pre;">2</text></g><g class="ytick"><text text-anchor="end" x="79" y="3.15" transform="translate(0,364.08)" style="font-family: 'Open Sans', verdana, arial, sans-serif; font-size: 9px; fill: rgb(42, 63, 95); fill-opacity: 1; white-space: pre;">5</text></g><g class="ytick"><text text-anchor="end" x="79" y="4.199999999999999" transform="translate(0,340)" style="font-family: 'Open Sans', verdana, arial, sans-serif; font-size: 12px; fill: rgb(42, 63, 95); fill-opacity: 1; white-space: pre;">1μ</text></g><g class="ytick"><text text-anchor="end" x="79" y="3.15" transform="translate(0,315.91999999999996)" style="font-family: 'Open Sans', verdana, arial, sans-serif; font-size: 9px; fill: rgb(42, 63, 95); fill-opacity: 1; white-space: pre;">2</text></g><g class="ytick"><text text-anchor="end" x="79" y="3.15" transform="translate(0,284.08000000000004)" style="font-family: 'Open Sans', verdana, arial, sans-serif; font-size: 9px; fill: rgb(42, 63, 95); fill-opacity: 1; white-space: pre;">5</text></g><g class="ytick"><text text-anchor="end" x="79" y="4.199999999999999" transform="translate(0,260)" style="font-family: 'Open Sans', verdana, arial, sans-serif; font-size: 12px; fill: rgb(42, 63, 95); fill-opacity: 1; white-space: pre;">10μ</text></g><g class="ytick"><text text-anchor="end" x="79" y="3.15" transform="translate(0,235.92)" style="font-family: 'Open Sans', verdana, arial, sans-serif; font-size: 9px; fill: rgb(42, 63, 95); fill-opacity: 1; white-space: pre;">2</text></g><g class="ytick"><text text-anchor="end" x="79" y="3.15" transform="translate(0,204.07999999999998)" style="font-family: 'Open Sans', verdana, arial, sans-serif; font-size: 9px; fill: rgb(42, 63, 95); fill-opacity: 1; white-space: pre;">5</text></g><g class="ytick"><text text-anchor="end" x="79" y="4.199999999999999" transform="translate(0,180)" style="font-family: 'Open Sans', verdana, arial, sans-serif; font-size: 12px; fill: rgb(42, 63, 95); fill-opacity: 1; white-space: pre;">100μ</text></g><g class="ytick"><text text-anchor="end" x="79" y="3.15" transform="translate(0,155.92000000000002)" style="font-family: 'Open Sans', verdana, arial, sans-serif; font-size: 9px; fill: rgb(42, 63, 95); fill-opacity: 1; white-space: pre;">2</text></g><g class="ytick"><text text-anchor="end" x="79" y="3.15" transform="translate(0,124.08)" style="font-family: 'Open Sans', verdana, arial, sans-serif; font-size: 9px; fill: rgb(42, 63, 95); fill-opacity: 1; white-space: pre;">5</text></g><g class="ytick"><text text-anchor="end" x="79" y="4.199999999999999" transform="translate(0,100)" style="font-family: 'Open Sans', verdana, arial, sans-serif; font-size: 12px; fill: rgb(42, 63, 95); fill-opacity: 1; white-space: pre;">0.001</text></g></g><g class="overaxes-above"/></g></g><g class="polarlayer"/><g class="ternarylayer"/><g class="geolayer"/><g class="funnelarealayer"/><g class="pielayer"/><g class="treemaplayer"/><g class="sunburstlayer"/><g class="glimages"/><defs id="topdefs-86d3ba"><g class="clips"/><clipPath id="legend86d3ba"><rect width="132" height="48" x="0" y="0"/></clipPath></defs><g class="layer-above"><g class="imagelayer"/><g class="shapelayer"/></g><g class="infolayer"><g class="legend" pointer-events="all" transform="translate(456.38, 100)"><rect class="bg" shape-rendering="crispEdges" width="132" height="48" x="0" y="0" style="stroke: rgb(68, 68, 68); stroke-opacity: 1; fill: rgb(255, 255, 255); fill-opacity: 1; stroke-width: 0px;"/><g class="scrollbox" transform="translate(0, 0)" clip-path="url('#legend86d3ba')"><g class="groups"><g class="traces" transform="translate(0, 14.5)" style="opacity: 1;"><text class="legendtext user-select-none" text-anchor="start" x="40" y="4.680000000000001" style="font-family: 'Open Sans', verdana, arial, sans-serif; font-size: 12px; fill: rgb(42, 63, 95); fill-opacity: 1; white-space: pre;">error training</text><g class="layers" style="opacity: 1;"><g class="legendfill"/><g class="legendlines"><path class="js-line" d="M5,0h30" style="fill: none; stroke: rgb(99, 110, 250); stroke-opacity: 1; stroke-width: 2px;"/></g><g class="legendsymbols"><g class="legendpoints"/></g></g><rect class="legendtoggle" pointer-events="all" x="0" y="-9.5" width="126.46875" height="19" style="cursor: pointer; fill: rgb(0, 0, 0); fill-opacity: 0;"/></g><g class="traces" transform="translate(0, 33.5)" style="opacity: 1;"><text class="legendtext user-select-none" text-anchor="start" x="40" y="4.680000000000001" style="font-family: 'Open Sans', verdana, arial, sans-serif; font-size: 12px; fill: rgb(42, 63, 95); fill-opacity: 1; white-space: pre;">error validation</text><g class="layers" style="opacity: 1;"><g class="legendfill"/><g class="legendlines"><path class="js-line" d="M5,0h30" style="fill: none; stroke: rgb(239, 85, 59); stroke-opacity: 1; stroke-width: 2px;"/></g><g class="legendsymbols"><g class="legendpoints"/></g></g><rect class="legendtoggle" pointer-events="all" x="0" y="-9.5" width="126.46875" height="19" style="cursor: pointer; fill: rgb(0, 0, 0); fill-opacity: 0;"/></g></g></g><rect class="scrollbar" rx="20" ry="3" width="0" height="0" x="0" y="0" style="fill: rgb(128, 139, 164); fill-opacity: 1;"/></g><g class="g-gtitle"/><g class="g-xtitle"><text class="xtitle" x="264.5" y="461.3" text-anchor="middle" style="font-family: 'Open Sans', verdana, arial, sans-serif; font-size: 14px; fill: rgb(42, 63, 95); opacity: 1; font-weight: normal; white-space: pre;">epoch</text></g><g class="g-ytitle"/></g></svg>