<svg class="main-svg" xmlns="http://www.w3.org/2000/svg" xmlns:xlink="http://www.w3.org/1999/xlink" width="600" height="500" viewBox="0 0 600 500"><rect x="0" y="0" width="600" height="500" style="fill: rgb(255, 255, 255); fill-opacity: 1;"/><defs id="defs-f023bb"><g class="clips"><clipPath id="clipf023bbxyplot" class="plotclip"><rect width="436" height="320"/></clipPath><clipPath class="axesclip" id="clipf023bbx"><rect x="80" y="0" width="436" height="500"/></clipPath><clipPath class="axesclip" id="clipf023bby"><rect x="0" y="100" width="600" height="320"/></clipPath><clipPath class="axesclip" id="clipf023bbxy"><rect x="80" y="100" width="436" height="320"/></clipPath><clipPath class="contourclip" id="clip683592"><path d="M0,0.67L436,0.67L436,320L0,320Z"/></clipPath></g><g class="gradients"/></defs><g class="bglayer"><rect class="bg" x="80" y="100" width="436" height="320" style="fill: rgb(229, 236, 246); fill-opacity: 1; stroke-width: 0;"/></g><g class="layer-below"><g class="imagelayer"/><g class="shapelayer"/></g><g class="cartesianlayer"><g class="subplot xy"><g class="layer-subplot"><g class="shapelayer"/><g class="imagelayer"/></g><g class="gridlayer"><g class="x"><path class="xgrid crisp" transform="translate(142.29,0)" d="M0,100v320" style="stroke: rgb(255, 255, 255); stroke-opacity: 1; stroke-width: 1px;"/><path class="xgrid crisp" transform="translate(220.14,0)" d="M0,100v320" style="stroke: rgb(255, 255, 255); stroke-opacity: 1; stroke-width: 1px;"/><path class="xgrid crisp" transform="translate(375.86,0)" d="M0,100v320" style="stroke: rgb(255, 255, 255); stroke-opacity: 1; stroke-width: 1px;"/><path class="xgrid crisp" transform="translate(453.71,0)" d="M0,100v320" style="stroke: rgb(255, 255, 255); stroke-opacity: 1; stroke-width: 1px;"/></g><g class="y"><path class="ygrid crisp" transform="translate(0,405.49)" d="M80,0h436" style="stroke: rgb(255, 255, 255); stroke-opacity: 1; stroke-width: 1px;"/><path class="ygrid crisp" transform="translate(0,332.90999999999997)" d="M80,0h436" style="stroke: rgb(255, 255, 255); stroke-opacity: 1; stroke-width: 1px;"/><path class="ygrid crisp" transform="translate(0,187.76)" d="M80,0h436" style="stroke: rgb(255, 255, 255); stroke-opacity: 1; stroke-width: 1px;"/><path class="ygrid crisp" transform="translate(0,115.19)" d="M80,0h436" style="stroke: rgb(255, 255, 255); stroke-opacity: 1; stroke-width: 1px;"/></g></g><g class="zerolinelayer"><path class="xzl zl crisp" transform="translate(298,0)" d="M0,100v320" style="stroke: rgb(255, 255, 255); stroke-opacity: 1; stroke-width: 2px;"/><path class="yzl zl crisp" transform="translate(0,260.34000000000003)" d="M80,0h436" style="stroke: rgb(255, 255, 255); stroke-opacity: 1; stroke-width: 2px;"/></g><path class="xlines-below"/><path class="ylines-below"/><g class="overlines-below"/><g class="xaxislayer-below"/><g class="yaxislayer-below"/><g class="overaxes-below"/><g class="plot" transform="translate(80, 100)" clip-path="url('#clipf023bbxyplot')"><g class="contourlayer mlayer"><g class="contour" clip-path="url('#clip683592')" style="opacity: 1;"><g class="heatmapcoloring"/><g class="contourbg"><path d="M0,0.67L436,0.67L436,320L0,320Z" style="stroke: none; fill: rgb(103, 0, 31);"/></g><g class="contourfill"><path d="M0,77.47Q4.97,71.56 8.05,67.9C12.18,62.99 17.79,56.31 22.564999999999998,50.635000000000005C27.21,45.11 32.15,39.24 36.32,34.28C39.8,30.14 43.28,26 45.89,22.9C47.69,20.76 48.51,19.78 50.45,17.48Q53.86,13.42 64.59,0.67L436,0.67L436,320L0,320Z" style="stroke: none; fill: rgb(182, 32, 47);"/><path d="M0,162.55Q5.62,155.87 8.93,151.93C13.09,146.98 18.3,140.78 23.005,135.195C27.73,129.58 33.05,123.26 37.2,118.32C40.45,114.45 43.33,111.02 45.89,107.98C47.91,105.57 49.09,104.17 51.33,101.51C54.94,97.22 62.38,88.38 65.47,84.7C66.98,82.9 67.4,82.4 68.84,80.69C71.41,77.63 75.9,72.3 79.6,67.9C83.54,63.22 89.47,56.17 91.79,53.41C92.72,52.31 92.79,52.22 93.74,51.09C96.29,48.05 104,38.88 107.87,34.28C110.57,31.07 112.42,28.88 114.74,26.12C117.13,23.28 119.18,20.83 122,17.48Q125.93,12.8 136.14,0.67L436,0.67L436,320L0,320Z" style="stroke: none; fill: rgb(221, 111, 89);"/><path d="M0,247.63Q6.27,240.18 9.81,235.97C13.98,231.01 18.82,225.26 23.445,219.755C28.24,214.06 33.96,207.25 38.08,202.35C41.09,198.77 43.42,195.99 45.89,193.06C48.11,190.42 49.69,188.55 52.21,185.55C55.99,181.06 63.56,172.06 66.35,168.74C67.52,167.35 67.7,167.12 68.84,165.77C71.29,162.85 76.63,156.51 80.48,151.93C84.28,147.42 89.28,141.48 91.79,138.49C93.05,137 93.32,136.68 94.62,135.13C97.53,131.67 105.03,122.74 108.75,118.32C111.17,115.44 112.59,113.76 114.74,111.2C117.25,108.22 119.79,105.2 122.89,101.51C127.02,96.59 132.59,89.98 137.35000000000002,84.31C142,78.78 146.98,72.86 151.15,67.9C154.61,63.79 158.03,59.73 160.63,56.63C162.46,54.46 163.32,53.44 165.29,51.09C168.73,47 176.11,38.22 179.42,34.28C181.22,32.14 181.89,31.34 183.58,29.34C186.19,26.24 189.95,21.78 193.56,17.48Q197.86,12.36 207.69,0.67L436,0.67L436,320L0,320Z" style="stroke: none; fill: rgb(247, 183, 153);"/><path d="M10.69,320Q20.65,308.17 22.95,305.43C23.85,304.36 23.91,304.28 24.83,303.19C27.35,300.19 35.08,291.01 38.96,286.39C41.68,283.16 43.56,280.91 45.89,278.14C48.27,275.31 50.26,272.95 53.09,269.58C57.17,264.73 63.2,257.56 68.035,251.81C72.6,246.38 77.19,240.93 81.36,235.97C85.05,231.58 89.19,226.66 91.79,223.57C93.34,221.73 93.86,221.1 95.5,219.16C98.69,215.36 106.09,206.56 109.63,202.35C111.76,199.82 112.8,198.59 114.74,196.28C117.32,193.21 120.43,189.52 123.77,185.55C127.93,180.6 133.1,174.45 137.79000000000002,168.87C142.52,163.24 147.89,156.87 152.04,151.93C155.26,148.1 158.08,144.74 160.63,141.71C162.68,139.28 163.9,137.83 166.17,135.13C169.8,130.82 177.24,121.96 180.3,118.32C181.78,116.57 182.17,116.1 183.58,114.42C186.15,111.37 190.72,105.93 194.44,101.51C198.36,96.85 204.18,89.94 206.53,87.14C207.5,85.99 207.58,85.88 208.57,84.7C211.16,81.61 218.86,72.48 222.71,67.9C225.38,64.73 227.17,62.59 229.47,59.85C231.87,56.99 233.96,54.52 236.84,51.09C240.93,46.22 246.87,39.16 251.7,33.425C256.28,27.97 260.94,22.44 265.11,17.48C268.76,13.14 272.77,8.38 275.37,5.28Q276.97,3.38 279.24,0.67L436,0.67L436,320Z" style="stroke: none; fill: rgb(250, 231, 220);"/><path d="M82.24,320Q89.18,311.75 91.79,308.65C93.6,306.5 94.43,305.51 96.38,303.19C99.8,299.12 107.18,290.35 110.51,286.39C112.33,284.22 113.03,283.39 114.74,281.36C117.35,278.26 121.09,273.82 124.65,269.58C128.82,264.62 133.61,258.91 138.23000000000002,253.425C143.03,247.72 148.81,240.86 152.92,235.97C155.9,232.42 158.18,229.71 160.63,226.79C162.87,224.13 164.49,222.2 167.05,219.16C170.84,214.65 178.43,205.61 181.18,202.35C182.31,201.01 182.48,200.82 183.58,199.51C186.02,196.62 191.45,190.15 195.32,185.55C199.1,181.06 204.01,175.23 206.53,172.22C207.82,170.69 208.11,170.33 209.45,168.74C212.39,165.23 219.89,156.33 223.59,151.93C225.97,149.09 227.34,147.46 229.47,144.93C231.99,141.94 234.59,138.85 237.72,135.13C241.86,130.21 247.38,123.64 252.14,117.985C256.8,112.44 261.82,106.47 265.99,101.51C269.42,97.43 272.77,93.45 275.37,90.36C277.22,88.16 278.12,87.09 280.13,84.7C283.59,80.59 290.97,71.81 294.26,67.9C296.02,65.81 296.67,65.05 298.32,63.08C300.93,59.98 304.79,55.38 308.39,51.09C312.56,46.13 317.29,40.51 321.895,35.035C326.71,29.31 332.56,22.36 336.66,17.48C339.59,13.99 341.78,11.39 344.21,8.5Q346.48,5.8 350.8,0.67L436,0.67L436,320Z" style="stroke: none; fill: rgb(226, 237, 243);"/><path d="M153.8,320Q158.32,314.62 160.63,311.87C163.02,309.02 165.07,306.59 167.93,303.19C172.02,298.33 177.99,291.23 182.825,285.49C187.4,280.05 192.03,274.54 196.2,269.58C199.87,265.22 203.93,260.39 206.53,257.3C208.11,255.42 208.66,254.76 210.33,252.77C213.55,248.94 220.96,240.15 224.47,235.97C226.56,233.48 227.55,232.29 229.47,230.01C232.06,226.93 235.23,223.16 238.6,219.16C242.77,214.21 247.89,208.11 252.57999999999998,202.54C257.32,196.91 262.72,190.48 266.87,185.55C270.07,181.75 272.83,178.46 275.37,175.44C277.44,172.98 278.71,171.48 281.01,168.74C284.66,164.4 292.11,155.53 295.14,151.93C296.58,150.22 296.94,149.79 298.32,148.16C300.88,145.12 305.55,139.57 309.28,135.13C313.19,130.48 318.88,123.69 321.26,120.87C322.27,119.67 322.38,119.54 323.41,118.32C326.05,115.18 333.7,106.07 337.54,101.51C340.18,98.38 341.92,96.3 344.21,93.58C346.63,90.7 348.77,88.16 351.68,84.7C355.78,79.83 361.67,72.83 366.485,67.1C371.08,61.64 375.78,56.05 379.95,51.09C383.57,46.78 387.51,42.11 390.11,39.01C391.74,37.07 392.35,36.34 394.08,34.28C397.34,30.4 404.74,21.61 408.22,17.48C410.25,15.06 411.18,13.96 413.05,11.73Q415.65,8.64 422.35,0.67L436,0.67L436,320Z" style="stroke: none; fill: rgb(167, 208, 228);"/><path d="M225.35,320Q227.8,317.09 229.47,315.1C232.08,312 235.89,307.46 239.48,303.19C243.65,298.23 248.41,292.58 253.01999999999998,287.1C257.83,281.38 263.64,274.47 267.75,269.58C270.7,266.07 272.93,263.42 275.37,260.52C277.63,257.84 279.3,255.85 281.89,252.77C285.7,248.24 293.31,239.19 296.02,235.97C297.11,234.67 297.26,234.5 298.32,233.24C300.74,230.37 306.28,223.78 310.16,219.16C313.92,214.69 318.72,208.97 321.26,205.95C322.59,204.37 322.91,203.99 324.29,202.35C327.27,198.81 334.74,189.92 338.42,185.55C340.77,182.75 342.1,181.17 344.21,178.67C346.74,175.66 349.4,172.5 352.56,168.74C356.7,163.81 362.18,157.3 366.925,151.655C371.6,146.1 376.66,140.09 380.83,135.13C384.24,131.08 387.51,127.18 390.11,124.09C391.99,121.86 392.92,120.75 394.96,118.32C398.44,114.18 405.84,105.39 409.1,101.51C410.82,99.46 411.43,98.74 413.05,96.81C415.65,93.71 419.64,88.96 423.23,84.7Q427.25,79.93 436,69.52L436,320Z" style="stroke: none; fill: rgb(85, 158, 201);"/><path d="M296.9,320Q306.71,308.34 311.04,303.19C314.72,298.81 318.66,294.12 321.26,291.03C322.87,289.12 323.46,288.42 325.17,286.39C328.42,282.53 335.82,273.73 339.31,269.58C341.37,267.13 342.32,266 344.21,263.75C346.8,260.66 350.05,256.8 353.44,252.77C357.61,247.82 362.69,241.77 367.365,236.215C372.11,230.57 377.56,224.09 381.71,219.16C384.88,215.39 387.58,212.19 390.11,209.18C392.2,206.69 393.5,205.13 395.84,202.35C399.51,197.99 406.98,189.11 409.98,185.55C411.38,183.89 411.71,183.49 413.05,181.89C415.59,178.86 420.36,173.2 424.11,168.74Q428,164.11 436,154.6L436,320Z" style="stroke: none; fill: rgb(37, 107, 175);"/><path d="M368.46,320Q378.62,307.91 382.59,303.19C385.49,299.75 387.69,297.14 390.11,294.26C392.39,291.55 394.1,289.5 396.72,286.39C400.55,281.84 408.2,272.75 410.86,269.58C411.91,268.33 412.03,268.19 413.05,266.97C415.44,264.13 421.09,257.41 424.99,252.77Q428.73,248.32 436,239.68L436,320Z" style="stroke: none; fill: rgb(5, 48, 97);"/></g><g class="contourlines"><g class="contourlevel"><path class="openline" d="M0,77.47Q4.97,71.56 8.05,67.9C12.18,62.99 17.79,56.31 22.564999999999998,50.635000000000005C27.21,45.11 32.15,39.24 36.32,34.28C39.8,30.14 43.28,26 45.89,22.9C47.69,20.76 48.51,19.78 50.45,17.48Q53.86,13.42 64.59,0.67" style="stroke-miterlimit: 1; vector-effect: non-scaling-stroke; fill: none; stroke: rgb(0, 0, 0); stroke-opacity: 1; stroke-width: 0.5px;"/></g><g class="contourlevel"><path class="openline" d="M0,162.55Q5.62,155.87 8.93,151.93C13.09,146.98 18.3,140.78 23.005,135.195C27.73,129.58 33.05,123.26 37.2,118.32C40.45,114.45 43.33,111.02 45.89,107.98C47.91,105.57 49.09,104.17 51.33,101.51C54.94,97.22 62.38,88.38 65.47,84.7C66.98,82.9 67.4,82.4 68.84,80.69C71.41,77.63 75.9,72.3 79.6,67.9C83.54,63.22 89.47,56.17 91.79,53.41C92.72,52.31 92.79,52.22 93.74,51.09C96.29,48.05 104,38.88 107.87,34.28C110.57,31.07 112.42,28.88 114.74,26.12C117.13,23.28 119.18,20.83 122,17.48Q125.93,12.8 136.14,0.67" style="stroke-miterlimit: 1; vector-effect: non-scaling-stroke; fill: none; stroke: rgb(0, 0, 0); stroke-opacity: 1; stroke-width: 0.5px;"/></g><g class="contourlevel"><path class="openline" d="M0,247.63Q6.27,240.18 9.81,235.97C13.98,231.01 18.82,225.26 23.445,219.755C28.24,214.06 33.96,207.25 38.08,202.35C41.09,198.77 43.42,195.99 45.89,193.06C48.11,190.42 49.69,188.55 52.21,185.55C55.99,181.06 63.56,172.06 66.35,168.74C67.52,167.35 67.7,167.12 68.84,165.77C71.29,162.85 76.63,156.51 80.48,151.93C84.28,147.42 89.28,141.48 91.79,138.49C93.05,137 93.32,136.68 94.62,135.13C97.53,131.67 105.03,122.74 108.75,118.32C111.17,115.44 112.59,113.76 114.74,111.2C117.25,108.22 119.79,105.2 122.89,101.51C127.02,96.59 132.59,89.98 137.35000000000002,84.31C142,78.78 146.98,72.86 151.15,67.9C154.61,63.79 158.03,59.73 160.63,56.63C162.46,54.46 163.32,53.44 165.29,51.09C168.73,47 176.11,38.22 179.42,34.28C181.22,32.14 181.89,31.34 183.58,29.34C186.19,26.24 189.95,21.78 193.56,17.48Q197.86,12.36 207.69,0.67" style="stroke-miterlimit: 1; vector-effect: non-scaling-stroke; fill: none; stroke: rgb(0, 0, 0); stroke-opacity: 1; stroke-width: 0.5px;"/></g><g class="contourlevel"><path class="openline" d="M10.69,320Q20.65,308.17 22.95,305.43C23.85,304.36 23.91,304.28 24.83,303.19C27.35,300.19 35.08,291.01 38.96,286.39C41.68,283.16 43.56,280.91 45.89,278.14C48.27,275.31 50.26,272.95 53.09,269.58C57.17,264.73 63.2,257.56 68.035,251.81C72.6,246.38 77.19,240.93 81.36,235.97C85.05,231.58 89.19,226.66 91.79,223.57C93.34,221.73 93.86,221.1 95.5,219.16C98.69,215.36 106.09,206.56 109.63,202.35C111.76,199.82 112.8,198.59 114.74,196.28C117.32,193.21 120.43,189.52 123.77,185.55C127.93,180.6 133.1,174.45 137.79000000000002,168.87C142.52,163.24 147.89,156.87 152.04,151.93C155.26,148.1 158.08,144.74 160.63,141.71C162.68,139.28 163.9,137.83 166.17,135.13C169.8,130.82 177.24,121.96 180.3,118.32C181.78,116.57 182.17,116.1 183.58,114.42C186.15,111.37 190.72,105.93 194.44,101.51C198.36,96.85 204.18,89.94 206.53,87.14C207.5,85.99 207.58,85.88 208.57,84.7C211.16,81.61 218.86,72.48 222.71,67.9C225.38,64.73 227.17,62.59 229.47,59.85C231.87,56.99 233.96,54.52 236.84,51.09C240.93,46.22 246.87,39.16 251.7,33.425C256.28,27.97 260.94,22.44 265.11,17.48C268.76,13.14 272.77,8.38 275.37,5.28Q276.97,3.38 279.24,0.67" style="stroke-miterlimit: 1; vector-effect: non-scaling-stroke; fill: none; stroke: rgb(0, 0, 0); stroke-opacity: 1; stroke-width: 0.5px;"/></g><g class="contourlevel"><path class="openline" d="M82.24,320Q89.18,311.75 91.79,308.65C93.6,306.5 94.43,305.51 96.38,303.19C99.8,299.12 107.18,290.35 110.51,286.39C112.33,284.22 113.03,283.39 114.74,281.36C117.35,278.26 121.09,273.82 124.65,269.58C128.82,264.62 133.61,258.91 138.23000000000002,253.425C143.03,247.72 148.81,240.86 152.92,235.97C155.9,232.42 158.18,229.71 160.63,226.79C162.87,224.13 164.49,222.2 167.05,219.16C170.84,214.65 178.43,205.61 181.18,202.35C182.31,201.01 182.48,200.82 183.58,199.51C186.02,196.62 191.45,190.15 195.32,185.55C199.1,181.06 204.01,175.23 206.53,172.22C207.82,170.69 208.11,170.33 209.45,168.74C212.39,165.23 219.89,156.33 223.59,151.93C225.97,149.09 227.34,147.46 229.47,144.93C231.99,141.94 234.59,138.85 237.72,135.13C241.86,130.21 247.38,123.64 252.14,117.985C256.8,112.44 261.82,106.47 265.99,101.51C269.42,97.43 272.77,93.45 275.37,90.36C277.22,88.16 278.12,87.09 280.13,84.7C283.59,80.59 290.97,71.81 294.26,67.9C296.02,65.81 296.67,65.05 298.32,63.08C300.93,59.98 304.79,55.38 308.39,51.09C312.56,46.13 317.29,40.51 321.895,35.035C326.71,29.31 332.56,22.36 336.66,17.48C339.59,13.99 341.78,11.39 344.21,8.5Q346.48,5.8 350.8,0.67" style="stroke-miterlimit: 1; vector-effect: non-scaling-stroke; fill: none; stroke: rgb(0, 0, 0); stroke-opacity: 1; stroke-width: 0.5px;"/></g><g class="contourlevel"><path class="openline" d="M153.8,320Q158.32,314.62 160.63,311.87C163.02,309.02 165.07,306.59 167.93,303.19C172.02,298.33 177.99,291.23 182.825,285.49C187.4,280.05 192.03,274.54 196.2,269.58C199.87,265.22 203.93,260.39 206.53,257.3C208.11,255.42 208.66,254.76 210.33,252.77C213.55,248.94 220.96,240.15 224.47,235.97C226.56,233.48 227.55,232.29 229.47,230.01C232.06,226.93 235.23,223.16 238.6,219.16C242.77,214.21 247.89,208.11 252.57999999999998,202.54C257.32,196.91 262.72,190.48 266.87,185.55C270.07,181.75 272.83,178.46 275.37,175.44C277.44,172.98 278.71,171.48 281.01,168.74C284.66,164.4 292.11,155.53 295.14,151.93C296.58,150.22 296.94,149.79 298.32,148.16C300.88,145.12 305.55,139.57 309.28,135.13C313.19,130.48 318.88,123.69 321.26,120.87C322.27,119.67 322.38,119.54 323.41,118.32C326.05,115.18 333.7,106.07 337.54,101.51C340.18,98.38 341.92,96.3 344.21,93.58C346.63,90.7 348.77,88.16 351.68,84.7C355.78,79.83 361.67,72.83 366.485,67.1C371.08,61.64 375.78,56.05 379.95,51.09C383.57,46.78 387.51,42.11 390.11,39.01C391.74,37.07 392.35,36.34 394.08,34.28C397.34,30.4 404.74,21.61 408.22,17.48C410.25,15.06 411.18,13.96 413.05,11.73Q415.65,8.64 422.35,0.67" style="stroke-miterlimit: 1; vector-effect: non-scaling-stroke; fill: none; stroke: rgb(0, 0, 0); stroke-opacity: 1; stroke-width: 0.5px;"/></g><g class="contourlevel"><path class="openline" d="M225.35,320Q227.8,317.09 229.47,315.1C232.08,312 235.89,307.46 239.48,303.19C243.65,298.23 248.41,292.58 253.01999999999998,287.1C257.83,281.38 263.64,274.47 267.75,269.58C270.7,266.07 272.93,263.42 275.37,260.52C277.63,257.84 279.3,255.85 281.89,252.77C285.7,248.24 293.31,239.19 296.02,235.97C297.11,234.67 297.26,234.5 298.32,233.24C300.74,230.37 306.28,223.78 310.16,219.16C313.92,214.69 318.72,208.97 321.26,205.95C322.59,204.37 322.91,203.99 324.29,202.35C327.27,198.81 334.74,189.92 338.42,185.55C340.77,182.75 342.1,181.17 344.21,178.67C346.74,175.66 349.4,172.5 352.56,168.74C356.7,163.81 362.18,157.3 366.925,151.655C371.6,146.1 376.66,140.09 380.83,135.13C384.24,131.08 387.51,127.18 390.11,124.09C391.99,121.86 392.92,120.75 394.96,118.32C398.44,114.18 405.84,105.39 409.1,101.51C410.82,99.46 411.43,98.74 413.05,96.81C415.65,93.71 419.64,88.96 423.23,84.7Q427.25,79.93 436,69.52" style="stroke-miterlimit: 1; vector-effect: non-scaling-stroke; fill: none; stroke: rgb(0, 0, 0); stroke-opacity: 1; stroke-width: 0.5px;"/></g><g class="contourlevel"><path class="openline" d="M296.9,320Q306.71,308.34 311.04,303.19C314.72,298.81 318.66,294.12 321.26,291.03C322.87,289.12 323.46,288.42 325.17,286.39C328.42,282.53 335.82,273.73 339.31,269.58C341.37,267.13 342.32,266 344.21,263.75C346.8,260.66 350.05,256.8 353.44,252.77C357.61,247.82 362.69,241.77 367.365,236.215C372.11,230.57 377.56,224.09 381.71,219.16C384.88,215.39 387.58,212.19 390.11,209.18C392.2,206.69 393.5,205.13 395.84,202.35C399.51,197.99 406.98,189.11 409.98,185.55C411.38,183.89 411.71,183.49 413.05,181.89C415.59,178.86 420.36,173.2 424.11,168.74Q428,164.11 436,154.6" style="stroke-miterlimit: 1; vector-effect: non-scaling-stroke; fill: none; stroke: rgb(0, 0, 0); stroke-opacity: 1; stroke-width: 0.5px;"/></g><g class="contourlevel"><path class="openline" d="M368.46,320Q378.62,307.91 382.59,303.19C385.49,299.75 387.69,297.14 390.11,294.26C392.39,291.55 394.1,289.5 396.72,286.39C400.55,281.84 408.2,272.75 410.86,269.58C411.91,268.33 412.03,268.19 413.05,266.97C415.44,264.13 421.09,257.41 424.99,252.77Q428.73,248.32 436,239.68" style="stroke-miterlimit: 1; vector-effect: non-scaling-stroke; fill: none; stroke: rgb(0, 0, 0); stroke-opacity: 1; stroke-width: 0.5px;"/></g></g></g></g><g class="scatterlayer mlayer"><g class="trace scatter traceb0a40d" style="stroke-miterlimit: 2; opacity: 1;"><g class="fills"/><g class="errorbars"/><g class="lines"/><g class="points"><path class="point" transform="translate(369.44,51.94)" d="M5,0A5,5 0 1,1 0,-5A5,5 0 0,1 5,0Z" style="opacity: 1; stroke-width: 0px; fill: rgb(5, 48, 97); fill-opacity: 1;"/><path class="point" transform="translate(221.04,226.57)" d="M5,0A5,5 0 1,1 0,-5A5,5 0 0,1 5,0Z" style="opacity: 1; stroke-width: 0px; fill: rgb(5, 48, 97); fill-opacity: 1;"/><path class="point" transform="translate(167.21,242.5)" d="M5,0A5,5 0 1,1 0,-5A5,5 0 0,1 5,0Z" style="opacity: 1; stroke-width: 0px; fill: rgb(5, 48, 97); fill-opacity: 1;"/><path class="point" transform="translate(148.39,205.82)" d="M5,0A5,5 0 1,1 0,-5A5,5 0 0,1 5,0Z" style="opacity: 1; stroke-width: 0px; fill: rgb(103, 0, 31); fill-opacity: 1;"/><path class="point" transform="translate(330.79,260)" d="M5,0A5,5 0 1,1 0,-5A5,5 0 0,1 5,0Z" style="opacity: 1; stroke-width: 0px; fill: rgb(5, 48, 97); fill-opacity: 1;"/><path class="point" transform="translate(106.16,85.71)" d="M5,0A5,5 0 1,1 0,-5A5,5 0 0,1 5,0Z" style="opacity: 1; stroke-width: 0px; fill: rgb(103, 0, 31); fill-opacity: 1;"/><path class="point" transform="translate(291.6,202.24)" d="M5,0A5,5 0 1,1 0,-5A5,5 0 0,1 5,0Z" style="opacity: 1; stroke-width: 0px; fill: rgb(5, 48, 97); fill-opacity: 1;"/><path class="point" transform="translate(168.51,111.91)" d="M5,0A5,5 0 1,1 0,-5A5,5 0 0,1 5,0Z" style="opacity: 1; stroke-width: 0px; fill: rgb(103, 0, 31); fill-opacity: 1;"/><path class="point" transform="translate(129.9,142.5)" d="M5,0A5,5 0 1,1 0,-5A5,5 0 0,1 5,0Z" style="opacity: 1; stroke-width: 0px; fill: rgb(103, 0, 31); fill-opacity: 1;"/><path class="point" transform="translate(100.96,212.67)" d="M5,0A5,5 0 1,1 0,-5A5,5 0 0,1 5,0Z" style="opacity: 1; stroke-width: 0px; fill: rgb(103, 0, 31); fill-opacity: 1;"/><path class="point" transform="translate(359.14,265.61)" d="M5,0A5,5 0 1,1 0,-5A5,5 0 0,1 5,0Z" style="opacity: 1; stroke-width: 0px; fill: rgb(5, 48, 97); fill-opacity: 1;"/><path class="point" transform="translate(239.62,22.25)" d="M5,0A5,5 0 1,1 0,-5A5,5 0 0,1 5,0Z" style="opacity: 1; stroke-width: 0px; fill: rgb(103, 0, 31); fill-opacity: 1;"/><path class="point" transform="translate(219.05,111.66)" d="M5,0A5,5 0 1,1 0,-5A5,5 0 0,1 5,0Z" style="opacity: 1; stroke-width: 0px; fill: rgb(103, 0, 31); fill-opacity: 1;"/><path class="point" transform="translate(72.93,173.07)" d="M5,0A5,5 0 1,1 0,-5A5,5 0 0,1 5,0Z" style="opacity: 1; stroke-width: 0px; fill: rgb(103, 0, 31); fill-opacity: 1;"/><path class="point" transform="translate(110.82,167.29)" d="M5,0A5,5 0 1,1 0,-5A5,5 0 0,1 5,0Z" style="opacity: 1; stroke-width: 0px; fill: rgb(103, 0, 31); fill-opacity: 1;"/><path class="point" transform="translate(115.14,45.3)" d="M5,0A5,5 0 1,1 0,-5A5,5 0 0,1 5,0Z" style="opacity: 1; stroke-width: 0px; fill: rgb(103, 0, 31); fill-opacity: 1;"/><path class="point" transform="translate(178.57,195.26)" d="M5,0A5,5 0 1,1 0,-5A5,5 0 0,1 5,0Z" style="opacity: 1; stroke-width: 0px; fill: rgb(103, 0, 31); fill-opacity: 1;"/><path class="point" transform="translate(329.59,117.93)" d="M5,0A5,5 0 1,1 0,-5A5,5 0 0,1 5,0Z" style="opacity: 1; stroke-width: 0px; fill: rgb(5, 48, 97); fill-opacity: 1;"/><path class="point" transform="translate(243.99,111.46)" d="M5,0A5,5 0 1,1 0,-5A5,5 0 0,1 5,0Z" style="opacity: 1; stroke-width: 0px; fill: rgb(103, 0, 31); fill-opacity: 1;"/><path class="point" transform="translate(117.66,58.95)" d="M5,0A5,5 0 1,1 0,-5A5,5 0 0,1 5,0Z" style="opacity: 1; stroke-width: 0px; fill: rgb(103, 0, 31); fill-opacity: 1;"/><path class="point" transform="translate(200.05,64.11)" d="M5,0A5,5 0 1,1 0,-5A5,5 0 0,1 5,0Z" style="opacity: 1; stroke-width: 0px; fill: rgb(103, 0, 31); fill-opacity: 1;"/><path class="point" transform="translate(300.19,38.5)" d="M5,0A5,5 0 1,1 0,-5A5,5 0 0,1 5,0Z" style="opacity: 1; stroke-width: 0px; fill: rgb(103, 0, 31); fill-opacity: 1;"/><path class="point" transform="translate(84.26,260.15)" d="M5,0A5,5 0 1,1 0,-5A5,5 0 0,1 5,0Z" style="opacity: 1; stroke-width: 0px; fill: rgb(103, 0, 31); fill-opacity: 1;"/><path class="point" transform="translate(260.63,144.17)" d="M5,0A5,5 0 1,1 0,-5A5,5 0 0,1 5,0Z" style="opacity: 1; stroke-width: 0px; fill: rgb(5, 48, 97); fill-opacity: 1;"/><path class="point" transform="translate(122.06,181.92)" d="M5,0A5,5 0 1,1 0,-5A5,5 0 0,1 5,0Z" style="opacity: 1; stroke-width: 0px; fill: rgb(103, 0, 31); fill-opacity: 1;"/><path class="point" transform="translate(222.18,227.28)" d="M5,0A5,5 0 1,1 0,-5A5,5 0 0,1 5,0Z" style="opacity: 1; stroke-width: 0px; fill: rgb(5, 48, 97); fill-opacity: 1;"/><path class="point" transform="translate(248.84,241.57)" d="M5,0A5,5 0 1,1 0,-5A5,5 0 0,1 5,0Z" style="opacity: 1; stroke-width: 0px; fill: rgb(5, 48, 97); fill-opacity: 1;"/><path class="point" transform="translate(155.98,291.44)" d="M5,0A5,5 0 1,1 0,-5A5,5 0 0,1 5,0Z" style="opacity: 1; stroke-width: 0px; fill: rgb(5, 48, 97); fill-opacity: 1;"/><path class="point" transform="translate(238.03,33.76)" d="M5,0A5,5 0 1,1 0,-5A5,5 0 0,1 5,0Z" style="opacity: 1; stroke-width: 0px; fill: rgb(103, 0, 31); fill-opacity: 1;"/><path class="point" transform="translate(312.37,103.06)" d="M5,0A5,5 0 1,1 0,-5A5,5 0 0,1 5,0Z" style="opacity: 1; stroke-width: 0px; fill: rgb(5, 48, 97); fill-opacity: 1;"/><path class="point" transform="translate(205.97,113.18)" d="M5,0A5,5 0 1,1 0,-5A5,5 0 0,1 5,0Z" style="opacity: 1; stroke-width: 0px; fill: rgb(103, 0, 31); fill-opacity: 1;"/><path class="point" transform="translate(295.75,151.2)" d="M5,0A5,5 0 1,1 0,-5A5,5 0 0,1 5,0Z" style="opacity: 1; stroke-width: 0px; fill: rgb(5, 48, 97); fill-opacity: 1;"/></g><g class="text"/></g></g></g><g class="overplot"/><path class="xlines-above crisp" d="M0,0" style="fill: none;"/><path class="ylines-above crisp" d="M0,0" style="fill: none;"/><g class="overlines-above"/><g class="xaxislayer-above"><g class="xtick"><text text-anchor="middle" x="0" y="433" transform="translate(142.29,0)" style="font-family: 'Open Sans', verdana, arial, sans-serif; font-size: 12px; fill: rgb(42, 63, 95); fill-opacity: 1; white-space: pre;">−1</text></g><g class="xtick"><text text-anchor="middle" x="0" y="433" transform="translate(220.14,0)" style="font-family: 'Open Sans', verdana, arial, sans-serif; font-size: 12px; fill: rgb(42, 63, 95); fill-opacity: 1; white-space: pre;">−0.5</text></g><g class="xtick"><text text-anchor="middle" x="0" y="433" transform="translate(298,0)" style="font-family: 'Open Sans', verdana, arial, sans-serif; font-size: 12px; fill: rgb(42, 63, 95); fill-opacity: 1; white-space: pre;">0</text></g><g class="xtick"><text text-anchor="middle" x="0" y="433" transform="translate(375.86,0)" style="font-family: 'Open Sans', verdana, arial, sans-serif; font-size: 12px; fill: rgb(42, 63, 95); fill-opacity: 1; white-space: pre;">0.5</text></g><g class="xtick"><text text-anchor="middle" x="0" y="433" transform="translate(453.71,0)" style="font-family: 'Open Sans', verdana, arial, sans-serif; font-size: 12px; fill: rgb(42, 63, 95); fill-opacity: 1; white-space: pre;">1</text></g></g><g class="yaxislayer-above"><g class="ytick"><text text-anchor="end" x="79" y="4.199999999999999" transform="translate(0,405.49)" style="font-family: 'Open Sans', verdana, arial, sans-serif; font-size: 12px; fill: rgb(42, 63, 95); fill-opacity: 1; white-space: pre;">−1</text></g><g class="ytick"><text text-anchor="end" x="79" y="4.199999999999999" transform="translate(0,332.90999999999997)" style="font-family: 'Open Sans', verdana, arial, sans-serif; font-size: 12px; fill: rgb(42, 63, 95); fill-opacity: 1; white-space: pre;">−0.5</text></g><g class="ytick"><text text-anchor="end" x="79" y="4.199999999999999" transform="translate(0,260.34000000000003)" style="font-family: 'Open Sans', verdana, arial, sans-serif; font-size: 12px; fill: rgb(42, 63, 95); fill-opacity: 1; white-space: pre;">0</text></g><g class="ytick"><text text-anchor="end" x="79" y="4.199999999999999" transform="translate(0,187.76)" style="font-family: 'Open Sans', verdana, arial, sans-serif; font-size: 12px; fill: rgb(42, 63, 95); fill-opacity: 1; white-space: pre;">0.5</text></g><g class="ytick"><text text-anchor="end" x="79" y="4.199999999999999" transform="translate(0,115.19)" style="font-family: 'Open Sans', verdana, arial, sans-serif; font-size: 12px; fill: rgb(42, 63, 95); fill-opacity: 1; white-space: pre;">1</text></g></g><g class="overaxes-above"/></g></g><g class="polarlayer"/><g class="ternarylayer"/><g class="geolayer"/><g class="funnelarealayer"/><g class="pielayer"/><g class="treemaplayer"/><g class="sunburstlayer"/><g class="glimages"/><defs id="topdefs-f023bb"><g class="clips"/></defs><g class="layer-above"><g class="imagelayer"/><g class="shapelayer"/></g><g class="infolayer"><g class="cb683592 colorbar" transform="translate(80,100)"><rect class="cbbg" x="445" y="0" width="63.71875" height="320" style="fill: rgb(0, 0, 0); fill-opacity: 0; stroke: rgb(68, 68, 68); stroke-opacity: 1; stroke-width: 0;"/><g class="cbfills" transform="translate(0,10)"><rect class="cbfill" x="455" width="30" y="1" height="299" fill="#67001f" style="stroke: none;"/><rect class="cbfill" x="455" width="30" y="1" height="282" fill="#b6202f" style="stroke: none;"/><rect class="cbfill" x="455" width="30" y="1" height="249" fill="#dd6f59" style="stroke: none;"/><rect class="cbfill" x="455" width="30" y="1" height="216" fill="#f7b799" style="stroke: none;"/><rect class="cbfill" x="455" width="30" y="1" height="182" fill="#fae7dc" style="stroke: none;"/><rect class="cbfill" x="455" width="30" y="1" height="149" fill="#e2edf3" style="stroke: none;"/><rect class="cbfill" x="455" width="30" y="1" height="116" fill="#a7d0e4" style="stroke: none;"/><rect class="cbfill" x="455" width="30" y="1" height="82" fill="#559ec9" style="stroke: none;"/><rect class="cbfill" x="455" width="30" y="1" height="49" fill="#256baf" style="stroke: none;"/><rect class="cbfill" x="455" width="30" y="0" height="17" fill="#053061" style="stroke: none;"/></g><g class="cblines" transform="translate(0,10)"><path class="cbline" d="M455,283.25h30" style="fill: none; stroke: rgb(0, 0, 0); stroke-opacity: 1; stroke-width: 0.5px;"/><path class="cbline" d="M455,250.25h30" style="fill: none; stroke: rgb(0, 0, 0); stroke-opacity: 1; stroke-width: 0.5px;"/><path class="cbline" d="M455,217.25h30" style="fill: none; stroke: rgb(0, 0, 0); stroke-opacity: 1; stroke-width: 0.5px;"/><path class="cbline" d="M455,183.25h30" style="fill: none; stroke: rgb(0, 0, 0); stroke-opacity: 1; stroke-width: 0.5px;"/><path class="cbline" d="M455,150.25h30" style="fill: none; stroke: rgb(0, 0, 0); stroke-opacity: 1; stroke-width: 0.5px;"/><path class="cbline" d="M455,117.25h30" style="fill: none; stroke: rgb(0, 0, 0); stroke-opacity: 1; stroke-width: 0.5px;"/><path class="cbline" d="M455,83.25h30" style="fill: none; stroke: rgb(0, 0, 0); stroke-opacity: 1; stroke-width: 0.5px;"/><path class="cbline" d="M455,50.25h30" style="fill: none; stroke: rgb(0, 0, 0); stroke-opacity: 1; stroke-width: 0.5px;"/><path class="cbline" d="M455,17.25h30" style="fill: none; stroke: rgb(0, 0, 0); stroke-opacity: 1; stroke-width: 0.5px;"/></g><g class="cbaxis crisp" transform="translate(0,-100)"><g class="ycb683592tick"><text text-anchor="start" x="487.9" y="4.199999999999999" transform="translate(0,393.33)" style="font-family: 'Open Sans', verdana, arial, sans-serif; font-size: 12px; fill: rgb(42, 63, 95); fill-opacity: 1; white-space: pre;">−4</text></g><g class="ycb683592tick"><text text-anchor="start" x="487.9" y="4.199999999999999" transform="translate(0,326.66999999999996)" style="font-family: 'Open Sans', verdana, arial, sans-serif; font-size: 12px; fill: rgb(42, 63, 95); fill-opacity: 1; white-space: pre;">−2</text></g><g class="ycb683592tick"><text text-anchor="start" x="487.9" y="4.199999999999999" transform="translate(0,260)" style="font-family: 'Open Sans', verdana, arial, sans-serif; font-size: 12px; fill: rgb(42, 63, 95); fill-opacity: 1; white-space: pre;">0</text></g><g class="ycb683592tick"><text text-anchor="start" x="487.9" y="4.199999999999999" transform="translate(0,193.32999999999998)" style="font-family: 'Open Sans', verdana, arial, sans-serif; font-size: 12px; fill: rgb(42, 63, 95); fill-opacity: 1; white-space: pre;">2</text></g><g class="ycb683592tick"><text text-anchor="start" x="487.9" y="4.199999999999999" transform="translate(0,126.67)" style="font-family: 'Open Sans', verdana, arial, sans-serif; font-size: 12px; fill: rgb(42, 63, 95); fill-opacity: 1; white-space: pre;">4</text></g></g><g class="cbtitleunshift" transform="translate(-80,-100)"><g class="cbtitle"/></g><rect class="cboutline" x="455" y="10" width="30" height="300" style="stroke: rgb(68, 68, 68); stroke-opacity: 1; fill: none; stroke-width: 0;"/></g><g class="g-gtitle"><text class="gtitle" x="30" y="50" text-anchor="start" dy="0em" style="font-family: 'Open Sans', verdana, arial, sans-serif; font-size: 17px; fill: rgb(42, 63, 95); opacity: 1; font-weight: normal; white-space: pre;">Decision function</text></g><g class="g-xtitle"/><g class="g-ytitle"/></g></svg>