<svg class="main-svg" xmlns="http://www.w3.org/2000/svg" xmlns:xlink="http://www.w3.org/1999/xlink" width="600" height="500" viewBox="0 0 600 500"><rect x="0" y="0" width="600" height="500" style="fill: rgb(255, 255, 255); fill-opacity: 1;"/><defs id="defs-7321c2"><g class="clips"><clipPath id="clip7321c2xyplot" class="plotclip"><rect width="436" height="320"/></clipPath><clipPath class="axesclip" id="clip7321c2x"><rect x="80" y="0" width="436" height="500"/></clipPath><clipPath class="axesclip" id="clip7321c2y"><rect x="0" y="100" width="600" height="320"/></clipPath><clipPath class="axesclip" id="clip7321c2xy"><rect x="80" y="100" width="436" height="320"/></clipPath><clipPath class="contourclip" id="clip27aa6d"><path d="M0,0L436,0L436,320L0,320Z"/></clipPath></g><g class="gradients"/></defs><g class="bglayer"><rect class="bg" x="80" y="100" width="436" height="320" style="fill: rgb(229, 236, 246); fill-opacity: 1; stroke-width: 0;"/></g><g class="layer-below"><g class="imagelayer"/><g class="shapelayer"/></g><g class="cartesianlayer"><g class="subplot xy"><g class="layer-subplot"><g class="shapelayer"/><g class="imagelayer"/></g><g class="gridlayer"><g class="x"><path class="xgrid crisp" transform="translate(189,0)" d="M0,100v320" style="stroke: rgb(255, 255, 255); stroke-opacity: 1; stroke-width: 1px;"/><path class="xgrid crisp" transform="translate(407,0)" d="M0,100v320" style="stroke: rgb(255, 255, 255); stroke-opacity: 1; stroke-width: 1px;"/></g><g class="y"><path class="ygrid crisp" transform="translate(0,366.67)" d="M80,0h436" style="stroke: rgb(255, 255, 255); stroke-opacity: 1; stroke-width: 1px;"/><path class="ygrid crisp" transform="translate(0,313.33000000000004)" d="M80,0h436" style="stroke: rgb(255, 255, 255); stroke-opacity: 1; stroke-width: 1px;"/><path class="ygrid crisp" transform="translate(0,206.67000000000002)" d="M80,0h436" style="stroke: rgb(255, 255, 255); stroke-opacity: 1; stroke-width: 1px;"/><path class="ygrid crisp" transform="translate(0,153.32999999999998)" d="M80,0h436" style="stroke: rgb(255, 255, 255); stroke-opacity: 1; stroke-width: 1px;"/></g></g><g class="zerolinelayer"><path class="xzl zl crisp" transform="translate(298,0)" d="M0,100v320" style="stroke: rgb(255, 255, 255); stroke-opacity: 1; stroke-width: 2px;"/><path class="yzl zl crisp" transform="translate(0,260)" d="M80,0h436" style="stroke: rgb(255, 255, 255); stroke-opacity: 1; stroke-width: 2px;"/></g><path class="xlines-below"/><path class="ylines-below"/><g class="overlines-below"/><g class="xaxislayer-below"/><g class="yaxislayer-below"/><g class="overaxes-below"/><g class="plot" transform="translate(80, 100)" clip-path="url('#clip7321c2xyplot')"><g class="contourlayer mlayer"><g class="contour" clip-path="url('#clip27aa6d')" style="opacity: 1;"><g class="heatmapcoloring"/><g class="contourbg"><path d="M0,0L436,0L436,320L0,320Z" style="stroke: none; fill: rgb(103, 0, 31);"/></g><g class="contourfill"><path d="M377.65,320Q371.33,319.79 367.16,319.65C360.99,319.44 351.86,319.14 344.21,318.89C336.56,318.63 328.91,318.38 321.26,318.12C313.61,317.87 305.97,317.61 298.32,317.36C290.67,317.1 283.02,316.85 275.37,316.59C267.72,316.34 260.07,316.08 252.42,315.83C244.77,315.57 237.12,315.32 229.47,315.06C221.82,314.81 214.18,314.55 206.53,314.3C198.88,314.04 191.23,313.79 183.58,313.53C175.93,313.28 168.28,313.02 160.63,312.77C152.98,312.51 145.33,312.26 137.68,312C130.03,311.75 122.39,311.49 114.74,311.24C107.09,310.98 99.44,310.73 91.79,310.47C84.14,310.22 76.49,309.96 68.84,309.71C61.19,309.45 53.54,309.2 45.89,308.94C38.24,308.69 30.6,308.43 22.95,308.18Q15.3,307.92 0,307.41L0,0L436,0L436,320Z" style="stroke: none; fill: rgb(182, 32, 47);"/><path d="M436,284.11Q420.7,283.61 413.05,283.35C405.4,283.1 397.76,282.83 390.11,282.58C382.46,282.32 374.81,282.07 367.16,281.82C359.51,281.56 351.86,281.31 344.21,281.05C336.56,280.8 328.91,280.55 321.26,280.29C313.61,280.04 305.97,279.77 298.32,279.52C290.67,279.26 283.02,279.01 275.37,278.76C267.72,278.5 260.07,278.25 252.42,277.99C244.77,277.74 237.12,277.49 229.47,277.23C221.82,276.98 214.18,276.71 206.53,276.46C198.88,276.2 191.23,275.95 183.58,275.7C175.93,275.44 168.28,275.19 160.63,274.93C152.98,274.68 145.33,274.43 137.68,274.17C130.03,273.92 122.39,273.65 114.74,273.4C107.09,273.14 99.44,272.89 91.79,272.64C84.14,272.38 76.49,272.13 68.84,271.87C61.19,271.62 53.54,271.37 45.89,271.11C38.24,270.86 30.6,270.59 22.95,270.34Q15.3,270.08 0,269.58L0,0L436,0Z" style="stroke: none; fill: rgb(221, 111, 89);"/><path d="M436,246.28Q420.7,245.77 413.05,245.51C405.4,245.26 397.76,245 390.11,244.75C382.46,244.5 374.81,244.24 367.16,243.99C359.51,243.73 351.86,243.48 344.21,243.22C336.56,242.97 328.91,242.72 321.26,242.46C313.61,242.21 305.97,241.94 298.32,241.69C290.67,241.43 283.02,241.18 275.37,240.93C267.72,240.67 260.07,240.42 252.42,240.16C244.77,239.91 237.12,239.66 229.47,239.4C221.82,239.15 214.18,238.88 206.53,238.63C198.88,238.37 191.23,238.12 183.58,237.87C175.93,237.61 168.28,237.36 160.63,237.1C152.98,236.85 144.69,236.57 137.68,236.34C131.76,236.14 125.51,235.93 121.28,235.79C118.61,235.7 117.58,235.66 114.74,235.57C109.42,235.39 99.44,235.06 91.79,234.81C84.14,234.55 76.49,234.3 68.84,234.04C61.19,233.79 53.54,233.54 45.89,233.28C38.24,233.03 30.6,232.76 22.95,232.51Q15.3,232.25 0,231.75L0,0L436,0Z" style="stroke: none; fill: rgb(247, 183, 153);"/><path d="M436,208.45Q420.7,207.94 413.05,207.68C405.4,207.43 397.76,207.17 390.11,206.92C382.46,206.66 374.81,206.41 367.16,206.15C359.51,205.9 351.86,205.64 344.21,205.39C336.56,205.13 328.91,204.88 321.26,204.62C313.61,204.37 305.97,204.11 298.32,203.86C290.67,203.6 283.02,203.35 275.37,203.09C267.72,202.84 257.78,202.51 252.42,202.33C249.53,202.23 248.45,202.2 245.74,202.11C241.5,201.97 235.36,201.76 229.47,201.56C222.48,201.33 214.18,201.05 206.53,200.8C198.88,200.54 191.23,200.29 183.58,200.03C175.93,199.78 168.28,199.52 160.63,199.27C152.98,199.01 145.33,198.76 137.68,198.5C130.03,198.25 122.39,197.99 114.74,197.74C107.09,197.48 99.44,197.23 91.79,196.97C84.14,196.72 76.49,196.46 68.84,196.21C61.19,195.95 53.54,195.7 45.89,195.44C38.24,195.19 30.6,194.93 22.95,194.68Q15.3,194.42 0,193.91L0,0L436,0Z" style="stroke: none; fill: rgb(250, 231, 220);"/><path d="M436,170.61Q420.7,170.11 413.05,169.85C405.4,169.6 397.63,169.33 390.11,169.08C382.84,168.84 376.06,168.61 368.675,168.37C360.79,168.11 352.23,167.83 344.21,167.56C336.44,167.3 328.91,167.05 321.26,166.79C313.61,166.54 305.97,166.28 298.32,166.03C290.67,165.77 283.02,165.52 275.37,165.26C267.72,165.01 260.07,164.75 252.42,164.5C244.77,164.24 237.12,163.99 229.47,163.73C221.82,163.48 214.18,163.22 206.53,162.97C198.88,162.71 191.23,162.46 183.58,162.2C175.93,161.95 168.28,161.69 160.63,161.44C152.98,161.18 145.33,160.93 137.68,160.67C130.03,160.42 122.39,160.16 114.74,159.91C107.09,159.65 99.44,159.4 91.79,159.14C84.14,158.89 76.49,158.63 68.84,158.38C61.19,158.12 53.54,157.87 45.89,157.61C38.24,157.36 30.6,157.1 22.95,156.85Q15.3,156.59 0,156.08L0,0L436,0Z" style="stroke: none; fill: rgb(226, 237, 243);"/><path d="M436,132.78Q420.7,132.28 413.05,132.02C405.4,131.77 397.76,131.5 390.11,131.25C382.46,130.99 374.81,130.74 367.16,130.49C359.51,130.23 351.86,129.98 344.21,129.72C336.56,129.47 328.91,129.22 321.26,128.96C313.61,128.71 305.97,128.44 298.32,128.19C290.67,127.93 283.02,127.68 275.37,127.43C267.72,127.17 260.07,126.92 252.42,126.66C244.77,126.41 237.12,126.16 229.47,125.9C221.82,125.65 214.18,125.38 206.53,125.13C198.88,124.87 191.23,124.62 183.58,124.37C175.93,124.11 168.28,123.86 160.63,123.6C152.98,123.35 145.33,123.1 137.68,122.84C130.03,122.59 122.39,122.32 114.74,122.07C107.09,121.81 99.44,121.56 91.79,121.31C84.14,121.05 76.49,120.8 68.84,120.54C61.19,120.29 53.54,120.04 45.89,119.78C38.24,119.53 30.6,119.26 22.95,119.01Q15.3,118.75 0,118.25L0,0L436,0Z" style="stroke: none; fill: rgb(167, 208, 228);"/><path d="M436,94.95Q420.7,94.44 413.05,94.18C405.4,93.93 397.76,93.67 390.11,93.42C382.46,93.16 374.81,92.91 367.16,92.65C359.51,92.4 351.86,92.14 344.21,91.89C336.56,91.63 328.91,91.38 321.26,91.12C313.61,90.87 305.97,90.61 298.32,90.36C290.67,90.11 283.02,89.85 275.37,89.6C267.72,89.34 260.07,89.09 252.42,88.83C244.77,88.58 237.12,88.33 229.47,88.07C221.82,87.82 214.18,87.55 206.53,87.3C198.88,87.04 191.23,86.79 183.58,86.54C175.93,86.28 168.28,86.03 160.63,85.77C152.98,85.52 145.37,85.27 137.68,85.01C129.92,84.75 122,84.48 114.28,84.225C106.71,83.97 99.32,83.73 91.79,83.48C84.18,83.23 76.49,82.97 68.84,82.71C61.19,82.46 53.54,82.21 45.89,81.95C38.24,81.7 30.6,81.43 22.95,81.18Q15.3,80.92 0,80.42L0,0L436,0Z" style="stroke: none; fill: rgb(85, 158, 201);"/><path d="M436,57.12Q420.7,56.61 413.05,56.35C405.4,56.1 397.76,55.84 390.11,55.59C382.46,55.33 374.81,55.08 367.16,54.82C359.51,54.57 351.86,54.31 344.21,54.06C336.56,53.8 328.91,53.55 321.26,53.29C313.61,53.04 305.97,52.78 298.32,52.53C290.67,52.27 283.02,52.02 275.37,51.76C267.72,51.51 259.15,51.22 252.42,51C247.14,50.82 242.44,50.67 238.28,50.53C235,50.42 233.1,50.35 229.47,50.23C223.62,50.03 214.18,49.72 206.53,49.47C198.88,49.21 191.23,48.96 183.58,48.7C175.93,48.45 168.28,48.19 160.63,47.94C152.98,47.68 145.33,47.43 137.68,47.17C130.03,46.92 122.39,46.66 114.74,46.41C107.09,46.15 99.44,45.9 91.79,45.64C84.14,45.39 76.49,45.13 68.84,44.88C61.19,44.62 53.54,44.37 45.89,44.11C38.24,43.86 30.6,43.6 22.95,43.35Q15.3,43.09 0,42.58L0,0L436,0Z" style="stroke: none; fill: rgb(37, 107, 175);"/><path d="M436,19.28Q420.7,18.78 413.05,18.52C405.4,18.27 397.76,18 390.11,17.75C382.46,17.49 371.83,17.15 367.16,16.99C365.11,16.92 364.71,16.91 362.73,16.84C358.67,16.7 350.71,16.44 344.21,16.22C336.97,15.98 328.91,15.72 321.26,15.46C313.61,15.21 305.97,14.94 298.32,14.69C290.67,14.43 283.02,14.18 275.37,13.93C267.72,13.68 260.07,13.42 252.42,13.17C244.77,12.91 237.12,12.66 229.47,12.4C221.82,12.15 214.18,11.89 206.53,11.64C198.88,11.38 191.23,11.13 183.58,10.87C175.93,10.62 168.28,10.36 160.63,10.11C152.98,9.85 145.33,9.6 137.68,9.34C130.03,9.09 122.39,8.83 114.74,8.58C107.09,8.32 99.44,8.07 91.79,7.81C84.14,7.56 76.49,7.3 68.84,7.05C61.19,6.79 53.54,6.54 45.89,6.28C38.24,6.03 30.6,5.77 22.95,5.52Q15.3,5.26 0,4.75L0,0L436,0Z" style="stroke: none; fill: rgb(5, 48, 97);"/></g><g class="contourlines"><g class="contourlevel"><path class="openline" d="M377.65,320Q371.33,319.79 367.16,319.65C360.99,319.44 351.86,319.14 344.21,318.89C336.56,318.63 328.91,318.38 321.26,318.12C313.61,317.87 305.97,317.61 298.32,317.36C290.67,317.1 283.02,316.85 275.37,316.59C267.72,316.34 260.07,316.08 252.42,315.83C244.77,315.57 237.12,315.32 229.47,315.06C221.82,314.81 214.18,314.55 206.53,314.3C198.88,314.04 191.23,313.79 183.58,313.53C175.93,313.28 168.28,313.02 160.63,312.77C152.98,312.51 145.33,312.26 137.68,312C130.03,311.75 122.39,311.49 114.74,311.24C107.09,310.98 99.44,310.73 91.79,310.47C84.14,310.22 76.49,309.96 68.84,309.71C61.19,309.45 53.54,309.2 45.89,308.94C38.24,308.69 30.6,308.43 22.95,308.18Q15.3,307.92 0,307.41" style="stroke-miterlimit: 1; vector-effect: non-scaling-stroke; fill: none; stroke: rgb(0, 0, 0); stroke-opacity: 1; stroke-width: 0.5px;"/></g><g class="contourlevel"><path class="openline" d="M436,284.11Q420.7,283.61 413.05,283.35C405.4,283.1 397.76,282.83 390.11,282.58C382.46,282.32 374.81,282.07 367.16,281.82C359.51,281.56 351.86,281.31 344.21,281.05C336.56,280.8 328.91,280.55 321.26,280.29C313.61,280.04 305.97,279.77 298.32,279.52C290.67,279.26 283.02,279.01 275.37,278.76C267.72,278.5 260.07,278.25 252.42,277.99C244.77,277.74 237.12,277.49 229.47,277.23C221.82,276.98 214.18,276.71 206.53,276.46C198.88,276.2 191.23,275.95 183.58,275.7C175.93,275.44 168.28,275.19 160.63,274.93C152.98,274.68 145.33,274.43 137.68,274.17C130.03,273.92 122.39,273.65 114.74,273.4C107.09,273.14 99.44,272.89 91.79,272.64C84.14,272.38 76.49,272.13 68.84,271.87C61.19,271.62 53.54,271.37 45.89,271.11C38.24,270.86 30.6,270.59 22.95,270.34Q15.3,270.08 0,269.58" style="stroke-miterlimit: 1; vector-effect: non-scaling-stroke; fill: none; stroke: rgb(0, 0, 0); stroke-opacity: 1; stroke-width: 0.5px;"/></g><g class="contourlevel"><path class="openline" d="M436,246.28Q420.7,245.77 413.05,245.51C405.4,245.26 397.76,245 390.11,244.75C382.46,244.5 374.81,244.24 367.16,243.99C359.51,243.73 351.86,243.48 344.21,243.22C336.56,242.97 328.91,242.72 321.26,242.46C313.61,242.21 305.97,241.94 298.32,241.69C290.67,241.43 283.02,241.18 275.37,240.93C267.72,240.67 260.07,240.42 252.42,240.16C244.77,239.91 237.12,239.66 229.47,239.4C221.82,239.15 214.18,238.88 206.53,238.63C198.88,238.37 191.23,238.12 183.58,237.87C175.93,237.61 168.28,237.36 160.63,237.1C152.98,236.85 144.69,236.57 137.68,236.34C131.76,236.14 125.51,235.93 121.28,235.79C118.61,235.7 117.58,235.66 114.74,235.57C109.42,235.39 99.44,235.06 91.79,234.81C84.14,234.55 76.49,234.3 68.84,234.04C61.19,233.79 53.54,233.54 45.89,233.28C38.24,233.03 30.6,232.76 22.95,232.51Q15.3,232.25 0,231.75" style="stroke-miterlimit: 1; vector-effect: non-scaling-stroke; fill: none; stroke: rgb(0, 0, 0); stroke-opacity: 1; stroke-width: 0.5px;"/></g><g class="contourlevel"><path class="openline" d="M436,208.45Q420.7,207.94 413.05,207.68C405.4,207.43 397.76,207.17 390.11,206.92C382.46,206.66 374.81,206.41 367.16,206.15C359.51,205.9 351.86,205.64 344.21,205.39C336.56,205.13 328.91,204.88 321.26,204.62C313.61,204.37 305.97,204.11 298.32,203.86C290.67,203.6 283.02,203.35 275.37,203.09C267.72,202.84 257.78,202.51 252.42,202.33C249.53,202.23 248.45,202.2 245.74,202.11C241.5,201.97 235.36,201.76 229.47,201.56C222.48,201.33 214.18,201.05 206.53,200.8C198.88,200.54 191.23,200.29 183.58,200.03C175.93,199.78 168.28,199.52 160.63,199.27C152.98,199.01 145.33,198.76 137.68,198.5C130.03,198.25 122.39,197.99 114.74,197.74C107.09,197.48 99.44,197.23 91.79,196.97C84.14,196.72 76.49,196.46 68.84,196.21C61.19,195.95 53.54,195.7 45.89,195.44C38.24,195.19 30.6,194.93 22.95,194.68Q15.3,194.42 0,193.91" style="stroke-miterlimit: 1; vector-effect: non-scaling-stroke; fill: none; stroke: rgb(0, 0, 0); stroke-opacity: 1; stroke-width: 0.5px;"/></g><g class="contourlevel"><path class="openline" d="M436,170.61Q420.7,170.11 413.05,169.85C405.4,169.6 397.63,169.33 390.11,169.08C382.84,168.84 376.06,168.61 368.675,168.37C360.79,168.11 352.23,167.83 344.21,167.56C336.44,167.3 328.91,167.05 321.26,166.79C313.61,166.54 305.97,166.28 298.32,166.03C290.67,165.77 283.02,165.52 275.37,165.26C267.72,165.01 260.07,164.75 252.42,164.5C244.77,164.24 237.12,163.99 229.47,163.73C221.82,163.48 214.18,163.22 206.53,162.97C198.88,162.71 191.23,162.46 183.58,162.2C175.93,161.95 168.28,161.69 160.63,161.44C152.98,161.18 145.33,160.93 137.68,160.67C130.03,160.42 122.39,160.16 114.74,159.91C107.09,159.65 99.44,159.4 91.79,159.14C84.14,158.89 76.49,158.63 68.84,158.38C61.19,158.12 53.54,157.87 45.89,157.61C38.24,157.36 30.6,157.1 22.95,156.85Q15.3,156.59 0,156.08" style="stroke-miterlimit: 1; vector-effect: non-scaling-stroke; fill: none; stroke: rgb(0, 0, 0); stroke-opacity: 1; stroke-width: 0.5px;"/></g><g class="contourlevel"><path class="openline" d="M436,132.78Q420.7,132.28 413.05,132.02C405.4,131.77 397.76,131.5 390.11,131.25C382.46,130.99 374.81,130.74 367.16,130.49C359.51,130.23 351.86,129.98 344.21,129.72C336.56,129.47 328.91,129.22 321.26,128.96C313.61,128.71 305.97,128.44 298.32,128.19C290.67,127.93 283.02,127.68 275.37,127.43C267.72,127.17 260.07,126.92 252.42,126.66C244.77,126.41 237.12,126.16 229.47,125.9C221.82,125.65 214.18,125.38 206.53,125.13C198.88,124.87 191.23,124.62 183.58,124.37C175.93,124.11 168.28,123.86 160.63,123.6C152.98,123.35 145.33,123.1 137.68,122.84C130.03,122.59 122.39,122.32 114.74,122.07C107.09,121.81 99.44,121.56 91.79,121.31C84.14,121.05 76.49,120.8 68.84,120.54C61.19,120.29 53.54,120.04 45.89,119.78C38.24,119.53 30.6,119.26 22.95,119.01Q15.3,118.75 0,118.25" style="stroke-miterlimit: 1; vector-effect: non-scaling-stroke; fill: none; stroke: rgb(0, 0, 0); stroke-opacity: 1; stroke-width: 0.5px;"/></g><g class="contourlevel"><path class="openline" d="M436,94.95Q420.7,94.44 413.05,94.18C405.4,93.93 397.76,93.67 390.11,93.42C382.46,93.16 374.81,92.91 367.16,92.65C359.51,92.4 351.86,92.14 344.21,91.89C336.56,91.63 328.91,91.38 321.26,91.12C313.61,90.87 305.97,90.61 298.32,90.36C290.67,90.11 283.02,89.85 275.37,89.6C267.72,89.34 260.07,89.09 252.42,88.83C244.77,88.58 237.12,88.33 229.47,88.07C221.82,87.82 214.18,87.55 206.53,87.3C198.88,87.04 191.23,86.79 183.58,86.54C175.93,86.28 168.28,86.03 160.63,85.77C152.98,85.52 145.37,85.27 137.68,85.01C129.92,84.75 122,84.48 114.28,84.225C106.71,83.97 99.32,83.73 91.79,83.48C84.18,83.23 76.49,82.97 68.84,82.71C61.19,82.46 53.54,82.21 45.89,81.95C38.24,81.7 30.6,81.43 22.95,81.18Q15.3,80.92 0,80.42" style="stroke-miterlimit: 1; vector-effect: non-scaling-stroke; fill: none; stroke: rgb(0, 0, 0); stroke-opacity: 1; stroke-width: 0.5px;"/></g><g class="contourlevel"><path class="openline" d="M436,57.12Q420.7,56.61 413.05,56.35C405.4,56.1 397.76,55.84 390.11,55.59C382.46,55.33 374.81,55.08 367.16,54.82C359.51,54.57 351.86,54.31 344.21,54.06C336.56,53.8 328.91,53.55 321.26,53.29C313.61,53.04 305.97,52.78 298.32,52.53C290.67,52.27 283.02,52.02 275.37,51.76C267.72,51.51 259.15,51.22 252.42,51C247.14,50.82 242.44,50.67 238.28,50.53C235,50.42 233.1,50.35 229.47,50.23C223.62,50.03 214.18,49.72 206.53,49.47C198.88,49.21 191.23,48.96 183.58,48.7C175.93,48.45 168.28,48.19 160.63,47.94C152.98,47.68 145.33,47.43 137.68,47.17C130.03,46.92 122.39,46.66 114.74,46.41C107.09,46.15 99.44,45.9 91.79,45.64C84.14,45.39 76.49,45.13 68.84,44.88C61.19,44.62 53.54,44.37 45.89,44.11C38.24,43.86 30.6,43.6 22.95,43.35Q15.3,43.09 0,42.58" style="stroke-miterlimit: 1; vector-effect: non-scaling-stroke; fill: none; stroke: rgb(0, 0, 0); stroke-opacity: 1; stroke-width: 0.5px;"/></g><g class="contourlevel"><path class="openline" d="M436,19.28Q420.7,18.78 413.05,18.52C405.4,18.27 397.76,18 390.11,17.75C382.46,17.49 371.83,17.15 367.16,16.99C365.11,16.92 364.71,16.91 362.73,16.84C358.67,16.7 350.71,16.44 344.21,16.22C336.97,15.98 328.91,15.72 321.26,15.46C313.61,15.21 305.97,14.94 298.32,14.69C290.67,14.43 283.02,14.18 275.37,13.93C267.72,13.68 260.07,13.42 252.42,13.17C244.77,12.91 237.12,12.66 229.47,12.4C221.82,12.15 214.18,11.89 206.53,11.64C198.88,11.38 191.23,11.13 183.58,10.87C175.93,10.62 168.28,10.36 160.63,10.11C152.98,9.85 145.33,9.6 137.68,9.34C130.03,9.09 122.39,8.83 114.74,8.58C107.09,8.32 99.44,8.07 91.79,7.81C84.14,7.56 76.49,7.3 68.84,7.05C61.19,6.79 53.54,6.54 45.89,6.28C38.24,6.03 30.6,5.77 22.95,5.52Q15.3,5.26 0,4.75" style="stroke-miterlimit: 1; vector-effect: non-scaling-stroke; fill: none; stroke: rgb(0, 0, 0); stroke-opacity: 1; stroke-width: 0.5px;"/></g></g></g></g><g class="scatterlayer mlayer"><g class="trace scatter trace62c534" style="stroke-miterlimit: 2; opacity: 1;"><g class="fills"/><g class="errorbars"/><g class="lines"/><g class="points"><path class="point" transform="translate(324.01,80.34)" d="M5,0A5,5 0 1,1 0,-5A5,5 0 0,1 5,0Z" style="opacity: 1; stroke-width: 0px; fill: rgb(5, 48, 97); fill-opacity: 1;"/><path class="point" transform="translate(220.12,208.68)" d="M5,0A5,5 0 1,1 0,-5A5,5 0 0,1 5,0Z" style="opacity: 1; stroke-width: 0px; fill: rgb(103, 0, 31); fill-opacity: 1;"/><path class="point" transform="translate(182.45,220.38)" d="M5,0A5,5 0 1,1 0,-5A5,5 0 0,1 5,0Z" style="opacity: 1; stroke-width: 0px; fill: rgb(103, 0, 31); fill-opacity: 1;"/><path class="point" transform="translate(169.27,193.43)" d="M5,0A5,5 0 1,1 0,-5A5,5 0 0,1 5,0Z" style="opacity: 1; stroke-width: 0px; fill: rgb(5, 48, 97); fill-opacity: 1;"/><path class="point" transform="translate(296.95,233.24)" d="M5,0A5,5 0 1,1 0,-5A5,5 0 0,1 5,0Z" style="opacity: 1; stroke-width: 0px; fill: rgb(103, 0, 31); fill-opacity: 1;"/><path class="point" transform="translate(139.71,105.16)" d="M5,0A5,5 0 1,1 0,-5A5,5 0 0,1 5,0Z" style="opacity: 1; stroke-width: 0px; fill: rgb(5, 48, 97); fill-opacity: 1;"/><path class="point" transform="translate(269.52,190.79)" d="M5,0A5,5 0 1,1 0,-5A5,5 0 0,1 5,0Z" style="opacity: 1; stroke-width: 0px; fill: rgb(103, 0, 31); fill-opacity: 1;"/><path class="point" transform="translate(183.36,124.42)" d="M5,0A5,5 0 1,1 0,-5A5,5 0 0,1 5,0Z" style="opacity: 1; stroke-width: 0px; fill: rgb(5, 48, 97); fill-opacity: 1;"/><path class="point" transform="translate(156.33,146.9)" d="M5,0A5,5 0 1,1 0,-5A5,5 0 0,1 5,0Z" style="opacity: 1; stroke-width: 0px; fill: rgb(5, 48, 97); fill-opacity: 1;"/><path class="point" transform="translate(136.07,198.46)" d="M5,0A5,5 0 1,1 0,-5A5,5 0 0,1 5,0Z" style="opacity: 1; stroke-width: 0px; fill: rgb(103, 0, 31); fill-opacity: 1;"/><path class="point" transform="translate(316.8,237.36)" d="M5,0A5,5 0 1,1 0,-5A5,5 0 0,1 5,0Z" style="opacity: 1; stroke-width: 0px; fill: rgb(103, 0, 31); fill-opacity: 1;"/><path class="point" transform="translate(233.13,58.52)" d="M5,0A5,5 0 1,1 0,-5A5,5 0 0,1 5,0Z" style="opacity: 1; stroke-width: 0px; fill: rgb(5, 48, 97); fill-opacity: 1;"/><path class="point" transform="translate(218.73,124.23)" d="M5,0A5,5 0 1,1 0,-5A5,5 0 0,1 5,0Z" style="opacity: 1; stroke-width: 0px; fill: rgb(5, 48, 97); fill-opacity: 1;"/><path class="point" transform="translate(116.45,169.36)" d="M5,0A5,5 0 1,1 0,-5A5,5 0 0,1 5,0Z" style="opacity: 1; stroke-width: 0px; fill: rgb(103, 0, 31); fill-opacity: 1;"/><path class="point" transform="translate(142.98,165.11)" d="M5,0A5,5 0 1,1 0,-5A5,5 0 0,1 5,0Z" style="opacity: 1; stroke-width: 0px; fill: rgb(103, 0, 31); fill-opacity: 1;"/><path class="point" transform="translate(146,75.46)" d="M5,0A5,5 0 1,1 0,-5A5,5 0 0,1 5,0Z" style="opacity: 1; stroke-width: 0px; fill: rgb(5, 48, 97); fill-opacity: 1;"/><path class="point" transform="translate(190.4,185.67)" d="M5,0A5,5 0 1,1 0,-5A5,5 0 0,1 5,0Z" style="opacity: 1; stroke-width: 0px; fill: rgb(5, 48, 97); fill-opacity: 1;"/><path class="point" transform="translate(296.11,128.84)" d="M5,0A5,5 0 1,1 0,-5A5,5 0 0,1 5,0Z" style="opacity: 1; stroke-width: 0px; fill: rgb(5, 48, 97); fill-opacity: 1;"/><path class="point" transform="translate(236.19,124.09)" d="M5,0A5,5 0 1,1 0,-5A5,5 0 0,1 5,0Z" style="opacity: 1; stroke-width: 0px; fill: rgb(103, 0, 31); fill-opacity: 1;"/><path class="point" transform="translate(147.76,85.49)" d="M5,0A5,5 0 1,1 0,-5A5,5 0 0,1 5,0Z" style="opacity: 1; stroke-width: 0px; fill: rgb(5, 48, 97); fill-opacity: 1;"/><path class="point" transform="translate(205.44,89.29)" d="M5,0A5,5 0 1,1 0,-5A5,5 0 0,1 5,0Z" style="opacity: 1; stroke-width: 0px; fill: rgb(5, 48, 97); fill-opacity: 1;"/><path class="point" transform="translate(275.53,70.47)" d="M5,0A5,5 0 1,1 0,-5A5,5 0 0,1 5,0Z" style="opacity: 1; stroke-width: 0px; fill: rgb(5, 48, 97); fill-opacity: 1;"/><path class="point" transform="translate(124.39,233.35)" d="M5,0A5,5 0 1,1 0,-5A5,5 0 0,1 5,0Z" style="opacity: 1; stroke-width: 0px; fill: rgb(103, 0, 31); fill-opacity: 1;"/><path class="point" transform="translate(247.84,148.12)" d="M5,0A5,5 0 1,1 0,-5A5,5 0 0,1 5,0Z" style="opacity: 1; stroke-width: 0px; fill: rgb(103, 0, 31); fill-opacity: 1;"/><path class="point" transform="translate(150.84,175.86)" d="M5,0A5,5 0 1,1 0,-5A5,5 0 0,1 5,0Z" style="opacity: 1; stroke-width: 0px; fill: rgb(103, 0, 31); fill-opacity: 1;"/><path class="point" transform="translate(220.93,209.2)" d="M5,0A5,5 0 1,1 0,-5A5,5 0 0,1 5,0Z" style="opacity: 1; stroke-width: 0px; fill: rgb(103, 0, 31); fill-opacity: 1;"/><path class="point" transform="translate(239.59,219.7)" d="M5,0A5,5 0 1,1 0,-5A5,5 0 0,1 5,0Z" style="opacity: 1; stroke-width: 0px; fill: rgb(103, 0, 31); fill-opacity: 1;"/><path class="point" transform="translate(174.59,256.34)" d="M5,0A5,5 0 1,1 0,-5A5,5 0 0,1 5,0Z" style="opacity: 1; stroke-width: 0px; fill: rgb(103, 0, 31); fill-opacity: 1;"/><path class="point" transform="translate(232.02,66.98)" d="M5,0A5,5 0 1,1 0,-5A5,5 0 0,1 5,0Z" style="opacity: 1; stroke-width: 0px; fill: rgb(5, 48, 97); fill-opacity: 1;"/><path class="point" transform="translate(284.06,117.91)" d="M5,0A5,5 0 1,1 0,-5A5,5 0 0,1 5,0Z" style="opacity: 1; stroke-width: 0px; fill: rgb(5, 48, 97); fill-opacity: 1;"/><path class="point" transform="translate(209.58,125.35)" d="M5,0A5,5 0 1,1 0,-5A5,5 0 0,1 5,0Z" style="opacity: 1; stroke-width: 0px; fill: rgb(5, 48, 97); fill-opacity: 1;"/><path class="point" transform="translate(272.43,153.29)" d="M5,0A5,5 0 1,1 0,-5A5,5 0 0,1 5,0Z" style="opacity: 1; stroke-width: 0px; fill: rgb(103, 0, 31); fill-opacity: 1;"/><path class="point" transform="translate(214.25,260.42)" d="M5,0A5,5 0 1,1 0,-5A5,5 0 0,1 5,0Z" style="opacity: 1; stroke-width: 0px; fill: rgb(103, 0, 31); fill-opacity: 1;"/><path class="point" transform="translate(303.95,89.27)" d="M5,0A5,5 0 1,1 0,-5A5,5 0 0,1 5,0Z" style="opacity: 1; stroke-width: 0px; fill: rgb(5, 48, 97); fill-opacity: 1;"/><path class="point" transform="translate(269.85,74.99)" d="M5,0A5,5 0 1,1 0,-5A5,5 0 0,1 5,0Z" style="opacity: 1; stroke-width: 0px; fill: rgb(5, 48, 97); fill-opacity: 1;"/><path class="point" transform="translate(159.3,228.28)" d="M5,0A5,5 0 1,1 0,-5A5,5 0 0,1 5,0Z" style="opacity: 1; stroke-width: 0px; fill: rgb(103, 0, 31); fill-opacity: 1;"/><path class="point" transform="translate(242.89,263.11)" d="M5,0A5,5 0 1,1 0,-5A5,5 0 0,1 5,0Z" style="opacity: 1; stroke-width: 0px; fill: rgb(103, 0, 31); fill-opacity: 1;"/><path class="point" transform="translate(174.25,124.04)" d="M5,0A5,5 0 1,1 0,-5A5,5 0 0,1 5,0Z" style="opacity: 1; stroke-width: 0px; fill: rgb(5, 48, 97); fill-opacity: 1;"/><path class="point" transform="translate(316.66,92.54)" d="M5,0A5,5 0 1,1 0,-5A5,5 0 0,1 5,0Z" style="opacity: 1; stroke-width: 0px; fill: rgb(5, 48, 97); fill-opacity: 1;"/><path class="point" transform="translate(125.97,237.95)" d="M5,0A5,5 0 1,1 0,-5A5,5 0 0,1 5,0Z" style="opacity: 1; stroke-width: 0px; fill: rgb(103, 0, 31); fill-opacity: 1;"/><path class="point" transform="translate(234.69,228.85)" d="M5,0A5,5 0 1,1 0,-5A5,5 0 0,1 5,0Z" style="opacity: 1; stroke-width: 0px; fill: rgb(103, 0, 31); fill-opacity: 1;"/><path class="point" transform="translate(325.79,241.63)" d="M5,0A5,5 0 1,1 0,-5A5,5 0 0,1 5,0Z" style="opacity: 1; stroke-width: 0px; fill: rgb(103, 0, 31); fill-opacity: 1;"/><path class="point" transform="translate(292.3,263.67)" d="M5,0A5,5 0 1,1 0,-5A5,5 0 0,1 5,0Z" style="opacity: 1; stroke-width: 0px; fill: rgb(103, 0, 31); fill-opacity: 1;"/><path class="point" transform="translate(299.03,74.15)" d="M5,0A5,5 0 1,1 0,-5A5,5 0 0,1 5,0Z" style="opacity: 1; stroke-width: 0px; fill: rgb(5, 48, 97); fill-opacity: 1;"/><path class="point" transform="translate(206.93,134.79)" d="M5,0A5,5 0 1,1 0,-5A5,5 0 0,1 5,0Z" style="opacity: 1; stroke-width: 0px; fill: rgb(5, 48, 97); fill-opacity: 1;"/><path class="point" transform="translate(322.42,181.91)" d="M5,0A5,5 0 1,1 0,-5A5,5 0 0,1 5,0Z" style="opacity: 1; stroke-width: 0px; fill: rgb(5, 48, 97); fill-opacity: 1;"/><path class="point" transform="translate(206.5,216.9)" d="M5,0A5,5 0 1,1 0,-5A5,5 0 0,1 5,0Z" style="opacity: 1; stroke-width: 0px; fill: rgb(103, 0, 31); fill-opacity: 1;"/><path class="point" transform="translate(312.12,208.47)" d="M5,0A5,5 0 1,1 0,-5A5,5 0 0,1 5,0Z" style="opacity: 1; stroke-width: 0px; fill: rgb(5, 48, 97); fill-opacity: 1;"/><path class="point" transform="translate(312.25,178.51)" d="M5,0A5,5 0 1,1 0,-5A5,5 0 0,1 5,0Z" style="opacity: 1; stroke-width: 0px; fill: rgb(5, 48, 97); fill-opacity: 1;"/><path class="point" transform="translate(144.03,166.66)" d="M5,0A5,5 0 1,1 0,-5A5,5 0 0,1 5,0Z" style="opacity: 1; stroke-width: 0px; fill: rgb(103, 0, 31); fill-opacity: 1;"/><path class="point" transform="translate(167.7,65.22)" d="M5,0A5,5 0 1,1 0,-5A5,5 0 0,1 5,0Z" style="opacity: 1; stroke-width: 0px; fill: rgb(5, 48, 97); fill-opacity: 1;"/><path class="point" transform="translate(173.41,234.33)" d="M5,0A5,5 0 1,1 0,-5A5,5 0 0,1 5,0Z" style="opacity: 1; stroke-width: 0px; fill: rgb(103, 0, 31); fill-opacity: 1;"/><path class="point" transform="translate(168.41,82.14)" d="M5,0A5,5 0 1,1 0,-5A5,5 0 0,1 5,0Z" style="opacity: 1; stroke-width: 0px; fill: rgb(5, 48, 97); fill-opacity: 1;"/><path class="point" transform="translate(308.88,106.71)" d="M5,0A5,5 0 1,1 0,-5A5,5 0 0,1 5,0Z" style="opacity: 1; stroke-width: 0px; fill: rgb(5, 48, 97); fill-opacity: 1;"/><path class="point" transform="translate(305.25,261.89)" d="M5,0A5,5 0 1,1 0,-5A5,5 0 0,1 5,0Z" style="opacity: 1; stroke-width: 0px; fill: rgb(103, 0, 31); fill-opacity: 1;"/><path class="point" transform="translate(117.93,74.98)" d="M5,0A5,5 0 1,1 0,-5A5,5 0 0,1 5,0Z" style="opacity: 1; stroke-width: 0px; fill: rgb(5, 48, 97); fill-opacity: 1;"/><path class="point" transform="translate(261.77,123.87)" d="M5,0A5,5 0 1,1 0,-5A5,5 0 0,1 5,0Z" style="opacity: 1; stroke-width: 0px; fill: rgb(103, 0, 31); fill-opacity: 1;"/><path class="point" transform="translate(229.52,112.48)" d="M5,0A5,5 0 1,1 0,-5A5,5 0 0,1 5,0Z" style="opacity: 1; stroke-width: 0px; fill: rgb(5, 48, 97); fill-opacity: 1;"/><path class="point" transform="translate(295.16,136.74)" d="M5,0A5,5 0 1,1 0,-5A5,5 0 0,1 5,0Z" style="opacity: 1; stroke-width: 0px; fill: rgb(5, 48, 97); fill-opacity: 1;"/><path class="point" transform="translate(207.63,203.38)" d="M5,0A5,5 0 1,1 0,-5A5,5 0 0,1 5,0Z" style="opacity: 1; stroke-width: 0px; fill: rgb(103, 0, 31); fill-opacity: 1;"/><path class="point" transform="translate(246.48,158.5)" d="M5,0A5,5 0 1,1 0,-5A5,5 0 0,1 5,0Z" style="opacity: 1; stroke-width: 0px; fill: rgb(103, 0, 31); fill-opacity: 1;"/><path class="point" transform="translate(189.72,237.18)" d="M5,0A5,5 0 1,1 0,-5A5,5 0 0,1 5,0Z" style="opacity: 1; stroke-width: 0px; fill: rgb(103, 0, 31); fill-opacity: 1;"/><path class="point" transform="translate(274.5,62.08)" d="M5,0A5,5 0 1,1 0,-5A5,5 0 0,1 5,0Z" style="opacity: 1; stroke-width: 0px; fill: rgb(5, 48, 97); fill-opacity: 1;"/><path class="point" transform="translate(169.83,110.76)" d="M5,0A5,5 0 1,1 0,-5A5,5 0 0,1 5,0Z" style="opacity: 1; stroke-width: 0px; fill: rgb(5, 48, 97); fill-opacity: 1;"/><path class="point" transform="translate(152.58,129.33)" d="M5,0A5,5 0 1,1 0,-5A5,5 0 0,1 5,0Z" style="opacity: 1; stroke-width: 0px; fill: rgb(5, 48, 97); fill-opacity: 1;"/><path class="point" transform="translate(153.23,255.91)" d="M5,0A5,5 0 1,1 0,-5A5,5 0 0,1 5,0Z" style="opacity: 1; stroke-width: 0px; fill: rgb(103, 0, 31); fill-opacity: 1;"/><path class="point" transform="translate(190.1,263.66)" d="M5,0A5,5 0 1,1 0,-5A5,5 0 0,1 5,0Z" style="opacity: 1; stroke-width: 0px; fill: rgb(103, 0, 31); fill-opacity: 1;"/><path class="point" transform="translate(130.71,53.47)" d="M5,0A5,5 0 1,1 0,-5A5,5 0 0,1 5,0Z" style="opacity: 1; stroke-width: 0px; fill: rgb(5, 48, 97); fill-opacity: 1;"/><path class="point" transform="translate(310.82,92.82)" d="M5,0A5,5 0 1,1 0,-5A5,5 0 0,1 5,0Z" style="opacity: 1; stroke-width: 0px; fill: rgb(5, 48, 97); fill-opacity: 1;"/><path class="point" transform="translate(157.48,245.88)" d="M5,0A5,5 0 1,1 0,-5A5,5 0 0,1 5,0Z" style="opacity: 1; stroke-width: 0px; fill: rgb(103, 0, 31); fill-opacity: 1;"/><path class="point" transform="translate(315.13,104.08)" d="M5,0A5,5 0 1,1 0,-5A5,5 0 0,1 5,0Z" style="opacity: 1; stroke-width: 0px; fill: rgb(5, 48, 97); fill-opacity: 1;"/><path class="point" transform="translate(180.65,69.13)" d="M5,0A5,5 0 1,1 0,-5A5,5 0 0,1 5,0Z" style="opacity: 1; stroke-width: 0px; fill: rgb(5, 48, 97); fill-opacity: 1;"/><path class="point" transform="translate(262.84,254.55)" d="M5,0A5,5 0 1,1 0,-5A5,5 0 0,1 5,0Z" style="opacity: 1; stroke-width: 0px; fill: rgb(103, 0, 31); fill-opacity: 1;"/><path class="point" transform="translate(216.9,182.44)" d="M5,0A5,5 0 1,1 0,-5A5,5 0 0,1 5,0Z" style="opacity: 1; stroke-width: 0px; fill: rgb(103, 0, 31); fill-opacity: 1;"/><path class="point" transform="translate(231.39,110.7)" d="M5,0A5,5 0 1,1 0,-5A5,5 0 0,1 5,0Z" style="opacity: 1; stroke-width: 0px; fill: rgb(5, 48, 97); fill-opacity: 1;"/><path class="point" transform="translate(235.18,258.57)" d="M5,0A5,5 0 1,1 0,-5A5,5 0 0,1 5,0Z" style="opacity: 1; stroke-width: 0px; fill: rgb(103, 0, 31); fill-opacity: 1;"/><path class="point" transform="translate(151.6,124.56)" d="M5,0A5,5 0 1,1 0,-5A5,5 0 0,1 5,0Z" style="opacity: 1; stroke-width: 0px; fill: rgb(5, 48, 97); fill-opacity: 1;"/><path class="point" transform="translate(263.16,198.82)" d="M5,0A5,5 0 1,1 0,-5A5,5 0 0,1 5,0Z" style="opacity: 1; stroke-width: 0px; fill: rgb(103, 0, 31); fill-opacity: 1;"/><path class="point" transform="translate(162.81,87.8)" d="M5,0A5,5 0 1,1 0,-5A5,5 0 0,1 5,0Z" style="opacity: 1; stroke-width: 0px; fill: rgb(5, 48, 97); fill-opacity: 1;"/><path class="point" transform="translate(127.32,105.32)" d="M5,0A5,5 0 1,1 0,-5A5,5 0 0,1 5,0Z" style="opacity: 1; stroke-width: 0px; fill: rgb(5, 48, 97); fill-opacity: 1;"/><path class="point" transform="translate(265.15,171.09)" d="M5,0A5,5 0 1,1 0,-5A5,5 0 0,1 5,0Z" style="opacity: 1; stroke-width: 0px; fill: rgb(103, 0, 31); fill-opacity: 1;"/><path class="point" transform="translate(119.47,123.11)" d="M5,0A5,5 0 1,1 0,-5A5,5 0 0,1 5,0Z" style="opacity: 1; stroke-width: 0px; fill: rgb(103, 0, 31); fill-opacity: 1;"/><path class="point" transform="translate(151.79,65.29)" d="M5,0A5,5 0 1,1 0,-5A5,5 0 0,1 5,0Z" style="opacity: 1; stroke-width: 0px; fill: rgb(5, 48, 97); fill-opacity: 1;"/><path class="point" transform="translate(230.89,89.32)" d="M5,0A5,5 0 1,1 0,-5A5,5 0 0,1 5,0Z" style="opacity: 1; stroke-width: 0px; fill: rgb(5, 48, 97); fill-opacity: 1;"/><path class="point" transform="translate(183.1,222.68)" d="M5,0A5,5 0 1,1 0,-5A5,5 0 0,1 5,0Z" style="opacity: 1; stroke-width: 0px; fill: rgb(103, 0, 31); fill-opacity: 1;"/><path class="point" transform="translate(220.56,55.3)" d="M5,0A5,5 0 1,1 0,-5A5,5 0 0,1 5,0Z" style="opacity: 1; stroke-width: 0px; fill: rgb(5, 48, 97); fill-opacity: 1;"/><path class="point" transform="translate(300.66,246.36)" d="M5,0A5,5 0 1,1 0,-5A5,5 0 0,1 5,0Z" style="opacity: 1; stroke-width: 0px; fill: rgb(103, 0, 31); fill-opacity: 1;"/><path class="point" transform="translate(217.79,138.23)" d="M5,0A5,5 0 1,1 0,-5A5,5 0 0,1 5,0Z" style="opacity: 1; stroke-width: 0px; fill: rgb(5, 48, 97); fill-opacity: 1;"/><path class="point" transform="translate(135.43,182.17)" d="M5,0A5,5 0 1,1 0,-5A5,5 0 0,1 5,0Z" style="opacity: 1; stroke-width: 0px; fill: rgb(103, 0, 31); fill-opacity: 1;"/><path class="point" transform="translate(239.98,168.42)" d="M5,0A5,5 0 1,1 0,-5A5,5 0 0,1 5,0Z" style="opacity: 1; stroke-width: 0px; fill: rgb(103, 0, 31); fill-opacity: 1;"/><path class="point" transform="translate(160.58,244.08)" d="M5,0A5,5 0 1,1 0,-5A5,5 0 0,1 5,0Z" style="opacity: 1; stroke-width: 0px; fill: rgb(103, 0, 31); fill-opacity: 1;"/><path class="point" transform="translate(323.69,265.27)" d="M5,0A5,5 0 1,1 0,-5A5,5 0 0,1 5,0Z" style="opacity: 1; stroke-width: 0px; fill: rgb(103, 0, 31); fill-opacity: 1;"/><path class="point" transform="translate(118.37,106.65)" d="M5,0A5,5 0 1,1 0,-5A5,5 0 0,1 5,0Z" style="opacity: 1; stroke-width: 0px; fill: rgb(5, 48, 97); fill-opacity: 1;"/><path class="point" transform="translate(270.24,53.54)" d="M5,0A5,5 0 1,1 0,-5A5,5 0 0,1 5,0Z" style="opacity: 1; stroke-width: 0px; fill: rgb(5, 48, 97); fill-opacity: 1;"/><path class="point" transform="translate(240.8,233.17)" d="M5,0A5,5 0 1,1 0,-5A5,5 0 0,1 5,0Z" style="opacity: 1; stroke-width: 0px; fill: rgb(103, 0, 31); fill-opacity: 1;"/><path class="point" transform="translate(128.26,84.79)" d="M5,0A5,5 0 1,1 0,-5A5,5 0 0,1 5,0Z" style="opacity: 1; stroke-width: 0px; fill: rgb(5, 48, 97); fill-opacity: 1;"/><path class="point" transform="translate(254.57,204.21)" d="M5,0A5,5 0 1,1 0,-5A5,5 0 0,1 5,0Z" style="opacity: 1; stroke-width: 0px; fill: rgb(103, 0, 31); fill-opacity: 1;"/><path class="point" transform="translate(128.05,199.86)" d="M5,0A5,5 0 1,1 0,-5A5,5 0 0,1 5,0Z" style="opacity: 1; stroke-width: 0px; fill: rgb(103, 0, 31); fill-opacity: 1;"/><path class="point" transform="translate(320.41,93.46)" d="M5,0A5,5 0 1,1 0,-5A5,5 0 0,1 5,0Z" style="opacity: 1; stroke-width: 0px; fill: rgb(5, 48, 97); fill-opacity: 1;"/><path class="point" transform="translate(160.35,174.69)" d="M5,0A5,5 0 1,1 0,-5A5,5 0 0,1 5,0Z" style="opacity: 1; stroke-width: 0px; fill: rgb(5, 48, 97); fill-opacity: 1;"/><path class="point" transform="translate(138.7,248.25)" d="M5,0A5,5 0 1,1 0,-5A5,5 0 0,1 5,0Z" style="opacity: 1; stroke-width: 0px; fill: rgb(103, 0, 31); fill-opacity: 1;"/><path class="point" transform="translate(167.77,230.43)" d="M5,0A5,5 0 1,1 0,-5A5,5 0 0,1 5,0Z" style="opacity: 1; stroke-width: 0px; fill: rgb(103, 0, 31); fill-opacity: 1;"/><path class="point" transform="translate(186.77,67.17)" d="M5,0A5,5 0 1,1 0,-5A5,5 0 0,1 5,0Z" style="opacity: 1; stroke-width: 0px; fill: rgb(5, 48, 97); fill-opacity: 1;"/><path class="point" transform="translate(236.81,217.74)" d="M5,0A5,5 0 1,1 0,-5A5,5 0 0,1 5,0Z" style="opacity: 1; stroke-width: 0px; fill: rgb(103, 0, 31); fill-opacity: 1;"/><path class="point" transform="translate(267.9,115.2)" d="M5,0A5,5 0 1,1 0,-5A5,5 0 0,1 5,0Z" style="opacity: 1; stroke-width: 0px; fill: rgb(5, 48, 97); fill-opacity: 1;"/><path class="point" transform="translate(143.27,115.25)" d="M5,0A5,5 0 1,1 0,-5A5,5 0 0,1 5,0Z" style="opacity: 1; stroke-width: 0px; fill: rgb(5, 48, 97); fill-opacity: 1;"/><path class="point" transform="translate(251.3,166.8)" d="M5,0A5,5 0 1,1 0,-5A5,5 0 0,1 5,0Z" style="opacity: 1; stroke-width: 0px; fill: rgb(103, 0, 31); fill-opacity: 1;"/><path class="point" transform="translate(260.91,177.67)" d="M5,0A5,5 0 1,1 0,-5A5,5 0 0,1 5,0Z" style="opacity: 1; stroke-width: 0px; fill: rgb(103, 0, 31); fill-opacity: 1;"/><path class="point" transform="translate(155.15,209.07)" d="M5,0A5,5 0 1,1 0,-5A5,5 0 0,1 5,0Z" style="opacity: 1; stroke-width: 0px; fill: rgb(103, 0, 31); fill-opacity: 1;"/><path class="point" transform="translate(209.09,133.45)" d="M5,0A5,5 0 1,1 0,-5A5,5 0 0,1 5,0Z" style="opacity: 1; stroke-width: 0px; fill: rgb(5, 48, 97); fill-opacity: 1;"/><path class="point" transform="translate(298.5,94.16)" d="M5,0A5,5 0 1,1 0,-5A5,5 0 0,1 5,0Z" style="opacity: 1; stroke-width: 0px; fill: rgb(5, 48, 97); fill-opacity: 1;"/><path class="point" transform="translate(297.99,146.76)" d="M5,0A5,5 0 1,1 0,-5A5,5 0 0,1 5,0Z" style="opacity: 1; stroke-width: 0px; fill: rgb(5, 48, 97); fill-opacity: 1;"/><path class="point" transform="translate(228.36,201.53)" d="M5,0A5,5 0 1,1 0,-5A5,5 0 0,1 5,0Z" style="opacity: 1; stroke-width: 0px; fill: rgb(103, 0, 31); fill-opacity: 1;"/><path class="point" transform="translate(157.91,165.98)" d="M5,0A5,5 0 1,1 0,-5A5,5 0 0,1 5,0Z" style="opacity: 1; stroke-width: 0px; fill: rgb(5, 48, 97); fill-opacity: 1;"/><path class="point" transform="translate(289.37,236.58)" d="M5,0A5,5 0 1,1 0,-5A5,5 0 0,1 5,0Z" style="opacity: 1; stroke-width: 0px; fill: rgb(103, 0, 31); fill-opacity: 1;"/><path class="point" transform="translate(223.36,139.61)" d="M5,0A5,5 0 1,1 0,-5A5,5 0 0,1 5,0Z" style="opacity: 1; stroke-width: 0px; fill: rgb(5, 48, 97); fill-opacity: 1;"/><path class="point" transform="translate(292.53,190.12)" d="M5,0A5,5 0 1,1 0,-5A5,5 0 0,1 5,0Z" style="opacity: 1; stroke-width: 0px; fill: rgb(103, 0, 31); fill-opacity: 1;"/><path class="point" transform="translate(209.12,204.01)" d="M5,0A5,5 0 1,1 0,-5A5,5 0 0,1 5,0Z" style="opacity: 1; stroke-width: 0px; fill: rgb(103, 0, 31); fill-opacity: 1;"/><path class="point" transform="translate(220.64,239.38)" d="M5,0A5,5 0 1,1 0,-5A5,5 0 0,1 5,0Z" style="opacity: 1; stroke-width: 0px; fill: rgb(103, 0, 31); fill-opacity: 1;"/><path class="point" transform="translate(151.68,144.52)" d="M5,0A5,5 0 1,1 0,-5A5,5 0 0,1 5,0Z" style="opacity: 1; stroke-width: 0px; fill: rgb(5, 48, 97); fill-opacity: 1;"/><path class="point" transform="translate(299.72,86.96)" d="M5,0A5,5 0 1,1 0,-5A5,5 0 0,1 5,0Z" style="opacity: 1; stroke-width: 0px; fill: rgb(5, 48, 97); fill-opacity: 1;"/><path class="point" transform="translate(123.78,200.49)" d="M5,0A5,5 0 1,1 0,-5A5,5 0 0,1 5,0Z" style="opacity: 1; stroke-width: 0px; fill: rgb(103, 0, 31); fill-opacity: 1;"/><path class="point" transform="translate(267.61,75.81)" d="M5,0A5,5 0 1,1 0,-5A5,5 0 0,1 5,0Z" style="opacity: 1; stroke-width: 0px; fill: rgb(5, 48, 97); fill-opacity: 1;"/><path class="point" transform="translate(286.31,123.48)" d="M5,0A5,5 0 1,1 0,-5A5,5 0 0,1 5,0Z" style="opacity: 1; stroke-width: 0px; fill: rgb(5, 48, 97); fill-opacity: 1;"/><path class="point" transform="translate(230.33,135.68)" d="M5,0A5,5 0 1,1 0,-5A5,5 0 0,1 5,0Z" style="opacity: 1; stroke-width: 0px; fill: rgb(103, 0, 31); fill-opacity: 1;"/><path class="point" transform="translate(268.22,246.24)" d="M5,0A5,5 0 1,1 0,-5A5,5 0 0,1 5,0Z" style="opacity: 1; stroke-width: 0px; fill: rgb(103, 0, 31); fill-opacity: 1;"/><path class="point" transform="translate(192.27,172.75)" d="M5,0A5,5 0 1,1 0,-5A5,5 0 0,1 5,0Z" style="opacity: 1; stroke-width: 0px; fill: rgb(5, 48, 97); fill-opacity: 1;"/><path class="point" transform="translate(247.53,226.44)" d="M5,0A5,5 0 1,1 0,-5A5,5 0 0,1 5,0Z" style="opacity: 1; stroke-width: 0px; fill: rgb(103, 0, 31); fill-opacity: 1;"/></g><g class="text"/></g><g class="trace scatter trace93c455" style="stroke-miterlimit: 2; opacity: 1;"><g class="fills"/><g class="errorbars"/><g class="lines"><path class="js-line" d="M109,108.86L116.03,106.7L123.06,110.04L130.1,118.53L137.13,131.31L151.19,164.11L158.23,180.75L165.26,195.26L172.29,206.12L179.32,212.23L186.35,212.95L193.39,208.21L200.42,198.5L207.45,184.81L214.48,168.56L228.55,135.19L235.58,121.5L242.61,111.79L249.65,107.05L256.68,107.77L263.71,113.88L270.74,124.74L277.77,139.25L298.87,188.69L305.9,201.47L312.94,209.96L319.97,213.3L327,211.14" style="vector-effect: non-scaling-stroke; fill: none; stroke: rgb(0, 204, 150); stroke-opacity: 1; stroke-width: 2px; opacity: 1;"/></g><g class="points"/><g class="text"/></g></g></g><g class="overplot"/><path class="xlines-above crisp" d="M0,0" style="fill: none;"/><path class="ylines-above crisp" d="M0,0" style="fill: none;"/><g class="overlines-above"/><g class="xaxislayer-above"><g class="xtick"><text text-anchor="middle" x="0" y="433" transform="translate(80,0)" style="font-family: 'Open Sans', verdana, arial, sans-serif; font-size: 12px; fill: rgb(42, 63, 95); fill-opacity: 1; white-space: pre;">−2</text></g><g class="xtick"><text text-anchor="middle" x="0" y="433" transform="translate(189,0)" style="font-family: 'Open Sans', verdana, arial, sans-serif; font-size: 12px; fill: rgb(42, 63, 95); fill-opacity: 1; white-space: pre;">−1</text></g><g class="xtick"><text text-anchor="middle" x="0" y="433" transform="translate(298,0)" style="font-family: 'Open Sans', verdana, arial, sans-serif; font-size: 12px; fill: rgb(42, 63, 95); fill-opacity: 1; white-space: pre;">0</text></g><g class="xtick"><text text-anchor="middle" x="0" y="433" transform="translate(407,0)" style="font-family: 'Open Sans', verdana, arial, sans-serif; font-size: 12px; fill: rgb(42, 63, 95); fill-opacity: 1; white-space: pre;">1</text></g><g class="xtick"><text text-anchor="middle" x="0" y="433" transform="translate(516,0)" style="font-family: 'Open Sans', verdana, arial, sans-serif; font-size: 12px; fill: rgb(42, 63, 95); fill-opacity: 1; white-space: pre;">2</text></g></g><g class="yaxislayer-above"><g class="ytick"><text text-anchor="end" x="79" y="4.199999999999999" transform="translate(0,420)" style="font-family: 'Open Sans', verdana, arial, sans-serif; font-size: 12px; fill: rgb(42, 63, 95); fill-opacity: 1; white-space: pre;">−1.5</text></g><g class="ytick"><text text-anchor="end" x="79" y="4.199999999999999" transform="translate(0,366.67)" style="font-family: 'Open Sans', verdana, arial, sans-serif; font-size: 12px; fill: rgb(42, 63, 95); fill-opacity: 1; white-space: pre;">−1</text></g><g class="ytick"><text text-anchor="end" x="79" y="4.199999999999999" transform="translate(0,313.33000000000004)" style="font-family: 'Open Sans', verdana, arial, sans-serif; font-size: 12px; fill: rgb(42, 63, 95); fill-opacity: 1; white-space: pre;">−0.5</text></g><g class="ytick"><text text-anchor="end" x="79" y="4.199999999999999" transform="translate(0,260)" style="font-family: 'Open Sans', verdana, arial, sans-serif; font-size: 12px; fill: rgb(42, 63, 95); fill-opacity: 1; white-space: pre;">0</text></g><g class="ytick"><text text-anchor="end" x="79" y="4.199999999999999" transform="translate(0,206.67000000000002)" style="font-family: 'Open Sans', verdana, arial, sans-serif; font-size: 12px; fill: rgb(42, 63, 95); fill-opacity: 1; white-space: pre;">0.5</text></g><g class="ytick"><text text-anchor="end" x="79" y="4.199999999999999" transform="translate(0,153.32999999999998)" style="font-family: 'Open Sans', verdana, arial, sans-serif; font-size: 12px; fill: rgb(42, 63, 95); fill-opacity: 1; white-space: pre;">1</text></g><g class="ytick"><text text-anchor="end" x="79" y="4.199999999999999" transform="translate(0,100)" style="font-family: 'Open Sans', verdana, arial, sans-serif; font-size: 12px; fill: rgb(42, 63, 95); fill-opacity: 1; white-space: pre;">1.5</text></g></g><g class="overaxes-above"/></g></g><g class="polarlayer"/><g class="ternarylayer"/><g class="geolayer"/><g class="funnelarealayer"/><g class="pielayer"/><g class="treemaplayer"/><g class="sunburstlayer"/><g class="glimages"/><defs id="topdefs-7321c2"><g class="clips"/></defs><g class="layer-above"><g class="imagelayer"/><g class="shapelayer"/></g><g class="infolayer"><g class="cb27aa6d colorbar" transform="translate(80,100)"><rect class="cbbg" x="445" y="0" width="63.71875" height="320" style="fill: rgb(0, 0, 0); fill-opacity: 0; stroke: rgb(68, 68, 68); stroke-opacity: 1; stroke-width: 0;"/><g class="cbfills" transform="translate(0,10)"><rect class="cbfill" x="455" width="30" y="1" height="299" fill="#67001f" style="stroke: none;"/><rect class="cbfill" x="455" width="30" y="1" height="282" fill="#b6202f" style="stroke: none;"/><rect class="cbfill" x="455" width="30" y="1" height="249" fill="#dd6f59" style="stroke: none;"/><rect class="cbfill" x="455" width="30" y="1" height="216" fill="#f7b799" style="stroke: none;"/><rect class="cbfill" x="455" width="30" y="1" height="182" fill="#fae7dc" style="stroke: none;"/><rect class="cbfill" x="455" width="30" y="1" height="149" fill="#e2edf3" style="stroke: none;"/><rect class="cbfill" x="455" width="30" y="1" height="116" fill="#a7d0e4" style="stroke: none;"/><rect class="cbfill" x="455" width="30" y="1" height="82" fill="#559ec9" style="stroke: none;"/><rect class="cbfill" x="455" width="30" y="1" height="49" fill="#256baf" style="stroke: none;"/><rect class="cbfill" x="455" width="30" y="0" height="17" fill="#053061" style="stroke: none;"/></g><g class="cblines" transform="translate(0,10)"><path class="cbline" d="M455,283.25h30" style="fill: none; stroke: rgb(0, 0, 0); stroke-opacity: 1; stroke-width: 0.5px;"/><path class="cbline" d="M455,250.25h30" style="fill: none; stroke: rgb(0, 0, 0); stroke-opacity: 1; stroke-width: 0.5px;"/><path class="cbline" d="M455,217.25h30" style="fill: none; stroke: rgb(0, 0, 0); stroke-opacity: 1; stroke-width: 0.5px;"/><path class="cbline" d="M455,183.25h30" style="fill: none; stroke: rgb(0, 0, 0); stroke-opacity: 1; stroke-width: 0.5px;"/><path class="cbline" d="M455,150.25h30" style="fill: none; stroke: rgb(0, 0, 0); stroke-opacity: 1; stroke-width: 0.5px;"/><path class="cbline" d="M455,117.25h30" style="fill: none; stroke: rgb(0, 0, 0); stroke-opacity: 1; stroke-width: 0.5px;"/><path class="cbline" d="M455,83.25h30" style="fill: none; stroke: rgb(0, 0, 0); stroke-opacity: 1; stroke-width: 0.5px;"/><path class="cbline" d="M455,50.25h30" style="fill: none; stroke: rgb(0, 0, 0); stroke-opacity: 1; stroke-width: 0.5px;"/><path class="cbline" d="M455,17.25h30" style="fill: none; stroke: rgb(0, 0, 0); stroke-opacity: 1; stroke-width: 0.5px;"/></g><g class="cbaxis crisp" transform="translate(0,-100)"><g class="ycb27aa6dtick"><text text-anchor="start" x="487.9" y="4.199999999999999" transform="translate(0,393.33)" style="font-family: 'Open Sans', verdana, arial, sans-serif; font-size: 12px; fill: rgb(42, 63, 95); fill-opacity: 1; white-space: pre;">−4</text></g><g class="ycb27aa6dtick"><text text-anchor="start" x="487.9" y="4.199999999999999" transform="translate(0,326.66999999999996)" style="font-family: 'Open Sans', verdana, arial, sans-serif; font-size: 12px; fill: rgb(42, 63, 95); fill-opacity: 1; white-space: pre;">−2</text></g><g class="ycb27aa6dtick"><text text-anchor="start" x="487.9" y="4.199999999999999" transform="translate(0,260)" style="font-family: 'Open Sans', verdana, arial, sans-serif; font-size: 12px; fill: rgb(42, 63, 95); fill-opacity: 1; white-space: pre;">0</text></g><g class="ycb27aa6dtick"><text text-anchor="start" x="487.9" y="4.199999999999999" transform="translate(0,193.32999999999998)" style="font-family: 'Open Sans', verdana, arial, sans-serif; font-size: 12px; fill: rgb(42, 63, 95); fill-opacity: 1; white-space: pre;">2</text></g><g class="ycb27aa6dtick"><text text-anchor="start" x="487.9" y="4.199999999999999" transform="translate(0,126.67)" style="font-family: 'Open Sans', verdana, arial, sans-serif; font-size: 12px; fill: rgb(42, 63, 95); fill-opacity: 1; white-space: pre;">4</text></g></g><g class="cbtitleunshift" transform="translate(-80,-100)"><g class="cbtitle"/></g><rect class="cboutline" x="455" y="10" width="30" height="300" style="stroke: rgb(68, 68, 68); stroke-opacity: 1; fill: none; stroke-width: 0;"/></g><g class="g-gtitle"><text class="gtitle" x="30" y="50" text-anchor="start" dy="0em" style="font-family: 'Open Sans', verdana, arial, sans-serif; font-size: 17px; fill: rgb(42, 63, 95); opacity: 1; font-weight: normal; white-space: pre;">Decision function with linear SVM</text></g><g class="g-xtitle"/><g class="g-ytitle"/></g></svg>